G04 #@! TF.GenerationSoftware,KiCad,Pcbnew,(5.0.0)*
G04 #@! TF.CreationDate,2018-11-29T20:42:49-05:00*
G04 #@! TF.ProjectId,e,652E6B696361645F7063620000000000,rev?*
G04 #@! TF.SameCoordinates,Original*
G04 #@! TF.FileFunction,Legend,Top*
G04 #@! TF.FilePolarity,Positive*
%FSLAX46Y46*%
G04 Gerber Fmt 4.6, Leading zero omitted, Abs format (unit mm)*
G04 Created by KiCad (PCBNEW (5.0.0)) date 11/29/18 20:42:49*
%MOMM*%
%LPD*%
G01*
G04 APERTURE LIST*
%ADD10C,0.010000*%
G04 APERTURE END LIST*
D10*
G04 #@! TO.C,G\002A\002A\002A*
G36*
X28862735Y-1399854D02*
X29224046Y-1400766D01*
X29640291Y-1402156D01*
X30015212Y-1403549D01*
X30501731Y-1405613D01*
X30928232Y-1407911D01*
X31298199Y-1410509D01*
X31615113Y-1413475D01*
X31882458Y-1416874D01*
X32103716Y-1420772D01*
X32282369Y-1425236D01*
X32421900Y-1430332D01*
X32525791Y-1436127D01*
X32597525Y-1442687D01*
X32640585Y-1450077D01*
X32651672Y-1453752D01*
X32721258Y-1472370D01*
X32836449Y-1490629D01*
X32979383Y-1506069D01*
X33089400Y-1514057D01*
X33231330Y-1524715D01*
X33348660Y-1538300D01*
X33427572Y-1552910D01*
X33453858Y-1564217D01*
X33449335Y-1603422D01*
X33398033Y-1635424D01*
X33316617Y-1650345D01*
X33308250Y-1650513D01*
X33223074Y-1672115D01*
X33173634Y-1703254D01*
X33109373Y-1736280D01*
X33009737Y-1762382D01*
X32948884Y-1770832D01*
X32816292Y-1795882D01*
X32730597Y-1840202D01*
X32725075Y-1845577D01*
X32652783Y-1891954D01*
X32594025Y-1905000D01*
X32518453Y-1924280D01*
X32480250Y-1952625D01*
X32422374Y-1986165D01*
X32338389Y-2000249D01*
X32337769Y-2000250D01*
X32236878Y-2020476D01*
X32154086Y-2063750D01*
X32087067Y-2108171D01*
X32037386Y-2127237D01*
X32036627Y-2127250D01*
X31975739Y-2141053D01*
X31883064Y-2175768D01*
X31780909Y-2221354D01*
X31691583Y-2267769D01*
X31637393Y-2304974D01*
X31634316Y-2308336D01*
X31580707Y-2341805D01*
X31494743Y-2368172D01*
X31475566Y-2371638D01*
X31390846Y-2393439D01*
X31335530Y-2423142D01*
X31329718Y-2430146D01*
X31282961Y-2467614D01*
X31227534Y-2489184D01*
X31159685Y-2515687D01*
X31061049Y-2565137D01*
X30965191Y-2619646D01*
X30864094Y-2676244D01*
X30778953Y-2716174D01*
X30730344Y-2730418D01*
X30670386Y-2749141D01*
X30598336Y-2793999D01*
X30533331Y-2838244D01*
X30487727Y-2857474D01*
X30486817Y-2857500D01*
X30442826Y-2879347D01*
X30416500Y-2905125D01*
X30360881Y-2945548D01*
X30330307Y-2952750D01*
X30273892Y-2971275D01*
X30203407Y-3015862D01*
X30202913Y-3016250D01*
X30127952Y-3061346D01*
X30062968Y-3079750D01*
X30013758Y-3094613D01*
X30003750Y-3113120D01*
X29977324Y-3146172D01*
X29912305Y-3184392D01*
X29898035Y-3190660D01*
X29814550Y-3234337D01*
X29754207Y-3280934D01*
X29751272Y-3284290D01*
X29688814Y-3326061D01*
X29650612Y-3333750D01*
X29601154Y-3346880D01*
X29591000Y-3363360D01*
X29564700Y-3395217D01*
X29524225Y-3414164D01*
X29484133Y-3429706D01*
X29433118Y-3456510D01*
X29359682Y-3501466D01*
X29252329Y-3571465D01*
X29167348Y-3628019D01*
X29102013Y-3673160D01*
X29019942Y-3731629D01*
X29010367Y-3738562D01*
X28939917Y-3784888D01*
X28890328Y-3809016D01*
X28884426Y-3810000D01*
X28846027Y-3827925D01*
X28775378Y-3874248D01*
X28711404Y-3921124D01*
X28625142Y-3981815D01*
X28554784Y-4022178D01*
X28524386Y-4032250D01*
X28471263Y-4056019D01*
X28457515Y-4072029D01*
X28418674Y-4110968D01*
X28349017Y-4165780D01*
X28268359Y-4222543D01*
X28196516Y-4267333D01*
X28153307Y-4286228D01*
X28152605Y-4286249D01*
X28115022Y-4305635D01*
X28070769Y-4341812D01*
X27972019Y-4426263D01*
X27887314Y-4485143D01*
X27831144Y-4508448D01*
X27829429Y-4508500D01*
X27787751Y-4528728D01*
X27721039Y-4580013D01*
X27685074Y-4612283D01*
X27589126Y-4694445D01*
X27476090Y-4780226D01*
X27432000Y-4810628D01*
X27346634Y-4871190D01*
X27283346Y-4923483D01*
X27263734Y-4944970D01*
X27214955Y-4981386D01*
X27195694Y-4984750D01*
X27146767Y-5010041D01*
X27137086Y-5026332D01*
X27104774Y-5062326D01*
X27032676Y-5121846D01*
X26934350Y-5193969D01*
X26898185Y-5218856D01*
X26793826Y-5293305D01*
X26710985Y-5359493D01*
X26663368Y-5406216D01*
X26657741Y-5415398D01*
X26619243Y-5456819D01*
X26599558Y-5461881D01*
X26553596Y-5483606D01*
X26487486Y-5536944D01*
X26463625Y-5560171D01*
X26380456Y-5634584D01*
X26296125Y-5694540D01*
X26281062Y-5702980D01*
X26219738Y-5743834D01*
X26193756Y-5778947D01*
X26193750Y-5779315D01*
X26169249Y-5808976D01*
X26159557Y-5810250D01*
X26116672Y-5830855D01*
X26053257Y-5881937D01*
X26036868Y-5897562D01*
X25954173Y-5974265D01*
X25856783Y-6058178D01*
X25829945Y-6080125D01*
X25621404Y-6253750D01*
X25383325Y-6462158D01*
X25129151Y-6693388D01*
X24920124Y-6889750D01*
X24811540Y-6992480D01*
X24714704Y-7082683D01*
X24642053Y-7148851D01*
X24611270Y-7175500D01*
X24504841Y-7266399D01*
X24362737Y-7395271D01*
X24193096Y-7554128D01*
X24004060Y-7734983D01*
X23803770Y-7929847D01*
X23600364Y-8130732D01*
X23401984Y-8329651D01*
X23216769Y-8518617D01*
X23052861Y-8689640D01*
X22918399Y-8834734D01*
X22903525Y-8851254D01*
X22737915Y-9035793D01*
X22606836Y-9181385D01*
X22502558Y-9296478D01*
X22417350Y-9389518D01*
X22343484Y-9468955D01*
X22273229Y-9543235D01*
X22209125Y-9610139D01*
X22041420Y-9788738D01*
X21882788Y-9965657D01*
X21747183Y-10125087D01*
X21677558Y-10212419D01*
X21619518Y-10280626D01*
X21570842Y-10325927D01*
X21567329Y-10328265D01*
X21530405Y-10368558D01*
X21526500Y-10383827D01*
X21506504Y-10422486D01*
X21455234Y-10488972D01*
X21412199Y-10537824D01*
X21318994Y-10638910D01*
X21221075Y-10745271D01*
X21189949Y-10779125D01*
X21127772Y-10851564D01*
X21088756Y-10906206D01*
X21082000Y-10922587D01*
X21068068Y-10951680D01*
X21023624Y-11010396D01*
X20944690Y-11103543D01*
X20827291Y-11235927D01*
X20772437Y-11296779D01*
X20723569Y-11358197D01*
X20701154Y-11400931D01*
X20701000Y-11402886D01*
X20680690Y-11443385D01*
X20640247Y-11490752D01*
X20595688Y-11541330D01*
X20524472Y-11628762D01*
X20437893Y-11738992D01*
X20378743Y-11816190D01*
X20274878Y-11953114D01*
X20202148Y-12048822D01*
X20153306Y-12112686D01*
X20121103Y-12154077D01*
X20098292Y-12182365D01*
X20077623Y-12206922D01*
X20066000Y-12220528D01*
X20013244Y-12291053D01*
X19970750Y-12357135D01*
X19916436Y-12440006D01*
X19851560Y-12527585D01*
X19850177Y-12529319D01*
X19780795Y-12620208D01*
X19687565Y-12747845D01*
X19581892Y-12896162D01*
X19475182Y-13049090D01*
X19378840Y-13190563D01*
X19349466Y-13234724D01*
X19272321Y-13349872D01*
X19213744Y-13431469D01*
X19158546Y-13499745D01*
X19105562Y-13559525D01*
X19062893Y-13623862D01*
X19050000Y-13668685D01*
X19027593Y-13724342D01*
X18986500Y-13770991D01*
X18938541Y-13824402D01*
X18923000Y-13861010D01*
X18901500Y-13907639D01*
X18862355Y-13951540D01*
X18806407Y-14025787D01*
X18782375Y-14083461D01*
X18757680Y-14141796D01*
X18734200Y-14160500D01*
X18706340Y-14186928D01*
X18663444Y-14255490D01*
X18624507Y-14331410D01*
X18573177Y-14426578D01*
X18523874Y-14496286D01*
X18495201Y-14520914D01*
X18455359Y-14564245D01*
X18446750Y-14604314D01*
X18423779Y-14673774D01*
X18383250Y-14723491D01*
X18335119Y-14779229D01*
X18319750Y-14819427D01*
X18294274Y-14866453D01*
X18274065Y-14878523D01*
X18234566Y-14919806D01*
X18208524Y-14986458D01*
X18178689Y-15066066D01*
X18143084Y-15114693D01*
X18104002Y-15166338D01*
X18097500Y-15191980D01*
X18079188Y-15242911D01*
X18035038Y-15310838D01*
X18034000Y-15312163D01*
X17989232Y-15383200D01*
X17970500Y-15440993D01*
X17970500Y-15441177D01*
X17949464Y-15502831D01*
X17924862Y-15535102D01*
X17887269Y-15585711D01*
X17833314Y-15673721D01*
X17777136Y-15775494D01*
X17722698Y-15872485D01*
X17676680Y-15942248D01*
X17648737Y-15970207D01*
X17648149Y-15970250D01*
X17627706Y-15997379D01*
X17621250Y-16047357D01*
X17605203Y-16125086D01*
X17580490Y-16166419D01*
X17526195Y-16238241D01*
X17462648Y-16344031D01*
X17403544Y-16458548D01*
X17362582Y-16556553D01*
X17355267Y-16581437D01*
X17330799Y-16644562D01*
X17304368Y-16668750D01*
X17278363Y-16696356D01*
X17249263Y-16765486D01*
X17240250Y-16795750D01*
X17212385Y-16874585D01*
X17183782Y-16919086D01*
X17175526Y-16922750D01*
X17150148Y-16949156D01*
X17145000Y-16981968D01*
X17126095Y-17048057D01*
X17081500Y-17121913D01*
X17036714Y-17193158D01*
X17018000Y-17251370D01*
X17018000Y-17251515D01*
X17004025Y-17307359D01*
X16968610Y-17393045D01*
X16946562Y-17437872D01*
X16892617Y-17547177D01*
X16831630Y-17678618D01*
X16796995Y-17757052D01*
X16752556Y-17851793D01*
X16714650Y-17917526D01*
X16693807Y-17938750D01*
X16676802Y-17966549D01*
X16668833Y-18034329D01*
X16668750Y-18042810D01*
X16651297Y-18143022D01*
X16613187Y-18225372D01*
X16565812Y-18304515D01*
X16517250Y-18413205D01*
X16462180Y-18564138D01*
X16427966Y-18667358D01*
X16394142Y-18755829D01*
X16361415Y-18816427D01*
X16349815Y-18828636D01*
X16326334Y-18869419D01*
X16302735Y-18950920D01*
X16292361Y-19004902D01*
X16270759Y-19110632D01*
X16244889Y-19198412D01*
X16233648Y-19224625D01*
X16181516Y-19336922D01*
X16131813Y-19467345D01*
X16091750Y-19594243D01*
X16068538Y-19695963D01*
X16065500Y-19729491D01*
X16048660Y-19820081D01*
X16007876Y-19915073D01*
X16005309Y-19919377D01*
X15968876Y-20005621D01*
X15937644Y-20124953D01*
X15922810Y-20216869D01*
X15907214Y-20322850D01*
X15888829Y-20401039D01*
X15873710Y-20431922D01*
X15853750Y-20470688D01*
X15833532Y-20550253D01*
X15825325Y-20598552D01*
X15804254Y-20698493D01*
X15776160Y-20776341D01*
X15763851Y-20796250D01*
X15743867Y-20849373D01*
X15725621Y-20950703D01*
X15711575Y-21084950D01*
X15707627Y-21145500D01*
X15689602Y-21342120D01*
X15660077Y-21497406D01*
X15633985Y-21574125D01*
X15618038Y-21614772D01*
X15605294Y-21663197D01*
X15595386Y-21726623D01*
X15587945Y-21812273D01*
X15582605Y-21927370D01*
X15578997Y-22079140D01*
X15576756Y-22274805D01*
X15575512Y-22521589D01*
X15575031Y-22733000D01*
X15574817Y-23018956D01*
X15575431Y-23248552D01*
X15577229Y-23428925D01*
X15580569Y-23567213D01*
X15585809Y-23670553D01*
X15593306Y-23746084D01*
X15603418Y-23800942D01*
X15616502Y-23842266D01*
X15632281Y-23876000D01*
X15665999Y-23967392D01*
X15693991Y-24092375D01*
X15707958Y-24201068D01*
X15723385Y-24322192D01*
X15746330Y-24412346D01*
X15768114Y-24451018D01*
X15805932Y-24500485D01*
X15811695Y-24522825D01*
X15825566Y-24574958D01*
X15856328Y-24643798D01*
X15895875Y-24738774D01*
X15923898Y-24834297D01*
X15957043Y-24919809D01*
X16004966Y-24980180D01*
X16006265Y-24981111D01*
X16054068Y-25041034D01*
X16065500Y-25086894D01*
X16084842Y-25146635D01*
X16134462Y-25230513D01*
X16176625Y-25286801D01*
X16238416Y-25368868D01*
X16278762Y-25435226D01*
X16287750Y-25461582D01*
X16309149Y-25501063D01*
X16365823Y-25570208D01*
X16446481Y-25655503D01*
X16465233Y-25674029D01*
X16568019Y-25786315D01*
X16616026Y-25868318D01*
X16609469Y-25919250D01*
X16548564Y-25938320D01*
X16433527Y-25924738D01*
X16398875Y-25916775D01*
X16325605Y-25887903D01*
X16295223Y-25868560D01*
X16245151Y-25850645D01*
X16151295Y-25834259D01*
X16033343Y-25822777D01*
X16025348Y-25822284D01*
X15892316Y-25809191D01*
X15768482Y-25788285D01*
X15684500Y-25765348D01*
X15587249Y-25737500D01*
X15462761Y-25714565D01*
X15394384Y-25706579D01*
X15274231Y-25688575D01*
X15164390Y-25659655D01*
X15118149Y-25640787D01*
X15023686Y-25608981D01*
X14907973Y-25591599D01*
X14875658Y-25590500D01*
X14761333Y-25579245D01*
X14626695Y-25550425D01*
X14549744Y-25527000D01*
X14443809Y-25492709D01*
X14356547Y-25469653D01*
X14316549Y-25463500D01*
X14260193Y-25454208D01*
X14165379Y-25429985D01*
X14065250Y-25400000D01*
X13940776Y-25366017D01*
X13821735Y-25342974D01*
X13750678Y-25336500D01*
X13654511Y-25324824D01*
X13576736Y-25296426D01*
X13572252Y-25293529D01*
X13505678Y-25265983D01*
X13403527Y-25242310D01*
X13335000Y-25232753D01*
X13216247Y-25213133D01*
X13108114Y-25182966D01*
X13065125Y-25164794D01*
X12973486Y-25129054D01*
X12890029Y-25114445D01*
X12810705Y-25099336D01*
X12714218Y-25062126D01*
X12691707Y-25050750D01*
X12589076Y-25009224D01*
X12487078Y-24987827D01*
X12469927Y-24987054D01*
X12363670Y-24971279D01*
X12275111Y-24939132D01*
X12181488Y-24902639D01*
X12070239Y-24874926D01*
X12052861Y-24872079D01*
X11950645Y-24848842D01*
X11864534Y-24816039D01*
X11851804Y-24808876D01*
X11764728Y-24774826D01*
X11693054Y-24764790D01*
X11604856Y-24746876D01*
X11512937Y-24703819D01*
X11509375Y-24701500D01*
X11418310Y-24657659D01*
X11328850Y-24638258D01*
X11325547Y-24638209D01*
X11240623Y-24623487D01*
X11139016Y-24587128D01*
X11112500Y-24574500D01*
X11012996Y-24534070D01*
X10919550Y-24512101D01*
X10899452Y-24510790D01*
X10811138Y-24492872D01*
X10719167Y-24449807D01*
X10715625Y-24447500D01*
X10633138Y-24404370D01*
X10560700Y-24384375D01*
X10556002Y-24384209D01*
X10477907Y-24366257D01*
X10429002Y-24341131D01*
X10356196Y-24307841D01*
X10258477Y-24281622D01*
X10241944Y-24278755D01*
X10156903Y-24257761D01*
X10101397Y-24230045D01*
X10095122Y-24223021D01*
X10052874Y-24196404D01*
X9970651Y-24169501D01*
X9919010Y-24158074D01*
X9823821Y-24132192D01*
X9755649Y-24098882D01*
X9738816Y-24082053D01*
X9686908Y-24039784D01*
X9658359Y-24033672D01*
X9597329Y-24019696D01*
X9509392Y-23985985D01*
X9477375Y-23971250D01*
X9388166Y-23933080D01*
X9316812Y-23910950D01*
X9300880Y-23908827D01*
X9237469Y-23889688D01*
X9189755Y-23861134D01*
X9122150Y-23823829D01*
X9080029Y-23813509D01*
X9022984Y-23798556D01*
X8939728Y-23762513D01*
X8913457Y-23749000D01*
X8831686Y-23709295D01*
X8771156Y-23687154D01*
X8760185Y-23685500D01*
X8712770Y-23667325D01*
X8646522Y-23623455D01*
X8644663Y-23622000D01*
X8565406Y-23576552D01*
X8493125Y-23558500D01*
X8417956Y-23539238D01*
X8341586Y-23495000D01*
X8274804Y-23450599D01*
X8225600Y-23431514D01*
X8224820Y-23431500D01*
X8180818Y-23417247D01*
X8098406Y-23379680D01*
X7994533Y-23326589D01*
X7982968Y-23320375D01*
X7873874Y-23265621D01*
X7780146Y-23225936D01*
X7720885Y-23209340D01*
X7718341Y-23209250D01*
X7648645Y-23186221D01*
X7620629Y-23162382D01*
X7573209Y-23125562D01*
X7486560Y-23074376D01*
X7381297Y-23020814D01*
X7278162Y-22968918D01*
X7199005Y-22923207D01*
X7160666Y-22893422D01*
X7160432Y-22893057D01*
X7114340Y-22864108D01*
X7085632Y-22860000D01*
X7033296Y-22843192D01*
X6947351Y-22799029D01*
X6845977Y-22736899D01*
X6841443Y-22733897D01*
X6739769Y-22671055D01*
X6652720Y-22625586D01*
X6598500Y-22606952D01*
X6597179Y-22606897D01*
X6540011Y-22580702D01*
X6508750Y-22542500D01*
X6448938Y-22490190D01*
X6395511Y-22479000D01*
X6328341Y-22461959D01*
X6297981Y-22431375D01*
X6258629Y-22389189D01*
X6236595Y-22383750D01*
X6188865Y-22358631D01*
X6159500Y-22320250D01*
X6100794Y-22268359D01*
X6049058Y-22256750D01*
X5972015Y-22234868D01*
X5931112Y-22201187D01*
X5879897Y-22155363D01*
X5794252Y-22098902D01*
X5735360Y-22066250D01*
X5646363Y-22015026D01*
X5583381Y-21968671D01*
X5565275Y-21947187D01*
X5525271Y-21910300D01*
X5509422Y-21907500D01*
X5468446Y-21889070D01*
X5390839Y-21839506D01*
X5289515Y-21767392D01*
X5222875Y-21717000D01*
X5114757Y-21635701D01*
X5024088Y-21571694D01*
X4963240Y-21533493D01*
X4946071Y-21526500D01*
X4912523Y-21511323D01*
X4849566Y-21462945D01*
X4752054Y-21377095D01*
X4632611Y-21266251D01*
X4561193Y-21211398D01*
X4486226Y-21166275D01*
X4420167Y-21120923D01*
X4318712Y-21036958D01*
X4188323Y-20920836D01*
X4035463Y-20779012D01*
X3866593Y-20617941D01*
X3688176Y-20444078D01*
X3506674Y-20263877D01*
X3328549Y-20083795D01*
X3160263Y-19910286D01*
X3008279Y-19749805D01*
X2879058Y-19608807D01*
X2779063Y-19493747D01*
X2714756Y-19411080D01*
X2694754Y-19376777D01*
X2659879Y-19318946D01*
X2599137Y-19242172D01*
X2574495Y-19214727D01*
X2515312Y-19144934D01*
X2480443Y-19091656D01*
X2476500Y-19078793D01*
X2451259Y-19041596D01*
X2430815Y-19030476D01*
X2391602Y-18989289D01*
X2364833Y-18920536D01*
X2335087Y-18844931D01*
X2297061Y-18801559D01*
X2253115Y-18763749D01*
X2202192Y-18691060D01*
X2136859Y-18572514D01*
X2121238Y-18542000D01*
X2078678Y-18474730D01*
X2044149Y-18439218D01*
X2009801Y-18393217D01*
X1985445Y-18328093D01*
X1953364Y-18244378D01*
X1919351Y-18191300D01*
X1884578Y-18138714D01*
X1835219Y-18047195D01*
X1781722Y-17936163D01*
X1779691Y-17931694D01*
X1728598Y-17825702D01*
X1683441Y-17743731D01*
X1653351Y-17702240D01*
X1651741Y-17701083D01*
X1627928Y-17657601D01*
X1619250Y-17591513D01*
X1603261Y-17511496D01*
X1571624Y-17462500D01*
X1530867Y-17399748D01*
X1523999Y-17363247D01*
X1509454Y-17298173D01*
X1473259Y-17210069D01*
X1460499Y-17185042D01*
X1419216Y-17084766D01*
X1397827Y-16987397D01*
X1396999Y-16970374D01*
X1381651Y-16879201D01*
X1343718Y-16776025D01*
X1333500Y-16755707D01*
X1286613Y-16624429D01*
X1269804Y-16486302D01*
X1256931Y-16366244D01*
X1224513Y-16259932D01*
X1214399Y-16240125D01*
X1198601Y-16207241D01*
X1186096Y-16164388D01*
X1176506Y-16104324D01*
X1169454Y-16019807D01*
X1164564Y-15903595D01*
X1161459Y-15748445D01*
X1159762Y-15547117D01*
X1159095Y-15292369D01*
X1159032Y-15176500D01*
X1159353Y-14896736D01*
X1160668Y-14672918D01*
X1163358Y-14497493D01*
X1167800Y-14362911D01*
X1174374Y-14261620D01*
X1183459Y-14186067D01*
X1195434Y-14128703D01*
X1210678Y-14081974D01*
X1214437Y-14072544D01*
X1250185Y-13953832D01*
X1269239Y-13829261D01*
X1270195Y-13802669D01*
X1283125Y-13691183D01*
X1314750Y-13588517D01*
X1322361Y-13573125D01*
X1357584Y-13484866D01*
X1388358Y-13368246D01*
X1399187Y-13308350D01*
X1422452Y-13201375D01*
X1454563Y-13114482D01*
X1474021Y-13083600D01*
X1513466Y-13008639D01*
X1523999Y-12947450D01*
X1541684Y-12869958D01*
X1571625Y-12827000D01*
X1609026Y-12765906D01*
X1619250Y-12708951D01*
X1637566Y-12626508D01*
X1678802Y-12546151D01*
X1730189Y-12450257D01*
X1760218Y-12360881D01*
X1789196Y-12278140D01*
X1827665Y-12222056D01*
X1866732Y-12170726D01*
X1873250Y-12145345D01*
X1892570Y-12095208D01*
X1936750Y-12033250D01*
X1982785Y-11962526D01*
X2000250Y-11903659D01*
X2021082Y-11831820D01*
X2039937Y-11804846D01*
X2078747Y-11750737D01*
X2127619Y-11666964D01*
X2143125Y-11637373D01*
X2200203Y-11537219D01*
X2261361Y-11447082D01*
X2273718Y-11431482D01*
X2327674Y-11354388D01*
X2360867Y-11286441D01*
X2394412Y-11223350D01*
X2453969Y-11143407D01*
X2476337Y-11117794D01*
X2534197Y-11049317D01*
X2568080Y-10999298D01*
X2571749Y-10988461D01*
X2592914Y-10950811D01*
X2635249Y-10906125D01*
X2682890Y-10849800D01*
X2698750Y-10809878D01*
X2718912Y-10766492D01*
X2770774Y-10696182D01*
X2817812Y-10642009D01*
X2898831Y-10551393D01*
X2972042Y-10464954D01*
X3000375Y-10429248D01*
X3058333Y-10356662D01*
X3136483Y-10263352D01*
X3182937Y-10209550D01*
X3247806Y-10131595D01*
X3291051Y-10072265D01*
X3302000Y-10049882D01*
X3323612Y-10023280D01*
X3384026Y-9958928D01*
X3476605Y-9863437D01*
X3594714Y-9743414D01*
X3731717Y-9605471D01*
X3880979Y-9456216D01*
X4035865Y-9302259D01*
X4189737Y-9150210D01*
X4335962Y-9006678D01*
X4467903Y-8878273D01*
X4578925Y-8771604D01*
X4662392Y-8693282D01*
X4680274Y-8677013D01*
X4761052Y-8608775D01*
X4832039Y-8556116D01*
X4852811Y-8543392D01*
X4883752Y-8524849D01*
X4923030Y-8496196D01*
X4979069Y-8450404D01*
X5060293Y-8380446D01*
X5175124Y-8279296D01*
X5265324Y-8199228D01*
X5346820Y-8133647D01*
X5418974Y-8086884D01*
X5442344Y-8076389D01*
X5499108Y-8043963D01*
X5578015Y-7982235D01*
X5627620Y-7937262D01*
X5723996Y-7854803D01*
X5825928Y-7782578D01*
X5867671Y-7758475D01*
X5966424Y-7697041D01*
X6068221Y-7617866D01*
X6091170Y-7597069D01*
X6171345Y-7530179D01*
X6245156Y-7483028D01*
X6266649Y-7473983D01*
X6345066Y-7435984D01*
X6381750Y-7408278D01*
X6450344Y-7350104D01*
X6541363Y-7281180D01*
X6639055Y-7212374D01*
X6727670Y-7154550D01*
X6791460Y-7118576D01*
X6811188Y-7112000D01*
X6858414Y-7090430D01*
X6905624Y-7048500D01*
X6957870Y-7001176D01*
X6991206Y-6985000D01*
X7037437Y-6966528D01*
X7108831Y-6921649D01*
X7183110Y-6866170D01*
X7237998Y-6815894D01*
X7248515Y-6802437D01*
X7298111Y-6770004D01*
X7341718Y-6762750D01*
X7415485Y-6741785D01*
X7475078Y-6702007D01*
X7542201Y-6651148D01*
X7637877Y-6591260D01*
X7687205Y-6563897D01*
X7788575Y-6507870D01*
X7878185Y-6454181D01*
X7908582Y-6434139D01*
X7977443Y-6395493D01*
X8025279Y-6381750D01*
X8086241Y-6362674D01*
X8105527Y-6349552D01*
X8199150Y-6279984D01*
X8301163Y-6217687D01*
X8391498Y-6173871D01*
X8445792Y-6159499D01*
X8508298Y-6133929D01*
X8540750Y-6095999D01*
X8586981Y-6045397D01*
X8622889Y-6032499D01*
X8679686Y-6017070D01*
X8767179Y-5978412D01*
X8862865Y-5927974D01*
X8944244Y-5877202D01*
X8974223Y-5853763D01*
X9031059Y-5823849D01*
X9116833Y-5798690D01*
X9126567Y-5796762D01*
X9200433Y-5776004D01*
X9238039Y-5751938D01*
X9239250Y-5747617D01*
X9265369Y-5722169D01*
X9331280Y-5681486D01*
X9418309Y-5635118D01*
X9507785Y-5592615D01*
X9581034Y-5563526D01*
X9613425Y-5556249D01*
X9655886Y-5537240D01*
X9715500Y-5492749D01*
X9792487Y-5446220D01*
X9861359Y-5429249D01*
X9926075Y-5417615D01*
X9952385Y-5399505D01*
X9990434Y-5370042D01*
X10067256Y-5326756D01*
X10162659Y-5279389D01*
X10256447Y-5237682D01*
X10328430Y-5211375D01*
X10351463Y-5206999D01*
X10400271Y-5188771D01*
X10467188Y-5144790D01*
X10468836Y-5143500D01*
X10546737Y-5098093D01*
X10616719Y-5079790D01*
X10688592Y-5062473D01*
X10772720Y-5020646D01*
X10779125Y-5016500D01*
X10857339Y-4973736D01*
X10921248Y-4953460D01*
X10926049Y-4953209D01*
X10990228Y-4930291D01*
X11013961Y-4909337D01*
X11067175Y-4876444D01*
X11153562Y-4849748D01*
X11176599Y-4845461D01*
X11255759Y-4826546D01*
X11299781Y-4803875D01*
X11303000Y-4797041D01*
X11331054Y-4774348D01*
X11402915Y-4746883D01*
X11461750Y-4730749D01*
X11551565Y-4704600D01*
X11609112Y-4679004D01*
X11620500Y-4666605D01*
X11648009Y-4643089D01*
X11715100Y-4620529D01*
X11723687Y-4618614D01*
X11813059Y-4588986D01*
X11879973Y-4549900D01*
X11945167Y-4515494D01*
X12039464Y-4489420D01*
X12062065Y-4485816D01*
X12152829Y-4464671D01*
X12217859Y-4433662D01*
X12227167Y-4425007D01*
X12284611Y-4391657D01*
X12346700Y-4381290D01*
X12431015Y-4363519D01*
X12521134Y-4320755D01*
X12525375Y-4318000D01*
X12607574Y-4274834D01*
X12679421Y-4254685D01*
X12684125Y-4254500D01*
X12753252Y-4237134D01*
X12836015Y-4195440D01*
X12842875Y-4191000D01*
X12927845Y-4147660D01*
X13005226Y-4127834D01*
X13009677Y-4127709D01*
X13083085Y-4112773D01*
X13176136Y-4075951D01*
X13199707Y-4063999D01*
X13297995Y-4022880D01*
X13391436Y-4001401D01*
X13408235Y-4000499D01*
X13490092Y-3985926D01*
X13541512Y-3957273D01*
X13598801Y-3925365D01*
X13689318Y-3898245D01*
X13720855Y-3892281D01*
X13808500Y-3872532D01*
X13866343Y-3848890D01*
X13875442Y-3840629D01*
X13914838Y-3818338D01*
X13995998Y-3793375D01*
X14060872Y-3779080D01*
X14170405Y-3751776D01*
X14263243Y-3717532D01*
X14296480Y-3699333D01*
X14378111Y-3664600D01*
X14468422Y-3651250D01*
X14566995Y-3634109D01*
X14667988Y-3592392D01*
X14675670Y-3587868D01*
X14766680Y-3545239D01*
X14851960Y-3524698D01*
X14860587Y-3524368D01*
X14937274Y-3510379D01*
X14979057Y-3486742D01*
X15029005Y-3463281D01*
X15120549Y-3440489D01*
X15211890Y-3426204D01*
X15317789Y-3409100D01*
X15396552Y-3387808D01*
X15427629Y-3370145D01*
X15467116Y-3346634D01*
X15550450Y-3317384D01*
X15653583Y-3290192D01*
X15884012Y-3235909D01*
X16057039Y-3191164D01*
X16177794Y-3154468D01*
X16251409Y-3124331D01*
X16273279Y-3110334D01*
X16326962Y-3088608D01*
X16422803Y-3068749D01*
X16533503Y-3055684D01*
X16645115Y-3042395D01*
X16730393Y-3023795D01*
X16770509Y-3004190D01*
X16789939Y-2987958D01*
X16832467Y-2970363D01*
X16905801Y-2949470D01*
X17017650Y-2923340D01*
X17175721Y-2890038D01*
X17387723Y-2847627D01*
X17414875Y-2842281D01*
X17542263Y-2812828D01*
X17657792Y-2778599D01*
X17732375Y-2748859D01*
X17823484Y-2719174D01*
X17946278Y-2701506D01*
X18010302Y-2698945D01*
X18204254Y-2676474D01*
X18311457Y-2635249D01*
X18417407Y-2593507D01*
X18525950Y-2572385D01*
X18543117Y-2571749D01*
X18628620Y-2562608D01*
X18687284Y-2540278D01*
X18690988Y-2537061D01*
X18736658Y-2519013D01*
X18829066Y-2500402D01*
X18951554Y-2484282D01*
X19007629Y-2479016D01*
X19153675Y-2461947D01*
X19276686Y-2438296D01*
X19358312Y-2411762D01*
X19368227Y-2406328D01*
X19442544Y-2378601D01*
X19562947Y-2354734D01*
X19712021Y-2338129D01*
X19720479Y-2337510D01*
X19862285Y-2322750D01*
X19994036Y-2301001D01*
X20091991Y-2276377D01*
X20108396Y-2270263D01*
X20217966Y-2237468D01*
X20329073Y-2222581D01*
X20335875Y-2222499D01*
X20444547Y-2209399D01*
X20556399Y-2177532D01*
X20564534Y-2174243D01*
X20645433Y-2151914D01*
X20770033Y-2130745D01*
X20918562Y-2113706D01*
X21015952Y-2106405D01*
X21159138Y-2095161D01*
X21280876Y-2080239D01*
X21365753Y-2063837D01*
X21395497Y-2052259D01*
X21443809Y-2034600D01*
X21540069Y-2014050D01*
X21668987Y-1993510D01*
X21776497Y-1980011D01*
X21967109Y-1958771D01*
X22182401Y-1934855D01*
X22385117Y-1912401D01*
X22447250Y-1905537D01*
X22614484Y-1883113D01*
X22784452Y-1853719D01*
X22930763Y-1822173D01*
X22987000Y-1807037D01*
X23107981Y-1777020D01*
X23241125Y-1757996D01*
X23403970Y-1748192D01*
X23593141Y-1745790D01*
X23832810Y-1740871D01*
X24015251Y-1725177D01*
X24145895Y-1698235D01*
X24148766Y-1697344D01*
X24239158Y-1676826D01*
X24375673Y-1655449D01*
X24541015Y-1635526D01*
X24717888Y-1619370D01*
X24749125Y-1617075D01*
X24936454Y-1602941D01*
X25125298Y-1587116D01*
X25294622Y-1571457D01*
X25423390Y-1557820D01*
X25431750Y-1556819D01*
X25549748Y-1546411D01*
X25712837Y-1537371D01*
X25902609Y-1530464D01*
X26100658Y-1526455D01*
X26177875Y-1525835D01*
X26529831Y-1516778D01*
X26842120Y-1491630D01*
X27078337Y-1458808D01*
X27151912Y-1446995D01*
X27223271Y-1436736D01*
X27297176Y-1427940D01*
X27378390Y-1420518D01*
X27471676Y-1414380D01*
X27581796Y-1409437D01*
X27713512Y-1405600D01*
X27871588Y-1402778D01*
X28060786Y-1400882D01*
X28285868Y-1399823D01*
X28551597Y-1399510D01*
X28862735Y-1399854D01*
X28862735Y-1399854D01*
G37*
X28862735Y-1399854D02*
X29224046Y-1400766D01*
X29640291Y-1402156D01*
X30015212Y-1403549D01*
X30501731Y-1405613D01*
X30928232Y-1407911D01*
X31298199Y-1410509D01*
X31615113Y-1413475D01*
X31882458Y-1416874D01*
X32103716Y-1420772D01*
X32282369Y-1425236D01*
X32421900Y-1430332D01*
X32525791Y-1436127D01*
X32597525Y-1442687D01*
X32640585Y-1450077D01*
X32651672Y-1453752D01*
X32721258Y-1472370D01*
X32836449Y-1490629D01*
X32979383Y-1506069D01*
X33089400Y-1514057D01*
X33231330Y-1524715D01*
X33348660Y-1538300D01*
X33427572Y-1552910D01*
X33453858Y-1564217D01*
X33449335Y-1603422D01*
X33398033Y-1635424D01*
X33316617Y-1650345D01*
X33308250Y-1650513D01*
X33223074Y-1672115D01*
X33173634Y-1703254D01*
X33109373Y-1736280D01*
X33009737Y-1762382D01*
X32948884Y-1770832D01*
X32816292Y-1795882D01*
X32730597Y-1840202D01*
X32725075Y-1845577D01*
X32652783Y-1891954D01*
X32594025Y-1905000D01*
X32518453Y-1924280D01*
X32480250Y-1952625D01*
X32422374Y-1986165D01*
X32338389Y-2000249D01*
X32337769Y-2000250D01*
X32236878Y-2020476D01*
X32154086Y-2063750D01*
X32087067Y-2108171D01*
X32037386Y-2127237D01*
X32036627Y-2127250D01*
X31975739Y-2141053D01*
X31883064Y-2175768D01*
X31780909Y-2221354D01*
X31691583Y-2267769D01*
X31637393Y-2304974D01*
X31634316Y-2308336D01*
X31580707Y-2341805D01*
X31494743Y-2368172D01*
X31475566Y-2371638D01*
X31390846Y-2393439D01*
X31335530Y-2423142D01*
X31329718Y-2430146D01*
X31282961Y-2467614D01*
X31227534Y-2489184D01*
X31159685Y-2515687D01*
X31061049Y-2565137D01*
X30965191Y-2619646D01*
X30864094Y-2676244D01*
X30778953Y-2716174D01*
X30730344Y-2730418D01*
X30670386Y-2749141D01*
X30598336Y-2793999D01*
X30533331Y-2838244D01*
X30487727Y-2857474D01*
X30486817Y-2857500D01*
X30442826Y-2879347D01*
X30416500Y-2905125D01*
X30360881Y-2945548D01*
X30330307Y-2952750D01*
X30273892Y-2971275D01*
X30203407Y-3015862D01*
X30202913Y-3016250D01*
X30127952Y-3061346D01*
X30062968Y-3079750D01*
X30013758Y-3094613D01*
X30003750Y-3113120D01*
X29977324Y-3146172D01*
X29912305Y-3184392D01*
X29898035Y-3190660D01*
X29814550Y-3234337D01*
X29754207Y-3280934D01*
X29751272Y-3284290D01*
X29688814Y-3326061D01*
X29650612Y-3333750D01*
X29601154Y-3346880D01*
X29591000Y-3363360D01*
X29564700Y-3395217D01*
X29524225Y-3414164D01*
X29484133Y-3429706D01*
X29433118Y-3456510D01*
X29359682Y-3501466D01*
X29252329Y-3571465D01*
X29167348Y-3628019D01*
X29102013Y-3673160D01*
X29019942Y-3731629D01*
X29010367Y-3738562D01*
X28939917Y-3784888D01*
X28890328Y-3809016D01*
X28884426Y-3810000D01*
X28846027Y-3827925D01*
X28775378Y-3874248D01*
X28711404Y-3921124D01*
X28625142Y-3981815D01*
X28554784Y-4022178D01*
X28524386Y-4032250D01*
X28471263Y-4056019D01*
X28457515Y-4072029D01*
X28418674Y-4110968D01*
X28349017Y-4165780D01*
X28268359Y-4222543D01*
X28196516Y-4267333D01*
X28153307Y-4286228D01*
X28152605Y-4286249D01*
X28115022Y-4305635D01*
X28070769Y-4341812D01*
X27972019Y-4426263D01*
X27887314Y-4485143D01*
X27831144Y-4508448D01*
X27829429Y-4508500D01*
X27787751Y-4528728D01*
X27721039Y-4580013D01*
X27685074Y-4612283D01*
X27589126Y-4694445D01*
X27476090Y-4780226D01*
X27432000Y-4810628D01*
X27346634Y-4871190D01*
X27283346Y-4923483D01*
X27263734Y-4944970D01*
X27214955Y-4981386D01*
X27195694Y-4984750D01*
X27146767Y-5010041D01*
X27137086Y-5026332D01*
X27104774Y-5062326D01*
X27032676Y-5121846D01*
X26934350Y-5193969D01*
X26898185Y-5218856D01*
X26793826Y-5293305D01*
X26710985Y-5359493D01*
X26663368Y-5406216D01*
X26657741Y-5415398D01*
X26619243Y-5456819D01*
X26599558Y-5461881D01*
X26553596Y-5483606D01*
X26487486Y-5536944D01*
X26463625Y-5560171D01*
X26380456Y-5634584D01*
X26296125Y-5694540D01*
X26281062Y-5702980D01*
X26219738Y-5743834D01*
X26193756Y-5778947D01*
X26193750Y-5779315D01*
X26169249Y-5808976D01*
X26159557Y-5810250D01*
X26116672Y-5830855D01*
X26053257Y-5881937D01*
X26036868Y-5897562D01*
X25954173Y-5974265D01*
X25856783Y-6058178D01*
X25829945Y-6080125D01*
X25621404Y-6253750D01*
X25383325Y-6462158D01*
X25129151Y-6693388D01*
X24920124Y-6889750D01*
X24811540Y-6992480D01*
X24714704Y-7082683D01*
X24642053Y-7148851D01*
X24611270Y-7175500D01*
X24504841Y-7266399D01*
X24362737Y-7395271D01*
X24193096Y-7554128D01*
X24004060Y-7734983D01*
X23803770Y-7929847D01*
X23600364Y-8130732D01*
X23401984Y-8329651D01*
X23216769Y-8518617D01*
X23052861Y-8689640D01*
X22918399Y-8834734D01*
X22903525Y-8851254D01*
X22737915Y-9035793D01*
X22606836Y-9181385D01*
X22502558Y-9296478D01*
X22417350Y-9389518D01*
X22343484Y-9468955D01*
X22273229Y-9543235D01*
X22209125Y-9610139D01*
X22041420Y-9788738D01*
X21882788Y-9965657D01*
X21747183Y-10125087D01*
X21677558Y-10212419D01*
X21619518Y-10280626D01*
X21570842Y-10325927D01*
X21567329Y-10328265D01*
X21530405Y-10368558D01*
X21526500Y-10383827D01*
X21506504Y-10422486D01*
X21455234Y-10488972D01*
X21412199Y-10537824D01*
X21318994Y-10638910D01*
X21221075Y-10745271D01*
X21189949Y-10779125D01*
X21127772Y-10851564D01*
X21088756Y-10906206D01*
X21082000Y-10922587D01*
X21068068Y-10951680D01*
X21023624Y-11010396D01*
X20944690Y-11103543D01*
X20827291Y-11235927D01*
X20772437Y-11296779D01*
X20723569Y-11358197D01*
X20701154Y-11400931D01*
X20701000Y-11402886D01*
X20680690Y-11443385D01*
X20640247Y-11490752D01*
X20595688Y-11541330D01*
X20524472Y-11628762D01*
X20437893Y-11738992D01*
X20378743Y-11816190D01*
X20274878Y-11953114D01*
X20202148Y-12048822D01*
X20153306Y-12112686D01*
X20121103Y-12154077D01*
X20098292Y-12182365D01*
X20077623Y-12206922D01*
X20066000Y-12220528D01*
X20013244Y-12291053D01*
X19970750Y-12357135D01*
X19916436Y-12440006D01*
X19851560Y-12527585D01*
X19850177Y-12529319D01*
X19780795Y-12620208D01*
X19687565Y-12747845D01*
X19581892Y-12896162D01*
X19475182Y-13049090D01*
X19378840Y-13190563D01*
X19349466Y-13234724D01*
X19272321Y-13349872D01*
X19213744Y-13431469D01*
X19158546Y-13499745D01*
X19105562Y-13559525D01*
X19062893Y-13623862D01*
X19050000Y-13668685D01*
X19027593Y-13724342D01*
X18986500Y-13770991D01*
X18938541Y-13824402D01*
X18923000Y-13861010D01*
X18901500Y-13907639D01*
X18862355Y-13951540D01*
X18806407Y-14025787D01*
X18782375Y-14083461D01*
X18757680Y-14141796D01*
X18734200Y-14160500D01*
X18706340Y-14186928D01*
X18663444Y-14255490D01*
X18624507Y-14331410D01*
X18573177Y-14426578D01*
X18523874Y-14496286D01*
X18495201Y-14520914D01*
X18455359Y-14564245D01*
X18446750Y-14604314D01*
X18423779Y-14673774D01*
X18383250Y-14723491D01*
X18335119Y-14779229D01*
X18319750Y-14819427D01*
X18294274Y-14866453D01*
X18274065Y-14878523D01*
X18234566Y-14919806D01*
X18208524Y-14986458D01*
X18178689Y-15066066D01*
X18143084Y-15114693D01*
X18104002Y-15166338D01*
X18097500Y-15191980D01*
X18079188Y-15242911D01*
X18035038Y-15310838D01*
X18034000Y-15312163D01*
X17989232Y-15383200D01*
X17970500Y-15440993D01*
X17970500Y-15441177D01*
X17949464Y-15502831D01*
X17924862Y-15535102D01*
X17887269Y-15585711D01*
X17833314Y-15673721D01*
X17777136Y-15775494D01*
X17722698Y-15872485D01*
X17676680Y-15942248D01*
X17648737Y-15970207D01*
X17648149Y-15970250D01*
X17627706Y-15997379D01*
X17621250Y-16047357D01*
X17605203Y-16125086D01*
X17580490Y-16166419D01*
X17526195Y-16238241D01*
X17462648Y-16344031D01*
X17403544Y-16458548D01*
X17362582Y-16556553D01*
X17355267Y-16581437D01*
X17330799Y-16644562D01*
X17304368Y-16668750D01*
X17278363Y-16696356D01*
X17249263Y-16765486D01*
X17240250Y-16795750D01*
X17212385Y-16874585D01*
X17183782Y-16919086D01*
X17175526Y-16922750D01*
X17150148Y-16949156D01*
X17145000Y-16981968D01*
X17126095Y-17048057D01*
X17081500Y-17121913D01*
X17036714Y-17193158D01*
X17018000Y-17251370D01*
X17018000Y-17251515D01*
X17004025Y-17307359D01*
X16968610Y-17393045D01*
X16946562Y-17437872D01*
X16892617Y-17547177D01*
X16831630Y-17678618D01*
X16796995Y-17757052D01*
X16752556Y-17851793D01*
X16714650Y-17917526D01*
X16693807Y-17938750D01*
X16676802Y-17966549D01*
X16668833Y-18034329D01*
X16668750Y-18042810D01*
X16651297Y-18143022D01*
X16613187Y-18225372D01*
X16565812Y-18304515D01*
X16517250Y-18413205D01*
X16462180Y-18564138D01*
X16427966Y-18667358D01*
X16394142Y-18755829D01*
X16361415Y-18816427D01*
X16349815Y-18828636D01*
X16326334Y-18869419D01*
X16302735Y-18950920D01*
X16292361Y-19004902D01*
X16270759Y-19110632D01*
X16244889Y-19198412D01*
X16233648Y-19224625D01*
X16181516Y-19336922D01*
X16131813Y-19467345D01*
X16091750Y-19594243D01*
X16068538Y-19695963D01*
X16065500Y-19729491D01*
X16048660Y-19820081D01*
X16007876Y-19915073D01*
X16005309Y-19919377D01*
X15968876Y-20005621D01*
X15937644Y-20124953D01*
X15922810Y-20216869D01*
X15907214Y-20322850D01*
X15888829Y-20401039D01*
X15873710Y-20431922D01*
X15853750Y-20470688D01*
X15833532Y-20550253D01*
X15825325Y-20598552D01*
X15804254Y-20698493D01*
X15776160Y-20776341D01*
X15763851Y-20796250D01*
X15743867Y-20849373D01*
X15725621Y-20950703D01*
X15711575Y-21084950D01*
X15707627Y-21145500D01*
X15689602Y-21342120D01*
X15660077Y-21497406D01*
X15633985Y-21574125D01*
X15618038Y-21614772D01*
X15605294Y-21663197D01*
X15595386Y-21726623D01*
X15587945Y-21812273D01*
X15582605Y-21927370D01*
X15578997Y-22079140D01*
X15576756Y-22274805D01*
X15575512Y-22521589D01*
X15575031Y-22733000D01*
X15574817Y-23018956D01*
X15575431Y-23248552D01*
X15577229Y-23428925D01*
X15580569Y-23567213D01*
X15585809Y-23670553D01*
X15593306Y-23746084D01*
X15603418Y-23800942D01*
X15616502Y-23842266D01*
X15632281Y-23876000D01*
X15665999Y-23967392D01*
X15693991Y-24092375D01*
X15707958Y-24201068D01*
X15723385Y-24322192D01*
X15746330Y-24412346D01*
X15768114Y-24451018D01*
X15805932Y-24500485D01*
X15811695Y-24522825D01*
X15825566Y-24574958D01*
X15856328Y-24643798D01*
X15895875Y-24738774D01*
X15923898Y-24834297D01*
X15957043Y-24919809D01*
X16004966Y-24980180D01*
X16006265Y-24981111D01*
X16054068Y-25041034D01*
X16065500Y-25086894D01*
X16084842Y-25146635D01*
X16134462Y-25230513D01*
X16176625Y-25286801D01*
X16238416Y-25368868D01*
X16278762Y-25435226D01*
X16287750Y-25461582D01*
X16309149Y-25501063D01*
X16365823Y-25570208D01*
X16446481Y-25655503D01*
X16465233Y-25674029D01*
X16568019Y-25786315D01*
X16616026Y-25868318D01*
X16609469Y-25919250D01*
X16548564Y-25938320D01*
X16433527Y-25924738D01*
X16398875Y-25916775D01*
X16325605Y-25887903D01*
X16295223Y-25868560D01*
X16245151Y-25850645D01*
X16151295Y-25834259D01*
X16033343Y-25822777D01*
X16025348Y-25822284D01*
X15892316Y-25809191D01*
X15768482Y-25788285D01*
X15684500Y-25765348D01*
X15587249Y-25737500D01*
X15462761Y-25714565D01*
X15394384Y-25706579D01*
X15274231Y-25688575D01*
X15164390Y-25659655D01*
X15118149Y-25640787D01*
X15023686Y-25608981D01*
X14907973Y-25591599D01*
X14875658Y-25590500D01*
X14761333Y-25579245D01*
X14626695Y-25550425D01*
X14549744Y-25527000D01*
X14443809Y-25492709D01*
X14356547Y-25469653D01*
X14316549Y-25463500D01*
X14260193Y-25454208D01*
X14165379Y-25429985D01*
X14065250Y-25400000D01*
X13940776Y-25366017D01*
X13821735Y-25342974D01*
X13750678Y-25336500D01*
X13654511Y-25324824D01*
X13576736Y-25296426D01*
X13572252Y-25293529D01*
X13505678Y-25265983D01*
X13403527Y-25242310D01*
X13335000Y-25232753D01*
X13216247Y-25213133D01*
X13108114Y-25182966D01*
X13065125Y-25164794D01*
X12973486Y-25129054D01*
X12890029Y-25114445D01*
X12810705Y-25099336D01*
X12714218Y-25062126D01*
X12691707Y-25050750D01*
X12589076Y-25009224D01*
X12487078Y-24987827D01*
X12469927Y-24987054D01*
X12363670Y-24971279D01*
X12275111Y-24939132D01*
X12181488Y-24902639D01*
X12070239Y-24874926D01*
X12052861Y-24872079D01*
X11950645Y-24848842D01*
X11864534Y-24816039D01*
X11851804Y-24808876D01*
X11764728Y-24774826D01*
X11693054Y-24764790D01*
X11604856Y-24746876D01*
X11512937Y-24703819D01*
X11509375Y-24701500D01*
X11418310Y-24657659D01*
X11328850Y-24638258D01*
X11325547Y-24638209D01*
X11240623Y-24623487D01*
X11139016Y-24587128D01*
X11112500Y-24574500D01*
X11012996Y-24534070D01*
X10919550Y-24512101D01*
X10899452Y-24510790D01*
X10811138Y-24492872D01*
X10719167Y-24449807D01*
X10715625Y-24447500D01*
X10633138Y-24404370D01*
X10560700Y-24384375D01*
X10556002Y-24384209D01*
X10477907Y-24366257D01*
X10429002Y-24341131D01*
X10356196Y-24307841D01*
X10258477Y-24281622D01*
X10241944Y-24278755D01*
X10156903Y-24257761D01*
X10101397Y-24230045D01*
X10095122Y-24223021D01*
X10052874Y-24196404D01*
X9970651Y-24169501D01*
X9919010Y-24158074D01*
X9823821Y-24132192D01*
X9755649Y-24098882D01*
X9738816Y-24082053D01*
X9686908Y-24039784D01*
X9658359Y-24033672D01*
X9597329Y-24019696D01*
X9509392Y-23985985D01*
X9477375Y-23971250D01*
X9388166Y-23933080D01*
X9316812Y-23910950D01*
X9300880Y-23908827D01*
X9237469Y-23889688D01*
X9189755Y-23861134D01*
X9122150Y-23823829D01*
X9080029Y-23813509D01*
X9022984Y-23798556D01*
X8939728Y-23762513D01*
X8913457Y-23749000D01*
X8831686Y-23709295D01*
X8771156Y-23687154D01*
X8760185Y-23685500D01*
X8712770Y-23667325D01*
X8646522Y-23623455D01*
X8644663Y-23622000D01*
X8565406Y-23576552D01*
X8493125Y-23558500D01*
X8417956Y-23539238D01*
X8341586Y-23495000D01*
X8274804Y-23450599D01*
X8225600Y-23431514D01*
X8224820Y-23431500D01*
X8180818Y-23417247D01*
X8098406Y-23379680D01*
X7994533Y-23326589D01*
X7982968Y-23320375D01*
X7873874Y-23265621D01*
X7780146Y-23225936D01*
X7720885Y-23209340D01*
X7718341Y-23209250D01*
X7648645Y-23186221D01*
X7620629Y-23162382D01*
X7573209Y-23125562D01*
X7486560Y-23074376D01*
X7381297Y-23020814D01*
X7278162Y-22968918D01*
X7199005Y-22923207D01*
X7160666Y-22893422D01*
X7160432Y-22893057D01*
X7114340Y-22864108D01*
X7085632Y-22860000D01*
X7033296Y-22843192D01*
X6947351Y-22799029D01*
X6845977Y-22736899D01*
X6841443Y-22733897D01*
X6739769Y-22671055D01*
X6652720Y-22625586D01*
X6598500Y-22606952D01*
X6597179Y-22606897D01*
X6540011Y-22580702D01*
X6508750Y-22542500D01*
X6448938Y-22490190D01*
X6395511Y-22479000D01*
X6328341Y-22461959D01*
X6297981Y-22431375D01*
X6258629Y-22389189D01*
X6236595Y-22383750D01*
X6188865Y-22358631D01*
X6159500Y-22320250D01*
X6100794Y-22268359D01*
X6049058Y-22256750D01*
X5972015Y-22234868D01*
X5931112Y-22201187D01*
X5879897Y-22155363D01*
X5794252Y-22098902D01*
X5735360Y-22066250D01*
X5646363Y-22015026D01*
X5583381Y-21968671D01*
X5565275Y-21947187D01*
X5525271Y-21910300D01*
X5509422Y-21907500D01*
X5468446Y-21889070D01*
X5390839Y-21839506D01*
X5289515Y-21767392D01*
X5222875Y-21717000D01*
X5114757Y-21635701D01*
X5024088Y-21571694D01*
X4963240Y-21533493D01*
X4946071Y-21526500D01*
X4912523Y-21511323D01*
X4849566Y-21462945D01*
X4752054Y-21377095D01*
X4632611Y-21266251D01*
X4561193Y-21211398D01*
X4486226Y-21166275D01*
X4420167Y-21120923D01*
X4318712Y-21036958D01*
X4188323Y-20920836D01*
X4035463Y-20779012D01*
X3866593Y-20617941D01*
X3688176Y-20444078D01*
X3506674Y-20263877D01*
X3328549Y-20083795D01*
X3160263Y-19910286D01*
X3008279Y-19749805D01*
X2879058Y-19608807D01*
X2779063Y-19493747D01*
X2714756Y-19411080D01*
X2694754Y-19376777D01*
X2659879Y-19318946D01*
X2599137Y-19242172D01*
X2574495Y-19214727D01*
X2515312Y-19144934D01*
X2480443Y-19091656D01*
X2476500Y-19078793D01*
X2451259Y-19041596D01*
X2430815Y-19030476D01*
X2391602Y-18989289D01*
X2364833Y-18920536D01*
X2335087Y-18844931D01*
X2297061Y-18801559D01*
X2253115Y-18763749D01*
X2202192Y-18691060D01*
X2136859Y-18572514D01*
X2121238Y-18542000D01*
X2078678Y-18474730D01*
X2044149Y-18439218D01*
X2009801Y-18393217D01*
X1985445Y-18328093D01*
X1953364Y-18244378D01*
X1919351Y-18191300D01*
X1884578Y-18138714D01*
X1835219Y-18047195D01*
X1781722Y-17936163D01*
X1779691Y-17931694D01*
X1728598Y-17825702D01*
X1683441Y-17743731D01*
X1653351Y-17702240D01*
X1651741Y-17701083D01*
X1627928Y-17657601D01*
X1619250Y-17591513D01*
X1603261Y-17511496D01*
X1571624Y-17462500D01*
X1530867Y-17399748D01*
X1523999Y-17363247D01*
X1509454Y-17298173D01*
X1473259Y-17210069D01*
X1460499Y-17185042D01*
X1419216Y-17084766D01*
X1397827Y-16987397D01*
X1396999Y-16970374D01*
X1381651Y-16879201D01*
X1343718Y-16776025D01*
X1333500Y-16755707D01*
X1286613Y-16624429D01*
X1269804Y-16486302D01*
X1256931Y-16366244D01*
X1224513Y-16259932D01*
X1214399Y-16240125D01*
X1198601Y-16207241D01*
X1186096Y-16164388D01*
X1176506Y-16104324D01*
X1169454Y-16019807D01*
X1164564Y-15903595D01*
X1161459Y-15748445D01*
X1159762Y-15547117D01*
X1159095Y-15292369D01*
X1159032Y-15176500D01*
X1159353Y-14896736D01*
X1160668Y-14672918D01*
X1163358Y-14497493D01*
X1167800Y-14362911D01*
X1174374Y-14261620D01*
X1183459Y-14186067D01*
X1195434Y-14128703D01*
X1210678Y-14081974D01*
X1214437Y-14072544D01*
X1250185Y-13953832D01*
X1269239Y-13829261D01*
X1270195Y-13802669D01*
X1283125Y-13691183D01*
X1314750Y-13588517D01*
X1322361Y-13573125D01*
X1357584Y-13484866D01*
X1388358Y-13368246D01*
X1399187Y-13308350D01*
X1422452Y-13201375D01*
X1454563Y-13114482D01*
X1474021Y-13083600D01*
X1513466Y-13008639D01*
X1523999Y-12947450D01*
X1541684Y-12869958D01*
X1571625Y-12827000D01*
X1609026Y-12765906D01*
X1619250Y-12708951D01*
X1637566Y-12626508D01*
X1678802Y-12546151D01*
X1730189Y-12450257D01*
X1760218Y-12360881D01*
X1789196Y-12278140D01*
X1827665Y-12222056D01*
X1866732Y-12170726D01*
X1873250Y-12145345D01*
X1892570Y-12095208D01*
X1936750Y-12033250D01*
X1982785Y-11962526D01*
X2000250Y-11903659D01*
X2021082Y-11831820D01*
X2039937Y-11804846D01*
X2078747Y-11750737D01*
X2127619Y-11666964D01*
X2143125Y-11637373D01*
X2200203Y-11537219D01*
X2261361Y-11447082D01*
X2273718Y-11431482D01*
X2327674Y-11354388D01*
X2360867Y-11286441D01*
X2394412Y-11223350D01*
X2453969Y-11143407D01*
X2476337Y-11117794D01*
X2534197Y-11049317D01*
X2568080Y-10999298D01*
X2571749Y-10988461D01*
X2592914Y-10950811D01*
X2635249Y-10906125D01*
X2682890Y-10849800D01*
X2698750Y-10809878D01*
X2718912Y-10766492D01*
X2770774Y-10696182D01*
X2817812Y-10642009D01*
X2898831Y-10551393D01*
X2972042Y-10464954D01*
X3000375Y-10429248D01*
X3058333Y-10356662D01*
X3136483Y-10263352D01*
X3182937Y-10209550D01*
X3247806Y-10131595D01*
X3291051Y-10072265D01*
X3302000Y-10049882D01*
X3323612Y-10023280D01*
X3384026Y-9958928D01*
X3476605Y-9863437D01*
X3594714Y-9743414D01*
X3731717Y-9605471D01*
X3880979Y-9456216D01*
X4035865Y-9302259D01*
X4189737Y-9150210D01*
X4335962Y-9006678D01*
X4467903Y-8878273D01*
X4578925Y-8771604D01*
X4662392Y-8693282D01*
X4680274Y-8677013D01*
X4761052Y-8608775D01*
X4832039Y-8556116D01*
X4852811Y-8543392D01*
X4883752Y-8524849D01*
X4923030Y-8496196D01*
X4979069Y-8450404D01*
X5060293Y-8380446D01*
X5175124Y-8279296D01*
X5265324Y-8199228D01*
X5346820Y-8133647D01*
X5418974Y-8086884D01*
X5442344Y-8076389D01*
X5499108Y-8043963D01*
X5578015Y-7982235D01*
X5627620Y-7937262D01*
X5723996Y-7854803D01*
X5825928Y-7782578D01*
X5867671Y-7758475D01*
X5966424Y-7697041D01*
X6068221Y-7617866D01*
X6091170Y-7597069D01*
X6171345Y-7530179D01*
X6245156Y-7483028D01*
X6266649Y-7473983D01*
X6345066Y-7435984D01*
X6381750Y-7408278D01*
X6450344Y-7350104D01*
X6541363Y-7281180D01*
X6639055Y-7212374D01*
X6727670Y-7154550D01*
X6791460Y-7118576D01*
X6811188Y-7112000D01*
X6858414Y-7090430D01*
X6905624Y-7048500D01*
X6957870Y-7001176D01*
X6991206Y-6985000D01*
X7037437Y-6966528D01*
X7108831Y-6921649D01*
X7183110Y-6866170D01*
X7237998Y-6815894D01*
X7248515Y-6802437D01*
X7298111Y-6770004D01*
X7341718Y-6762750D01*
X7415485Y-6741785D01*
X7475078Y-6702007D01*
X7542201Y-6651148D01*
X7637877Y-6591260D01*
X7687205Y-6563897D01*
X7788575Y-6507870D01*
X7878185Y-6454181D01*
X7908582Y-6434139D01*
X7977443Y-6395493D01*
X8025279Y-6381750D01*
X8086241Y-6362674D01*
X8105527Y-6349552D01*
X8199150Y-6279984D01*
X8301163Y-6217687D01*
X8391498Y-6173871D01*
X8445792Y-6159499D01*
X8508298Y-6133929D01*
X8540750Y-6095999D01*
X8586981Y-6045397D01*
X8622889Y-6032499D01*
X8679686Y-6017070D01*
X8767179Y-5978412D01*
X8862865Y-5927974D01*
X8944244Y-5877202D01*
X8974223Y-5853763D01*
X9031059Y-5823849D01*
X9116833Y-5798690D01*
X9126567Y-5796762D01*
X9200433Y-5776004D01*
X9238039Y-5751938D01*
X9239250Y-5747617D01*
X9265369Y-5722169D01*
X9331280Y-5681486D01*
X9418309Y-5635118D01*
X9507785Y-5592615D01*
X9581034Y-5563526D01*
X9613425Y-5556249D01*
X9655886Y-5537240D01*
X9715500Y-5492749D01*
X9792487Y-5446220D01*
X9861359Y-5429249D01*
X9926075Y-5417615D01*
X9952385Y-5399505D01*
X9990434Y-5370042D01*
X10067256Y-5326756D01*
X10162659Y-5279389D01*
X10256447Y-5237682D01*
X10328430Y-5211375D01*
X10351463Y-5206999D01*
X10400271Y-5188771D01*
X10467188Y-5144790D01*
X10468836Y-5143500D01*
X10546737Y-5098093D01*
X10616719Y-5079790D01*
X10688592Y-5062473D01*
X10772720Y-5020646D01*
X10779125Y-5016500D01*
X10857339Y-4973736D01*
X10921248Y-4953460D01*
X10926049Y-4953209D01*
X10990228Y-4930291D01*
X11013961Y-4909337D01*
X11067175Y-4876444D01*
X11153562Y-4849748D01*
X11176599Y-4845461D01*
X11255759Y-4826546D01*
X11299781Y-4803875D01*
X11303000Y-4797041D01*
X11331054Y-4774348D01*
X11402915Y-4746883D01*
X11461750Y-4730749D01*
X11551565Y-4704600D01*
X11609112Y-4679004D01*
X11620500Y-4666605D01*
X11648009Y-4643089D01*
X11715100Y-4620529D01*
X11723687Y-4618614D01*
X11813059Y-4588986D01*
X11879973Y-4549900D01*
X11945167Y-4515494D01*
X12039464Y-4489420D01*
X12062065Y-4485816D01*
X12152829Y-4464671D01*
X12217859Y-4433662D01*
X12227167Y-4425007D01*
X12284611Y-4391657D01*
X12346700Y-4381290D01*
X12431015Y-4363519D01*
X12521134Y-4320755D01*
X12525375Y-4318000D01*
X12607574Y-4274834D01*
X12679421Y-4254685D01*
X12684125Y-4254500D01*
X12753252Y-4237134D01*
X12836015Y-4195440D01*
X12842875Y-4191000D01*
X12927845Y-4147660D01*
X13005226Y-4127834D01*
X13009677Y-4127709D01*
X13083085Y-4112773D01*
X13176136Y-4075951D01*
X13199707Y-4063999D01*
X13297995Y-4022880D01*
X13391436Y-4001401D01*
X13408235Y-4000499D01*
X13490092Y-3985926D01*
X13541512Y-3957273D01*
X13598801Y-3925365D01*
X13689318Y-3898245D01*
X13720855Y-3892281D01*
X13808500Y-3872532D01*
X13866343Y-3848890D01*
X13875442Y-3840629D01*
X13914838Y-3818338D01*
X13995998Y-3793375D01*
X14060872Y-3779080D01*
X14170405Y-3751776D01*
X14263243Y-3717532D01*
X14296480Y-3699333D01*
X14378111Y-3664600D01*
X14468422Y-3651250D01*
X14566995Y-3634109D01*
X14667988Y-3592392D01*
X14675670Y-3587868D01*
X14766680Y-3545239D01*
X14851960Y-3524698D01*
X14860587Y-3524368D01*
X14937274Y-3510379D01*
X14979057Y-3486742D01*
X15029005Y-3463281D01*
X15120549Y-3440489D01*
X15211890Y-3426204D01*
X15317789Y-3409100D01*
X15396552Y-3387808D01*
X15427629Y-3370145D01*
X15467116Y-3346634D01*
X15550450Y-3317384D01*
X15653583Y-3290192D01*
X15884012Y-3235909D01*
X16057039Y-3191164D01*
X16177794Y-3154468D01*
X16251409Y-3124331D01*
X16273279Y-3110334D01*
X16326962Y-3088608D01*
X16422803Y-3068749D01*
X16533503Y-3055684D01*
X16645115Y-3042395D01*
X16730393Y-3023795D01*
X16770509Y-3004190D01*
X16789939Y-2987958D01*
X16832467Y-2970363D01*
X16905801Y-2949470D01*
X17017650Y-2923340D01*
X17175721Y-2890038D01*
X17387723Y-2847627D01*
X17414875Y-2842281D01*
X17542263Y-2812828D01*
X17657792Y-2778599D01*
X17732375Y-2748859D01*
X17823484Y-2719174D01*
X17946278Y-2701506D01*
X18010302Y-2698945D01*
X18204254Y-2676474D01*
X18311457Y-2635249D01*
X18417407Y-2593507D01*
X18525950Y-2572385D01*
X18543117Y-2571749D01*
X18628620Y-2562608D01*
X18687284Y-2540278D01*
X18690988Y-2537061D01*
X18736658Y-2519013D01*
X18829066Y-2500402D01*
X18951554Y-2484282D01*
X19007629Y-2479016D01*
X19153675Y-2461947D01*
X19276686Y-2438296D01*
X19358312Y-2411762D01*
X19368227Y-2406328D01*
X19442544Y-2378601D01*
X19562947Y-2354734D01*
X19712021Y-2338129D01*
X19720479Y-2337510D01*
X19862285Y-2322750D01*
X19994036Y-2301001D01*
X20091991Y-2276377D01*
X20108396Y-2270263D01*
X20217966Y-2237468D01*
X20329073Y-2222581D01*
X20335875Y-2222499D01*
X20444547Y-2209399D01*
X20556399Y-2177532D01*
X20564534Y-2174243D01*
X20645433Y-2151914D01*
X20770033Y-2130745D01*
X20918562Y-2113706D01*
X21015952Y-2106405D01*
X21159138Y-2095161D01*
X21280876Y-2080239D01*
X21365753Y-2063837D01*
X21395497Y-2052259D01*
X21443809Y-2034600D01*
X21540069Y-2014050D01*
X21668987Y-1993510D01*
X21776497Y-1980011D01*
X21967109Y-1958771D01*
X22182401Y-1934855D01*
X22385117Y-1912401D01*
X22447250Y-1905537D01*
X22614484Y-1883113D01*
X22784452Y-1853719D01*
X22930763Y-1822173D01*
X22987000Y-1807037D01*
X23107981Y-1777020D01*
X23241125Y-1757996D01*
X23403970Y-1748192D01*
X23593141Y-1745790D01*
X23832810Y-1740871D01*
X24015251Y-1725177D01*
X24145895Y-1698235D01*
X24148766Y-1697344D01*
X24239158Y-1676826D01*
X24375673Y-1655449D01*
X24541015Y-1635526D01*
X24717888Y-1619370D01*
X24749125Y-1617075D01*
X24936454Y-1602941D01*
X25125298Y-1587116D01*
X25294622Y-1571457D01*
X25423390Y-1557820D01*
X25431750Y-1556819D01*
X25549748Y-1546411D01*
X25712837Y-1537371D01*
X25902609Y-1530464D01*
X26100658Y-1526455D01*
X26177875Y-1525835D01*
X26529831Y-1516778D01*
X26842120Y-1491630D01*
X27078337Y-1458808D01*
X27151912Y-1446995D01*
X27223271Y-1436736D01*
X27297176Y-1427940D01*
X27378390Y-1420518D01*
X27471676Y-1414380D01*
X27581796Y-1409437D01*
X27713512Y-1405600D01*
X27871588Y-1402778D01*
X28060786Y-1400882D01*
X28285868Y-1399823D01*
X28551597Y-1399510D01*
X28862735Y-1399854D01*
G36*
X38632077Y-2112059D02*
X38764273Y-2132415D01*
X38886418Y-2165173D01*
X38921439Y-2178381D01*
X39022473Y-2209157D01*
X39118450Y-2222485D01*
X39120897Y-2222500D01*
X39214550Y-2235178D01*
X39317191Y-2265987D01*
X39324299Y-2268883D01*
X39411458Y-2294640D01*
X39536029Y-2318653D01*
X39672007Y-2335966D01*
X39680467Y-2336728D01*
X39817693Y-2355217D01*
X39946467Y-2383513D01*
X40039993Y-2415663D01*
X40043422Y-2417345D01*
X40163209Y-2457608D01*
X40302528Y-2476151D01*
X40322254Y-2476500D01*
X40444028Y-2486411D01*
X40560802Y-2511357D01*
X40597272Y-2524125D01*
X40695731Y-2556180D01*
X40785856Y-2571622D01*
X40794689Y-2571868D01*
X40878110Y-2588564D01*
X40971606Y-2629221D01*
X40982079Y-2635368D01*
X41116998Y-2686119D01*
X41260007Y-2698750D01*
X41434597Y-2718358D01*
X41549168Y-2760487D01*
X41650788Y-2801221D01*
X41776769Y-2833943D01*
X41835223Y-2843573D01*
X41933167Y-2859937D01*
X42002301Y-2879182D01*
X42022284Y-2891126D01*
X42060828Y-2910640D01*
X42140246Y-2930399D01*
X42188552Y-2938423D01*
X42284205Y-2958744D01*
X42353831Y-2985936D01*
X42370375Y-2998717D01*
X42417050Y-3022136D01*
X42506219Y-3043352D01*
X42598577Y-3055643D01*
X42716254Y-3073321D01*
X42817519Y-3100722D01*
X42867579Y-3124184D01*
X42945401Y-3162884D01*
X43004502Y-3175195D01*
X43078389Y-3189830D01*
X43160388Y-3223117D01*
X43253992Y-3259723D01*
X43365224Y-3287730D01*
X43382638Y-3290643D01*
X43478666Y-3313845D01*
X43553283Y-3346621D01*
X43564910Y-3355124D01*
X43625195Y-3385768D01*
X43721554Y-3414195D01*
X43781133Y-3425837D01*
X43881947Y-3447294D01*
X43958297Y-3473469D01*
X43982010Y-3488060D01*
X44044429Y-3520968D01*
X44068636Y-3524249D01*
X44128078Y-3538066D01*
X44212552Y-3572351D01*
X44234806Y-3583254D01*
X44344136Y-3628200D01*
X44456946Y-3659370D01*
X44467707Y-3661272D01*
X44560226Y-3685826D01*
X44631059Y-3720635D01*
X44636500Y-3724972D01*
X44700828Y-3758768D01*
X44794099Y-3785431D01*
X44814875Y-3789081D01*
X44897172Y-3808426D01*
X44946985Y-3832852D01*
X44952123Y-3839996D01*
X44987375Y-3865497D01*
X45061046Y-3888339D01*
X45079373Y-3891906D01*
X45164870Y-3915285D01*
X45223016Y-3946152D01*
X45227875Y-3951142D01*
X45278104Y-3981104D01*
X45362058Y-4005984D01*
X45382625Y-4009748D01*
X45477527Y-4035132D01*
X45551593Y-4071925D01*
X45559750Y-4078517D01*
X45633951Y-4117335D01*
X45693766Y-4127499D01*
X45776011Y-4150508D01*
X45831125Y-4191000D01*
X45900977Y-4239605D01*
X45960777Y-4254500D01*
X46038860Y-4273644D01*
X46078078Y-4299614D01*
X46136434Y-4336162D01*
X46226405Y-4371790D01*
X46254971Y-4380213D01*
X46335469Y-4407438D01*
X46382090Y-4433946D01*
X46386750Y-4442165D01*
X46414743Y-4463373D01*
X46484492Y-4483679D01*
X46510284Y-4488388D01*
X46593861Y-4512277D01*
X46646698Y-4546839D01*
X46652162Y-4555946D01*
X46695733Y-4597163D01*
X46727066Y-4603959D01*
X46790983Y-4620989D01*
X46871101Y-4662219D01*
X46878875Y-4667250D01*
X46964154Y-4710614D01*
X47042147Y-4730420D01*
X47046558Y-4730540D01*
X47110632Y-4748485D01*
X47136523Y-4776434D01*
X47177806Y-4815933D01*
X47244458Y-4841975D01*
X47323320Y-4871037D01*
X47371000Y-4905374D01*
X47426971Y-4943475D01*
X47502339Y-4969828D01*
X47575270Y-4998095D01*
X47614667Y-5035368D01*
X47656418Y-5070872D01*
X47702851Y-5079999D01*
X47777762Y-5102714D01*
X47831375Y-5143500D01*
X47894658Y-5191653D01*
X47945152Y-5207000D01*
X48015536Y-5228422D01*
X48043674Y-5249210D01*
X48116496Y-5304134D01*
X48227647Y-5367792D01*
X48355540Y-5427896D01*
X48363187Y-5431084D01*
X48425332Y-5465607D01*
X48450500Y-5496641D01*
X48476818Y-5527957D01*
X48534841Y-5558138D01*
X48610160Y-5594623D01*
X48708542Y-5652041D01*
X48763403Y-5687537D01*
X48859349Y-5748377D01*
X48945448Y-5796487D01*
X48980686Y-5812649D01*
X49036591Y-5845551D01*
X49053750Y-5872964D01*
X49079073Y-5902666D01*
X49096454Y-5905500D01*
X49148265Y-5927262D01*
X49196625Y-5969000D01*
X49260375Y-6017186D01*
X49311553Y-6032500D01*
X49372103Y-6057930D01*
X49401045Y-6092347D01*
X49456522Y-6148135D01*
X49505350Y-6170555D01*
X49575457Y-6203401D01*
X49658183Y-6261662D01*
X49676573Y-6277395D01*
X49750990Y-6341512D01*
X49812144Y-6390173D01*
X49822636Y-6397625D01*
X49876623Y-6433822D01*
X49958459Y-6488507D01*
X49997717Y-6514697D01*
X50094905Y-6583673D01*
X50184070Y-6653579D01*
X50207041Y-6673447D01*
X50310786Y-6764830D01*
X50417268Y-6854956D01*
X50511900Y-6931825D01*
X50580098Y-6983432D01*
X50597607Y-6994835D01*
X50665995Y-7044705D01*
X50769794Y-7133980D01*
X50901587Y-7255182D01*
X51053956Y-7400835D01*
X51219483Y-7563462D01*
X51390750Y-7735586D01*
X51560340Y-7909729D01*
X51720834Y-8078415D01*
X51864815Y-8234166D01*
X51984866Y-8369505D01*
X52073569Y-8476956D01*
X52091590Y-8500771D01*
X52176557Y-8612587D01*
X52253734Y-8707614D01*
X52311602Y-8771955D01*
X52330157Y-8788612D01*
X52376310Y-8839329D01*
X52387500Y-8872528D01*
X52413076Y-8919919D01*
X52435125Y-8933231D01*
X52477341Y-8974395D01*
X52482750Y-8997860D01*
X52503191Y-9059970D01*
X52522437Y-9086169D01*
X52576432Y-9152089D01*
X52636897Y-9238355D01*
X52691600Y-9325776D01*
X52728308Y-9395160D01*
X52736750Y-9422401D01*
X52761698Y-9464996D01*
X52800250Y-9493249D01*
X52852178Y-9552052D01*
X52863750Y-9603914D01*
X52878737Y-9673411D01*
X52903437Y-9705984D01*
X52940539Y-9749760D01*
X52993315Y-9836212D01*
X53053778Y-9949087D01*
X53113945Y-10072132D01*
X53165830Y-10189096D01*
X53201449Y-10283725D01*
X53213000Y-10336085D01*
X53238726Y-10411531D01*
X53276500Y-10445749D01*
X53329437Y-10507154D01*
X53341009Y-10565929D01*
X53359062Y-10655607D01*
X53388634Y-10713755D01*
X53423062Y-10790843D01*
X53435459Y-10872505D01*
X53453624Y-10967509D01*
X53497195Y-11062499D01*
X53498750Y-11064875D01*
X53543046Y-11161660D01*
X53562030Y-11262402D01*
X53562040Y-11263981D01*
X53570427Y-11346831D01*
X53592245Y-11465283D01*
X53622822Y-11594075D01*
X53623698Y-11597356D01*
X53680969Y-11830647D01*
X53722310Y-12050117D01*
X53750384Y-12276119D01*
X53767858Y-12529010D01*
X53775884Y-12759742D01*
X53778896Y-12992650D01*
X53774778Y-13175867D01*
X53762815Y-13322879D01*
X53742289Y-13447171D01*
X53738469Y-13464510D01*
X53712964Y-13592477D01*
X53695176Y-13711976D01*
X53689250Y-13789568D01*
X53679400Y-13878346D01*
X53653855Y-13997729D01*
X53625750Y-14097000D01*
X53591912Y-14219507D01*
X53568877Y-14334634D01*
X53562250Y-14402876D01*
X53546647Y-14502114D01*
X53508169Y-14609699D01*
X53498750Y-14628457D01*
X53457644Y-14723560D01*
X53435441Y-14810619D01*
X53434240Y-14826779D01*
X53414686Y-14915462D01*
X53386615Y-14968255D01*
X53349113Y-15045751D01*
X53340000Y-15098335D01*
X53319736Y-15171718D01*
X53276500Y-15239999D01*
X53229562Y-15322384D01*
X53213000Y-15399326D01*
X53193256Y-15486686D01*
X53149500Y-15566163D01*
X53104241Y-15643085D01*
X53086000Y-15711446D01*
X53070549Y-15774474D01*
X53051010Y-15797627D01*
X53014580Y-15839545D01*
X52973318Y-15912208D01*
X52970345Y-15918563D01*
X52924281Y-16010569D01*
X52865992Y-16117021D01*
X52849850Y-16144875D01*
X52785774Y-16257618D01*
X52719469Y-16380049D01*
X52704373Y-16409002D01*
X52645143Y-16512473D01*
X52581731Y-16606790D01*
X52562577Y-16631252D01*
X52506223Y-16711593D01*
X52469416Y-16786751D01*
X52469079Y-16787812D01*
X52440783Y-16843197D01*
X52417110Y-16859250D01*
X52388663Y-16883748D01*
X52387500Y-16893141D01*
X52368853Y-16933522D01*
X52320004Y-17006603D01*
X52252562Y-17095242D01*
X52175331Y-17193419D01*
X52108274Y-17281968D01*
X52070000Y-17335755D01*
X52011737Y-17416152D01*
X51958875Y-17481392D01*
X51890724Y-17563123D01*
X51831875Y-17637196D01*
X51754623Y-17734295D01*
X51668871Y-17837109D01*
X51585598Y-17933088D01*
X51515782Y-18009685D01*
X51470402Y-18054350D01*
X51461568Y-18060458D01*
X51435152Y-18095489D01*
X51435000Y-18098489D01*
X51413781Y-18127854D01*
X51355959Y-18192715D01*
X51270285Y-18284179D01*
X51165509Y-18393353D01*
X51050383Y-18511344D01*
X50933658Y-18629260D01*
X50824084Y-18738207D01*
X50730414Y-18829293D01*
X50661396Y-18893624D01*
X50625784Y-18922308D01*
X50623645Y-18923000D01*
X50607732Y-18930926D01*
X50576237Y-18960450D01*
X50520812Y-19020189D01*
X50433110Y-19118762D01*
X50423753Y-19129375D01*
X50377132Y-19170245D01*
X50323653Y-19208750D01*
X50261159Y-19255999D01*
X50174300Y-19328820D01*
X50105080Y-19390413D01*
X50025830Y-19460493D01*
X49965485Y-19509337D01*
X49939540Y-19525350D01*
X49908775Y-19546047D01*
X49845384Y-19599784D01*
X49762389Y-19675461D01*
X49752250Y-19685000D01*
X49667499Y-19762397D01*
X49600391Y-19818906D01*
X49564137Y-19843472D01*
X49562571Y-19843750D01*
X49529258Y-19861927D01*
X49462050Y-19908698D01*
X49376176Y-19972418D01*
X49286864Y-20041443D01*
X49209344Y-20104128D01*
X49158845Y-20148829D01*
X49149000Y-20159966D01*
X49112127Y-20189739D01*
X49043459Y-20230004D01*
X49035503Y-20234131D01*
X48948219Y-20289183D01*
X48854125Y-20363041D01*
X48833708Y-20381436D01*
X48760915Y-20440795D01*
X48700760Y-20475250D01*
X48685267Y-20478750D01*
X48645192Y-20495262D01*
X48641000Y-20507394D01*
X48614302Y-20536537D01*
X48549659Y-20567855D01*
X48545750Y-20569242D01*
X48479701Y-20601878D01*
X48450569Y-20635296D01*
X48450500Y-20636634D01*
X48424188Y-20672008D01*
X48371125Y-20701000D01*
X48312304Y-20732973D01*
X48291750Y-20760272D01*
X48264689Y-20788213D01*
X48205857Y-20810923D01*
X48125207Y-20849050D01*
X48077056Y-20893740D01*
X48024834Y-20942144D01*
X47987039Y-20955000D01*
X47929079Y-20973961D01*
X47848408Y-21020341D01*
X47768877Y-21078380D01*
X47714336Y-21132319D01*
X47710734Y-21137562D01*
X47660151Y-21171769D01*
X47627309Y-21177250D01*
X47558372Y-21200245D01*
X47530296Y-21224216D01*
X47474752Y-21272308D01*
X47399409Y-21319466D01*
X47300895Y-21371190D01*
X47212250Y-21417700D01*
X47147725Y-21459366D01*
X47117342Y-21494396D01*
X47117000Y-21497075D01*
X47090167Y-21520333D01*
X47048062Y-21526500D01*
X46967219Y-21547481D01*
X46928005Y-21572762D01*
X46867199Y-21616841D01*
X46766860Y-21678696D01*
X46644544Y-21748291D01*
X46517802Y-21815592D01*
X46418500Y-21864052D01*
X46332626Y-21905214D01*
X46266443Y-21939689D01*
X46259750Y-21943561D01*
X46195070Y-21976187D01*
X46124812Y-22006314D01*
X46062602Y-22038384D01*
X46037500Y-22065913D01*
X46010452Y-22090889D01*
X45950187Y-22113008D01*
X45862628Y-22151824D01*
X45806075Y-22195825D01*
X45731471Y-22243276D01*
X45668208Y-22256750D01*
X45584893Y-22276333D01*
X45506413Y-22320249D01*
X45438290Y-22364767D01*
X45386375Y-22383742D01*
X45385740Y-22383750D01*
X45340587Y-22409278D01*
X45327518Y-22431375D01*
X45285003Y-22468465D01*
X45233729Y-22479000D01*
X45154662Y-22499494D01*
X45085000Y-22542500D01*
X45010041Y-22588872D01*
X44944331Y-22606000D01*
X44867927Y-22623970D01*
X44802082Y-22658389D01*
X44682217Y-22733920D01*
X44557963Y-22798563D01*
X44448077Y-22843521D01*
X44372341Y-22860000D01*
X44307184Y-22878112D01*
X44279768Y-22907625D01*
X44236171Y-22949152D01*
X44204933Y-22956327D01*
X44142150Y-22970353D01*
X44053109Y-23004171D01*
X44021375Y-23018750D01*
X43938340Y-23056385D01*
X43879317Y-23078674D01*
X43867632Y-23081172D01*
X43826196Y-23099889D01*
X43762831Y-23143662D01*
X43760163Y-23145750D01*
X43671930Y-23191898D01*
X43585538Y-23209250D01*
X43491880Y-23229243D01*
X43410913Y-23272750D01*
X43338756Y-23317932D01*
X43278905Y-23337259D01*
X43213928Y-23356414D01*
X43165994Y-23384884D01*
X43085870Y-23421340D01*
X43020039Y-23431500D01*
X42933816Y-23452284D01*
X42862500Y-23495000D01*
X42782998Y-23541721D01*
X42710307Y-23558500D01*
X42632335Y-23571909D01*
X42532993Y-23605442D01*
X42500852Y-23619469D01*
X42332021Y-23697568D01*
X42209629Y-23751801D01*
X42123093Y-23786239D01*
X42061828Y-23804956D01*
X42015250Y-23812022D01*
X41999113Y-23812500D01*
X41922998Y-23828510D01*
X41881538Y-23856162D01*
X41827973Y-23889472D01*
X41742086Y-23915891D01*
X41723101Y-23919366D01*
X41614670Y-23945702D01*
X41515778Y-23983398D01*
X41509388Y-23986632D01*
X41433159Y-24020240D01*
X41377331Y-24034550D01*
X41376922Y-24034554D01*
X41324915Y-24048309D01*
X41243494Y-24082569D01*
X41211500Y-24098250D01*
X41114401Y-24138429D01*
X41025709Y-24160370D01*
X41006274Y-24161750D01*
X40926306Y-24176750D01*
X40829453Y-24213931D01*
X40807042Y-24225250D01*
X40705592Y-24266628D01*
X40605906Y-24287964D01*
X40588795Y-24288750D01*
X40506987Y-24301778D01*
X40452879Y-24332303D01*
X40401056Y-24362014D01*
X40312639Y-24386019D01*
X40270439Y-24392345D01*
X40178304Y-24409510D01*
X40114678Y-24433818D01*
X40101691Y-24445167D01*
X40058094Y-24472572D01*
X39978019Y-24495119D01*
X39954805Y-24498936D01*
X39847048Y-24522488D01*
X39724090Y-24560951D01*
X39681614Y-24577186D01*
X39577084Y-24613342D01*
X39483078Y-24635123D01*
X39451311Y-24638000D01*
X39370777Y-24653017D01*
X39273600Y-24690237D01*
X39251292Y-24701500D01*
X39145820Y-24743467D01*
X39038300Y-24765220D01*
X39021220Y-24766009D01*
X38926374Y-24779852D01*
X38850289Y-24811952D01*
X38847994Y-24813634D01*
X38774038Y-24845863D01*
X38678852Y-24860383D01*
X38673369Y-24860445D01*
X38565004Y-24875234D01*
X38466060Y-24909820D01*
X38384662Y-24939629D01*
X38267470Y-24967864D01*
X38158537Y-24985770D01*
X38037249Y-25007104D01*
X37932488Y-25036173D01*
X37872724Y-25063396D01*
X37793199Y-25096790D01*
X37690545Y-25113727D01*
X37671375Y-25114250D01*
X37569898Y-25126242D01*
X37484694Y-25155809D01*
X37473062Y-25162976D01*
X37405999Y-25190888D01*
X37299609Y-25215662D01*
X37188185Y-25230713D01*
X37071461Y-25245960D01*
X36976264Y-25267284D01*
X36925250Y-25288897D01*
X36871509Y-25310771D01*
X36774404Y-25331814D01*
X36653978Y-25347784D01*
X36641861Y-25348900D01*
X36522464Y-25362823D01*
X36426563Y-25380194D01*
X36373012Y-25397510D01*
X36370411Y-25399347D01*
X36318713Y-25421755D01*
X36231153Y-25442921D01*
X36193424Y-25449145D01*
X36080956Y-25471323D01*
X35946809Y-25506142D01*
X35869436Y-25529912D01*
X35737230Y-25564406D01*
X35598935Y-25586350D01*
X35529298Y-25590500D01*
X35402493Y-25603267D01*
X35264447Y-25635528D01*
X35210750Y-25654000D01*
X35078447Y-25692585D01*
X34934451Y-25715084D01*
X34882549Y-25717500D01*
X34780650Y-25724130D01*
X34703188Y-25741084D01*
X34678545Y-25754404D01*
X34632324Y-25772702D01*
X34538733Y-25791342D01*
X34413825Y-25807499D01*
X34338561Y-25814231D01*
X34202169Y-25827950D01*
X34087198Y-25845778D01*
X34010234Y-25864842D01*
X33990476Y-25874505D01*
X33941991Y-25891812D01*
X33844894Y-25910206D01*
X33713979Y-25927323D01*
X33585922Y-25939194D01*
X33431117Y-25953560D01*
X33290893Y-25971247D01*
X33182711Y-25989786D01*
X33131125Y-26003509D01*
X33058190Y-26022616D01*
X32941442Y-26043234D01*
X32800393Y-26062168D01*
X32722482Y-26070426D01*
X32581163Y-26086698D01*
X32458403Y-26105872D01*
X32371612Y-26124984D01*
X32344872Y-26134733D01*
X32289420Y-26149084D01*
X32185146Y-26163104D01*
X32046715Y-26175229D01*
X31888795Y-26183898D01*
X31880390Y-26184222D01*
X31716278Y-26193374D01*
X31568334Y-26207020D01*
X31452405Y-26223366D01*
X31384875Y-26240381D01*
X31318574Y-26256959D01*
X31203632Y-26273641D01*
X31054883Y-26288715D01*
X30887160Y-26300470D01*
X30845125Y-26302637D01*
X30673227Y-26312489D01*
X30514921Y-26324556D01*
X30385663Y-26337454D01*
X30300910Y-26349799D01*
X30289500Y-26352373D01*
X30221054Y-26363804D01*
X30102400Y-26377282D01*
X29946745Y-26391562D01*
X29767294Y-26405399D01*
X29632919Y-26414257D01*
X29446655Y-26427341D01*
X29276814Y-26442407D01*
X29135997Y-26458096D01*
X29036805Y-26473050D01*
X28997919Y-26482722D01*
X28942156Y-26492459D01*
X28826298Y-26502302D01*
X28653750Y-26512102D01*
X28427918Y-26521713D01*
X28152205Y-26530985D01*
X27830016Y-26539772D01*
X27527250Y-26546641D01*
X27218443Y-26553561D01*
X26913702Y-26561279D01*
X26622306Y-26569497D01*
X26353532Y-26577918D01*
X26116658Y-26586246D01*
X25920962Y-26594182D01*
X25775721Y-26601430D01*
X25733375Y-26604101D01*
X25013203Y-26628635D01*
X24302453Y-26603015D01*
X24288750Y-26602007D01*
X24179345Y-26595814D01*
X24016122Y-26589188D01*
X23808758Y-26582399D01*
X23566931Y-26575716D01*
X23300319Y-26569407D01*
X23018599Y-26563741D01*
X22748875Y-26559245D01*
X22473972Y-26554759D01*
X22215620Y-26549809D01*
X21981522Y-26544596D01*
X21779381Y-26539323D01*
X21616900Y-26534194D01*
X21501782Y-26529410D01*
X21441731Y-26525173D01*
X21439187Y-26524810D01*
X21359160Y-26501038D01*
X21341585Y-26467122D01*
X21386869Y-26426061D01*
X21423312Y-26408028D01*
X21492019Y-26372322D01*
X21529426Y-26343505D01*
X21568614Y-26325620D01*
X21651676Y-26305367D01*
X21743571Y-26289731D01*
X21855754Y-26267178D01*
X21946852Y-26236940D01*
X21988975Y-26212060D01*
X22058367Y-26173500D01*
X22124080Y-26161881D01*
X22208714Y-26145143D01*
X22302828Y-26104398D01*
X22313079Y-26098381D01*
X22402751Y-26055897D01*
X22485387Y-26035350D01*
X22494064Y-26035000D01*
X22564431Y-26016687D01*
X22598308Y-25986370D01*
X22645246Y-25950614D01*
X22727560Y-25922855D01*
X22750699Y-25918575D01*
X22843963Y-25896117D01*
X22914617Y-25865110D01*
X22923500Y-25858553D01*
X22988785Y-25821050D01*
X23066060Y-25793993D01*
X23148600Y-25763341D01*
X23203265Y-25728019D01*
X23267018Y-25694626D01*
X23323639Y-25685750D01*
X23390037Y-25669197D01*
X23419273Y-25640065D01*
X23460100Y-25601978D01*
X23534521Y-25573059D01*
X23537339Y-25572427D01*
X23636051Y-25536930D01*
X23713594Y-25491112D01*
X23780244Y-25448377D01*
X23828769Y-25431750D01*
X23880538Y-25409532D01*
X23907750Y-25384125D01*
X23970136Y-25345182D01*
X24017841Y-25336500D01*
X24092347Y-25313802D01*
X24145875Y-25273000D01*
X24208110Y-25224921D01*
X24257062Y-25209500D01*
X24318757Y-25189711D01*
X24384000Y-25146000D01*
X24454983Y-25099943D01*
X24514280Y-25082500D01*
X24576443Y-25061215D01*
X24596734Y-25040076D01*
X24637305Y-25003922D01*
X24716659Y-24953392D01*
X24796750Y-24910169D01*
X24967406Y-24823168D01*
X25090173Y-24756659D01*
X25175004Y-24704929D01*
X25231850Y-24662263D01*
X25238004Y-24656811D01*
X25294386Y-24617035D01*
X25326204Y-24606250D01*
X25371312Y-24587133D01*
X25431750Y-24542750D01*
X25503329Y-24496645D01*
X25563608Y-24479250D01*
X25612546Y-24468025D01*
X25622250Y-24454345D01*
X25646558Y-24422773D01*
X25706528Y-24376723D01*
X25721485Y-24367033D01*
X25900691Y-24256192D01*
X26032534Y-24178995D01*
X26121693Y-24132702D01*
X26122312Y-24132419D01*
X26176896Y-24097725D01*
X26193750Y-24072382D01*
X26218716Y-24038589D01*
X26265187Y-24007759D01*
X26337632Y-23967049D01*
X26428547Y-23909678D01*
X26550206Y-23827696D01*
X26652308Y-23756937D01*
X26736670Y-23700632D01*
X26799862Y-23663153D01*
X26822704Y-23653750D01*
X26855066Y-23629999D01*
X26884881Y-23590250D01*
X26928588Y-23540547D01*
X26957923Y-23526750D01*
X27001109Y-23508222D01*
X27076860Y-23460322D01*
X27169165Y-23394576D01*
X27262015Y-23322510D01*
X27339398Y-23255650D01*
X27353741Y-23241806D01*
X27411130Y-23194865D01*
X27450471Y-23177500D01*
X27502268Y-23156924D01*
X27577561Y-23104966D01*
X27656110Y-23036274D01*
X27680788Y-23010812D01*
X27733435Y-22967217D01*
X27764793Y-22955250D01*
X27805601Y-22931171D01*
X27837381Y-22891750D01*
X27882111Y-22841986D01*
X27912905Y-22828250D01*
X27954820Y-22808543D01*
X28025105Y-22757741D01*
X28082965Y-22709187D01*
X28175472Y-22629130D01*
X28263222Y-22556428D01*
X28301169Y-22526625D01*
X28377721Y-22465900D01*
X28470382Y-22388669D01*
X28503902Y-22359832D01*
X28588978Y-22294357D01*
X28667395Y-22247747D01*
X28694062Y-22237328D01*
X28749717Y-22207167D01*
X28765500Y-22177584D01*
X28789742Y-22132924D01*
X28846997Y-22083653D01*
X28931969Y-22020032D01*
X28994037Y-21964712D01*
X29046260Y-21917181D01*
X29134026Y-21842049D01*
X29243214Y-21751278D01*
X29317352Y-21690873D01*
X29427319Y-21600081D01*
X29519203Y-21520620D01*
X29581223Y-21462884D01*
X29600515Y-21441038D01*
X29638284Y-21403692D01*
X29652422Y-21399500D01*
X29684602Y-21378646D01*
X29751583Y-21322101D01*
X29843080Y-21238886D01*
X29932946Y-21153437D01*
X30103569Y-20990242D01*
X30295196Y-20810390D01*
X30491313Y-20629142D01*
X30675404Y-20461761D01*
X30830952Y-20323509D01*
X30832448Y-20322202D01*
X30921837Y-20239735D01*
X31045898Y-20119001D01*
X31196353Y-19968504D01*
X31364920Y-19796745D01*
X31543320Y-19612226D01*
X31723272Y-19423451D01*
X31896498Y-19238920D01*
X32054716Y-19067138D01*
X32055011Y-19066814D01*
X32193483Y-18915785D01*
X32337281Y-18760885D01*
X32472155Y-18617343D01*
X32583855Y-18500386D01*
X32615187Y-18468193D01*
X32707231Y-18372430D01*
X32779704Y-18293426D01*
X32822813Y-18242053D01*
X32830508Y-18229129D01*
X32851747Y-18196654D01*
X32904689Y-18136929D01*
X32941633Y-18099028D01*
X33005898Y-18029208D01*
X33045573Y-17974822D01*
X33051750Y-17958477D01*
X33072136Y-17919879D01*
X33124519Y-17853840D01*
X33170812Y-17802957D01*
X33267033Y-17702392D01*
X33368779Y-17596200D01*
X33403425Y-17560083D01*
X33473174Y-17481444D01*
X33523855Y-17413444D01*
X33537366Y-17388637D01*
X33568896Y-17343298D01*
X33587193Y-17335500D01*
X33619143Y-17310868D01*
X33670817Y-17247288D01*
X33713840Y-17184687D01*
X33788193Y-17077436D01*
X33867648Y-16974761D01*
X33902984Y-16933836D01*
X33968466Y-16858048D01*
X34053909Y-16753151D01*
X34141483Y-16641065D01*
X34146491Y-16634492D01*
X34233617Y-16519978D01*
X34293694Y-16441756D01*
X34338214Y-16385648D01*
X34378670Y-16337481D01*
X34426553Y-16283078D01*
X34479085Y-16224250D01*
X34547211Y-16142612D01*
X34593670Y-16076677D01*
X34607104Y-16046323D01*
X34627019Y-16000437D01*
X34674838Y-15936573D01*
X34678937Y-15931966D01*
X34808417Y-15785876D01*
X34895956Y-15681402D01*
X34944336Y-15615081D01*
X34956750Y-15586232D01*
X34974716Y-15550834D01*
X35021634Y-15479989D01*
X35087028Y-15388029D01*
X35160424Y-15289285D01*
X35231349Y-15198089D01*
X35289329Y-15128773D01*
X35298062Y-15119211D01*
X35332670Y-15058420D01*
X35337750Y-15030360D01*
X35363255Y-14978680D01*
X35382246Y-14966932D01*
X35430728Y-14924245D01*
X35445017Y-14896491D01*
X35472450Y-14846053D01*
X35527761Y-14762754D01*
X35599566Y-14663637D01*
X35607888Y-14652625D01*
X35686638Y-14543306D01*
X35755205Y-14438353D01*
X35798994Y-14360134D01*
X35799543Y-14358937D01*
X35838630Y-14290574D01*
X35873568Y-14256583D01*
X35877926Y-14255750D01*
X35906529Y-14230403D01*
X35909250Y-14213045D01*
X35931012Y-14161234D01*
X35972750Y-14112875D01*
X36020936Y-14049124D01*
X36036250Y-13997946D01*
X36061680Y-13937396D01*
X36096097Y-13908454D01*
X36149253Y-13854397D01*
X36176759Y-13793494D01*
X36197882Y-13729450D01*
X36233451Y-13669136D01*
X36296483Y-13592283D01*
X36329937Y-13554974D01*
X36372597Y-13490770D01*
X36385500Y-13446125D01*
X36406517Y-13389785D01*
X36449000Y-13335000D01*
X36495395Y-13280791D01*
X36512500Y-13247005D01*
X36528916Y-13210247D01*
X36572133Y-13136451D01*
X36633103Y-13040993D01*
X36638602Y-13032693D01*
X36701433Y-12931099D01*
X36746900Y-12844221D01*
X36765546Y-12790218D01*
X36765602Y-12788890D01*
X36787496Y-12727731D01*
X36806187Y-12709515D01*
X36851544Y-12663364D01*
X36910105Y-12571657D01*
X36979374Y-12441403D01*
X37026660Y-12365871D01*
X37068783Y-12318453D01*
X37106024Y-12257529D01*
X37115750Y-12202990D01*
X37132633Y-12137254D01*
X37161434Y-12108976D01*
X37200322Y-12067898D01*
X37227928Y-11996702D01*
X37256216Y-11923941D01*
X37293368Y-11884832D01*
X37327970Y-11843312D01*
X37338000Y-11791417D01*
X37361348Y-11712436D01*
X37401500Y-11660758D01*
X37449676Y-11604386D01*
X37465000Y-11563223D01*
X37480238Y-11515628D01*
X37520237Y-11431901D01*
X37576418Y-11329955D01*
X37577846Y-11327516D01*
X37638364Y-11215502D01*
X37686013Y-11111320D01*
X37709360Y-11041633D01*
X37735939Y-10969563D01*
X37771139Y-10931749D01*
X37808998Y-10889685D01*
X37814250Y-10862570D01*
X37828647Y-10802426D01*
X37864518Y-10717301D01*
X37877750Y-10691457D01*
X37917748Y-10606348D01*
X37939768Y-10539126D01*
X37941250Y-10526357D01*
X37966386Y-10474820D01*
X38000407Y-10448073D01*
X38048812Y-10389850D01*
X38076644Y-10289076D01*
X38099993Y-10194091D01*
X38136036Y-10120883D01*
X38144487Y-10110977D01*
X38185769Y-10046535D01*
X38195250Y-10005050D01*
X38213721Y-9936729D01*
X38241865Y-9888255D01*
X38279769Y-9811315D01*
X38289490Y-9759469D01*
X38309338Y-9685506D01*
X38349400Y-9616594D01*
X38394579Y-9534000D01*
X38428335Y-9430493D01*
X38431398Y-9415496D01*
X38457891Y-9316713D01*
X38493228Y-9235661D01*
X38499498Y-9225869D01*
X38534879Y-9157700D01*
X38544500Y-9115622D01*
X38564479Y-9056101D01*
X38591962Y-9017179D01*
X38624100Y-8955435D01*
X38651258Y-8858959D01*
X38659848Y-8808304D01*
X38678430Y-8707903D01*
X38702407Y-8630647D01*
X38714232Y-8608923D01*
X38740213Y-8555233D01*
X38775511Y-8454097D01*
X38815735Y-8320075D01*
X38856495Y-8167724D01*
X38890690Y-8023901D01*
X38921804Y-7929002D01*
X38963127Y-7853854D01*
X38969028Y-7846776D01*
X39007465Y-7762476D01*
X39021775Y-7623289D01*
X39021827Y-7617499D01*
X39038392Y-7463194D01*
X39080515Y-7326344D01*
X39084250Y-7318375D01*
X39124734Y-7205093D01*
X39146871Y-7086436D01*
X39148066Y-7064375D01*
X39161475Y-6946957D01*
X39191106Y-6825531D01*
X39196290Y-6810375D01*
X39220176Y-6711248D01*
X39236908Y-6579274D01*
X39242521Y-6458977D01*
X39252006Y-6307430D01*
X39276245Y-6135772D01*
X39305752Y-5998602D01*
X39331592Y-5866052D01*
X39351458Y-5693778D01*
X39365217Y-5495150D01*
X39372733Y-5283537D01*
X39373872Y-5072306D01*
X39368502Y-4874825D01*
X39356487Y-4704464D01*
X39337693Y-4574591D01*
X39320637Y-4515417D01*
X39294342Y-4427389D01*
X39269060Y-4300280D01*
X39249442Y-4158402D01*
X39246277Y-4126845D01*
X39230500Y-3993746D01*
X39210591Y-3878376D01*
X39190166Y-3800591D01*
X39184514Y-3787620D01*
X39155092Y-3709271D01*
X39147750Y-3660804D01*
X39133237Y-3596852D01*
X39097117Y-3509422D01*
X39084250Y-3484207D01*
X39043089Y-3391622D01*
X39020154Y-3309638D01*
X39018640Y-3294177D01*
X39001684Y-3227908D01*
X38960278Y-3133232D01*
X38922607Y-3063875D01*
X38863033Y-2959119D01*
X38811943Y-2862346D01*
X38790756Y-2817812D01*
X38756649Y-2755918D01*
X38728465Y-2730500D01*
X38701139Y-2704320D01*
X38665747Y-2640034D01*
X38660141Y-2627312D01*
X38615340Y-2552130D01*
X38540459Y-2454897D01*
X38453340Y-2358387D01*
X38373904Y-2273629D01*
X38315928Y-2204317D01*
X38290775Y-2164149D01*
X38290500Y-2162089D01*
X38319041Y-2129121D01*
X38395075Y-2110041D01*
X38504215Y-2104477D01*
X38632077Y-2112059D01*
X38632077Y-2112059D01*
G37*
X38632077Y-2112059D02*
X38764273Y-2132415D01*
X38886418Y-2165173D01*
X38921439Y-2178381D01*
X39022473Y-2209157D01*
X39118450Y-2222485D01*
X39120897Y-2222500D01*
X39214550Y-2235178D01*
X39317191Y-2265987D01*
X39324299Y-2268883D01*
X39411458Y-2294640D01*
X39536029Y-2318653D01*
X39672007Y-2335966D01*
X39680467Y-2336728D01*
X39817693Y-2355217D01*
X39946467Y-2383513D01*
X40039993Y-2415663D01*
X40043422Y-2417345D01*
X40163209Y-2457608D01*
X40302528Y-2476151D01*
X40322254Y-2476500D01*
X40444028Y-2486411D01*
X40560802Y-2511357D01*
X40597272Y-2524125D01*
X40695731Y-2556180D01*
X40785856Y-2571622D01*
X40794689Y-2571868D01*
X40878110Y-2588564D01*
X40971606Y-2629221D01*
X40982079Y-2635368D01*
X41116998Y-2686119D01*
X41260007Y-2698750D01*
X41434597Y-2718358D01*
X41549168Y-2760487D01*
X41650788Y-2801221D01*
X41776769Y-2833943D01*
X41835223Y-2843573D01*
X41933167Y-2859937D01*
X42002301Y-2879182D01*
X42022284Y-2891126D01*
X42060828Y-2910640D01*
X42140246Y-2930399D01*
X42188552Y-2938423D01*
X42284205Y-2958744D01*
X42353831Y-2985936D01*
X42370375Y-2998717D01*
X42417050Y-3022136D01*
X42506219Y-3043352D01*
X42598577Y-3055643D01*
X42716254Y-3073321D01*
X42817519Y-3100722D01*
X42867579Y-3124184D01*
X42945401Y-3162884D01*
X43004502Y-3175195D01*
X43078389Y-3189830D01*
X43160388Y-3223117D01*
X43253992Y-3259723D01*
X43365224Y-3287730D01*
X43382638Y-3290643D01*
X43478666Y-3313845D01*
X43553283Y-3346621D01*
X43564910Y-3355124D01*
X43625195Y-3385768D01*
X43721554Y-3414195D01*
X43781133Y-3425837D01*
X43881947Y-3447294D01*
X43958297Y-3473469D01*
X43982010Y-3488060D01*
X44044429Y-3520968D01*
X44068636Y-3524249D01*
X44128078Y-3538066D01*
X44212552Y-3572351D01*
X44234806Y-3583254D01*
X44344136Y-3628200D01*
X44456946Y-3659370D01*
X44467707Y-3661272D01*
X44560226Y-3685826D01*
X44631059Y-3720635D01*
X44636500Y-3724972D01*
X44700828Y-3758768D01*
X44794099Y-3785431D01*
X44814875Y-3789081D01*
X44897172Y-3808426D01*
X44946985Y-3832852D01*
X44952123Y-3839996D01*
X44987375Y-3865497D01*
X45061046Y-3888339D01*
X45079373Y-3891906D01*
X45164870Y-3915285D01*
X45223016Y-3946152D01*
X45227875Y-3951142D01*
X45278104Y-3981104D01*
X45362058Y-4005984D01*
X45382625Y-4009748D01*
X45477527Y-4035132D01*
X45551593Y-4071925D01*
X45559750Y-4078517D01*
X45633951Y-4117335D01*
X45693766Y-4127499D01*
X45776011Y-4150508D01*
X45831125Y-4191000D01*
X45900977Y-4239605D01*
X45960777Y-4254500D01*
X46038860Y-4273644D01*
X46078078Y-4299614D01*
X46136434Y-4336162D01*
X46226405Y-4371790D01*
X46254971Y-4380213D01*
X46335469Y-4407438D01*
X46382090Y-4433946D01*
X46386750Y-4442165D01*
X46414743Y-4463373D01*
X46484492Y-4483679D01*
X46510284Y-4488388D01*
X46593861Y-4512277D01*
X46646698Y-4546839D01*
X46652162Y-4555946D01*
X46695733Y-4597163D01*
X46727066Y-4603959D01*
X46790983Y-4620989D01*
X46871101Y-4662219D01*
X46878875Y-4667250D01*
X46964154Y-4710614D01*
X47042147Y-4730420D01*
X47046558Y-4730540D01*
X47110632Y-4748485D01*
X47136523Y-4776434D01*
X47177806Y-4815933D01*
X47244458Y-4841975D01*
X47323320Y-4871037D01*
X47371000Y-4905374D01*
X47426971Y-4943475D01*
X47502339Y-4969828D01*
X47575270Y-4998095D01*
X47614667Y-5035368D01*
X47656418Y-5070872D01*
X47702851Y-5079999D01*
X47777762Y-5102714D01*
X47831375Y-5143500D01*
X47894658Y-5191653D01*
X47945152Y-5207000D01*
X48015536Y-5228422D01*
X48043674Y-5249210D01*
X48116496Y-5304134D01*
X48227647Y-5367792D01*
X48355540Y-5427896D01*
X48363187Y-5431084D01*
X48425332Y-5465607D01*
X48450500Y-5496641D01*
X48476818Y-5527957D01*
X48534841Y-5558138D01*
X48610160Y-5594623D01*
X48708542Y-5652041D01*
X48763403Y-5687537D01*
X48859349Y-5748377D01*
X48945448Y-5796487D01*
X48980686Y-5812649D01*
X49036591Y-5845551D01*
X49053750Y-5872964D01*
X49079073Y-5902666D01*
X49096454Y-5905500D01*
X49148265Y-5927262D01*
X49196625Y-5969000D01*
X49260375Y-6017186D01*
X49311553Y-6032500D01*
X49372103Y-6057930D01*
X49401045Y-6092347D01*
X49456522Y-6148135D01*
X49505350Y-6170555D01*
X49575457Y-6203401D01*
X49658183Y-6261662D01*
X49676573Y-6277395D01*
X49750990Y-6341512D01*
X49812144Y-6390173D01*
X49822636Y-6397625D01*
X49876623Y-6433822D01*
X49958459Y-6488507D01*
X49997717Y-6514697D01*
X50094905Y-6583673D01*
X50184070Y-6653579D01*
X50207041Y-6673447D01*
X50310786Y-6764830D01*
X50417268Y-6854956D01*
X50511900Y-6931825D01*
X50580098Y-6983432D01*
X50597607Y-6994835D01*
X50665995Y-7044705D01*
X50769794Y-7133980D01*
X50901587Y-7255182D01*
X51053956Y-7400835D01*
X51219483Y-7563462D01*
X51390750Y-7735586D01*
X51560340Y-7909729D01*
X51720834Y-8078415D01*
X51864815Y-8234166D01*
X51984866Y-8369505D01*
X52073569Y-8476956D01*
X52091590Y-8500771D01*
X52176557Y-8612587D01*
X52253734Y-8707614D01*
X52311602Y-8771955D01*
X52330157Y-8788612D01*
X52376310Y-8839329D01*
X52387500Y-8872528D01*
X52413076Y-8919919D01*
X52435125Y-8933231D01*
X52477341Y-8974395D01*
X52482750Y-8997860D01*
X52503191Y-9059970D01*
X52522437Y-9086169D01*
X52576432Y-9152089D01*
X52636897Y-9238355D01*
X52691600Y-9325776D01*
X52728308Y-9395160D01*
X52736750Y-9422401D01*
X52761698Y-9464996D01*
X52800250Y-9493249D01*
X52852178Y-9552052D01*
X52863750Y-9603914D01*
X52878737Y-9673411D01*
X52903437Y-9705984D01*
X52940539Y-9749760D01*
X52993315Y-9836212D01*
X53053778Y-9949087D01*
X53113945Y-10072132D01*
X53165830Y-10189096D01*
X53201449Y-10283725D01*
X53213000Y-10336085D01*
X53238726Y-10411531D01*
X53276500Y-10445749D01*
X53329437Y-10507154D01*
X53341009Y-10565929D01*
X53359062Y-10655607D01*
X53388634Y-10713755D01*
X53423062Y-10790843D01*
X53435459Y-10872505D01*
X53453624Y-10967509D01*
X53497195Y-11062499D01*
X53498750Y-11064875D01*
X53543046Y-11161660D01*
X53562030Y-11262402D01*
X53562040Y-11263981D01*
X53570427Y-11346831D01*
X53592245Y-11465283D01*
X53622822Y-11594075D01*
X53623698Y-11597356D01*
X53680969Y-11830647D01*
X53722310Y-12050117D01*
X53750384Y-12276119D01*
X53767858Y-12529010D01*
X53775884Y-12759742D01*
X53778896Y-12992650D01*
X53774778Y-13175867D01*
X53762815Y-13322879D01*
X53742289Y-13447171D01*
X53738469Y-13464510D01*
X53712964Y-13592477D01*
X53695176Y-13711976D01*
X53689250Y-13789568D01*
X53679400Y-13878346D01*
X53653855Y-13997729D01*
X53625750Y-14097000D01*
X53591912Y-14219507D01*
X53568877Y-14334634D01*
X53562250Y-14402876D01*
X53546647Y-14502114D01*
X53508169Y-14609699D01*
X53498750Y-14628457D01*
X53457644Y-14723560D01*
X53435441Y-14810619D01*
X53434240Y-14826779D01*
X53414686Y-14915462D01*
X53386615Y-14968255D01*
X53349113Y-15045751D01*
X53340000Y-15098335D01*
X53319736Y-15171718D01*
X53276500Y-15239999D01*
X53229562Y-15322384D01*
X53213000Y-15399326D01*
X53193256Y-15486686D01*
X53149500Y-15566163D01*
X53104241Y-15643085D01*
X53086000Y-15711446D01*
X53070549Y-15774474D01*
X53051010Y-15797627D01*
X53014580Y-15839545D01*
X52973318Y-15912208D01*
X52970345Y-15918563D01*
X52924281Y-16010569D01*
X52865992Y-16117021D01*
X52849850Y-16144875D01*
X52785774Y-16257618D01*
X52719469Y-16380049D01*
X52704373Y-16409002D01*
X52645143Y-16512473D01*
X52581731Y-16606790D01*
X52562577Y-16631252D01*
X52506223Y-16711593D01*
X52469416Y-16786751D01*
X52469079Y-16787812D01*
X52440783Y-16843197D01*
X52417110Y-16859250D01*
X52388663Y-16883748D01*
X52387500Y-16893141D01*
X52368853Y-16933522D01*
X52320004Y-17006603D01*
X52252562Y-17095242D01*
X52175331Y-17193419D01*
X52108274Y-17281968D01*
X52070000Y-17335755D01*
X52011737Y-17416152D01*
X51958875Y-17481392D01*
X51890724Y-17563123D01*
X51831875Y-17637196D01*
X51754623Y-17734295D01*
X51668871Y-17837109D01*
X51585598Y-17933088D01*
X51515782Y-18009685D01*
X51470402Y-18054350D01*
X51461568Y-18060458D01*
X51435152Y-18095489D01*
X51435000Y-18098489D01*
X51413781Y-18127854D01*
X51355959Y-18192715D01*
X51270285Y-18284179D01*
X51165509Y-18393353D01*
X51050383Y-18511344D01*
X50933658Y-18629260D01*
X50824084Y-18738207D01*
X50730414Y-18829293D01*
X50661396Y-18893624D01*
X50625784Y-18922308D01*
X50623645Y-18923000D01*
X50607732Y-18930926D01*
X50576237Y-18960450D01*
X50520812Y-19020189D01*
X50433110Y-19118762D01*
X50423753Y-19129375D01*
X50377132Y-19170245D01*
X50323653Y-19208750D01*
X50261159Y-19255999D01*
X50174300Y-19328820D01*
X50105080Y-19390413D01*
X50025830Y-19460493D01*
X49965485Y-19509337D01*
X49939540Y-19525350D01*
X49908775Y-19546047D01*
X49845384Y-19599784D01*
X49762389Y-19675461D01*
X49752250Y-19685000D01*
X49667499Y-19762397D01*
X49600391Y-19818906D01*
X49564137Y-19843472D01*
X49562571Y-19843750D01*
X49529258Y-19861927D01*
X49462050Y-19908698D01*
X49376176Y-19972418D01*
X49286864Y-20041443D01*
X49209344Y-20104128D01*
X49158845Y-20148829D01*
X49149000Y-20159966D01*
X49112127Y-20189739D01*
X49043459Y-20230004D01*
X49035503Y-20234131D01*
X48948219Y-20289183D01*
X48854125Y-20363041D01*
X48833708Y-20381436D01*
X48760915Y-20440795D01*
X48700760Y-20475250D01*
X48685267Y-20478750D01*
X48645192Y-20495262D01*
X48641000Y-20507394D01*
X48614302Y-20536537D01*
X48549659Y-20567855D01*
X48545750Y-20569242D01*
X48479701Y-20601878D01*
X48450569Y-20635296D01*
X48450500Y-20636634D01*
X48424188Y-20672008D01*
X48371125Y-20701000D01*
X48312304Y-20732973D01*
X48291750Y-20760272D01*
X48264689Y-20788213D01*
X48205857Y-20810923D01*
X48125207Y-20849050D01*
X48077056Y-20893740D01*
X48024834Y-20942144D01*
X47987039Y-20955000D01*
X47929079Y-20973961D01*
X47848408Y-21020341D01*
X47768877Y-21078380D01*
X47714336Y-21132319D01*
X47710734Y-21137562D01*
X47660151Y-21171769D01*
X47627309Y-21177250D01*
X47558372Y-21200245D01*
X47530296Y-21224216D01*
X47474752Y-21272308D01*
X47399409Y-21319466D01*
X47300895Y-21371190D01*
X47212250Y-21417700D01*
X47147725Y-21459366D01*
X47117342Y-21494396D01*
X47117000Y-21497075D01*
X47090167Y-21520333D01*
X47048062Y-21526500D01*
X46967219Y-21547481D01*
X46928005Y-21572762D01*
X46867199Y-21616841D01*
X46766860Y-21678696D01*
X46644544Y-21748291D01*
X46517802Y-21815592D01*
X46418500Y-21864052D01*
X46332626Y-21905214D01*
X46266443Y-21939689D01*
X46259750Y-21943561D01*
X46195070Y-21976187D01*
X46124812Y-22006314D01*
X46062602Y-22038384D01*
X46037500Y-22065913D01*
X46010452Y-22090889D01*
X45950187Y-22113008D01*
X45862628Y-22151824D01*
X45806075Y-22195825D01*
X45731471Y-22243276D01*
X45668208Y-22256750D01*
X45584893Y-22276333D01*
X45506413Y-22320249D01*
X45438290Y-22364767D01*
X45386375Y-22383742D01*
X45385740Y-22383750D01*
X45340587Y-22409278D01*
X45327518Y-22431375D01*
X45285003Y-22468465D01*
X45233729Y-22479000D01*
X45154662Y-22499494D01*
X45085000Y-22542500D01*
X45010041Y-22588872D01*
X44944331Y-22606000D01*
X44867927Y-22623970D01*
X44802082Y-22658389D01*
X44682217Y-22733920D01*
X44557963Y-22798563D01*
X44448077Y-22843521D01*
X44372341Y-22860000D01*
X44307184Y-22878112D01*
X44279768Y-22907625D01*
X44236171Y-22949152D01*
X44204933Y-22956327D01*
X44142150Y-22970353D01*
X44053109Y-23004171D01*
X44021375Y-23018750D01*
X43938340Y-23056385D01*
X43879317Y-23078674D01*
X43867632Y-23081172D01*
X43826196Y-23099889D01*
X43762831Y-23143662D01*
X43760163Y-23145750D01*
X43671930Y-23191898D01*
X43585538Y-23209250D01*
X43491880Y-23229243D01*
X43410913Y-23272750D01*
X43338756Y-23317932D01*
X43278905Y-23337259D01*
X43213928Y-23356414D01*
X43165994Y-23384884D01*
X43085870Y-23421340D01*
X43020039Y-23431500D01*
X42933816Y-23452284D01*
X42862500Y-23495000D01*
X42782998Y-23541721D01*
X42710307Y-23558500D01*
X42632335Y-23571909D01*
X42532993Y-23605442D01*
X42500852Y-23619469D01*
X42332021Y-23697568D01*
X42209629Y-23751801D01*
X42123093Y-23786239D01*
X42061828Y-23804956D01*
X42015250Y-23812022D01*
X41999113Y-23812500D01*
X41922998Y-23828510D01*
X41881538Y-23856162D01*
X41827973Y-23889472D01*
X41742086Y-23915891D01*
X41723101Y-23919366D01*
X41614670Y-23945702D01*
X41515778Y-23983398D01*
X41509388Y-23986632D01*
X41433159Y-24020240D01*
X41377331Y-24034550D01*
X41376922Y-24034554D01*
X41324915Y-24048309D01*
X41243494Y-24082569D01*
X41211500Y-24098250D01*
X41114401Y-24138429D01*
X41025709Y-24160370D01*
X41006274Y-24161750D01*
X40926306Y-24176750D01*
X40829453Y-24213931D01*
X40807042Y-24225250D01*
X40705592Y-24266628D01*
X40605906Y-24287964D01*
X40588795Y-24288750D01*
X40506987Y-24301778D01*
X40452879Y-24332303D01*
X40401056Y-24362014D01*
X40312639Y-24386019D01*
X40270439Y-24392345D01*
X40178304Y-24409510D01*
X40114678Y-24433818D01*
X40101691Y-24445167D01*
X40058094Y-24472572D01*
X39978019Y-24495119D01*
X39954805Y-24498936D01*
X39847048Y-24522488D01*
X39724090Y-24560951D01*
X39681614Y-24577186D01*
X39577084Y-24613342D01*
X39483078Y-24635123D01*
X39451311Y-24638000D01*
X39370777Y-24653017D01*
X39273600Y-24690237D01*
X39251292Y-24701500D01*
X39145820Y-24743467D01*
X39038300Y-24765220D01*
X39021220Y-24766009D01*
X38926374Y-24779852D01*
X38850289Y-24811952D01*
X38847994Y-24813634D01*
X38774038Y-24845863D01*
X38678852Y-24860383D01*
X38673369Y-24860445D01*
X38565004Y-24875234D01*
X38466060Y-24909820D01*
X38384662Y-24939629D01*
X38267470Y-24967864D01*
X38158537Y-24985770D01*
X38037249Y-25007104D01*
X37932488Y-25036173D01*
X37872724Y-25063396D01*
X37793199Y-25096790D01*
X37690545Y-25113727D01*
X37671375Y-25114250D01*
X37569898Y-25126242D01*
X37484694Y-25155809D01*
X37473062Y-25162976D01*
X37405999Y-25190888D01*
X37299609Y-25215662D01*
X37188185Y-25230713D01*
X37071461Y-25245960D01*
X36976264Y-25267284D01*
X36925250Y-25288897D01*
X36871509Y-25310771D01*
X36774404Y-25331814D01*
X36653978Y-25347784D01*
X36641861Y-25348900D01*
X36522464Y-25362823D01*
X36426563Y-25380194D01*
X36373012Y-25397510D01*
X36370411Y-25399347D01*
X36318713Y-25421755D01*
X36231153Y-25442921D01*
X36193424Y-25449145D01*
X36080956Y-25471323D01*
X35946809Y-25506142D01*
X35869436Y-25529912D01*
X35737230Y-25564406D01*
X35598935Y-25586350D01*
X35529298Y-25590500D01*
X35402493Y-25603267D01*
X35264447Y-25635528D01*
X35210750Y-25654000D01*
X35078447Y-25692585D01*
X34934451Y-25715084D01*
X34882549Y-25717500D01*
X34780650Y-25724130D01*
X34703188Y-25741084D01*
X34678545Y-25754404D01*
X34632324Y-25772702D01*
X34538733Y-25791342D01*
X34413825Y-25807499D01*
X34338561Y-25814231D01*
X34202169Y-25827950D01*
X34087198Y-25845778D01*
X34010234Y-25864842D01*
X33990476Y-25874505D01*
X33941991Y-25891812D01*
X33844894Y-25910206D01*
X33713979Y-25927323D01*
X33585922Y-25939194D01*
X33431117Y-25953560D01*
X33290893Y-25971247D01*
X33182711Y-25989786D01*
X33131125Y-26003509D01*
X33058190Y-26022616D01*
X32941442Y-26043234D01*
X32800393Y-26062168D01*
X32722482Y-26070426D01*
X32581163Y-26086698D01*
X32458403Y-26105872D01*
X32371612Y-26124984D01*
X32344872Y-26134733D01*
X32289420Y-26149084D01*
X32185146Y-26163104D01*
X32046715Y-26175229D01*
X31888795Y-26183898D01*
X31880390Y-26184222D01*
X31716278Y-26193374D01*
X31568334Y-26207020D01*
X31452405Y-26223366D01*
X31384875Y-26240381D01*
X31318574Y-26256959D01*
X31203632Y-26273641D01*
X31054883Y-26288715D01*
X30887160Y-26300470D01*
X30845125Y-26302637D01*
X30673227Y-26312489D01*
X30514921Y-26324556D01*
X30385663Y-26337454D01*
X30300910Y-26349799D01*
X30289500Y-26352373D01*
X30221054Y-26363804D01*
X30102400Y-26377282D01*
X29946745Y-26391562D01*
X29767294Y-26405399D01*
X29632919Y-26414257D01*
X29446655Y-26427341D01*
X29276814Y-26442407D01*
X29135997Y-26458096D01*
X29036805Y-26473050D01*
X28997919Y-26482722D01*
X28942156Y-26492459D01*
X28826298Y-26502302D01*
X28653750Y-26512102D01*
X28427918Y-26521713D01*
X28152205Y-26530985D01*
X27830016Y-26539772D01*
X27527250Y-26546641D01*
X27218443Y-26553561D01*
X26913702Y-26561279D01*
X26622306Y-26569497D01*
X26353532Y-26577918D01*
X26116658Y-26586246D01*
X25920962Y-26594182D01*
X25775721Y-26601430D01*
X25733375Y-26604101D01*
X25013203Y-26628635D01*
X24302453Y-26603015D01*
X24288750Y-26602007D01*
X24179345Y-26595814D01*
X24016122Y-26589188D01*
X23808758Y-26582399D01*
X23566931Y-26575716D01*
X23300319Y-26569407D01*
X23018599Y-26563741D01*
X22748875Y-26559245D01*
X22473972Y-26554759D01*
X22215620Y-26549809D01*
X21981522Y-26544596D01*
X21779381Y-26539323D01*
X21616900Y-26534194D01*
X21501782Y-26529410D01*
X21441731Y-26525173D01*
X21439187Y-26524810D01*
X21359160Y-26501038D01*
X21341585Y-26467122D01*
X21386869Y-26426061D01*
X21423312Y-26408028D01*
X21492019Y-26372322D01*
X21529426Y-26343505D01*
X21568614Y-26325620D01*
X21651676Y-26305367D01*
X21743571Y-26289731D01*
X21855754Y-26267178D01*
X21946852Y-26236940D01*
X21988975Y-26212060D01*
X22058367Y-26173500D01*
X22124080Y-26161881D01*
X22208714Y-26145143D01*
X22302828Y-26104398D01*
X22313079Y-26098381D01*
X22402751Y-26055897D01*
X22485387Y-26035350D01*
X22494064Y-26035000D01*
X22564431Y-26016687D01*
X22598308Y-25986370D01*
X22645246Y-25950614D01*
X22727560Y-25922855D01*
X22750699Y-25918575D01*
X22843963Y-25896117D01*
X22914617Y-25865110D01*
X22923500Y-25858553D01*
X22988785Y-25821050D01*
X23066060Y-25793993D01*
X23148600Y-25763341D01*
X23203265Y-25728019D01*
X23267018Y-25694626D01*
X23323639Y-25685750D01*
X23390037Y-25669197D01*
X23419273Y-25640065D01*
X23460100Y-25601978D01*
X23534521Y-25573059D01*
X23537339Y-25572427D01*
X23636051Y-25536930D01*
X23713594Y-25491112D01*
X23780244Y-25448377D01*
X23828769Y-25431750D01*
X23880538Y-25409532D01*
X23907750Y-25384125D01*
X23970136Y-25345182D01*
X24017841Y-25336500D01*
X24092347Y-25313802D01*
X24145875Y-25273000D01*
X24208110Y-25224921D01*
X24257062Y-25209500D01*
X24318757Y-25189711D01*
X24384000Y-25146000D01*
X24454983Y-25099943D01*
X24514280Y-25082500D01*
X24576443Y-25061215D01*
X24596734Y-25040076D01*
X24637305Y-25003922D01*
X24716659Y-24953392D01*
X24796750Y-24910169D01*
X24967406Y-24823168D01*
X25090173Y-24756659D01*
X25175004Y-24704929D01*
X25231850Y-24662263D01*
X25238004Y-24656811D01*
X25294386Y-24617035D01*
X25326204Y-24606250D01*
X25371312Y-24587133D01*
X25431750Y-24542750D01*
X25503329Y-24496645D01*
X25563608Y-24479250D01*
X25612546Y-24468025D01*
X25622250Y-24454345D01*
X25646558Y-24422773D01*
X25706528Y-24376723D01*
X25721485Y-24367033D01*
X25900691Y-24256192D01*
X26032534Y-24178995D01*
X26121693Y-24132702D01*
X26122312Y-24132419D01*
X26176896Y-24097725D01*
X26193750Y-24072382D01*
X26218716Y-24038589D01*
X26265187Y-24007759D01*
X26337632Y-23967049D01*
X26428547Y-23909678D01*
X26550206Y-23827696D01*
X26652308Y-23756937D01*
X26736670Y-23700632D01*
X26799862Y-23663153D01*
X26822704Y-23653750D01*
X26855066Y-23629999D01*
X26884881Y-23590250D01*
X26928588Y-23540547D01*
X26957923Y-23526750D01*
X27001109Y-23508222D01*
X27076860Y-23460322D01*
X27169165Y-23394576D01*
X27262015Y-23322510D01*
X27339398Y-23255650D01*
X27353741Y-23241806D01*
X27411130Y-23194865D01*
X27450471Y-23177500D01*
X27502268Y-23156924D01*
X27577561Y-23104966D01*
X27656110Y-23036274D01*
X27680788Y-23010812D01*
X27733435Y-22967217D01*
X27764793Y-22955250D01*
X27805601Y-22931171D01*
X27837381Y-22891750D01*
X27882111Y-22841986D01*
X27912905Y-22828250D01*
X27954820Y-22808543D01*
X28025105Y-22757741D01*
X28082965Y-22709187D01*
X28175472Y-22629130D01*
X28263222Y-22556428D01*
X28301169Y-22526625D01*
X28377721Y-22465900D01*
X28470382Y-22388669D01*
X28503902Y-22359832D01*
X28588978Y-22294357D01*
X28667395Y-22247747D01*
X28694062Y-22237328D01*
X28749717Y-22207167D01*
X28765500Y-22177584D01*
X28789742Y-22132924D01*
X28846997Y-22083653D01*
X28931969Y-22020032D01*
X28994037Y-21964712D01*
X29046260Y-21917181D01*
X29134026Y-21842049D01*
X29243214Y-21751278D01*
X29317352Y-21690873D01*
X29427319Y-21600081D01*
X29519203Y-21520620D01*
X29581223Y-21462884D01*
X29600515Y-21441038D01*
X29638284Y-21403692D01*
X29652422Y-21399500D01*
X29684602Y-21378646D01*
X29751583Y-21322101D01*
X29843080Y-21238886D01*
X29932946Y-21153437D01*
X30103569Y-20990242D01*
X30295196Y-20810390D01*
X30491313Y-20629142D01*
X30675404Y-20461761D01*
X30830952Y-20323509D01*
X30832448Y-20322202D01*
X30921837Y-20239735D01*
X31045898Y-20119001D01*
X31196353Y-19968504D01*
X31364920Y-19796745D01*
X31543320Y-19612226D01*
X31723272Y-19423451D01*
X31896498Y-19238920D01*
X32054716Y-19067138D01*
X32055011Y-19066814D01*
X32193483Y-18915785D01*
X32337281Y-18760885D01*
X32472155Y-18617343D01*
X32583855Y-18500386D01*
X32615187Y-18468193D01*
X32707231Y-18372430D01*
X32779704Y-18293426D01*
X32822813Y-18242053D01*
X32830508Y-18229129D01*
X32851747Y-18196654D01*
X32904689Y-18136929D01*
X32941633Y-18099028D01*
X33005898Y-18029208D01*
X33045573Y-17974822D01*
X33051750Y-17958477D01*
X33072136Y-17919879D01*
X33124519Y-17853840D01*
X33170812Y-17802957D01*
X33267033Y-17702392D01*
X33368779Y-17596200D01*
X33403425Y-17560083D01*
X33473174Y-17481444D01*
X33523855Y-17413444D01*
X33537366Y-17388637D01*
X33568896Y-17343298D01*
X33587193Y-17335500D01*
X33619143Y-17310868D01*
X33670817Y-17247288D01*
X33713840Y-17184687D01*
X33788193Y-17077436D01*
X33867648Y-16974761D01*
X33902984Y-16933836D01*
X33968466Y-16858048D01*
X34053909Y-16753151D01*
X34141483Y-16641065D01*
X34146491Y-16634492D01*
X34233617Y-16519978D01*
X34293694Y-16441756D01*
X34338214Y-16385648D01*
X34378670Y-16337481D01*
X34426553Y-16283078D01*
X34479085Y-16224250D01*
X34547211Y-16142612D01*
X34593670Y-16076677D01*
X34607104Y-16046323D01*
X34627019Y-16000437D01*
X34674838Y-15936573D01*
X34678937Y-15931966D01*
X34808417Y-15785876D01*
X34895956Y-15681402D01*
X34944336Y-15615081D01*
X34956750Y-15586232D01*
X34974716Y-15550834D01*
X35021634Y-15479989D01*
X35087028Y-15388029D01*
X35160424Y-15289285D01*
X35231349Y-15198089D01*
X35289329Y-15128773D01*
X35298062Y-15119211D01*
X35332670Y-15058420D01*
X35337750Y-15030360D01*
X35363255Y-14978680D01*
X35382246Y-14966932D01*
X35430728Y-14924245D01*
X35445017Y-14896491D01*
X35472450Y-14846053D01*
X35527761Y-14762754D01*
X35599566Y-14663637D01*
X35607888Y-14652625D01*
X35686638Y-14543306D01*
X35755205Y-14438353D01*
X35798994Y-14360134D01*
X35799543Y-14358937D01*
X35838630Y-14290574D01*
X35873568Y-14256583D01*
X35877926Y-14255750D01*
X35906529Y-14230403D01*
X35909250Y-14213045D01*
X35931012Y-14161234D01*
X35972750Y-14112875D01*
X36020936Y-14049124D01*
X36036250Y-13997946D01*
X36061680Y-13937396D01*
X36096097Y-13908454D01*
X36149253Y-13854397D01*
X36176759Y-13793494D01*
X36197882Y-13729450D01*
X36233451Y-13669136D01*
X36296483Y-13592283D01*
X36329937Y-13554974D01*
X36372597Y-13490770D01*
X36385500Y-13446125D01*
X36406517Y-13389785D01*
X36449000Y-13335000D01*
X36495395Y-13280791D01*
X36512500Y-13247005D01*
X36528916Y-13210247D01*
X36572133Y-13136451D01*
X36633103Y-13040993D01*
X36638602Y-13032693D01*
X36701433Y-12931099D01*
X36746900Y-12844221D01*
X36765546Y-12790218D01*
X36765602Y-12788890D01*
X36787496Y-12727731D01*
X36806187Y-12709515D01*
X36851544Y-12663364D01*
X36910105Y-12571657D01*
X36979374Y-12441403D01*
X37026660Y-12365871D01*
X37068783Y-12318453D01*
X37106024Y-12257529D01*
X37115750Y-12202990D01*
X37132633Y-12137254D01*
X37161434Y-12108976D01*
X37200322Y-12067898D01*
X37227928Y-11996702D01*
X37256216Y-11923941D01*
X37293368Y-11884832D01*
X37327970Y-11843312D01*
X37338000Y-11791417D01*
X37361348Y-11712436D01*
X37401500Y-11660758D01*
X37449676Y-11604386D01*
X37465000Y-11563223D01*
X37480238Y-11515628D01*
X37520237Y-11431901D01*
X37576418Y-11329955D01*
X37577846Y-11327516D01*
X37638364Y-11215502D01*
X37686013Y-11111320D01*
X37709360Y-11041633D01*
X37735939Y-10969563D01*
X37771139Y-10931749D01*
X37808998Y-10889685D01*
X37814250Y-10862570D01*
X37828647Y-10802426D01*
X37864518Y-10717301D01*
X37877750Y-10691457D01*
X37917748Y-10606348D01*
X37939768Y-10539126D01*
X37941250Y-10526357D01*
X37966386Y-10474820D01*
X38000407Y-10448073D01*
X38048812Y-10389850D01*
X38076644Y-10289076D01*
X38099993Y-10194091D01*
X38136036Y-10120883D01*
X38144487Y-10110977D01*
X38185769Y-10046535D01*
X38195250Y-10005050D01*
X38213721Y-9936729D01*
X38241865Y-9888255D01*
X38279769Y-9811315D01*
X38289490Y-9759469D01*
X38309338Y-9685506D01*
X38349400Y-9616594D01*
X38394579Y-9534000D01*
X38428335Y-9430493D01*
X38431398Y-9415496D01*
X38457891Y-9316713D01*
X38493228Y-9235661D01*
X38499498Y-9225869D01*
X38534879Y-9157700D01*
X38544500Y-9115622D01*
X38564479Y-9056101D01*
X38591962Y-9017179D01*
X38624100Y-8955435D01*
X38651258Y-8858959D01*
X38659848Y-8808304D01*
X38678430Y-8707903D01*
X38702407Y-8630647D01*
X38714232Y-8608923D01*
X38740213Y-8555233D01*
X38775511Y-8454097D01*
X38815735Y-8320075D01*
X38856495Y-8167724D01*
X38890690Y-8023901D01*
X38921804Y-7929002D01*
X38963127Y-7853854D01*
X38969028Y-7846776D01*
X39007465Y-7762476D01*
X39021775Y-7623289D01*
X39021827Y-7617499D01*
X39038392Y-7463194D01*
X39080515Y-7326344D01*
X39084250Y-7318375D01*
X39124734Y-7205093D01*
X39146871Y-7086436D01*
X39148066Y-7064375D01*
X39161475Y-6946957D01*
X39191106Y-6825531D01*
X39196290Y-6810375D01*
X39220176Y-6711248D01*
X39236908Y-6579274D01*
X39242521Y-6458977D01*
X39252006Y-6307430D01*
X39276245Y-6135772D01*
X39305752Y-5998602D01*
X39331592Y-5866052D01*
X39351458Y-5693778D01*
X39365217Y-5495150D01*
X39372733Y-5283537D01*
X39373872Y-5072306D01*
X39368502Y-4874825D01*
X39356487Y-4704464D01*
X39337693Y-4574591D01*
X39320637Y-4515417D01*
X39294342Y-4427389D01*
X39269060Y-4300280D01*
X39249442Y-4158402D01*
X39246277Y-4126845D01*
X39230500Y-3993746D01*
X39210591Y-3878376D01*
X39190166Y-3800591D01*
X39184514Y-3787620D01*
X39155092Y-3709271D01*
X39147750Y-3660804D01*
X39133237Y-3596852D01*
X39097117Y-3509422D01*
X39084250Y-3484207D01*
X39043089Y-3391622D01*
X39020154Y-3309638D01*
X39018640Y-3294177D01*
X39001684Y-3227908D01*
X38960278Y-3133232D01*
X38922607Y-3063875D01*
X38863033Y-2959119D01*
X38811943Y-2862346D01*
X38790756Y-2817812D01*
X38756649Y-2755918D01*
X38728465Y-2730500D01*
X38701139Y-2704320D01*
X38665747Y-2640034D01*
X38660141Y-2627312D01*
X38615340Y-2552130D01*
X38540459Y-2454897D01*
X38453340Y-2358387D01*
X38373904Y-2273629D01*
X38315928Y-2204317D01*
X38290775Y-2164149D01*
X38290500Y-2162089D01*
X38319041Y-2129121D01*
X38395075Y-2110041D01*
X38504215Y-2104477D01*
X38632077Y-2112059D01*
G04 #@! TD*
M02*
