G04 #@! TF.GenerationSoftware,KiCad,Pcbnew,(5.0.0)*
G04 #@! TF.CreationDate,2018-12-13T02:30:24-05:00*
G04 #@! TF.ProjectId,led,6C65642E6B696361645F706362000000,rev?*
G04 #@! TF.SameCoordinates,Original*
G04 #@! TF.FileFunction,Copper,L1,Top,Signal*
G04 #@! TF.FilePolarity,Positive*
%FSLAX46Y46*%
G04 Gerber Fmt 4.6, Leading zero omitted, Abs format (unit mm)*
G04 Created by KiCad (PCBNEW (5.0.0)) date 12/13/18 02:30:24*
%MOMM*%
%LPD*%
G01*
G04 APERTURE LIST*
G04 #@! TA.AperFunction,SMDPad,CuDef*
%ADD10R,1.200000X1.200000*%
G04 #@! TD*
G04 #@! TA.AperFunction,SMDPad,CuDef*
%ADD11R,1.300000X0.700000*%
G04 #@! TD*
G04 #@! TA.AperFunction,ComponentPad*
%ADD12C,1.400000*%
G04 #@! TD*
G04 #@! TA.AperFunction,Conductor*
%ADD13C,0.375000*%
G04 #@! TD*
G04 #@! TA.AperFunction,Conductor*
%ADD14C,2.540000*%
G04 #@! TD*
G04 APERTURE END LIST*
D10*
G04 #@! TO.P,D1,2*
G04 #@! TO.N,Net-(D1-Pad2)*
X3302000Y-15494000D03*
G04 #@! TO.P,D1,1*
G04 #@! TO.N,GND*
X3302000Y-17694000D03*
G04 #@! TD*
G04 #@! TO.P,D2,1*
G04 #@! TO.N,GND*
X23368000Y-17610000D03*
G04 #@! TO.P,D2,2*
G04 #@! TO.N,Net-(D2-Pad2)*
X23368000Y-15410000D03*
G04 #@! TD*
G04 #@! TO.P,D3,2*
G04 #@! TO.N,Net-(D3-Pad2)*
X64008000Y-15410000D03*
G04 #@! TO.P,D3,1*
G04 #@! TO.N,GND*
X64008000Y-17610000D03*
G04 #@! TD*
G04 #@! TO.P,D4,1*
G04 #@! TO.N,GND*
X84074000Y-17102000D03*
G04 #@! TO.P,D4,2*
G04 #@! TO.N,Net-(D4-Pad2)*
X84074000Y-14902000D03*
G04 #@! TD*
D11*
G04 #@! TO.P,R1,2*
G04 #@! TO.N,Net-(D1-Pad2)*
X3302000Y-9906000D03*
G04 #@! TO.P,R1,1*
G04 #@! TO.N,Net-(R1-Pad1)*
X3302000Y-8006000D03*
G04 #@! TD*
G04 #@! TO.P,R2,1*
G04 #@! TO.N,Net-(R1-Pad1)*
X23368000Y-7940000D03*
G04 #@! TO.P,R2,2*
G04 #@! TO.N,Net-(D2-Pad2)*
X23368000Y-9840000D03*
G04 #@! TD*
G04 #@! TO.P,R3,2*
G04 #@! TO.N,Net-(D3-Pad2)*
X64008000Y-9774000D03*
G04 #@! TO.P,R3,1*
G04 #@! TO.N,Net-(R1-Pad1)*
X64008000Y-7874000D03*
G04 #@! TD*
G04 #@! TO.P,R4,1*
G04 #@! TO.N,Net-(R1-Pad1)*
X84074000Y-7498000D03*
G04 #@! TO.P,R4,2*
G04 #@! TO.N,Net-(D4-Pad2)*
X84074000Y-9398000D03*
G04 #@! TD*
D12*
G04 #@! TO.P,TP1,1*
G04 #@! TO.N,Net-(R1-Pad1)*
X43180000Y-3810000D03*
X45720000Y-3810000D03*
G04 #@! TD*
G04 #@! TO.P,TP2,1*
G04 #@! TO.N,GND*
X43180000Y-20574000D03*
X45720000Y-20574000D03*
G04 #@! TD*
D13*
G04 #@! TO.N,Net-(D1-Pad2)*
X3302000Y-10631000D02*
X3302000Y-15494000D01*
X3302000Y-9906000D02*
X3302000Y-10631000D01*
G04 #@! TO.N,GND*
X23368000Y-19050000D02*
X23368000Y-17610000D01*
X21844000Y-20574000D02*
X23368000Y-19050000D01*
X42190051Y-20574000D02*
X43180000Y-20574000D01*
X25357000Y-20574000D02*
X42190051Y-20574000D01*
X23368000Y-18585000D02*
X25357000Y-20574000D01*
X23368000Y-17610000D02*
X23368000Y-18585000D01*
X64008000Y-18585000D02*
X64008000Y-17610000D01*
X62019000Y-20574000D02*
X64008000Y-18585000D01*
X45720000Y-20574000D02*
X62019000Y-20574000D01*
X66251000Y-20828000D02*
X64008000Y-18585000D01*
D14*
X43180000Y-20574000D02*
X45720000Y-20574000D01*
D13*
X5207000Y-20574000D02*
X21844000Y-20574000D01*
X3302000Y-18669000D02*
X5207000Y-20574000D01*
X3302000Y-17694000D02*
X3302000Y-18669000D01*
X66251000Y-20828000D02*
X82296000Y-20828000D01*
X84074000Y-19050000D02*
X84074000Y-17102000D01*
X82296000Y-20828000D02*
X84074000Y-19050000D01*
G04 #@! TO.N,Net-(D2-Pad2)*
X23368000Y-10565000D02*
X23368000Y-15410000D01*
X23368000Y-9840000D02*
X23368000Y-10565000D01*
G04 #@! TO.N,Net-(D3-Pad2)*
X64008000Y-15410000D02*
X64008000Y-9774000D01*
G04 #@! TO.N,Net-(D4-Pad2)*
X84074000Y-9398000D02*
X84074000Y-10123000D01*
X84074000Y-10123000D02*
X84074000Y-14902000D01*
G04 #@! TO.N,Net-(R1-Pad1)*
X23302000Y-8006000D02*
X23368000Y-7940000D01*
X26773000Y-3810000D02*
X23368000Y-7215000D01*
X43180000Y-3810000D02*
X26773000Y-3810000D01*
X64008000Y-7149000D02*
X64008000Y-7874000D01*
X60669000Y-3810000D02*
X64008000Y-7149000D01*
X45720000Y-3810000D02*
X60669000Y-3810000D01*
X64008000Y-7149000D02*
X64008000Y-7112000D01*
X64008000Y-7112000D02*
X67310000Y-3810000D01*
D14*
X43180000Y-3810000D02*
X45720000Y-3810000D01*
D13*
X23368000Y-7940000D02*
X23368000Y-7215000D01*
X23368000Y-7215000D02*
X23217000Y-7215000D01*
X23217000Y-7215000D02*
X19812000Y-3810000D01*
X19812000Y-3810000D02*
X6604000Y-3810000D01*
X3302000Y-7112000D02*
X3302000Y-8006000D01*
X6604000Y-3810000D02*
X3302000Y-7112000D01*
X81111000Y-3810000D02*
X67310000Y-3810000D01*
X84074000Y-6773000D02*
X81111000Y-3810000D01*
X84074000Y-7498000D02*
X84074000Y-6773000D01*
G04 #@! TD*
M02*
