G04 #@! TF.GenerationSoftware,KiCad,Pcbnew,(5.0.0)*
G04 #@! TF.CreationDate,2018-12-10T22:11:56-05:00*
G04 #@! TF.ProjectId,et,65742E6B696361645F70636200000000,rev?*
G04 #@! TF.SameCoordinates,Original*
G04 #@! TF.FileFunction,Legend,Top*
G04 #@! TF.FilePolarity,Positive*
%FSLAX46Y46*%
G04 Gerber Fmt 4.6, Leading zero omitted, Abs format (unit mm)*
G04 Created by KiCad (PCBNEW (5.0.0)) date 12/10/18 22:11:56*
%MOMM*%
%LPD*%
G01*
G04 APERTURE LIST*
%ADD10C,0.010000*%
G04 APERTURE END LIST*
D10*
G04 #@! TO.C,G\002A\002A\002A*
G36*
X23960667Y-6096000D02*
X22267333Y-6096000D01*
X22267333Y-4995333D01*
X19473333Y-4995333D01*
X19473333Y-10498666D01*
X21590000Y-10498666D01*
X21590000Y-12361333D01*
X18690167Y-12360036D01*
X18002703Y-12357769D01*
X17367109Y-12351916D01*
X16803737Y-12342955D01*
X16332939Y-12331364D01*
X15975069Y-12317619D01*
X15750478Y-12302199D01*
X15681136Y-12289461D01*
X15626566Y-12197626D01*
X15597350Y-11993527D01*
X15591314Y-11654900D01*
X15596470Y-11422924D01*
X15602090Y-11104873D01*
X15613067Y-10880949D01*
X15654787Y-10734579D01*
X15752638Y-10649192D01*
X15932004Y-10608216D01*
X16218274Y-10595077D01*
X16636833Y-10593205D01*
X16869833Y-10591676D01*
X17695333Y-10583333D01*
X17695333Y-4995333D01*
X14901333Y-4995333D01*
X14901333Y-6096000D01*
X13123333Y-6096000D01*
X13123333Y-5398553D01*
X13709912Y-5398553D01*
X13967438Y-5436350D01*
X14161031Y-5450758D01*
X14266566Y-5432540D01*
X14266815Y-5432295D01*
X14291405Y-5330017D01*
X14306454Y-5117693D01*
X14308667Y-4986023D01*
X14313686Y-4786657D01*
X14341612Y-4632426D01*
X14411747Y-4517415D01*
X14543392Y-4435709D01*
X14755848Y-4381393D01*
X15068419Y-4348552D01*
X15500404Y-4331271D01*
X16071106Y-4323635D01*
X16477878Y-4321273D01*
X18288000Y-4312460D01*
X18288000Y-7486246D01*
X18285536Y-8456769D01*
X18278096Y-9260545D01*
X18265611Y-9900088D01*
X18248011Y-10377913D01*
X18225226Y-10696535D01*
X18197186Y-10858468D01*
X18193997Y-10866346D01*
X18074442Y-11040248D01*
X17884127Y-11157639D01*
X17595301Y-11227171D01*
X17180216Y-11257496D01*
X16929349Y-11260666D01*
X16569768Y-11262374D01*
X16346850Y-11273579D01*
X16227923Y-11303404D01*
X16180317Y-11360973D01*
X16171362Y-11455407D01*
X16171333Y-11472333D01*
X16171333Y-11684000D01*
X20997333Y-11684000D01*
X20997333Y-11176000D01*
X18880667Y-11176000D01*
X18880667Y-4318000D01*
X20682161Y-4318000D01*
X21340622Y-4319410D01*
X21849501Y-4327800D01*
X22228548Y-4349408D01*
X22497513Y-4390473D01*
X22676147Y-4457232D01*
X22784200Y-4555924D01*
X22841420Y-4692788D01*
X22867560Y-4874061D01*
X22876802Y-5011209D01*
X22898665Y-5267423D01*
X22942122Y-5398212D01*
X23032610Y-5447440D01*
X23135167Y-5456760D01*
X23368000Y-5466591D01*
X23368000Y-3852333D01*
X18563167Y-3871899D01*
X13758333Y-3891464D01*
X13734122Y-4645009D01*
X13709912Y-5398553D01*
X13123333Y-5398553D01*
X13123333Y-3217333D01*
X23960667Y-3217333D01*
X23960667Y-6096000D01*
X23960667Y-6096000D01*
G37*
X23960667Y-6096000D02*
X22267333Y-6096000D01*
X22267333Y-4995333D01*
X19473333Y-4995333D01*
X19473333Y-10498666D01*
X21590000Y-10498666D01*
X21590000Y-12361333D01*
X18690167Y-12360036D01*
X18002703Y-12357769D01*
X17367109Y-12351916D01*
X16803737Y-12342955D01*
X16332939Y-12331364D01*
X15975069Y-12317619D01*
X15750478Y-12302199D01*
X15681136Y-12289461D01*
X15626566Y-12197626D01*
X15597350Y-11993527D01*
X15591314Y-11654900D01*
X15596470Y-11422924D01*
X15602090Y-11104873D01*
X15613067Y-10880949D01*
X15654787Y-10734579D01*
X15752638Y-10649192D01*
X15932004Y-10608216D01*
X16218274Y-10595077D01*
X16636833Y-10593205D01*
X16869833Y-10591676D01*
X17695333Y-10583333D01*
X17695333Y-4995333D01*
X14901333Y-4995333D01*
X14901333Y-6096000D01*
X13123333Y-6096000D01*
X13123333Y-5398553D01*
X13709912Y-5398553D01*
X13967438Y-5436350D01*
X14161031Y-5450758D01*
X14266566Y-5432540D01*
X14266815Y-5432295D01*
X14291405Y-5330017D01*
X14306454Y-5117693D01*
X14308667Y-4986023D01*
X14313686Y-4786657D01*
X14341612Y-4632426D01*
X14411747Y-4517415D01*
X14543392Y-4435709D01*
X14755848Y-4381393D01*
X15068419Y-4348552D01*
X15500404Y-4331271D01*
X16071106Y-4323635D01*
X16477878Y-4321273D01*
X18288000Y-4312460D01*
X18288000Y-7486246D01*
X18285536Y-8456769D01*
X18278096Y-9260545D01*
X18265611Y-9900088D01*
X18248011Y-10377913D01*
X18225226Y-10696535D01*
X18197186Y-10858468D01*
X18193997Y-10866346D01*
X18074442Y-11040248D01*
X17884127Y-11157639D01*
X17595301Y-11227171D01*
X17180216Y-11257496D01*
X16929349Y-11260666D01*
X16569768Y-11262374D01*
X16346850Y-11273579D01*
X16227923Y-11303404D01*
X16180317Y-11360973D01*
X16171362Y-11455407D01*
X16171333Y-11472333D01*
X16171333Y-11684000D01*
X20997333Y-11684000D01*
X20997333Y-11176000D01*
X18880667Y-11176000D01*
X18880667Y-4318000D01*
X20682161Y-4318000D01*
X21340622Y-4319410D01*
X21849501Y-4327800D01*
X22228548Y-4349408D01*
X22497513Y-4390473D01*
X22676147Y-4457232D01*
X22784200Y-4555924D01*
X22841420Y-4692788D01*
X22867560Y-4874061D01*
X22876802Y-5011209D01*
X22898665Y-5267423D01*
X22942122Y-5398212D01*
X23032610Y-5447440D01*
X23135167Y-5456760D01*
X23368000Y-5466591D01*
X23368000Y-3852333D01*
X18563167Y-3871899D01*
X13758333Y-3891464D01*
X13734122Y-4645009D01*
X13709912Y-5398553D01*
X13123333Y-5398553D01*
X13123333Y-3217333D01*
X23960667Y-3217333D01*
X23960667Y-6096000D01*
G36*
X12276667Y-6096000D02*
X10498667Y-6096000D01*
X10498667Y-5010033D01*
X11103207Y-5010033D01*
X11125080Y-5266261D01*
X11186308Y-5405868D01*
X11298576Y-5454834D01*
X11473572Y-5439138D01*
X11480845Y-5437761D01*
X11579354Y-5412325D01*
X11639501Y-5359252D01*
X11669097Y-5244413D01*
X11675950Y-5033678D01*
X11667870Y-4692916D01*
X11665872Y-4629096D01*
X11641667Y-3860428D01*
X11387667Y-3860414D01*
X11133667Y-3860399D01*
X11108999Y-4611206D01*
X11103207Y-5010033D01*
X10498667Y-5010033D01*
X10498667Y-4995333D01*
X5518386Y-4995333D01*
X5299193Y-5255829D01*
X5129900Y-5570923D01*
X5071365Y-5941664D01*
X5125894Y-6304518D01*
X5252338Y-6546256D01*
X5424677Y-6765349D01*
X7621225Y-6790508D01*
X9817773Y-6815666D01*
X10052386Y-7050424D01*
X10246841Y-7354225D01*
X10301030Y-7702604D01*
X10214952Y-8045270D01*
X10052431Y-8274242D01*
X9817863Y-8509000D01*
X7620399Y-8551333D01*
X6952605Y-8564753D01*
X6433282Y-8577473D01*
X6041586Y-8591469D01*
X5756677Y-8608719D01*
X5557711Y-8631198D01*
X5423848Y-8660883D01*
X5334244Y-8699751D01*
X5268058Y-8749777D01*
X5239717Y-8777101D01*
X5078679Y-9041212D01*
X5010284Y-9380361D01*
X5029046Y-9743083D01*
X5129476Y-10077917D01*
X5306088Y-10333397D01*
X5413977Y-10411490D01*
X5549889Y-10437942D01*
X5843494Y-10460107D01*
X6283196Y-10477610D01*
X6857400Y-10490079D01*
X7554511Y-10497140D01*
X8122434Y-10498666D01*
X10668000Y-10498666D01*
X10668000Y-8890000D01*
X12364839Y-8890000D01*
X12341920Y-10604500D01*
X12319000Y-12319000D01*
X9017000Y-12329122D01*
X8277605Y-12330447D01*
X7585105Y-12329884D01*
X6959235Y-12327585D01*
X6419730Y-12323699D01*
X5986322Y-12318378D01*
X5678746Y-12311771D01*
X5516737Y-12304030D01*
X5503333Y-12302324D01*
X4813182Y-12114794D01*
X4246149Y-11811972D01*
X3797223Y-11389278D01*
X3461392Y-10842128D01*
X3253085Y-10244924D01*
X3165960Y-9614347D01*
X3754482Y-9614347D01*
X3832269Y-10146131D01*
X4036707Y-10641296D01*
X4362697Y-11071742D01*
X4805140Y-11409369D01*
X4949540Y-11483604D01*
X5075752Y-11540158D01*
X5197896Y-11584806D01*
X5336916Y-11618941D01*
X5513757Y-11643954D01*
X5749363Y-11661238D01*
X6064680Y-11672186D01*
X6480653Y-11678189D01*
X7018226Y-11680641D01*
X7698345Y-11680932D01*
X7916333Y-11680817D01*
X10456333Y-11679289D01*
X10783247Y-11431871D01*
X11110160Y-11184453D01*
X8236504Y-11159060D01*
X5362847Y-11133666D01*
X5258259Y-11053855D01*
X11234470Y-11053855D01*
X11241540Y-11321134D01*
X11244611Y-11366500D01*
X11275676Y-11575484D01*
X11350311Y-11664769D01*
X11511529Y-11683986D01*
X11519777Y-11684000D01*
X11768667Y-11684000D01*
X11768667Y-9511993D01*
X11520450Y-9548424D01*
X11272233Y-9584854D01*
X11245283Y-10316927D01*
X11235731Y-10697712D01*
X11234470Y-11053855D01*
X5258259Y-11053855D01*
X5042874Y-10889495D01*
X4722689Y-10551286D01*
X4512485Y-10133115D01*
X4411980Y-9670567D01*
X4420893Y-9199222D01*
X4538944Y-8754662D01*
X4765850Y-8372471D01*
X5064840Y-8110026D01*
X5167656Y-8050256D01*
X5275187Y-8003842D01*
X5409916Y-7968748D01*
X5594324Y-7942937D01*
X5850894Y-7924374D01*
X6202106Y-7911023D01*
X6670442Y-7900848D01*
X7278384Y-7891813D01*
X7507547Y-7888811D01*
X8171740Y-7879100D01*
X8685853Y-7868268D01*
X9069138Y-7854884D01*
X9340850Y-7837517D01*
X9520240Y-7814735D01*
X9626561Y-7785107D01*
X9679067Y-7747200D01*
X9690489Y-7726487D01*
X9701819Y-7576415D01*
X9675942Y-7526999D01*
X9576471Y-7508408D01*
X9331044Y-7489784D01*
X8963035Y-7472090D01*
X8495818Y-7456288D01*
X7952769Y-7443342D01*
X7450667Y-7435323D01*
X6788738Y-7426470D01*
X6274285Y-7417185D01*
X5885455Y-7405518D01*
X5600398Y-7389519D01*
X5397261Y-7367237D01*
X5254193Y-7336723D01*
X5149343Y-7296026D01*
X5060860Y-7243195D01*
X5026130Y-7218925D01*
X4745773Y-6921819D01*
X4568931Y-6531191D01*
X4493514Y-6085884D01*
X4517428Y-5624739D01*
X4638582Y-5186601D01*
X4854884Y-4810313D01*
X5164241Y-4534718D01*
X5170912Y-4530764D01*
X5260931Y-4483058D01*
X5363794Y-4444943D01*
X5498902Y-4415185D01*
X5685652Y-4392551D01*
X5943443Y-4375806D01*
X6291675Y-4363717D01*
X6749746Y-4355050D01*
X7337055Y-4348571D01*
X8073001Y-4343046D01*
X8128000Y-4342681D01*
X8785363Y-4338239D01*
X9389108Y-4333985D01*
X9918189Y-4330081D01*
X10351564Y-4326689D01*
X10668189Y-4323972D01*
X10847018Y-4322090D01*
X10878154Y-4321514D01*
X10866498Y-4278385D01*
X10742891Y-4172799D01*
X10645586Y-4103461D01*
X10329865Y-3888923D01*
X7835004Y-3889375D01*
X7059027Y-3890912D01*
X6432423Y-3897024D01*
X5935242Y-3910427D01*
X5547536Y-3933836D01*
X5249354Y-3969967D01*
X5020747Y-4021537D01*
X4841765Y-4091262D01*
X4692459Y-4181856D01*
X4552878Y-4296037D01*
X4501416Y-4343207D01*
X4188649Y-4744545D01*
X3989369Y-5234592D01*
X3904541Y-5775512D01*
X3935134Y-6329471D01*
X4082113Y-6858634D01*
X4346447Y-7325166D01*
X4422821Y-7418352D01*
X4676172Y-7706902D01*
X4332010Y-8080273D01*
X3999254Y-8553318D01*
X3808444Y-9074042D01*
X3754482Y-9614347D01*
X3165960Y-9614347D01*
X3165455Y-9610699D01*
X3211589Y-8966257D01*
X3383714Y-8359247D01*
X3637624Y-7887597D01*
X3710926Y-7764495D01*
X3723974Y-7647777D01*
X3670213Y-7483495D01*
X3560474Y-7252786D01*
X3460100Y-7030090D01*
X3396309Y-6819665D01*
X3361117Y-6572541D01*
X3346543Y-6239747D01*
X3344333Y-5926855D01*
X3349601Y-5499554D01*
X3370399Y-5193276D01*
X3414219Y-4959902D01*
X3488554Y-4751312D01*
X3546825Y-4626330D01*
X3891824Y-4096859D01*
X4343051Y-3671402D01*
X4733765Y-3439390D01*
X4834758Y-3395453D01*
X4941177Y-3359140D01*
X5069767Y-3329583D01*
X5237274Y-3305911D01*
X5460442Y-3287256D01*
X5756019Y-3272748D01*
X6140750Y-3261517D01*
X6631381Y-3252694D01*
X7244657Y-3245410D01*
X7997324Y-3238795D01*
X8699500Y-3233485D01*
X12276667Y-3207304D01*
X12276667Y-6096000D01*
X12276667Y-6096000D01*
G37*
X12276667Y-6096000D02*
X10498667Y-6096000D01*
X10498667Y-5010033D01*
X11103207Y-5010033D01*
X11125080Y-5266261D01*
X11186308Y-5405868D01*
X11298576Y-5454834D01*
X11473572Y-5439138D01*
X11480845Y-5437761D01*
X11579354Y-5412325D01*
X11639501Y-5359252D01*
X11669097Y-5244413D01*
X11675950Y-5033678D01*
X11667870Y-4692916D01*
X11665872Y-4629096D01*
X11641667Y-3860428D01*
X11387667Y-3860414D01*
X11133667Y-3860399D01*
X11108999Y-4611206D01*
X11103207Y-5010033D01*
X10498667Y-5010033D01*
X10498667Y-4995333D01*
X5518386Y-4995333D01*
X5299193Y-5255829D01*
X5129900Y-5570923D01*
X5071365Y-5941664D01*
X5125894Y-6304518D01*
X5252338Y-6546256D01*
X5424677Y-6765349D01*
X7621225Y-6790508D01*
X9817773Y-6815666D01*
X10052386Y-7050424D01*
X10246841Y-7354225D01*
X10301030Y-7702604D01*
X10214952Y-8045270D01*
X10052431Y-8274242D01*
X9817863Y-8509000D01*
X7620399Y-8551333D01*
X6952605Y-8564753D01*
X6433282Y-8577473D01*
X6041586Y-8591469D01*
X5756677Y-8608719D01*
X5557711Y-8631198D01*
X5423848Y-8660883D01*
X5334244Y-8699751D01*
X5268058Y-8749777D01*
X5239717Y-8777101D01*
X5078679Y-9041212D01*
X5010284Y-9380361D01*
X5029046Y-9743083D01*
X5129476Y-10077917D01*
X5306088Y-10333397D01*
X5413977Y-10411490D01*
X5549889Y-10437942D01*
X5843494Y-10460107D01*
X6283196Y-10477610D01*
X6857400Y-10490079D01*
X7554511Y-10497140D01*
X8122434Y-10498666D01*
X10668000Y-10498666D01*
X10668000Y-8890000D01*
X12364839Y-8890000D01*
X12341920Y-10604500D01*
X12319000Y-12319000D01*
X9017000Y-12329122D01*
X8277605Y-12330447D01*
X7585105Y-12329884D01*
X6959235Y-12327585D01*
X6419730Y-12323699D01*
X5986322Y-12318378D01*
X5678746Y-12311771D01*
X5516737Y-12304030D01*
X5503333Y-12302324D01*
X4813182Y-12114794D01*
X4246149Y-11811972D01*
X3797223Y-11389278D01*
X3461392Y-10842128D01*
X3253085Y-10244924D01*
X3165960Y-9614347D01*
X3754482Y-9614347D01*
X3832269Y-10146131D01*
X4036707Y-10641296D01*
X4362697Y-11071742D01*
X4805140Y-11409369D01*
X4949540Y-11483604D01*
X5075752Y-11540158D01*
X5197896Y-11584806D01*
X5336916Y-11618941D01*
X5513757Y-11643954D01*
X5749363Y-11661238D01*
X6064680Y-11672186D01*
X6480653Y-11678189D01*
X7018226Y-11680641D01*
X7698345Y-11680932D01*
X7916333Y-11680817D01*
X10456333Y-11679289D01*
X10783247Y-11431871D01*
X11110160Y-11184453D01*
X8236504Y-11159060D01*
X5362847Y-11133666D01*
X5258259Y-11053855D01*
X11234470Y-11053855D01*
X11241540Y-11321134D01*
X11244611Y-11366500D01*
X11275676Y-11575484D01*
X11350311Y-11664769D01*
X11511529Y-11683986D01*
X11519777Y-11684000D01*
X11768667Y-11684000D01*
X11768667Y-9511993D01*
X11520450Y-9548424D01*
X11272233Y-9584854D01*
X11245283Y-10316927D01*
X11235731Y-10697712D01*
X11234470Y-11053855D01*
X5258259Y-11053855D01*
X5042874Y-10889495D01*
X4722689Y-10551286D01*
X4512485Y-10133115D01*
X4411980Y-9670567D01*
X4420893Y-9199222D01*
X4538944Y-8754662D01*
X4765850Y-8372471D01*
X5064840Y-8110026D01*
X5167656Y-8050256D01*
X5275187Y-8003842D01*
X5409916Y-7968748D01*
X5594324Y-7942937D01*
X5850894Y-7924374D01*
X6202106Y-7911023D01*
X6670442Y-7900848D01*
X7278384Y-7891813D01*
X7507547Y-7888811D01*
X8171740Y-7879100D01*
X8685853Y-7868268D01*
X9069138Y-7854884D01*
X9340850Y-7837517D01*
X9520240Y-7814735D01*
X9626561Y-7785107D01*
X9679067Y-7747200D01*
X9690489Y-7726487D01*
X9701819Y-7576415D01*
X9675942Y-7526999D01*
X9576471Y-7508408D01*
X9331044Y-7489784D01*
X8963035Y-7472090D01*
X8495818Y-7456288D01*
X7952769Y-7443342D01*
X7450667Y-7435323D01*
X6788738Y-7426470D01*
X6274285Y-7417185D01*
X5885455Y-7405518D01*
X5600398Y-7389519D01*
X5397261Y-7367237D01*
X5254193Y-7336723D01*
X5149343Y-7296026D01*
X5060860Y-7243195D01*
X5026130Y-7218925D01*
X4745773Y-6921819D01*
X4568931Y-6531191D01*
X4493514Y-6085884D01*
X4517428Y-5624739D01*
X4638582Y-5186601D01*
X4854884Y-4810313D01*
X5164241Y-4534718D01*
X5170912Y-4530764D01*
X5260931Y-4483058D01*
X5363794Y-4444943D01*
X5498902Y-4415185D01*
X5685652Y-4392551D01*
X5943443Y-4375806D01*
X6291675Y-4363717D01*
X6749746Y-4355050D01*
X7337055Y-4348571D01*
X8073001Y-4343046D01*
X8128000Y-4342681D01*
X8785363Y-4338239D01*
X9389108Y-4333985D01*
X9918189Y-4330081D01*
X10351564Y-4326689D01*
X10668189Y-4323972D01*
X10847018Y-4322090D01*
X10878154Y-4321514D01*
X10866498Y-4278385D01*
X10742891Y-4172799D01*
X10645586Y-4103461D01*
X10329865Y-3888923D01*
X7835004Y-3889375D01*
X7059027Y-3890912D01*
X6432423Y-3897024D01*
X5935242Y-3910427D01*
X5547536Y-3933836D01*
X5249354Y-3969967D01*
X5020747Y-4021537D01*
X4841765Y-4091262D01*
X4692459Y-4181856D01*
X4552878Y-4296037D01*
X4501416Y-4343207D01*
X4188649Y-4744545D01*
X3989369Y-5234592D01*
X3904541Y-5775512D01*
X3935134Y-6329471D01*
X4082113Y-6858634D01*
X4346447Y-7325166D01*
X4422821Y-7418352D01*
X4676172Y-7706902D01*
X4332010Y-8080273D01*
X3999254Y-8553318D01*
X3808444Y-9074042D01*
X3754482Y-9614347D01*
X3165960Y-9614347D01*
X3165455Y-9610699D01*
X3211589Y-8966257D01*
X3383714Y-8359247D01*
X3637624Y-7887597D01*
X3710926Y-7764495D01*
X3723974Y-7647777D01*
X3670213Y-7483495D01*
X3560474Y-7252786D01*
X3460100Y-7030090D01*
X3396309Y-6819665D01*
X3361117Y-6572541D01*
X3346543Y-6239747D01*
X3344333Y-5926855D01*
X3349601Y-5499554D01*
X3370399Y-5193276D01*
X3414219Y-4959902D01*
X3488554Y-4751312D01*
X3546825Y-4626330D01*
X3891824Y-4096859D01*
X4343051Y-3671402D01*
X4733765Y-3439390D01*
X4834758Y-3395453D01*
X4941177Y-3359140D01*
X5069767Y-3329583D01*
X5237274Y-3305911D01*
X5460442Y-3287256D01*
X5756019Y-3272748D01*
X6140750Y-3261517D01*
X6631381Y-3252694D01*
X7244657Y-3245410D01*
X7997324Y-3238795D01*
X8699500Y-3233485D01*
X12276667Y-3207304D01*
X12276667Y-6096000D01*
G04 #@! TD*
M02*
