G04 #@! TF.GenerationSoftware,KiCad,Pcbnew,(5.0.0)*
G04 #@! TF.CreationDate,2018-12-13T05:29:11-05:00*
G04 #@! TF.ProjectId,Logo,4C6F676F2E6B696361645F7063620000,rev?*
G04 #@! TF.SameCoordinates,Original*
G04 #@! TF.FileFunction,Copper,L1,Top,Signal*
G04 #@! TF.FilePolarity,Positive*
%FSLAX46Y46*%
G04 Gerber Fmt 4.6, Leading zero omitted, Abs format (unit mm)*
G04 Created by KiCad (PCBNEW (5.0.0)) date 12/13/18 05:29:11*
%MOMM*%
%LPD*%
G01*
G04 APERTURE LIST*
G04 #@! TA.AperFunction,NonConductor*
%ADD10C,1.270000*%
G04 #@! TD*
G04 APERTURE END LIST*
D10*
X4052282Y-13062857D02*
X7692949Y-13062857D01*
X8421687Y-19715238D02*
X3220735Y-19715238D01*
X4808235Y-7015238D01*
X10009187Y-7015238D01*
X12600592Y-11248571D02*
X16761354Y-11248571D01*
X14690044Y-7015238D02*
X13329330Y-17900952D01*
X13698235Y-19110476D01*
X14662830Y-19715238D01*
X15703020Y-19715238D01*
X24100139Y-19110476D02*
X22984354Y-19715238D01*
X20903973Y-19715238D01*
X19939377Y-19110476D01*
X19494877Y-18505714D01*
X19125973Y-17296190D01*
X19579544Y-13667619D01*
X20250830Y-12458095D01*
X20846520Y-11853333D01*
X21962306Y-11248571D01*
X24042687Y-11248571D01*
X25007282Y-11853333D01*
X28705401Y-19715238D02*
X30292901Y-7015238D01*
X33386258Y-19715238D02*
X34217806Y-13062857D01*
X33848901Y-11853333D01*
X32884306Y-11248571D01*
X31324020Y-11248571D01*
X30208235Y-11853333D01*
X29612544Y-12458095D01*
X46842211Y-16086666D02*
X52043163Y-16086666D01*
X45348449Y-19715238D02*
X50576616Y-7015238D01*
X52629782Y-19715238D01*
X64147473Y-19110476D02*
X65632163Y-19715238D01*
X68232639Y-19715238D01*
X69348425Y-19110476D01*
X69944116Y-18505714D01*
X70615401Y-17296190D01*
X70766592Y-16086666D01*
X70397687Y-14877142D01*
X69953187Y-14272380D01*
X68988592Y-13667619D01*
X66983806Y-13062857D01*
X66019211Y-12458095D01*
X65574711Y-11853333D01*
X65205806Y-10643809D01*
X65356997Y-9434285D01*
X66028282Y-8224761D01*
X66623973Y-7620000D01*
X67739758Y-7015238D01*
X70340235Y-7015238D01*
X71824925Y-7620000D01*
X79750330Y-19110476D02*
X78634544Y-19715238D01*
X76554163Y-19715238D01*
X75589568Y-19110476D01*
X75145068Y-18505714D01*
X74776163Y-17296190D01*
X75229735Y-13667619D01*
X75901020Y-12458095D01*
X76496711Y-11853333D01*
X77612497Y-11248571D01*
X79692877Y-11248571D01*
X80657473Y-11853333D01*
X84355592Y-19715238D02*
X85943092Y-7015238D01*
X89036449Y-19715238D02*
X89867997Y-13062857D01*
X89499092Y-11853333D01*
X88534497Y-11248571D01*
X86974211Y-11248571D01*
X85858425Y-11853333D01*
X85262735Y-12458095D01*
X98473758Y-19110476D02*
X97357973Y-19715238D01*
X95277592Y-19715238D01*
X94312997Y-19110476D01*
X93944092Y-17900952D01*
X94548854Y-13062857D01*
X95220139Y-11853333D01*
X96335925Y-11248571D01*
X98416306Y-11248571D01*
X99380901Y-11853333D01*
X99749806Y-13062857D01*
X99598616Y-14272380D01*
X94246473Y-15481904D01*
X103097163Y-11248571D02*
X107257925Y-11248571D01*
X105186616Y-7015238D02*
X103825901Y-17900952D01*
X104194806Y-19110476D01*
X105159401Y-19715238D01*
X106199592Y-19715238D01*
X114596711Y-19110476D02*
X113480925Y-19715238D01*
X111400544Y-19715238D01*
X110435949Y-19110476D01*
X109991449Y-18505714D01*
X109622544Y-17296190D01*
X110076116Y-13667619D01*
X110747401Y-12458095D01*
X111343092Y-11853333D01*
X112458877Y-11248571D01*
X114539258Y-11248571D01*
X115503854Y-11853333D01*
X119201973Y-19715238D02*
X120789473Y-7015238D01*
X123882830Y-19715238D02*
X124714377Y-13062857D01*
X124345473Y-11853333D01*
X123380877Y-11248571D01*
X121820592Y-11248571D01*
X120704806Y-11853333D01*
X120109116Y-12458095D01*
M02*
