G04 #@! TF.GenerationSoftware,KiCad,Pcbnew,5.0.2-bee76a0~70~ubuntu16.04.1*
G04 #@! TF.CreationDate,2018-12-13T04:50:19-05:00*
G04 #@! TF.ProjectId,Logo,4c6f676f-2e6b-4696-9361-645f70636258,rev?*
G04 #@! TF.SameCoordinates,Original*
G04 #@! TF.FileFunction,Copper,L1,Top*
G04 #@! TF.FilePolarity,Positive*
%FSLAX46Y46*%
G04 Gerber Fmt 4.6, Leading zero omitted, Abs format (unit mm)*
G04 Created by KiCad (PCBNEW 5.0.2-bee76a0~70~ubuntu16.04.1) date Thu 13 Dec 2018 04:50:19 AM EST*
%MOMM*%
%LPD*%
G01*
G04 APERTURE LIST*
G04 #@! TA.AperFunction,NonConductor*
%ADD10C,1.905000*%
G04 #@! TD*
G04 APERTURE END LIST*
D10*
X3315040Y-13643428D02*
X6871040Y-13643428D01*
X7397183Y-21626285D02*
X2317183Y-21626285D01*
X4222183Y-6386285D01*
X9302183Y-6386285D01*
X11715183Y-11466285D02*
X15779183Y-11466285D01*
X13874183Y-6386285D02*
X12241325Y-19449142D01*
X12567897Y-20900571D01*
X13493183Y-21626285D01*
X14509183Y-21626285D01*
X22727897Y-20900571D02*
X21621183Y-21626285D01*
X19589183Y-21626285D01*
X18663897Y-20900571D01*
X18246611Y-20174857D01*
X17920040Y-18723428D01*
X18464325Y-14369142D01*
X19153754Y-12917714D01*
X19752468Y-12192000D01*
X20859183Y-11466285D01*
X22891183Y-11466285D01*
X23816468Y-12192000D01*
X27209183Y-21626285D02*
X29114183Y-6386285D01*
X31781183Y-21626285D02*
X32779040Y-13643428D01*
X32452468Y-12192000D01*
X31527183Y-11466285D01*
X30003183Y-11466285D01*
X28896468Y-12192000D01*
X28297754Y-12917714D01*
X45025468Y-17272000D02*
X50105468Y-17272000D01*
X43465183Y-21626285D02*
X48926183Y-6386285D01*
X50577183Y-21626285D01*
X61843897Y-20900571D02*
X63277183Y-21626285D01*
X65817183Y-21626285D01*
X66923897Y-20900571D01*
X67522611Y-20174857D01*
X68212040Y-18723428D01*
X68393468Y-17272000D01*
X68066897Y-15820571D01*
X67649611Y-15094857D01*
X66724325Y-14369142D01*
X64783040Y-13643428D01*
X63857754Y-12917714D01*
X63440468Y-12192000D01*
X63113897Y-10740571D01*
X63295325Y-9289142D01*
X63984754Y-7837714D01*
X64583468Y-7112000D01*
X65690183Y-6386285D01*
X68230183Y-6386285D01*
X69663468Y-7112000D01*
X77083897Y-20900571D02*
X75977183Y-21626285D01*
X73945183Y-21626285D01*
X73019897Y-20900571D01*
X72602611Y-20174857D01*
X72276040Y-18723428D01*
X72820325Y-14369142D01*
X73509754Y-12917714D01*
X74108468Y-12192000D01*
X75215183Y-11466285D01*
X77247183Y-11466285D01*
X78172468Y-12192000D01*
X81565183Y-21626285D02*
X83470183Y-6386285D01*
X86137183Y-21626285D02*
X87135040Y-13643428D01*
X86808468Y-12192000D01*
X85883183Y-11466285D01*
X84359183Y-11466285D01*
X83252468Y-12192000D01*
X82653754Y-12917714D01*
X95371897Y-20900571D02*
X94265183Y-21626285D01*
X92233183Y-21626285D01*
X91307897Y-20900571D01*
X90981325Y-19449142D01*
X91707040Y-13643428D01*
X92396468Y-12192000D01*
X93503183Y-11466285D01*
X95535183Y-11466285D01*
X96460468Y-12192000D01*
X96787040Y-13643428D01*
X96605611Y-15094857D01*
X91344183Y-16546285D01*
X100107183Y-11466285D02*
X104171183Y-11466285D01*
X102266183Y-6386285D02*
X100633325Y-19449142D01*
X100959897Y-20900571D01*
X101885183Y-21626285D01*
X102901183Y-21626285D01*
X111119897Y-20900571D02*
X110013183Y-21626285D01*
X107981183Y-21626285D01*
X107055897Y-20900571D01*
X106638611Y-20174857D01*
X106312040Y-18723428D01*
X106856325Y-14369142D01*
X107545754Y-12917714D01*
X108144468Y-12192000D01*
X109251183Y-11466285D01*
X111283183Y-11466285D01*
X112208468Y-12192000D01*
X115601183Y-21626285D02*
X117506183Y-6386285D01*
X120173183Y-21626285D02*
X121171040Y-13643428D01*
X120844468Y-12192000D01*
X119919183Y-11466285D01*
X118395183Y-11466285D01*
X117288468Y-12192000D01*
X116689754Y-12917714D01*
M02*
