G04 #@! TF.GenerationSoftware,KiCad,Pcbnew,(5.0.0)*
G04 #@! TF.CreationDate,2018-12-13T02:21:36-05:00*
G04 #@! TF.ProjectId,Logo,4C6F676F2E6B696361645F7063620000,rev?*
G04 #@! TF.SameCoordinates,Original*
G04 #@! TF.FileFunction,Copper,L1,Top,Signal*
G04 #@! TF.FilePolarity,Positive*
%FSLAX46Y46*%
G04 Gerber Fmt 4.6, Leading zero omitted, Abs format (unit mm)*
G04 Created by KiCad (PCBNEW (5.0.0)) date 12/13/18 02:21:36*
%MOMM*%
%LPD*%
G01*
G04 APERTURE LIST*
G04 #@! TA.AperFunction,NonConductor*
%ADD10C,0.635000*%
G04 #@! TD*
G04 APERTURE END LIST*
D10*
X3704733Y-12300857D02*
X5821400Y-12300857D01*
X5896995Y-18953238D02*
X2873186Y-18953238D01*
X4460686Y-6253238D01*
X7484495Y-6253238D01*
X8769614Y-10486571D02*
X11188662Y-10486571D01*
X10205924Y-6253238D02*
X8845209Y-17138952D01*
X8996400Y-18348476D01*
X9525566Y-18953238D01*
X10130328Y-18953238D01*
X15044019Y-18348476D02*
X14363662Y-18953238D01*
X13154138Y-18953238D01*
X12624971Y-18348476D01*
X12398186Y-17743714D01*
X12246995Y-16534190D01*
X12700566Y-12905619D01*
X13154138Y-11696095D01*
X13532114Y-11091333D01*
X14212471Y-10486571D01*
X15421995Y-10486571D01*
X15951162Y-11091333D01*
X17689852Y-18953238D02*
X19277352Y-6253238D01*
X20411281Y-18953238D02*
X21242828Y-12300857D01*
X21091638Y-11091333D01*
X20562471Y-10486571D01*
X19655328Y-10486571D01*
X18974971Y-11091333D01*
X18596995Y-11696095D01*
X28424376Y-15324666D02*
X31448186Y-15324666D01*
X27366043Y-18953238D02*
X31070209Y-6253238D01*
X31599376Y-18953238D01*
X38327352Y-18348476D02*
X39158900Y-18953238D01*
X40670805Y-18953238D01*
X41351162Y-18348476D01*
X41729138Y-17743714D01*
X42182709Y-16534190D01*
X42333900Y-15324666D01*
X42182709Y-14115142D01*
X41955924Y-13510380D01*
X41426757Y-12905619D01*
X40292828Y-12300857D01*
X39763662Y-11696095D01*
X39536876Y-11091333D01*
X39385686Y-9881809D01*
X39536876Y-8672285D01*
X39990447Y-7462761D01*
X40368424Y-6858000D01*
X41048781Y-6253238D01*
X42560686Y-6253238D01*
X43392233Y-6858000D01*
X47398781Y-18348476D02*
X46718424Y-18953238D01*
X45508900Y-18953238D01*
X44979733Y-18348476D01*
X44752947Y-17743714D01*
X44601757Y-16534190D01*
X45055328Y-12905619D01*
X45508900Y-11696095D01*
X45886876Y-11091333D01*
X46567233Y-10486571D01*
X47776757Y-10486571D01*
X48305924Y-11091333D01*
X50044614Y-18953238D02*
X51632114Y-6253238D01*
X52766043Y-18953238D02*
X53597590Y-12300857D01*
X53446400Y-11091333D01*
X52917233Y-10486571D01*
X52010090Y-10486571D01*
X51329733Y-11091333D01*
X50951757Y-11696095D01*
X58284495Y-18348476D02*
X57604138Y-18953238D01*
X56394614Y-18953238D01*
X55865447Y-18348476D01*
X55714257Y-17138952D01*
X56319019Y-12300857D01*
X56772590Y-11091333D01*
X57452947Y-10486571D01*
X58662471Y-10486571D01*
X59191638Y-11091333D01*
X59342828Y-12300857D01*
X59191638Y-13510380D01*
X56016638Y-14719904D01*
X61383900Y-10486571D02*
X63802947Y-10486571D01*
X62820209Y-6253238D02*
X61459495Y-17138952D01*
X61610686Y-18348476D01*
X62139852Y-18953238D01*
X62744614Y-18953238D01*
X67658305Y-18348476D02*
X66977947Y-18953238D01*
X65768424Y-18953238D01*
X65239257Y-18348476D01*
X65012471Y-17743714D01*
X64861281Y-16534190D01*
X65314852Y-12905619D01*
X65768424Y-11696095D01*
X66146400Y-11091333D01*
X66826757Y-10486571D01*
X68036281Y-10486571D01*
X68565447Y-11091333D01*
X70304138Y-18953238D02*
X71891638Y-6253238D01*
X73025566Y-18953238D02*
X73857114Y-12300857D01*
X73705924Y-11091333D01*
X73176757Y-10486571D01*
X72269614Y-10486571D01*
X71589257Y-11091333D01*
X71211281Y-11696095D01*
M02*
