G04 #@! TF.GenerationSoftware,KiCad,Pcbnew,(5.0.0)*
G04 #@! TF.CreationDate,2018-12-10T20:22:27-05:00*
G04 #@! TF.ProjectId,name_tag,6E616D655F7461672E6B696361645F70,rev?*
G04 #@! TF.SameCoordinates,Original*
G04 #@! TF.FileFunction,Legend,Top*
G04 #@! TF.FilePolarity,Positive*
%FSLAX46Y46*%
G04 Gerber Fmt 4.6, Leading zero omitted, Abs format (unit mm)*
G04 Created by KiCad (PCBNEW (5.0.0)) date 12/10/18 20:22:27*
%MOMM*%
%LPD*%
G01*
G04 APERTURE LIST*
%ADD10C,0.010000*%
G04 APERTURE END LIST*
D10*
G04 #@! TO.C,G\002A\002A\002A*
G36*
X73007792Y-17738956D02*
X73561422Y-17744907D01*
X73986720Y-17758635D01*
X74304184Y-17783262D01*
X74534310Y-17821905D01*
X74697596Y-17877683D01*
X74814538Y-17953715D01*
X74905635Y-18053120D01*
X74967970Y-18142812D01*
X75039923Y-18322902D01*
X75106367Y-18607288D01*
X75148996Y-18901833D01*
X75207384Y-19473333D01*
X69511333Y-19473333D01*
X69511333Y-19020300D01*
X69552380Y-18520924D01*
X69679295Y-18155033D01*
X69897741Y-17906978D01*
X69919835Y-17891419D01*
X70003569Y-17843900D01*
X70111685Y-17807221D01*
X70265536Y-17780004D01*
X70486475Y-17760875D01*
X70795855Y-17748455D01*
X71215031Y-17741370D01*
X71765354Y-17738243D01*
X72305333Y-17737666D01*
X73007792Y-17738956D01*
X73007792Y-17738956D01*
G37*
X73007792Y-17738956D02*
X73561422Y-17744907D01*
X73986720Y-17758635D01*
X74304184Y-17783262D01*
X74534310Y-17821905D01*
X74697596Y-17877683D01*
X74814538Y-17953715D01*
X74905635Y-18053120D01*
X74967970Y-18142812D01*
X75039923Y-18322902D01*
X75106367Y-18607288D01*
X75148996Y-18901833D01*
X75207384Y-19473333D01*
X69511333Y-19473333D01*
X69511333Y-19020300D01*
X69552380Y-18520924D01*
X69679295Y-18155033D01*
X69897741Y-17906978D01*
X69919835Y-17891419D01*
X70003569Y-17843900D01*
X70111685Y-17807221D01*
X70265536Y-17780004D01*
X70486475Y-17760875D01*
X70795855Y-17748455D01*
X71215031Y-17741370D01*
X71765354Y-17738243D01*
X72305333Y-17737666D01*
X73007792Y-17738956D01*
G36*
X73147647Y-16601506D02*
X73842614Y-16620380D01*
X74405270Y-16657863D01*
X74854029Y-16719207D01*
X75207304Y-16809665D01*
X75483511Y-16934489D01*
X75701062Y-17098932D01*
X75878373Y-17308247D01*
X76033856Y-17567686D01*
X76088939Y-17676209D01*
X76327000Y-18161000D01*
X76356074Y-20891574D01*
X76385148Y-23622149D01*
X76600325Y-23791408D01*
X76815992Y-23912917D01*
X77015751Y-23960666D01*
X77169020Y-23998552D01*
X77215503Y-24143261D01*
X77216000Y-24172333D01*
X77216000Y-24384000D01*
X73067333Y-24384000D01*
X73067333Y-23876000D01*
X75861333Y-23876000D01*
X75861333Y-20574000D01*
X68834000Y-20574000D01*
X68834000Y-23876000D01*
X71543333Y-23876000D01*
X71543333Y-24384000D01*
X67479333Y-24384000D01*
X67479333Y-24172333D01*
X67515587Y-24009905D01*
X67652281Y-23961052D01*
X67675035Y-23960666D01*
X67880031Y-23904230D01*
X68056035Y-23788035D01*
X68110605Y-23732519D01*
X68153259Y-23666359D01*
X68185470Y-23569585D01*
X68208712Y-23422228D01*
X68224459Y-23204318D01*
X68234186Y-22895888D01*
X68239366Y-22476967D01*
X68241474Y-21927586D01*
X68241973Y-21269201D01*
X68245959Y-20397463D01*
X68250270Y-20150666D01*
X68834000Y-20150666D01*
X75861333Y-20150666D01*
X75861333Y-19361700D01*
X75820548Y-18647975D01*
X75695538Y-18075523D01*
X75482320Y-17636500D01*
X75176913Y-17323067D01*
X74775336Y-17127381D01*
X74718333Y-17110851D01*
X74503248Y-17077285D01*
X74153719Y-17051353D01*
X73699416Y-17032874D01*
X73170009Y-17021667D01*
X72595168Y-17017552D01*
X72004564Y-17020348D01*
X71427865Y-17029874D01*
X70894742Y-17045949D01*
X70434866Y-17068393D01*
X70077905Y-17097026D01*
X69853531Y-17131665D01*
X69823229Y-17140666D01*
X69464543Y-17308829D01*
X69198180Y-17537050D01*
X69013279Y-17847960D01*
X68898980Y-18264190D01*
X68844423Y-18808369D01*
X68835859Y-19198166D01*
X68834000Y-20150666D01*
X68250270Y-20150666D01*
X68258554Y-19676525D01*
X68281494Y-19087993D01*
X68316515Y-18613472D01*
X68365351Y-18234568D01*
X68429737Y-17932888D01*
X68511411Y-17690037D01*
X68596131Y-17515399D01*
X68753170Y-17271922D01*
X68935304Y-17074413D01*
X69160899Y-16918316D01*
X69448320Y-16799074D01*
X69815934Y-16712131D01*
X70282106Y-16652931D01*
X70865202Y-16616916D01*
X71583588Y-16599531D01*
X72301955Y-16595989D01*
X73147647Y-16601506D01*
X73147647Y-16601506D01*
G37*
X73147647Y-16601506D02*
X73842614Y-16620380D01*
X74405270Y-16657863D01*
X74854029Y-16719207D01*
X75207304Y-16809665D01*
X75483511Y-16934489D01*
X75701062Y-17098932D01*
X75878373Y-17308247D01*
X76033856Y-17567686D01*
X76088939Y-17676209D01*
X76327000Y-18161000D01*
X76356074Y-20891574D01*
X76385148Y-23622149D01*
X76600325Y-23791408D01*
X76815992Y-23912917D01*
X77015751Y-23960666D01*
X77169020Y-23998552D01*
X77215503Y-24143261D01*
X77216000Y-24172333D01*
X77216000Y-24384000D01*
X73067333Y-24384000D01*
X73067333Y-23876000D01*
X75861333Y-23876000D01*
X75861333Y-20574000D01*
X68834000Y-20574000D01*
X68834000Y-23876000D01*
X71543333Y-23876000D01*
X71543333Y-24384000D01*
X67479333Y-24384000D01*
X67479333Y-24172333D01*
X67515587Y-24009905D01*
X67652281Y-23961052D01*
X67675035Y-23960666D01*
X67880031Y-23904230D01*
X68056035Y-23788035D01*
X68110605Y-23732519D01*
X68153259Y-23666359D01*
X68185470Y-23569585D01*
X68208712Y-23422228D01*
X68224459Y-23204318D01*
X68234186Y-22895888D01*
X68239366Y-22476967D01*
X68241474Y-21927586D01*
X68241973Y-21269201D01*
X68245959Y-20397463D01*
X68250270Y-20150666D01*
X68834000Y-20150666D01*
X75861333Y-20150666D01*
X75861333Y-19361700D01*
X75820548Y-18647975D01*
X75695538Y-18075523D01*
X75482320Y-17636500D01*
X75176913Y-17323067D01*
X74775336Y-17127381D01*
X74718333Y-17110851D01*
X74503248Y-17077285D01*
X74153719Y-17051353D01*
X73699416Y-17032874D01*
X73170009Y-17021667D01*
X72595168Y-17017552D01*
X72004564Y-17020348D01*
X71427865Y-17029874D01*
X70894742Y-17045949D01*
X70434866Y-17068393D01*
X70077905Y-17097026D01*
X69853531Y-17131665D01*
X69823229Y-17140666D01*
X69464543Y-17308829D01*
X69198180Y-17537050D01*
X69013279Y-17847960D01*
X68898980Y-18264190D01*
X68844423Y-18808369D01*
X68835859Y-19198166D01*
X68834000Y-20150666D01*
X68250270Y-20150666D01*
X68258554Y-19676525D01*
X68281494Y-19087993D01*
X68316515Y-18613472D01*
X68365351Y-18234568D01*
X68429737Y-17932888D01*
X68511411Y-17690037D01*
X68596131Y-17515399D01*
X68753170Y-17271922D01*
X68935304Y-17074413D01*
X69160899Y-16918316D01*
X69448320Y-16799074D01*
X69815934Y-16712131D01*
X70282106Y-16652931D01*
X70865202Y-16616916D01*
X71583588Y-16599531D01*
X72301955Y-16595989D01*
X73147647Y-16601506D01*
G36*
X53678667Y-17018000D02*
X51731333Y-17018000D01*
X51731333Y-18420566D01*
X51736580Y-18931141D01*
X51751254Y-19372582D01*
X51773758Y-19716342D01*
X51802496Y-19933870D01*
X51818979Y-19986899D01*
X51847456Y-20028664D01*
X51894553Y-20062658D01*
X51976488Y-20089680D01*
X52109481Y-20110527D01*
X52309750Y-20125997D01*
X52593514Y-20136890D01*
X52976992Y-20144003D01*
X53476404Y-20148135D01*
X54107967Y-20150084D01*
X54887901Y-20150648D01*
X55146379Y-20150666D01*
X56038521Y-20149181D01*
X56772643Y-20144495D01*
X57360035Y-20136266D01*
X57811987Y-20124151D01*
X58139787Y-20107806D01*
X58354727Y-20086888D01*
X58468095Y-20061054D01*
X58487733Y-20049066D01*
X58529683Y-19938946D01*
X58559971Y-19697345D01*
X58579307Y-19313358D01*
X58588397Y-18776081D01*
X58589333Y-18482733D01*
X58589333Y-17018000D01*
X56726667Y-17018000D01*
X56726667Y-16594666D01*
X60367333Y-16594666D01*
X60367333Y-16806333D01*
X60359419Y-16913995D01*
X60311899Y-16977105D01*
X60189105Y-17007550D01*
X59955367Y-17017221D01*
X59732333Y-17018000D01*
X59097333Y-17018000D01*
X59097333Y-20283232D01*
X59099669Y-21208231D01*
X59106566Y-21998864D01*
X59117856Y-22648576D01*
X59133372Y-23150817D01*
X59152946Y-23499031D01*
X59176410Y-23686668D01*
X59184979Y-23712232D01*
X59262874Y-23803952D01*
X59401011Y-23854154D01*
X59642619Y-23873986D01*
X59819979Y-23876000D01*
X60367333Y-23876000D01*
X60367333Y-24384000D01*
X56726667Y-24384000D01*
X56726667Y-23876000D01*
X58589333Y-23876000D01*
X58589333Y-22326599D01*
X58585026Y-21702015D01*
X58571634Y-21235125D01*
X58548455Y-20914498D01*
X58514784Y-20728703D01*
X58487733Y-20675599D01*
X58412432Y-20647668D01*
X58240149Y-20624793D01*
X57959594Y-20606630D01*
X57559478Y-20592836D01*
X57028512Y-20583069D01*
X56355406Y-20576985D01*
X55528869Y-20574239D01*
X55146379Y-20574000D01*
X54319988Y-20574309D01*
X53646711Y-20575770D01*
X53110330Y-20579181D01*
X52694624Y-20585340D01*
X52383376Y-20595045D01*
X52160367Y-20609094D01*
X52009377Y-20628286D01*
X51914188Y-20653419D01*
X51858580Y-20685292D01*
X51826336Y-20724701D01*
X51818979Y-20737767D01*
X51788046Y-20879995D01*
X51762504Y-21165227D01*
X51743747Y-21567181D01*
X51733172Y-22059576D01*
X51731333Y-22388767D01*
X51731333Y-23876000D01*
X53678667Y-23876000D01*
X53678667Y-24384000D01*
X50038000Y-24384000D01*
X50038000Y-24130000D01*
X50046033Y-23983989D01*
X50098125Y-23908485D01*
X50236267Y-23880238D01*
X50496742Y-23876000D01*
X50676619Y-23880277D01*
X50824300Y-23883051D01*
X50942934Y-23869231D01*
X51035673Y-23823728D01*
X51105667Y-23731454D01*
X51156065Y-23577318D01*
X51190017Y-23346231D01*
X51210674Y-23023105D01*
X51221186Y-22592850D01*
X51224703Y-22040376D01*
X51224375Y-21350594D01*
X51223353Y-20508416D01*
X51223333Y-20395608D01*
X51223333Y-17018000D01*
X50630667Y-17018000D01*
X50321031Y-17014887D01*
X50143820Y-16996764D01*
X50062135Y-16950452D01*
X50039079Y-16862774D01*
X50038000Y-16806333D01*
X50038000Y-16594666D01*
X53678667Y-16594666D01*
X53678667Y-17018000D01*
X53678667Y-17018000D01*
G37*
X53678667Y-17018000D02*
X51731333Y-17018000D01*
X51731333Y-18420566D01*
X51736580Y-18931141D01*
X51751254Y-19372582D01*
X51773758Y-19716342D01*
X51802496Y-19933870D01*
X51818979Y-19986899D01*
X51847456Y-20028664D01*
X51894553Y-20062658D01*
X51976488Y-20089680D01*
X52109481Y-20110527D01*
X52309750Y-20125997D01*
X52593514Y-20136890D01*
X52976992Y-20144003D01*
X53476404Y-20148135D01*
X54107967Y-20150084D01*
X54887901Y-20150648D01*
X55146379Y-20150666D01*
X56038521Y-20149181D01*
X56772643Y-20144495D01*
X57360035Y-20136266D01*
X57811987Y-20124151D01*
X58139787Y-20107806D01*
X58354727Y-20086888D01*
X58468095Y-20061054D01*
X58487733Y-20049066D01*
X58529683Y-19938946D01*
X58559971Y-19697345D01*
X58579307Y-19313358D01*
X58588397Y-18776081D01*
X58589333Y-18482733D01*
X58589333Y-17018000D01*
X56726667Y-17018000D01*
X56726667Y-16594666D01*
X60367333Y-16594666D01*
X60367333Y-16806333D01*
X60359419Y-16913995D01*
X60311899Y-16977105D01*
X60189105Y-17007550D01*
X59955367Y-17017221D01*
X59732333Y-17018000D01*
X59097333Y-17018000D01*
X59097333Y-20283232D01*
X59099669Y-21208231D01*
X59106566Y-21998864D01*
X59117856Y-22648576D01*
X59133372Y-23150817D01*
X59152946Y-23499031D01*
X59176410Y-23686668D01*
X59184979Y-23712232D01*
X59262874Y-23803952D01*
X59401011Y-23854154D01*
X59642619Y-23873986D01*
X59819979Y-23876000D01*
X60367333Y-23876000D01*
X60367333Y-24384000D01*
X56726667Y-24384000D01*
X56726667Y-23876000D01*
X58589333Y-23876000D01*
X58589333Y-22326599D01*
X58585026Y-21702015D01*
X58571634Y-21235125D01*
X58548455Y-20914498D01*
X58514784Y-20728703D01*
X58487733Y-20675599D01*
X58412432Y-20647668D01*
X58240149Y-20624793D01*
X57959594Y-20606630D01*
X57559478Y-20592836D01*
X57028512Y-20583069D01*
X56355406Y-20576985D01*
X55528869Y-20574239D01*
X55146379Y-20574000D01*
X54319988Y-20574309D01*
X53646711Y-20575770D01*
X53110330Y-20579181D01*
X52694624Y-20585340D01*
X52383376Y-20595045D01*
X52160367Y-20609094D01*
X52009377Y-20628286D01*
X51914188Y-20653419D01*
X51858580Y-20685292D01*
X51826336Y-20724701D01*
X51818979Y-20737767D01*
X51788046Y-20879995D01*
X51762504Y-21165227D01*
X51743747Y-21567181D01*
X51733172Y-22059576D01*
X51731333Y-22388767D01*
X51731333Y-23876000D01*
X53678667Y-23876000D01*
X53678667Y-24384000D01*
X50038000Y-24384000D01*
X50038000Y-24130000D01*
X50046033Y-23983989D01*
X50098125Y-23908485D01*
X50236267Y-23880238D01*
X50496742Y-23876000D01*
X50676619Y-23880277D01*
X50824300Y-23883051D01*
X50942934Y-23869231D01*
X51035673Y-23823728D01*
X51105667Y-23731454D01*
X51156065Y-23577318D01*
X51190017Y-23346231D01*
X51210674Y-23023105D01*
X51221186Y-22592850D01*
X51224703Y-22040376D01*
X51224375Y-21350594D01*
X51223353Y-20508416D01*
X51223333Y-20395608D01*
X51223333Y-17018000D01*
X50630667Y-17018000D01*
X50321031Y-17014887D01*
X50143820Y-16996764D01*
X50062135Y-16950452D01*
X50039079Y-16862774D01*
X50038000Y-16806333D01*
X50038000Y-16594666D01*
X53678667Y-16594666D01*
X53678667Y-17018000D01*
G36*
X47217199Y-16600734D02*
X47279413Y-16640660D01*
X47312693Y-16747030D01*
X47326090Y-16952429D01*
X47328656Y-17289443D01*
X47328667Y-17356666D01*
X47326981Y-17717383D01*
X47315891Y-17941353D01*
X47286343Y-18061160D01*
X47229288Y-18109390D01*
X47135673Y-18118629D01*
X47117000Y-18118666D01*
X47016801Y-18112599D01*
X46954587Y-18072673D01*
X46921307Y-17966303D01*
X46907910Y-17760904D01*
X46905343Y-17423890D01*
X46905333Y-17356666D01*
X46907019Y-16995949D01*
X46918109Y-16771980D01*
X46947656Y-16652172D01*
X47004712Y-16603942D01*
X47098327Y-16594703D01*
X47117000Y-16594666D01*
X47217199Y-16600734D01*
X47217199Y-16600734D01*
G37*
X47217199Y-16600734D02*
X47279413Y-16640660D01*
X47312693Y-16747030D01*
X47326090Y-16952429D01*
X47328656Y-17289443D01*
X47328667Y-17356666D01*
X47326981Y-17717383D01*
X47315891Y-17941353D01*
X47286343Y-18061160D01*
X47229288Y-18109390D01*
X47135673Y-18118629D01*
X47117000Y-18118666D01*
X47016801Y-18112599D01*
X46954587Y-18072673D01*
X46921307Y-17966303D01*
X46907910Y-17760904D01*
X46905343Y-17423890D01*
X46905333Y-17356666D01*
X46907019Y-16995949D01*
X46918109Y-16771980D01*
X46947656Y-16652172D01*
X47004712Y-16603942D01*
X47098327Y-16594703D01*
X47117000Y-16594666D01*
X47217199Y-16600734D01*
G36*
X46590296Y-17018000D02*
X44017315Y-17019859D01*
X43225530Y-17021575D01*
X42583450Y-17027770D01*
X42071447Y-17041908D01*
X41669895Y-17067452D01*
X41359167Y-17107866D01*
X41119637Y-17166614D01*
X40931679Y-17247158D01*
X40775667Y-17352964D01*
X40631973Y-17487494D01*
X40491627Y-17642063D01*
X40123506Y-18152817D01*
X39862751Y-18733797D01*
X39703723Y-19405727D01*
X39640782Y-20189333D01*
X39647663Y-20743333D01*
X39732550Y-21599364D01*
X39912662Y-22320107D01*
X40190790Y-22912154D01*
X40569727Y-23382097D01*
X40866697Y-23622000D01*
X41177645Y-23833666D01*
X44253156Y-23857848D01*
X47328667Y-23882029D01*
X47328667Y-24384000D01*
X44428833Y-24378285D01*
X43507226Y-24373838D01*
X42746523Y-24364272D01*
X42138363Y-24349303D01*
X41674385Y-24328652D01*
X41346230Y-24302038D01*
X41145535Y-24269178D01*
X41139868Y-24267683D01*
X40625925Y-24042257D01*
X40169541Y-23661345D01*
X39776720Y-23130754D01*
X39582105Y-22760452D01*
X39325757Y-22048874D01*
X39173355Y-21269101D01*
X39123071Y-20457122D01*
X39173081Y-19648929D01*
X39321556Y-18880510D01*
X39566672Y-18187857D01*
X39838853Y-17701144D01*
X40169263Y-17306492D01*
X40560735Y-16973684D01*
X40963205Y-16742224D01*
X41128971Y-16683194D01*
X41304817Y-16658088D01*
X41626666Y-16636109D01*
X42071206Y-16618054D01*
X42615124Y-16604719D01*
X43235106Y-16596902D01*
X43705407Y-16595138D01*
X45966480Y-16594666D01*
X46590296Y-17018000D01*
X46590296Y-17018000D01*
G37*
X46590296Y-17018000D02*
X44017315Y-17019859D01*
X43225530Y-17021575D01*
X42583450Y-17027770D01*
X42071447Y-17041908D01*
X41669895Y-17067452D01*
X41359167Y-17107866D01*
X41119637Y-17166614D01*
X40931679Y-17247158D01*
X40775667Y-17352964D01*
X40631973Y-17487494D01*
X40491627Y-17642063D01*
X40123506Y-18152817D01*
X39862751Y-18733797D01*
X39703723Y-19405727D01*
X39640782Y-20189333D01*
X39647663Y-20743333D01*
X39732550Y-21599364D01*
X39912662Y-22320107D01*
X40190790Y-22912154D01*
X40569727Y-23382097D01*
X40866697Y-23622000D01*
X41177645Y-23833666D01*
X44253156Y-23857848D01*
X47328667Y-23882029D01*
X47328667Y-24384000D01*
X44428833Y-24378285D01*
X43507226Y-24373838D01*
X42746523Y-24364272D01*
X42138363Y-24349303D01*
X41674385Y-24328652D01*
X41346230Y-24302038D01*
X41145535Y-24269178D01*
X41139868Y-24267683D01*
X40625925Y-24042257D01*
X40169541Y-23661345D01*
X39776720Y-23130754D01*
X39582105Y-22760452D01*
X39325757Y-22048874D01*
X39173355Y-21269101D01*
X39123071Y-20457122D01*
X39173081Y-19648929D01*
X39321556Y-18880510D01*
X39566672Y-18187857D01*
X39838853Y-17701144D01*
X40169263Y-17306492D01*
X40560735Y-16973684D01*
X40963205Y-16742224D01*
X41128971Y-16683194D01*
X41304817Y-16658088D01*
X41626666Y-16636109D01*
X42071206Y-16618054D01*
X42615124Y-16604719D01*
X43235106Y-16596902D01*
X43705407Y-16595138D01*
X45966480Y-16594666D01*
X46590296Y-17018000D01*
G36*
X37338000Y-17356666D02*
X37336314Y-17717383D01*
X37325224Y-17941353D01*
X37295677Y-18061160D01*
X37238621Y-18109390D01*
X37145006Y-18118629D01*
X37126333Y-18118666D01*
X36993263Y-18101769D01*
X36931872Y-18020179D01*
X36915073Y-17827547D01*
X36914667Y-17756505D01*
X36883948Y-17480889D01*
X36807675Y-17248072D01*
X36782866Y-17206172D01*
X36735333Y-17145375D01*
X36674453Y-17099321D01*
X36578127Y-17065964D01*
X36424257Y-17043257D01*
X36190744Y-17029153D01*
X35855489Y-17021607D01*
X35396394Y-17018571D01*
X34791362Y-17018000D01*
X32850667Y-17018000D01*
X32850667Y-23876000D01*
X34882667Y-23876000D01*
X34882667Y-24384000D01*
X30226000Y-24384000D01*
X30226000Y-23960666D01*
X31072667Y-23960666D01*
X31360024Y-23964665D01*
X31597074Y-23966818D01*
X31788624Y-23952361D01*
X31939480Y-23906529D01*
X32054450Y-23814557D01*
X32138340Y-23661681D01*
X32195958Y-23433137D01*
X32232111Y-23114159D01*
X32251605Y-22689983D01*
X32259249Y-22145845D01*
X32259849Y-21466979D01*
X32258212Y-20638622D01*
X32258000Y-20320000D01*
X32258000Y-17018000D01*
X30357801Y-17018000D01*
X29743521Y-17018490D01*
X29276475Y-17021324D01*
X28934565Y-17028549D01*
X28695694Y-17042212D01*
X28537761Y-17064358D01*
X28438670Y-17097034D01*
X28376321Y-17142286D01*
X28328615Y-17202161D01*
X28325801Y-17206172D01*
X28241457Y-17410998D01*
X28196358Y-17684966D01*
X28194000Y-17756505D01*
X28184124Y-17984189D01*
X28136439Y-18089227D01*
X28023854Y-18117970D01*
X27982333Y-18118666D01*
X27882134Y-18112599D01*
X27819920Y-18072673D01*
X27786640Y-17966303D01*
X27773243Y-17760904D01*
X27770677Y-17423890D01*
X27770667Y-17356666D01*
X27770667Y-16594666D01*
X37338000Y-16594666D01*
X37338000Y-17356666D01*
X37338000Y-17356666D01*
G37*
X37338000Y-17356666D02*
X37336314Y-17717383D01*
X37325224Y-17941353D01*
X37295677Y-18061160D01*
X37238621Y-18109390D01*
X37145006Y-18118629D01*
X37126333Y-18118666D01*
X36993263Y-18101769D01*
X36931872Y-18020179D01*
X36915073Y-17827547D01*
X36914667Y-17756505D01*
X36883948Y-17480889D01*
X36807675Y-17248072D01*
X36782866Y-17206172D01*
X36735333Y-17145375D01*
X36674453Y-17099321D01*
X36578127Y-17065964D01*
X36424257Y-17043257D01*
X36190744Y-17029153D01*
X35855489Y-17021607D01*
X35396394Y-17018571D01*
X34791362Y-17018000D01*
X32850667Y-17018000D01*
X32850667Y-23876000D01*
X34882667Y-23876000D01*
X34882667Y-24384000D01*
X30226000Y-24384000D01*
X30226000Y-23960666D01*
X31072667Y-23960666D01*
X31360024Y-23964665D01*
X31597074Y-23966818D01*
X31788624Y-23952361D01*
X31939480Y-23906529D01*
X32054450Y-23814557D01*
X32138340Y-23661681D01*
X32195958Y-23433137D01*
X32232111Y-23114159D01*
X32251605Y-22689983D01*
X32259249Y-22145845D01*
X32259849Y-21466979D01*
X32258212Y-20638622D01*
X32258000Y-20320000D01*
X32258000Y-17018000D01*
X30357801Y-17018000D01*
X29743521Y-17018490D01*
X29276475Y-17021324D01*
X28934565Y-17028549D01*
X28695694Y-17042212D01*
X28537761Y-17064358D01*
X28438670Y-17097034D01*
X28376321Y-17142286D01*
X28328615Y-17202161D01*
X28325801Y-17206172D01*
X28241457Y-17410998D01*
X28196358Y-17684966D01*
X28194000Y-17756505D01*
X28184124Y-17984189D01*
X28136439Y-18089227D01*
X28023854Y-18117970D01*
X27982333Y-18118666D01*
X27882134Y-18112599D01*
X27819920Y-18072673D01*
X27786640Y-17966303D01*
X27773243Y-17760904D01*
X27770677Y-17423890D01*
X27770667Y-17356666D01*
X27770667Y-16594666D01*
X37338000Y-16594666D01*
X37338000Y-17356666D01*
G36*
X25457866Y-16600734D02*
X25520079Y-16640660D01*
X25553359Y-16747030D01*
X25566757Y-16952429D01*
X25569323Y-17289443D01*
X25569333Y-17356666D01*
X25567648Y-17717383D01*
X25556557Y-17941353D01*
X25527010Y-18061160D01*
X25469955Y-18109390D01*
X25376340Y-18118629D01*
X25357667Y-18118666D01*
X25257467Y-18112599D01*
X25195254Y-18072673D01*
X25161974Y-17966303D01*
X25148576Y-17760904D01*
X25146010Y-17423890D01*
X25146000Y-17356666D01*
X25147685Y-16995949D01*
X25158776Y-16771980D01*
X25188323Y-16652172D01*
X25245378Y-16603942D01*
X25338993Y-16594703D01*
X25357667Y-16594666D01*
X25457866Y-16600734D01*
X25457866Y-16600734D01*
G37*
X25457866Y-16600734D02*
X25520079Y-16640660D01*
X25553359Y-16747030D01*
X25566757Y-16952429D01*
X25569323Y-17289443D01*
X25569333Y-17356666D01*
X25567648Y-17717383D01*
X25556557Y-17941353D01*
X25527010Y-18061160D01*
X25469955Y-18109390D01*
X25376340Y-18118629D01*
X25357667Y-18118666D01*
X25257467Y-18112599D01*
X25195254Y-18072673D01*
X25161974Y-17966303D01*
X25148576Y-17760904D01*
X25146010Y-17423890D01*
X25146000Y-17356666D01*
X25147685Y-16995949D01*
X25158776Y-16771980D01*
X25188323Y-16652172D01*
X25245378Y-16603942D01*
X25338993Y-16594703D01*
X25357667Y-16594666D01*
X25457866Y-16600734D01*
G36*
X25738667Y-24384000D02*
X25230667Y-24384000D01*
X25230667Y-22267333D01*
X25738667Y-22267333D01*
X25738667Y-24384000D01*
X25738667Y-24384000D01*
G37*
X25738667Y-24384000D02*
X25230667Y-24384000D01*
X25230667Y-22267333D01*
X25738667Y-22267333D01*
X25738667Y-24384000D01*
G36*
X22532009Y-16598712D02*
X23072047Y-16601199D01*
X23485476Y-16606929D01*
X23793659Y-16617591D01*
X24017957Y-16634871D01*
X24179733Y-16660460D01*
X24300349Y-16696044D01*
X24401167Y-16743313D01*
X24503549Y-16803953D01*
X24511000Y-16808541D01*
X24849667Y-17017132D01*
X22139012Y-17017566D01*
X21329388Y-17018466D01*
X20670969Y-17023242D01*
X20145627Y-17035436D01*
X19735234Y-17058590D01*
X19421664Y-17096248D01*
X19186787Y-17151950D01*
X19012476Y-17229239D01*
X18880604Y-17331657D01*
X18773042Y-17462747D01*
X18671663Y-17626050D01*
X18627327Y-17703753D01*
X18464948Y-18126134D01*
X18410001Y-18593559D01*
X18455636Y-19063248D01*
X18595001Y-19492426D01*
X18821244Y-19838315D01*
X18992885Y-19986121D01*
X19088445Y-20026051D01*
X19254651Y-20058794D01*
X19509353Y-20085583D01*
X19870398Y-20107648D01*
X20355636Y-20126220D01*
X20982916Y-20142531D01*
X21378333Y-20150666D01*
X22044982Y-20163955D01*
X22561457Y-20176273D01*
X22946895Y-20189462D01*
X23220431Y-20205361D01*
X23401203Y-20225810D01*
X23508346Y-20252649D01*
X23560997Y-20287719D01*
X23578292Y-20332858D01*
X23579667Y-20362333D01*
X23573520Y-20414015D01*
X23542243Y-20454500D01*
X23466581Y-20485662D01*
X23327281Y-20509376D01*
X23105087Y-20527516D01*
X22780745Y-20541956D01*
X22335002Y-20554571D01*
X21748602Y-20567235D01*
X21405479Y-20574000D01*
X20738814Y-20587723D01*
X20219964Y-20601081D01*
X19827422Y-20616027D01*
X19539685Y-20634519D01*
X19335249Y-20658511D01*
X19192610Y-20689959D01*
X19090263Y-20730819D01*
X19006705Y-20783047D01*
X18992479Y-20793451D01*
X18640407Y-21153504D01*
X18412262Y-21598094D01*
X18312373Y-22091884D01*
X18345066Y-22599538D01*
X18514670Y-23085720D01*
X18679743Y-23346922D01*
X18787333Y-23484194D01*
X18891869Y-23595397D01*
X19011584Y-23683276D01*
X19164710Y-23750575D01*
X19369478Y-23800041D01*
X19644120Y-23834418D01*
X20006869Y-23856452D01*
X20475956Y-23868888D01*
X21069613Y-23874470D01*
X21806073Y-23875945D01*
X22193544Y-23876000D01*
X25006831Y-23876000D01*
X24674249Y-24127644D01*
X24341667Y-24379289D01*
X21971000Y-24378880D01*
X21255685Y-24377615D01*
X20687498Y-24373279D01*
X20244245Y-24364647D01*
X19903731Y-24350495D01*
X19643760Y-24329599D01*
X19442139Y-24300736D01*
X19276671Y-24262680D01*
X19151265Y-24223366D01*
X18633407Y-23964004D01*
X18225320Y-23577833D01*
X18006545Y-23241000D01*
X17904543Y-23003976D01*
X17847870Y-22733058D01*
X17826206Y-22370486D01*
X17824981Y-22225000D01*
X17846513Y-21755389D01*
X17926211Y-21395728D01*
X18086048Y-21090546D01*
X18347995Y-20784372D01*
X18426451Y-20706567D01*
X18733968Y-20407911D01*
X18436536Y-20078688D01*
X18132836Y-19627984D01*
X17956233Y-19113595D01*
X17905228Y-18570951D01*
X17978322Y-18035476D01*
X18174014Y-17542597D01*
X18490804Y-17127742D01*
X18564294Y-17060893D01*
X18826397Y-16870037D01*
X19098550Y-16722148D01*
X19213800Y-16679468D01*
X19377730Y-16657218D01*
X19685691Y-16637376D01*
X20112388Y-16620726D01*
X20632528Y-16608055D01*
X21220814Y-16600147D01*
X21844000Y-16597781D01*
X22532009Y-16598712D01*
X22532009Y-16598712D01*
G37*
X22532009Y-16598712D02*
X23072047Y-16601199D01*
X23485476Y-16606929D01*
X23793659Y-16617591D01*
X24017957Y-16634871D01*
X24179733Y-16660460D01*
X24300349Y-16696044D01*
X24401167Y-16743313D01*
X24503549Y-16803953D01*
X24511000Y-16808541D01*
X24849667Y-17017132D01*
X22139012Y-17017566D01*
X21329388Y-17018466D01*
X20670969Y-17023242D01*
X20145627Y-17035436D01*
X19735234Y-17058590D01*
X19421664Y-17096248D01*
X19186787Y-17151950D01*
X19012476Y-17229239D01*
X18880604Y-17331657D01*
X18773042Y-17462747D01*
X18671663Y-17626050D01*
X18627327Y-17703753D01*
X18464948Y-18126134D01*
X18410001Y-18593559D01*
X18455636Y-19063248D01*
X18595001Y-19492426D01*
X18821244Y-19838315D01*
X18992885Y-19986121D01*
X19088445Y-20026051D01*
X19254651Y-20058794D01*
X19509353Y-20085583D01*
X19870398Y-20107648D01*
X20355636Y-20126220D01*
X20982916Y-20142531D01*
X21378333Y-20150666D01*
X22044982Y-20163955D01*
X22561457Y-20176273D01*
X22946895Y-20189462D01*
X23220431Y-20205361D01*
X23401203Y-20225810D01*
X23508346Y-20252649D01*
X23560997Y-20287719D01*
X23578292Y-20332858D01*
X23579667Y-20362333D01*
X23573520Y-20414015D01*
X23542243Y-20454500D01*
X23466581Y-20485662D01*
X23327281Y-20509376D01*
X23105087Y-20527516D01*
X22780745Y-20541956D01*
X22335002Y-20554571D01*
X21748602Y-20567235D01*
X21405479Y-20574000D01*
X20738814Y-20587723D01*
X20219964Y-20601081D01*
X19827422Y-20616027D01*
X19539685Y-20634519D01*
X19335249Y-20658511D01*
X19192610Y-20689959D01*
X19090263Y-20730819D01*
X19006705Y-20783047D01*
X18992479Y-20793451D01*
X18640407Y-21153504D01*
X18412262Y-21598094D01*
X18312373Y-22091884D01*
X18345066Y-22599538D01*
X18514670Y-23085720D01*
X18679743Y-23346922D01*
X18787333Y-23484194D01*
X18891869Y-23595397D01*
X19011584Y-23683276D01*
X19164710Y-23750575D01*
X19369478Y-23800041D01*
X19644120Y-23834418D01*
X20006869Y-23856452D01*
X20475956Y-23868888D01*
X21069613Y-23874470D01*
X21806073Y-23875945D01*
X22193544Y-23876000D01*
X25006831Y-23876000D01*
X24674249Y-24127644D01*
X24341667Y-24379289D01*
X21971000Y-24378880D01*
X21255685Y-24377615D01*
X20687498Y-24373279D01*
X20244245Y-24364647D01*
X19903731Y-24350495D01*
X19643760Y-24329599D01*
X19442139Y-24300736D01*
X19276671Y-24262680D01*
X19151265Y-24223366D01*
X18633407Y-23964004D01*
X18225320Y-23577833D01*
X18006545Y-23241000D01*
X17904543Y-23003976D01*
X17847870Y-22733058D01*
X17826206Y-22370486D01*
X17824981Y-22225000D01*
X17846513Y-21755389D01*
X17926211Y-21395728D01*
X18086048Y-21090546D01*
X18347995Y-20784372D01*
X18426451Y-20706567D01*
X18733968Y-20407911D01*
X18436536Y-20078688D01*
X18132836Y-19627984D01*
X17956233Y-19113595D01*
X17905228Y-18570951D01*
X17978322Y-18035476D01*
X18174014Y-17542597D01*
X18490804Y-17127742D01*
X18564294Y-17060893D01*
X18826397Y-16870037D01*
X19098550Y-16722148D01*
X19213800Y-16679468D01*
X19377730Y-16657218D01*
X19685691Y-16637376D01*
X20112388Y-16620726D01*
X20632528Y-16608055D01*
X21220814Y-16600147D01*
X21844000Y-16597781D01*
X22532009Y-16598712D01*
G36*
X79163333Y-30734000D02*
X77216000Y-30734000D01*
X77216000Y-32136566D01*
X77221246Y-32647141D01*
X77235920Y-33088582D01*
X77258425Y-33432342D01*
X77287162Y-33649870D01*
X77303645Y-33702899D01*
X77332123Y-33744664D01*
X77379220Y-33778658D01*
X77461155Y-33805680D01*
X77594148Y-33826527D01*
X77794417Y-33841997D01*
X78078181Y-33852890D01*
X78461659Y-33860003D01*
X78961070Y-33864135D01*
X79592633Y-33866084D01*
X80372567Y-33866648D01*
X80631045Y-33866666D01*
X81523187Y-33865181D01*
X82257309Y-33860495D01*
X82844701Y-33852266D01*
X83296653Y-33840151D01*
X83624454Y-33823806D01*
X83839394Y-33802888D01*
X83952762Y-33777054D01*
X83972400Y-33765066D01*
X84014349Y-33654946D01*
X84044638Y-33413345D01*
X84063974Y-33029358D01*
X84073064Y-32492081D01*
X84074000Y-32198733D01*
X84074000Y-30734000D01*
X82211333Y-30734000D01*
X82211333Y-30310666D01*
X85852000Y-30310666D01*
X85852000Y-30522333D01*
X85844086Y-30629995D01*
X85796566Y-30693105D01*
X85673771Y-30723550D01*
X85440033Y-30733221D01*
X85217000Y-30734000D01*
X84582000Y-30734000D01*
X84582000Y-33999232D01*
X84584336Y-34924231D01*
X84591233Y-35714864D01*
X84602523Y-36364576D01*
X84618038Y-36866817D01*
X84637612Y-37215031D01*
X84661077Y-37402668D01*
X84669645Y-37428232D01*
X84747541Y-37519952D01*
X84885677Y-37570154D01*
X85127285Y-37589986D01*
X85304645Y-37592000D01*
X85852000Y-37592000D01*
X85852000Y-38100000D01*
X82211333Y-38100000D01*
X82211333Y-37592000D01*
X84074000Y-37592000D01*
X84074000Y-36042599D01*
X84069692Y-35418015D01*
X84056301Y-34951125D01*
X84033121Y-34630498D01*
X83999451Y-34444703D01*
X83972400Y-34391599D01*
X83897098Y-34363668D01*
X83724815Y-34340793D01*
X83444261Y-34322630D01*
X83044145Y-34308836D01*
X82513179Y-34299069D01*
X81840072Y-34292985D01*
X81013536Y-34290239D01*
X80631045Y-34290000D01*
X79804655Y-34290309D01*
X79131378Y-34291770D01*
X78594996Y-34295181D01*
X78179291Y-34301340D01*
X77868043Y-34311045D01*
X77645034Y-34325094D01*
X77494044Y-34344286D01*
X77398855Y-34369419D01*
X77343247Y-34401292D01*
X77311002Y-34440701D01*
X77303645Y-34453767D01*
X77272713Y-34595995D01*
X77247171Y-34881227D01*
X77228414Y-35283181D01*
X77217838Y-35775576D01*
X77216000Y-36104767D01*
X77216000Y-37592000D01*
X79163333Y-37592000D01*
X79163333Y-38100000D01*
X75522667Y-38100000D01*
X75522667Y-37846000D01*
X75530700Y-37699989D01*
X75582792Y-37624485D01*
X75720933Y-37596238D01*
X75981408Y-37592000D01*
X76161285Y-37596277D01*
X76308966Y-37599051D01*
X76427601Y-37585231D01*
X76520340Y-37539728D01*
X76590333Y-37447454D01*
X76640731Y-37293318D01*
X76674684Y-37062231D01*
X76695341Y-36739105D01*
X76705853Y-36308850D01*
X76709370Y-35756376D01*
X76709042Y-35066594D01*
X76708020Y-34224416D01*
X76708000Y-34111608D01*
X76708000Y-30734000D01*
X76115333Y-30734000D01*
X75805697Y-30730887D01*
X75628486Y-30712764D01*
X75546802Y-30666452D01*
X75523745Y-30578774D01*
X75522667Y-30522333D01*
X75522667Y-30310666D01*
X79163333Y-30310666D01*
X79163333Y-30734000D01*
X79163333Y-30734000D01*
G37*
X79163333Y-30734000D02*
X77216000Y-30734000D01*
X77216000Y-32136566D01*
X77221246Y-32647141D01*
X77235920Y-33088582D01*
X77258425Y-33432342D01*
X77287162Y-33649870D01*
X77303645Y-33702899D01*
X77332123Y-33744664D01*
X77379220Y-33778658D01*
X77461155Y-33805680D01*
X77594148Y-33826527D01*
X77794417Y-33841997D01*
X78078181Y-33852890D01*
X78461659Y-33860003D01*
X78961070Y-33864135D01*
X79592633Y-33866084D01*
X80372567Y-33866648D01*
X80631045Y-33866666D01*
X81523187Y-33865181D01*
X82257309Y-33860495D01*
X82844701Y-33852266D01*
X83296653Y-33840151D01*
X83624454Y-33823806D01*
X83839394Y-33802888D01*
X83952762Y-33777054D01*
X83972400Y-33765066D01*
X84014349Y-33654946D01*
X84044638Y-33413345D01*
X84063974Y-33029358D01*
X84073064Y-32492081D01*
X84074000Y-32198733D01*
X84074000Y-30734000D01*
X82211333Y-30734000D01*
X82211333Y-30310666D01*
X85852000Y-30310666D01*
X85852000Y-30522333D01*
X85844086Y-30629995D01*
X85796566Y-30693105D01*
X85673771Y-30723550D01*
X85440033Y-30733221D01*
X85217000Y-30734000D01*
X84582000Y-30734000D01*
X84582000Y-33999232D01*
X84584336Y-34924231D01*
X84591233Y-35714864D01*
X84602523Y-36364576D01*
X84618038Y-36866817D01*
X84637612Y-37215031D01*
X84661077Y-37402668D01*
X84669645Y-37428232D01*
X84747541Y-37519952D01*
X84885677Y-37570154D01*
X85127285Y-37589986D01*
X85304645Y-37592000D01*
X85852000Y-37592000D01*
X85852000Y-38100000D01*
X82211333Y-38100000D01*
X82211333Y-37592000D01*
X84074000Y-37592000D01*
X84074000Y-36042599D01*
X84069692Y-35418015D01*
X84056301Y-34951125D01*
X84033121Y-34630498D01*
X83999451Y-34444703D01*
X83972400Y-34391599D01*
X83897098Y-34363668D01*
X83724815Y-34340793D01*
X83444261Y-34322630D01*
X83044145Y-34308836D01*
X82513179Y-34299069D01*
X81840072Y-34292985D01*
X81013536Y-34290239D01*
X80631045Y-34290000D01*
X79804655Y-34290309D01*
X79131378Y-34291770D01*
X78594996Y-34295181D01*
X78179291Y-34301340D01*
X77868043Y-34311045D01*
X77645034Y-34325094D01*
X77494044Y-34344286D01*
X77398855Y-34369419D01*
X77343247Y-34401292D01*
X77311002Y-34440701D01*
X77303645Y-34453767D01*
X77272713Y-34595995D01*
X77247171Y-34881227D01*
X77228414Y-35283181D01*
X77217838Y-35775576D01*
X77216000Y-36104767D01*
X77216000Y-37592000D01*
X79163333Y-37592000D01*
X79163333Y-38100000D01*
X75522667Y-38100000D01*
X75522667Y-37846000D01*
X75530700Y-37699989D01*
X75582792Y-37624485D01*
X75720933Y-37596238D01*
X75981408Y-37592000D01*
X76161285Y-37596277D01*
X76308966Y-37599051D01*
X76427601Y-37585231D01*
X76520340Y-37539728D01*
X76590333Y-37447454D01*
X76640731Y-37293318D01*
X76674684Y-37062231D01*
X76695341Y-36739105D01*
X76705853Y-36308850D01*
X76709370Y-35756376D01*
X76709042Y-35066594D01*
X76708020Y-34224416D01*
X76708000Y-34111608D01*
X76708000Y-30734000D01*
X76115333Y-30734000D01*
X75805697Y-30730887D01*
X75628486Y-30712764D01*
X75546802Y-30666452D01*
X75523745Y-30578774D01*
X75522667Y-30522333D01*
X75522667Y-30310666D01*
X79163333Y-30310666D01*
X79163333Y-30734000D01*
G36*
X72701866Y-30316734D02*
X72764079Y-30356660D01*
X72797359Y-30463030D01*
X72810757Y-30668429D01*
X72813323Y-31005443D01*
X72813333Y-31072666D01*
X72811648Y-31433383D01*
X72800557Y-31657353D01*
X72771010Y-31777160D01*
X72713955Y-31825390D01*
X72620340Y-31834629D01*
X72601667Y-31834666D01*
X72501467Y-31828599D01*
X72439254Y-31788673D01*
X72405974Y-31682303D01*
X72392576Y-31476904D01*
X72390010Y-31139890D01*
X72390000Y-31072666D01*
X72391685Y-30711949D01*
X72402776Y-30487980D01*
X72432323Y-30368172D01*
X72489378Y-30319942D01*
X72582993Y-30310703D01*
X72601667Y-30310666D01*
X72701866Y-30316734D01*
X72701866Y-30316734D01*
G37*
X72701866Y-30316734D02*
X72764079Y-30356660D01*
X72797359Y-30463030D01*
X72810757Y-30668429D01*
X72813323Y-31005443D01*
X72813333Y-31072666D01*
X72811648Y-31433383D01*
X72800557Y-31657353D01*
X72771010Y-31777160D01*
X72713955Y-31825390D01*
X72620340Y-31834629D01*
X72601667Y-31834666D01*
X72501467Y-31828599D01*
X72439254Y-31788673D01*
X72405974Y-31682303D01*
X72392576Y-31476904D01*
X72390010Y-31139890D01*
X72390000Y-31072666D01*
X72391685Y-30711949D01*
X72402776Y-30487980D01*
X72432323Y-30368172D01*
X72489378Y-30319942D01*
X72582993Y-30310703D01*
X72601667Y-30310666D01*
X72701866Y-30316734D01*
G36*
X71779146Y-30522333D02*
X72090641Y-30734000D01*
X69509821Y-30735859D01*
X68716947Y-30737563D01*
X68073812Y-30743714D01*
X67560827Y-30757762D01*
X67158399Y-30783156D01*
X66846939Y-30823347D01*
X66606855Y-30881784D01*
X66418557Y-30961916D01*
X66262453Y-31067194D01*
X66118953Y-31201067D01*
X65976293Y-31358063D01*
X65599478Y-31892284D01*
X65332755Y-32518010D01*
X65171392Y-33250805D01*
X65110659Y-34106235D01*
X65109918Y-34208711D01*
X65164043Y-35042468D01*
X65324965Y-35792654D01*
X65586468Y-36440208D01*
X65942334Y-36966071D01*
X66045436Y-37076410D01*
X66179945Y-37206825D01*
X66309043Y-37313162D01*
X66450906Y-37397877D01*
X66623707Y-37463428D01*
X66845620Y-37512269D01*
X67134821Y-37546859D01*
X67509483Y-37569652D01*
X67987782Y-37583105D01*
X68587891Y-37589675D01*
X69327984Y-37591817D01*
X69860340Y-37592000D01*
X72813333Y-37592000D01*
X72813333Y-38100000D01*
X69913500Y-38091495D01*
X69214308Y-38087283D01*
X68556701Y-38079219D01*
X67963032Y-38067888D01*
X67455653Y-38053876D01*
X67056917Y-38037771D01*
X66789176Y-38020158D01*
X66690452Y-38006964D01*
X66179649Y-37802482D01*
X65726642Y-37452744D01*
X65339573Y-36974383D01*
X65026586Y-36384035D01*
X64795823Y-35698331D01*
X64655428Y-34933907D01*
X64613544Y-34107397D01*
X64624750Y-33787374D01*
X64729042Y-32955960D01*
X64935493Y-32212101D01*
X65235925Y-31570230D01*
X65622158Y-31044779D01*
X66086012Y-30650181D01*
X66526661Y-30431465D01*
X66683611Y-30394003D01*
X66930945Y-30364656D01*
X67284377Y-30342723D01*
X67759617Y-30327504D01*
X68372378Y-30318300D01*
X69138372Y-30314412D01*
X69155992Y-30314382D01*
X71467650Y-30310666D01*
X71779146Y-30522333D01*
X71779146Y-30522333D01*
G37*
X71779146Y-30522333D02*
X72090641Y-30734000D01*
X69509821Y-30735859D01*
X68716947Y-30737563D01*
X68073812Y-30743714D01*
X67560827Y-30757762D01*
X67158399Y-30783156D01*
X66846939Y-30823347D01*
X66606855Y-30881784D01*
X66418557Y-30961916D01*
X66262453Y-31067194D01*
X66118953Y-31201067D01*
X65976293Y-31358063D01*
X65599478Y-31892284D01*
X65332755Y-32518010D01*
X65171392Y-33250805D01*
X65110659Y-34106235D01*
X65109918Y-34208711D01*
X65164043Y-35042468D01*
X65324965Y-35792654D01*
X65586468Y-36440208D01*
X65942334Y-36966071D01*
X66045436Y-37076410D01*
X66179945Y-37206825D01*
X66309043Y-37313162D01*
X66450906Y-37397877D01*
X66623707Y-37463428D01*
X66845620Y-37512269D01*
X67134821Y-37546859D01*
X67509483Y-37569652D01*
X67987782Y-37583105D01*
X68587891Y-37589675D01*
X69327984Y-37591817D01*
X69860340Y-37592000D01*
X72813333Y-37592000D01*
X72813333Y-38100000D01*
X69913500Y-38091495D01*
X69214308Y-38087283D01*
X68556701Y-38079219D01*
X67963032Y-38067888D01*
X67455653Y-38053876D01*
X67056917Y-38037771D01*
X66789176Y-38020158D01*
X66690452Y-38006964D01*
X66179649Y-37802482D01*
X65726642Y-37452744D01*
X65339573Y-36974383D01*
X65026586Y-36384035D01*
X64795823Y-35698331D01*
X64655428Y-34933907D01*
X64613544Y-34107397D01*
X64624750Y-33787374D01*
X64729042Y-32955960D01*
X64935493Y-32212101D01*
X65235925Y-31570230D01*
X65622158Y-31044779D01*
X66086012Y-30650181D01*
X66526661Y-30431465D01*
X66683611Y-30394003D01*
X66930945Y-30364656D01*
X67284377Y-30342723D01*
X67759617Y-30327504D01*
X68372378Y-30318300D01*
X69138372Y-30314412D01*
X69155992Y-30314382D01*
X71467650Y-30310666D01*
X71779146Y-30522333D01*
G36*
X62822667Y-31072666D02*
X62820981Y-31433383D01*
X62809891Y-31657353D01*
X62780343Y-31777160D01*
X62723288Y-31825390D01*
X62629673Y-31834629D01*
X62611000Y-31834666D01*
X62477929Y-31817769D01*
X62416539Y-31736179D01*
X62399740Y-31543547D01*
X62399333Y-31472505D01*
X62368614Y-31196889D01*
X62292342Y-30964072D01*
X62267532Y-30922172D01*
X62220000Y-30861375D01*
X62159120Y-30815321D01*
X62062794Y-30781964D01*
X61908924Y-30759257D01*
X61675410Y-30745153D01*
X61340156Y-30737607D01*
X60881061Y-30734571D01*
X60276028Y-30734000D01*
X58335333Y-30734000D01*
X58335333Y-37592000D01*
X60367333Y-37592000D01*
X60367333Y-38100000D01*
X55710667Y-38100000D01*
X55710667Y-37676666D01*
X56557333Y-37676666D01*
X56844691Y-37680665D01*
X57081741Y-37682818D01*
X57273291Y-37668361D01*
X57424147Y-37622529D01*
X57539116Y-37530557D01*
X57623006Y-37377681D01*
X57680624Y-37149137D01*
X57716777Y-36830159D01*
X57736272Y-36405983D01*
X57743916Y-35861845D01*
X57744515Y-35182979D01*
X57742878Y-34354622D01*
X57742667Y-34036000D01*
X57742667Y-30734000D01*
X55842467Y-30734000D01*
X55228187Y-30734490D01*
X54761142Y-30737324D01*
X54419232Y-30744549D01*
X54180360Y-30758212D01*
X54022428Y-30780358D01*
X53923336Y-30813034D01*
X53860987Y-30858286D01*
X53813282Y-30918161D01*
X53810467Y-30922172D01*
X53726124Y-31126998D01*
X53681025Y-31400966D01*
X53678667Y-31472505D01*
X53668791Y-31700189D01*
X53621105Y-31805227D01*
X53508521Y-31833970D01*
X53467000Y-31834666D01*
X53366801Y-31828599D01*
X53304587Y-31788673D01*
X53271307Y-31682303D01*
X53257910Y-31476904D01*
X53255343Y-31139890D01*
X53255333Y-31072666D01*
X53255333Y-30310666D01*
X62822667Y-30310666D01*
X62822667Y-31072666D01*
X62822667Y-31072666D01*
G37*
X62822667Y-31072666D02*
X62820981Y-31433383D01*
X62809891Y-31657353D01*
X62780343Y-31777160D01*
X62723288Y-31825390D01*
X62629673Y-31834629D01*
X62611000Y-31834666D01*
X62477929Y-31817769D01*
X62416539Y-31736179D01*
X62399740Y-31543547D01*
X62399333Y-31472505D01*
X62368614Y-31196889D01*
X62292342Y-30964072D01*
X62267532Y-30922172D01*
X62220000Y-30861375D01*
X62159120Y-30815321D01*
X62062794Y-30781964D01*
X61908924Y-30759257D01*
X61675410Y-30745153D01*
X61340156Y-30737607D01*
X60881061Y-30734571D01*
X60276028Y-30734000D01*
X58335333Y-30734000D01*
X58335333Y-37592000D01*
X60367333Y-37592000D01*
X60367333Y-38100000D01*
X55710667Y-38100000D01*
X55710667Y-37676666D01*
X56557333Y-37676666D01*
X56844691Y-37680665D01*
X57081741Y-37682818D01*
X57273291Y-37668361D01*
X57424147Y-37622529D01*
X57539116Y-37530557D01*
X57623006Y-37377681D01*
X57680624Y-37149137D01*
X57716777Y-36830159D01*
X57736272Y-36405983D01*
X57743916Y-35861845D01*
X57744515Y-35182979D01*
X57742878Y-34354622D01*
X57742667Y-34036000D01*
X57742667Y-30734000D01*
X55842467Y-30734000D01*
X55228187Y-30734490D01*
X54761142Y-30737324D01*
X54419232Y-30744549D01*
X54180360Y-30758212D01*
X54022428Y-30780358D01*
X53923336Y-30813034D01*
X53860987Y-30858286D01*
X53813282Y-30918161D01*
X53810467Y-30922172D01*
X53726124Y-31126998D01*
X53681025Y-31400966D01*
X53678667Y-31472505D01*
X53668791Y-31700189D01*
X53621105Y-31805227D01*
X53508521Y-31833970D01*
X53467000Y-31834666D01*
X53366801Y-31828599D01*
X53304587Y-31788673D01*
X53271307Y-31682303D01*
X53257910Y-31476904D01*
X53255343Y-31139890D01*
X53255333Y-31072666D01*
X53255333Y-30310666D01*
X62822667Y-30310666D01*
X62822667Y-31072666D01*
G36*
X50942532Y-30316734D02*
X51004746Y-30356660D01*
X51038026Y-30463030D01*
X51051423Y-30668429D01*
X51053990Y-31005443D01*
X51054000Y-31072666D01*
X51052314Y-31433383D01*
X51041224Y-31657353D01*
X51011677Y-31777160D01*
X50954621Y-31825390D01*
X50861006Y-31834629D01*
X50842333Y-31834666D01*
X50742134Y-31828599D01*
X50679920Y-31788673D01*
X50646640Y-31682303D01*
X50633243Y-31476904D01*
X50630677Y-31139890D01*
X50630667Y-31072666D01*
X50632352Y-30711949D01*
X50643442Y-30487980D01*
X50672990Y-30368172D01*
X50730045Y-30319942D01*
X50823660Y-30310703D01*
X50842333Y-30310666D01*
X50942532Y-30316734D01*
X50942532Y-30316734D01*
G37*
X50942532Y-30316734D02*
X51004746Y-30356660D01*
X51038026Y-30463030D01*
X51051423Y-30668429D01*
X51053990Y-31005443D01*
X51054000Y-31072666D01*
X51052314Y-31433383D01*
X51041224Y-31657353D01*
X51011677Y-31777160D01*
X50954621Y-31825390D01*
X50861006Y-31834629D01*
X50842333Y-31834666D01*
X50742134Y-31828599D01*
X50679920Y-31788673D01*
X50646640Y-31682303D01*
X50633243Y-31476904D01*
X50630677Y-31139890D01*
X50630667Y-31072666D01*
X50632352Y-30711949D01*
X50643442Y-30487980D01*
X50672990Y-30368172D01*
X50730045Y-30319942D01*
X50823660Y-30310703D01*
X50842333Y-30310666D01*
X50942532Y-30316734D01*
G36*
X51223333Y-38100000D02*
X50715333Y-38100000D01*
X50715333Y-35983333D01*
X51223333Y-35983333D01*
X51223333Y-38100000D01*
X51223333Y-38100000D01*
G37*
X51223333Y-38100000D02*
X50715333Y-38100000D01*
X50715333Y-35983333D01*
X51223333Y-35983333D01*
X51223333Y-38100000D01*
G36*
X50003721Y-30522333D02*
X50315630Y-30734000D01*
X47614327Y-30734000D01*
X46806012Y-30734780D01*
X46148867Y-30739493D01*
X45624731Y-30751695D01*
X45215439Y-30774941D01*
X44902830Y-30812788D01*
X44668742Y-30868792D01*
X44495011Y-30946510D01*
X44363475Y-31049497D01*
X44255972Y-31181310D01*
X44154340Y-31345505D01*
X44111994Y-31419753D01*
X43950272Y-31837229D01*
X43891956Y-32299970D01*
X43930849Y-32764940D01*
X44060754Y-33189101D01*
X44275477Y-33529415D01*
X44436127Y-33671208D01*
X44522112Y-33718675D01*
X44638152Y-33756373D01*
X44805182Y-33785990D01*
X45044140Y-33809210D01*
X45375962Y-33827720D01*
X45821583Y-33843207D01*
X46401941Y-33857356D01*
X46863000Y-33866666D01*
X47529649Y-33879955D01*
X48046124Y-33892273D01*
X48431562Y-33905462D01*
X48705098Y-33921361D01*
X48885870Y-33941810D01*
X48993013Y-33968649D01*
X49045664Y-34003719D01*
X49062958Y-34048858D01*
X49064333Y-34078333D01*
X49058186Y-34130015D01*
X49026909Y-34170500D01*
X48951248Y-34201662D01*
X48811948Y-34225376D01*
X48589755Y-34243515D01*
X48265415Y-34257955D01*
X47819673Y-34270570D01*
X47233275Y-34283235D01*
X46890132Y-34290000D01*
X46223466Y-34303723D01*
X45704614Y-34317081D01*
X45312071Y-34332027D01*
X45024334Y-34350518D01*
X44819898Y-34374509D01*
X44677260Y-34405957D01*
X44574916Y-34446816D01*
X44491362Y-34499043D01*
X44477132Y-34509451D01*
X44125060Y-34869520D01*
X43896919Y-35314123D01*
X43797037Y-35807922D01*
X43829741Y-36315581D01*
X43999359Y-36801763D01*
X44164410Y-37062922D01*
X44272000Y-37200194D01*
X44376536Y-37311397D01*
X44496251Y-37399276D01*
X44649377Y-37466575D01*
X44854145Y-37516041D01*
X45128787Y-37550418D01*
X45491536Y-37572452D01*
X45960622Y-37584888D01*
X46554280Y-37590470D01*
X47290739Y-37591945D01*
X47678211Y-37592000D01*
X50491498Y-37592000D01*
X50158916Y-37843644D01*
X49826333Y-38095289D01*
X47455667Y-38088977D01*
X46825814Y-38085159D01*
X46240512Y-38077556D01*
X45724352Y-38066809D01*
X45301922Y-38053555D01*
X44997812Y-38038433D01*
X44836612Y-38022081D01*
X44831000Y-38020830D01*
X44316370Y-37816504D01*
X43895887Y-37493862D01*
X43576839Y-37079950D01*
X43366514Y-36601814D01*
X43272201Y-36086498D01*
X43301189Y-35561047D01*
X43460766Y-35052507D01*
X43758220Y-34587922D01*
X43872471Y-34464116D01*
X44215807Y-34120780D01*
X43919789Y-33793123D01*
X43615525Y-33358303D01*
X43445784Y-32862070D01*
X43397509Y-32342666D01*
X43462387Y-31789186D01*
X43651315Y-31287125D01*
X43945232Y-30865410D01*
X44325075Y-30552963D01*
X44676841Y-30401439D01*
X44860621Y-30374687D01*
X45193978Y-30351755D01*
X45657185Y-30333311D01*
X46230515Y-30320021D01*
X46894240Y-30312553D01*
X47346073Y-30311138D01*
X49691813Y-30310666D01*
X50003721Y-30522333D01*
X50003721Y-30522333D01*
G37*
X50003721Y-30522333D02*
X50315630Y-30734000D01*
X47614327Y-30734000D01*
X46806012Y-30734780D01*
X46148867Y-30739493D01*
X45624731Y-30751695D01*
X45215439Y-30774941D01*
X44902830Y-30812788D01*
X44668742Y-30868792D01*
X44495011Y-30946510D01*
X44363475Y-31049497D01*
X44255972Y-31181310D01*
X44154340Y-31345505D01*
X44111994Y-31419753D01*
X43950272Y-31837229D01*
X43891956Y-32299970D01*
X43930849Y-32764940D01*
X44060754Y-33189101D01*
X44275477Y-33529415D01*
X44436127Y-33671208D01*
X44522112Y-33718675D01*
X44638152Y-33756373D01*
X44805182Y-33785990D01*
X45044140Y-33809210D01*
X45375962Y-33827720D01*
X45821583Y-33843207D01*
X46401941Y-33857356D01*
X46863000Y-33866666D01*
X47529649Y-33879955D01*
X48046124Y-33892273D01*
X48431562Y-33905462D01*
X48705098Y-33921361D01*
X48885870Y-33941810D01*
X48993013Y-33968649D01*
X49045664Y-34003719D01*
X49062958Y-34048858D01*
X49064333Y-34078333D01*
X49058186Y-34130015D01*
X49026909Y-34170500D01*
X48951248Y-34201662D01*
X48811948Y-34225376D01*
X48589755Y-34243515D01*
X48265415Y-34257955D01*
X47819673Y-34270570D01*
X47233275Y-34283235D01*
X46890132Y-34290000D01*
X46223466Y-34303723D01*
X45704614Y-34317081D01*
X45312071Y-34332027D01*
X45024334Y-34350518D01*
X44819898Y-34374509D01*
X44677260Y-34405957D01*
X44574916Y-34446816D01*
X44491362Y-34499043D01*
X44477132Y-34509451D01*
X44125060Y-34869520D01*
X43896919Y-35314123D01*
X43797037Y-35807922D01*
X43829741Y-36315581D01*
X43999359Y-36801763D01*
X44164410Y-37062922D01*
X44272000Y-37200194D01*
X44376536Y-37311397D01*
X44496251Y-37399276D01*
X44649377Y-37466575D01*
X44854145Y-37516041D01*
X45128787Y-37550418D01*
X45491536Y-37572452D01*
X45960622Y-37584888D01*
X46554280Y-37590470D01*
X47290739Y-37591945D01*
X47678211Y-37592000D01*
X50491498Y-37592000D01*
X50158916Y-37843644D01*
X49826333Y-38095289D01*
X47455667Y-38088977D01*
X46825814Y-38085159D01*
X46240512Y-38077556D01*
X45724352Y-38066809D01*
X45301922Y-38053555D01*
X44997812Y-38038433D01*
X44836612Y-38022081D01*
X44831000Y-38020830D01*
X44316370Y-37816504D01*
X43895887Y-37493862D01*
X43576839Y-37079950D01*
X43366514Y-36601814D01*
X43272201Y-36086498D01*
X43301189Y-35561047D01*
X43460766Y-35052507D01*
X43758220Y-34587922D01*
X43872471Y-34464116D01*
X44215807Y-34120780D01*
X43919789Y-33793123D01*
X43615525Y-33358303D01*
X43445784Y-32862070D01*
X43397509Y-32342666D01*
X43462387Y-31789186D01*
X43651315Y-31287125D01*
X43945232Y-30865410D01*
X44325075Y-30552963D01*
X44676841Y-30401439D01*
X44860621Y-30374687D01*
X45193978Y-30351755D01*
X45657185Y-30333311D01*
X46230515Y-30320021D01*
X46894240Y-30312553D01*
X47346073Y-30311138D01*
X49691813Y-30310666D01*
X50003721Y-30522333D01*
G36*
X33782000Y-30734000D02*
X31834667Y-30734000D01*
X31834667Y-32136566D01*
X31839913Y-32647141D01*
X31854587Y-33088582D01*
X31877092Y-33432342D01*
X31905829Y-33649870D01*
X31922312Y-33702899D01*
X31950789Y-33744664D01*
X31997886Y-33778658D01*
X32079822Y-33805680D01*
X32212814Y-33826527D01*
X32413083Y-33841997D01*
X32696848Y-33852890D01*
X33080326Y-33860003D01*
X33579737Y-33864135D01*
X34211300Y-33866084D01*
X34991234Y-33866648D01*
X35249712Y-33866666D01*
X36141854Y-33865181D01*
X36875976Y-33860495D01*
X37463368Y-33852266D01*
X37915320Y-33840151D01*
X38243121Y-33823806D01*
X38458060Y-33802888D01*
X38571428Y-33777054D01*
X38591066Y-33765066D01*
X38633016Y-33654946D01*
X38663305Y-33413345D01*
X38682640Y-33029358D01*
X38691730Y-32492081D01*
X38692667Y-32198733D01*
X38692667Y-30734000D01*
X36830000Y-30734000D01*
X36830000Y-30310666D01*
X40470667Y-30310666D01*
X40470667Y-30522333D01*
X40462753Y-30629995D01*
X40415233Y-30693105D01*
X40292438Y-30723550D01*
X40058700Y-30733221D01*
X39835667Y-30734000D01*
X39200667Y-30734000D01*
X39200667Y-33999232D01*
X39203003Y-34924231D01*
X39209899Y-35714864D01*
X39221189Y-36364576D01*
X39236705Y-36866817D01*
X39256279Y-37215031D01*
X39279744Y-37402668D01*
X39288312Y-37428232D01*
X39366208Y-37519952D01*
X39504344Y-37570154D01*
X39745952Y-37589986D01*
X39923312Y-37592000D01*
X40470667Y-37592000D01*
X40470667Y-38100000D01*
X36830000Y-38100000D01*
X36830000Y-37592000D01*
X38692667Y-37592000D01*
X38692667Y-36042599D01*
X38688359Y-35418015D01*
X38674967Y-34951125D01*
X38651788Y-34630498D01*
X38618118Y-34444703D01*
X38591066Y-34391599D01*
X38515765Y-34363668D01*
X38343482Y-34340793D01*
X38062927Y-34322630D01*
X37662812Y-34308836D01*
X37131845Y-34299069D01*
X36458739Y-34292985D01*
X35632203Y-34290239D01*
X35249712Y-34290000D01*
X34423321Y-34290309D01*
X33750045Y-34291770D01*
X33213663Y-34295181D01*
X32797958Y-34301340D01*
X32486710Y-34311045D01*
X32263700Y-34325094D01*
X32112710Y-34344286D01*
X32017521Y-34369419D01*
X31961914Y-34401292D01*
X31929669Y-34440701D01*
X31922312Y-34453767D01*
X31891379Y-34595995D01*
X31865837Y-34881227D01*
X31847081Y-35283181D01*
X31836505Y-35775576D01*
X31834667Y-36104767D01*
X31834667Y-37592000D01*
X33782000Y-37592000D01*
X33782000Y-38100000D01*
X30141333Y-38100000D01*
X30141333Y-37846000D01*
X30149366Y-37699989D01*
X30201459Y-37624485D01*
X30339600Y-37596238D01*
X30600075Y-37592000D01*
X30779952Y-37596277D01*
X30927633Y-37599051D01*
X31046268Y-37585231D01*
X31139007Y-37539728D01*
X31209000Y-37447454D01*
X31259398Y-37293318D01*
X31293350Y-37062231D01*
X31314007Y-36739105D01*
X31324519Y-36308850D01*
X31328036Y-35756376D01*
X31327709Y-35066594D01*
X31326686Y-34224416D01*
X31326667Y-34111608D01*
X31326667Y-30734000D01*
X30734000Y-30734000D01*
X30424364Y-30730887D01*
X30247153Y-30712764D01*
X30165468Y-30666452D01*
X30142412Y-30578774D01*
X30141333Y-30522333D01*
X30141333Y-30310666D01*
X33782000Y-30310666D01*
X33782000Y-30734000D01*
X33782000Y-30734000D01*
G37*
X33782000Y-30734000D02*
X31834667Y-30734000D01*
X31834667Y-32136566D01*
X31839913Y-32647141D01*
X31854587Y-33088582D01*
X31877092Y-33432342D01*
X31905829Y-33649870D01*
X31922312Y-33702899D01*
X31950789Y-33744664D01*
X31997886Y-33778658D01*
X32079822Y-33805680D01*
X32212814Y-33826527D01*
X32413083Y-33841997D01*
X32696848Y-33852890D01*
X33080326Y-33860003D01*
X33579737Y-33864135D01*
X34211300Y-33866084D01*
X34991234Y-33866648D01*
X35249712Y-33866666D01*
X36141854Y-33865181D01*
X36875976Y-33860495D01*
X37463368Y-33852266D01*
X37915320Y-33840151D01*
X38243121Y-33823806D01*
X38458060Y-33802888D01*
X38571428Y-33777054D01*
X38591066Y-33765066D01*
X38633016Y-33654946D01*
X38663305Y-33413345D01*
X38682640Y-33029358D01*
X38691730Y-32492081D01*
X38692667Y-32198733D01*
X38692667Y-30734000D01*
X36830000Y-30734000D01*
X36830000Y-30310666D01*
X40470667Y-30310666D01*
X40470667Y-30522333D01*
X40462753Y-30629995D01*
X40415233Y-30693105D01*
X40292438Y-30723550D01*
X40058700Y-30733221D01*
X39835667Y-30734000D01*
X39200667Y-30734000D01*
X39200667Y-33999232D01*
X39203003Y-34924231D01*
X39209899Y-35714864D01*
X39221189Y-36364576D01*
X39236705Y-36866817D01*
X39256279Y-37215031D01*
X39279744Y-37402668D01*
X39288312Y-37428232D01*
X39366208Y-37519952D01*
X39504344Y-37570154D01*
X39745952Y-37589986D01*
X39923312Y-37592000D01*
X40470667Y-37592000D01*
X40470667Y-38100000D01*
X36830000Y-38100000D01*
X36830000Y-37592000D01*
X38692667Y-37592000D01*
X38692667Y-36042599D01*
X38688359Y-35418015D01*
X38674967Y-34951125D01*
X38651788Y-34630498D01*
X38618118Y-34444703D01*
X38591066Y-34391599D01*
X38515765Y-34363668D01*
X38343482Y-34340793D01*
X38062927Y-34322630D01*
X37662812Y-34308836D01*
X37131845Y-34299069D01*
X36458739Y-34292985D01*
X35632203Y-34290239D01*
X35249712Y-34290000D01*
X34423321Y-34290309D01*
X33750045Y-34291770D01*
X33213663Y-34295181D01*
X32797958Y-34301340D01*
X32486710Y-34311045D01*
X32263700Y-34325094D01*
X32112710Y-34344286D01*
X32017521Y-34369419D01*
X31961914Y-34401292D01*
X31929669Y-34440701D01*
X31922312Y-34453767D01*
X31891379Y-34595995D01*
X31865837Y-34881227D01*
X31847081Y-35283181D01*
X31836505Y-35775576D01*
X31834667Y-36104767D01*
X31834667Y-37592000D01*
X33782000Y-37592000D01*
X33782000Y-38100000D01*
X30141333Y-38100000D01*
X30141333Y-37846000D01*
X30149366Y-37699989D01*
X30201459Y-37624485D01*
X30339600Y-37596238D01*
X30600075Y-37592000D01*
X30779952Y-37596277D01*
X30927633Y-37599051D01*
X31046268Y-37585231D01*
X31139007Y-37539728D01*
X31209000Y-37447454D01*
X31259398Y-37293318D01*
X31293350Y-37062231D01*
X31314007Y-36739105D01*
X31324519Y-36308850D01*
X31328036Y-35756376D01*
X31327709Y-35066594D01*
X31326686Y-34224416D01*
X31326667Y-34111608D01*
X31326667Y-30734000D01*
X30734000Y-30734000D01*
X30424364Y-30730887D01*
X30247153Y-30712764D01*
X30165468Y-30666452D01*
X30142412Y-30578774D01*
X30141333Y-30522333D01*
X30141333Y-30310666D01*
X33782000Y-30310666D01*
X33782000Y-30734000D01*
G36*
X27405199Y-30316734D02*
X27467413Y-30356660D01*
X27500693Y-30463030D01*
X27514090Y-30668429D01*
X27516656Y-31005443D01*
X27516667Y-31072666D01*
X27514981Y-31433383D01*
X27503891Y-31657353D01*
X27474343Y-31777160D01*
X27417288Y-31825390D01*
X27323673Y-31834629D01*
X27305000Y-31834666D01*
X27204801Y-31828599D01*
X27142587Y-31788673D01*
X27109307Y-31682303D01*
X27095910Y-31476904D01*
X27093343Y-31139890D01*
X27093333Y-31072666D01*
X27095019Y-30711949D01*
X27106109Y-30487980D01*
X27135656Y-30368172D01*
X27192712Y-30319942D01*
X27286327Y-30310703D01*
X27305000Y-30310666D01*
X27405199Y-30316734D01*
X27405199Y-30316734D01*
G37*
X27405199Y-30316734D02*
X27467413Y-30356660D01*
X27500693Y-30463030D01*
X27514090Y-30668429D01*
X27516656Y-31005443D01*
X27516667Y-31072666D01*
X27514981Y-31433383D01*
X27503891Y-31657353D01*
X27474343Y-31777160D01*
X27417288Y-31825390D01*
X27323673Y-31834629D01*
X27305000Y-31834666D01*
X27204801Y-31828599D01*
X27142587Y-31788673D01*
X27109307Y-31682303D01*
X27095910Y-31476904D01*
X27093343Y-31139890D01*
X27093333Y-31072666D01*
X27095019Y-30711949D01*
X27106109Y-30487980D01*
X27135656Y-30368172D01*
X27192712Y-30319942D01*
X27286327Y-30310703D01*
X27305000Y-30310666D01*
X27405199Y-30316734D01*
G36*
X26482479Y-30522333D02*
X26793975Y-30734000D01*
X24213154Y-30735859D01*
X23420280Y-30737563D01*
X22777146Y-30743714D01*
X22264160Y-30757762D01*
X21861733Y-30783156D01*
X21550272Y-30823347D01*
X21310188Y-30881784D01*
X21121890Y-30961916D01*
X20965786Y-31067194D01*
X20822287Y-31201067D01*
X20679627Y-31358063D01*
X20312248Y-31867805D01*
X20051598Y-32448156D01*
X19892025Y-33119839D01*
X19827875Y-33903578D01*
X19833719Y-34459333D01*
X19917130Y-35308907D01*
X20097389Y-36025045D01*
X20377777Y-36615444D01*
X20761576Y-37087802D01*
X21055946Y-37326868D01*
X21378333Y-37549666D01*
X24447500Y-37573848D01*
X27516667Y-37598029D01*
X27516667Y-38100000D01*
X24616833Y-38091333D01*
X23920686Y-38087444D01*
X23268796Y-38080361D01*
X22682994Y-38070584D01*
X22185108Y-38058613D01*
X21796970Y-38044947D01*
X21540408Y-38030087D01*
X21448774Y-38018779D01*
X20906990Y-37805507D01*
X20432435Y-37448178D01*
X20032421Y-36961116D01*
X19714259Y-36358643D01*
X19485261Y-35655081D01*
X19352737Y-34864751D01*
X19324001Y-34001978D01*
X19329119Y-33866666D01*
X19421489Y-33041789D01*
X19611973Y-32298415D01*
X19891899Y-31651668D01*
X20252597Y-31116672D01*
X20685397Y-30708552D01*
X21181629Y-30442430D01*
X21316971Y-30399194D01*
X21492787Y-30374105D01*
X21814725Y-30352143D01*
X22259589Y-30334100D01*
X22804184Y-30320766D01*
X23425315Y-30312931D01*
X23901658Y-30311138D01*
X26170984Y-30310666D01*
X26482479Y-30522333D01*
X26482479Y-30522333D01*
G37*
X26482479Y-30522333D02*
X26793975Y-30734000D01*
X24213154Y-30735859D01*
X23420280Y-30737563D01*
X22777146Y-30743714D01*
X22264160Y-30757762D01*
X21861733Y-30783156D01*
X21550272Y-30823347D01*
X21310188Y-30881784D01*
X21121890Y-30961916D01*
X20965786Y-31067194D01*
X20822287Y-31201067D01*
X20679627Y-31358063D01*
X20312248Y-31867805D01*
X20051598Y-32448156D01*
X19892025Y-33119839D01*
X19827875Y-33903578D01*
X19833719Y-34459333D01*
X19917130Y-35308907D01*
X20097389Y-36025045D01*
X20377777Y-36615444D01*
X20761576Y-37087802D01*
X21055946Y-37326868D01*
X21378333Y-37549666D01*
X24447500Y-37573848D01*
X27516667Y-37598029D01*
X27516667Y-38100000D01*
X24616833Y-38091333D01*
X23920686Y-38087444D01*
X23268796Y-38080361D01*
X22682994Y-38070584D01*
X22185108Y-38058613D01*
X21796970Y-38044947D01*
X21540408Y-38030087D01*
X21448774Y-38018779D01*
X20906990Y-37805507D01*
X20432435Y-37448178D01*
X20032421Y-36961116D01*
X19714259Y-36358643D01*
X19485261Y-35655081D01*
X19352737Y-34864751D01*
X19324001Y-34001978D01*
X19329119Y-33866666D01*
X19421489Y-33041789D01*
X19611973Y-32298415D01*
X19891899Y-31651668D01*
X20252597Y-31116672D01*
X20685397Y-30708552D01*
X21181629Y-30442430D01*
X21316971Y-30399194D01*
X21492787Y-30374105D01*
X21814725Y-30352143D01*
X22259589Y-30334100D01*
X22804184Y-30320766D01*
X23425315Y-30312931D01*
X23901658Y-30311138D01*
X26170984Y-30310666D01*
X26482479Y-30522333D01*
G36*
X16679333Y-31834666D02*
X16171333Y-31834666D01*
X16171333Y-30310666D01*
X16679333Y-30310666D01*
X16679333Y-31834666D01*
X16679333Y-31834666D01*
G37*
X16679333Y-31834666D02*
X16171333Y-31834666D01*
X16171333Y-30310666D01*
X16679333Y-30310666D01*
X16679333Y-31834666D01*
G36*
X15717355Y-30515565D02*
X15959667Y-30728648D01*
X9834325Y-30734000D01*
X9575222Y-30952020D01*
X9368873Y-31208661D01*
X9198933Y-31573091D01*
X9088758Y-31984270D01*
X9059333Y-32300333D01*
X9106175Y-32705425D01*
X9231129Y-33111722D01*
X9410841Y-33458183D01*
X9575222Y-33648645D01*
X9834325Y-33866666D01*
X12590840Y-33866666D01*
X13479518Y-33869337D01*
X14207919Y-33877550D01*
X14785019Y-33891606D01*
X15219793Y-33911805D01*
X15521217Y-33938446D01*
X15693811Y-33970467D01*
X16121916Y-34180482D01*
X16463439Y-34509879D01*
X16714309Y-34930171D01*
X16870453Y-35412870D01*
X16927801Y-35929488D01*
X16882281Y-36451535D01*
X16729821Y-36950526D01*
X16466350Y-37397970D01*
X16220969Y-37658897D01*
X15960154Y-37844577D01*
X15676712Y-37985453D01*
X15602147Y-38010242D01*
X15423409Y-38035589D01*
X15092692Y-38057423D01*
X14627326Y-38075219D01*
X14044641Y-38088454D01*
X13361965Y-38096605D01*
X12657667Y-38099165D01*
X10033000Y-38099275D01*
X9652000Y-37846000D01*
X9271000Y-37592724D01*
X12390603Y-37592362D01*
X13242780Y-37591995D01*
X13942576Y-37589350D01*
X14506945Y-37581788D01*
X14952840Y-37566668D01*
X15297214Y-37541349D01*
X15557019Y-37503192D01*
X15749208Y-37449555D01*
X15890734Y-37377800D01*
X15998551Y-37285285D01*
X16089610Y-37169370D01*
X16180866Y-37027416D01*
X16198348Y-36999333D01*
X16290948Y-36822255D01*
X16347039Y-36623755D01*
X16374939Y-36355876D01*
X16382967Y-35970661D01*
X16383000Y-35934796D01*
X16377638Y-35551371D01*
X16355338Y-35289038D01*
X16306776Y-35099727D01*
X16222631Y-34935368D01*
X16175203Y-34863334D01*
X16069215Y-34711532D01*
X15968496Y-34589209D01*
X15854386Y-34493179D01*
X15708226Y-34420255D01*
X15511356Y-34367254D01*
X15245117Y-34330989D01*
X14890848Y-34308275D01*
X14429891Y-34295927D01*
X13843586Y-34290758D01*
X13113272Y-34289585D01*
X12813936Y-34289527D01*
X12060924Y-34286589D01*
X11384695Y-34278404D01*
X10803438Y-34265502D01*
X10335345Y-34248415D01*
X9998604Y-34227675D01*
X9811407Y-34203812D01*
X9802796Y-34201607D01*
X9357380Y-33994896D01*
X9006161Y-33656697D01*
X8758789Y-33202235D01*
X8624909Y-32646738D01*
X8603186Y-32308381D01*
X8668092Y-31685471D01*
X8873695Y-31154314D01*
X9218722Y-30717829D01*
X9342220Y-30611324D01*
X9667440Y-30353000D01*
X12571242Y-30327741D01*
X15475043Y-30302483D01*
X15717355Y-30515565D01*
X15717355Y-30515565D01*
G37*
X15717355Y-30515565D02*
X15959667Y-30728648D01*
X9834325Y-30734000D01*
X9575222Y-30952020D01*
X9368873Y-31208661D01*
X9198933Y-31573091D01*
X9088758Y-31984270D01*
X9059333Y-32300333D01*
X9106175Y-32705425D01*
X9231129Y-33111722D01*
X9410841Y-33458183D01*
X9575222Y-33648645D01*
X9834325Y-33866666D01*
X12590840Y-33866666D01*
X13479518Y-33869337D01*
X14207919Y-33877550D01*
X14785019Y-33891606D01*
X15219793Y-33911805D01*
X15521217Y-33938446D01*
X15693811Y-33970467D01*
X16121916Y-34180482D01*
X16463439Y-34509879D01*
X16714309Y-34930171D01*
X16870453Y-35412870D01*
X16927801Y-35929488D01*
X16882281Y-36451535D01*
X16729821Y-36950526D01*
X16466350Y-37397970D01*
X16220969Y-37658897D01*
X15960154Y-37844577D01*
X15676712Y-37985453D01*
X15602147Y-38010242D01*
X15423409Y-38035589D01*
X15092692Y-38057423D01*
X14627326Y-38075219D01*
X14044641Y-38088454D01*
X13361965Y-38096605D01*
X12657667Y-38099165D01*
X10033000Y-38099275D01*
X9652000Y-37846000D01*
X9271000Y-37592724D01*
X12390603Y-37592362D01*
X13242780Y-37591995D01*
X13942576Y-37589350D01*
X14506945Y-37581788D01*
X14952840Y-37566668D01*
X15297214Y-37541349D01*
X15557019Y-37503192D01*
X15749208Y-37449555D01*
X15890734Y-37377800D01*
X15998551Y-37285285D01*
X16089610Y-37169370D01*
X16180866Y-37027416D01*
X16198348Y-36999333D01*
X16290948Y-36822255D01*
X16347039Y-36623755D01*
X16374939Y-36355876D01*
X16382967Y-35970661D01*
X16383000Y-35934796D01*
X16377638Y-35551371D01*
X16355338Y-35289038D01*
X16306776Y-35099727D01*
X16222631Y-34935368D01*
X16175203Y-34863334D01*
X16069215Y-34711532D01*
X15968496Y-34589209D01*
X15854386Y-34493179D01*
X15708226Y-34420255D01*
X15511356Y-34367254D01*
X15245117Y-34330989D01*
X14890848Y-34308275D01*
X14429891Y-34295927D01*
X13843586Y-34290758D01*
X13113272Y-34289585D01*
X12813936Y-34289527D01*
X12060924Y-34286589D01*
X11384695Y-34278404D01*
X10803438Y-34265502D01*
X10335345Y-34248415D01*
X9998604Y-34227675D01*
X9811407Y-34203812D01*
X9802796Y-34201607D01*
X9357380Y-33994896D01*
X9006161Y-33656697D01*
X8758789Y-33202235D01*
X8624909Y-32646738D01*
X8603186Y-32308381D01*
X8668092Y-31685471D01*
X8873695Y-31154314D01*
X9218722Y-30717829D01*
X9342220Y-30611324D01*
X9667440Y-30353000D01*
X12571242Y-30327741D01*
X15475043Y-30302483D01*
X15717355Y-30515565D01*
G36*
X9228667Y-38100000D02*
X8720667Y-38100000D01*
X8720667Y-36745333D01*
X9228667Y-36745333D01*
X9228667Y-38100000D01*
X9228667Y-38100000D01*
G37*
X9228667Y-38100000D02*
X8720667Y-38100000D01*
X8720667Y-36745333D01*
X9228667Y-36745333D01*
X9228667Y-38100000D01*
G36*
X35882228Y-5503949D02*
X38445485Y-5504080D01*
X41163703Y-5504230D01*
X44041506Y-5504339D01*
X47083515Y-5504346D01*
X47425581Y-5504338D01*
X50458350Y-5504263D01*
X53326452Y-5504216D01*
X56034555Y-5504218D01*
X58587325Y-5504289D01*
X60989429Y-5504449D01*
X63245535Y-5504718D01*
X65360308Y-5505118D01*
X67338417Y-5505667D01*
X69184528Y-5506388D01*
X70903308Y-5507299D01*
X72499423Y-5508422D01*
X73977542Y-5509777D01*
X75342330Y-5511383D01*
X76598454Y-5513263D01*
X77750582Y-5515435D01*
X78803381Y-5517920D01*
X79761517Y-5520739D01*
X80629657Y-5523912D01*
X81412468Y-5527460D01*
X82114617Y-5531402D01*
X82740772Y-5535759D01*
X83295598Y-5540552D01*
X83783763Y-5545801D01*
X84209934Y-5551526D01*
X84578777Y-5557747D01*
X84894960Y-5564486D01*
X85163149Y-5571762D01*
X85388012Y-5579595D01*
X85574216Y-5588007D01*
X85726426Y-5597017D01*
X85849311Y-5606646D01*
X85947536Y-5616914D01*
X86025770Y-5627842D01*
X86088679Y-5639449D01*
X86140929Y-5651757D01*
X86187188Y-5664786D01*
X86216274Y-5673657D01*
X86908476Y-5973649D01*
X87518768Y-6411929D01*
X88026484Y-6968913D01*
X88410955Y-7625018D01*
X88498313Y-7835967D01*
X88688333Y-8339666D01*
X88712492Y-28448000D01*
X88715120Y-30873093D01*
X88716968Y-33131861D01*
X88718025Y-35227308D01*
X88718283Y-37162440D01*
X88717730Y-38940263D01*
X88716358Y-40563783D01*
X88714155Y-42036005D01*
X88711114Y-43359935D01*
X88707222Y-44538578D01*
X88702472Y-45574940D01*
X88696852Y-46472027D01*
X88690353Y-47232843D01*
X88682965Y-47860396D01*
X88674678Y-48357690D01*
X88665482Y-48727731D01*
X88655367Y-48973525D01*
X88644567Y-49096681D01*
X88441313Y-49811882D01*
X88097225Y-50462468D01*
X87632136Y-51027982D01*
X87065879Y-51487972D01*
X86418286Y-51821982D01*
X85841837Y-51987260D01*
X85717570Y-51994822D01*
X85430892Y-52002005D01*
X84988354Y-52008813D01*
X84396512Y-52015248D01*
X83661917Y-52021315D01*
X82791123Y-52027015D01*
X81790683Y-52032352D01*
X80667151Y-52037330D01*
X79427080Y-52041950D01*
X78077022Y-52046218D01*
X76623532Y-52050134D01*
X75073161Y-52053704D01*
X73432465Y-52056929D01*
X71707995Y-52059814D01*
X69906305Y-52062360D01*
X68033949Y-52064572D01*
X66097478Y-52066451D01*
X64103448Y-52068003D01*
X62058410Y-52069229D01*
X59968918Y-52070132D01*
X57841526Y-52070717D01*
X55682786Y-52070985D01*
X53499251Y-52070941D01*
X51297476Y-52070586D01*
X49084012Y-52069925D01*
X46865414Y-52068961D01*
X44648235Y-52067696D01*
X42439027Y-52066134D01*
X40244344Y-52064277D01*
X38070740Y-52062130D01*
X35924767Y-52059695D01*
X33812978Y-52056975D01*
X31741927Y-52053973D01*
X29718167Y-52050693D01*
X27748252Y-52047137D01*
X25838734Y-52043309D01*
X23996167Y-52039212D01*
X22227103Y-52034849D01*
X20538097Y-52030223D01*
X18935701Y-52025337D01*
X17426468Y-52020195D01*
X16016952Y-52014799D01*
X14713707Y-52009152D01*
X13523284Y-52003259D01*
X12452238Y-51997121D01*
X11507121Y-51990742D01*
X10694487Y-51984125D01*
X10020889Y-51977274D01*
X9492881Y-51970191D01*
X9117014Y-51962879D01*
X8899844Y-51955342D01*
X8847667Y-51950532D01*
X8133527Y-51689804D01*
X7498293Y-51280296D01*
X7128412Y-50936436D01*
X6665223Y-50343162D01*
X6352599Y-49691869D01*
X6185750Y-49022000D01*
X6176776Y-48881607D01*
X6168265Y-48581070D01*
X6160220Y-48129576D01*
X6152641Y-47536311D01*
X6145532Y-46810465D01*
X6138894Y-45961225D01*
X6132730Y-44997778D01*
X6127041Y-43929312D01*
X6121830Y-42765015D01*
X6117098Y-41514074D01*
X6112848Y-40185677D01*
X6109082Y-38789013D01*
X6105801Y-37333267D01*
X6103009Y-35827629D01*
X6100707Y-34281286D01*
X6098896Y-32703426D01*
X6098553Y-32285736D01*
X7915691Y-32285736D01*
X7954458Y-32881842D01*
X8072607Y-33405816D01*
X8085794Y-33443333D01*
X8290584Y-33849131D01*
X8587527Y-34239440D01*
X8935845Y-34571788D01*
X9294759Y-34803705D01*
X9450156Y-34864368D01*
X9636699Y-34897514D01*
X9953822Y-34923912D01*
X10409468Y-34943824D01*
X11011580Y-34957515D01*
X11768103Y-34965247D01*
X12555609Y-34967333D01*
X13336274Y-34967473D01*
X13965218Y-34969717D01*
X14460048Y-34976804D01*
X14838374Y-34991472D01*
X15117806Y-35016460D01*
X15315953Y-35054504D01*
X15450425Y-35108343D01*
X15538832Y-35180716D01*
X15598782Y-35274359D01*
X15647885Y-35392012D01*
X15670424Y-35451650D01*
X15741531Y-35779845D01*
X15734546Y-36134021D01*
X15660055Y-36465580D01*
X15528646Y-36725919D01*
X15363207Y-36862073D01*
X15247223Y-36875030D01*
X14983542Y-36886828D01*
X14593799Y-36897060D01*
X14099630Y-36905319D01*
X13522668Y-36911198D01*
X12884549Y-36914291D01*
X12566075Y-36914666D01*
X9906000Y-36914666D01*
X9906000Y-36068000D01*
X8043333Y-36068000D01*
X8043333Y-38782208D01*
X11959167Y-38758604D01*
X12882235Y-38752621D01*
X13651463Y-38746356D01*
X14282339Y-38739152D01*
X14790356Y-38730357D01*
X15191005Y-38719315D01*
X15499776Y-38705372D01*
X15732161Y-38687874D01*
X15903651Y-38666166D01*
X16029738Y-38639594D01*
X16125911Y-38607504D01*
X16186527Y-38580020D01*
X16647405Y-38267047D01*
X17052875Y-37830230D01*
X17347294Y-37343637D01*
X17447710Y-37111036D01*
X17512412Y-36896239D01*
X17549005Y-36650982D01*
X17565094Y-36327002D01*
X17568333Y-35941000D01*
X17564514Y-35514616D01*
X17547711Y-35209569D01*
X17509910Y-34977937D01*
X17443093Y-34771796D01*
X17339246Y-34543224D01*
X17332080Y-34528601D01*
X17071471Y-34130042D01*
X18626667Y-34130042D01*
X18635452Y-34563784D01*
X18659085Y-34987453D01*
X18693476Y-35339885D01*
X18717702Y-35492332D01*
X18898399Y-36162514D01*
X19154540Y-36802452D01*
X19467708Y-37379420D01*
X19819484Y-37860687D01*
X20191451Y-38213527D01*
X20285116Y-38277631D01*
X20473184Y-38393881D01*
X20645826Y-38489972D01*
X20820880Y-38567858D01*
X21016186Y-38629493D01*
X21249582Y-38676831D01*
X21538908Y-38711828D01*
X21902001Y-38736438D01*
X22356702Y-38752614D01*
X22920848Y-38762312D01*
X23612278Y-38767487D01*
X24448832Y-38770091D01*
X24786167Y-38770771D01*
X28194000Y-38777333D01*
X28194000Y-36914666D01*
X25010629Y-36914666D01*
X24139216Y-36914379D01*
X23420388Y-36911663D01*
X22837399Y-36903739D01*
X22373500Y-36887826D01*
X22011944Y-36861144D01*
X21735983Y-36820913D01*
X21528871Y-36764353D01*
X21373859Y-36688682D01*
X21254200Y-36591121D01*
X21153146Y-36468890D01*
X21053951Y-36319208D01*
X21010805Y-36250651D01*
X20811113Y-35901707D01*
X20674278Y-35570168D01*
X20589516Y-35209867D01*
X20546044Y-34774637D01*
X20533077Y-34218311D01*
X20533055Y-34205333D01*
X20558323Y-33505577D01*
X20641318Y-32938237D01*
X20789509Y-32474028D01*
X21010364Y-32083663D01*
X21105764Y-31959605D01*
X21239689Y-31805137D01*
X21372203Y-31682752D01*
X21524127Y-31588722D01*
X21716283Y-31519323D01*
X21969492Y-31470827D01*
X22304575Y-31439510D01*
X22742356Y-31421646D01*
X23303654Y-31413507D01*
X24009291Y-31411368D01*
X24169614Y-31411333D01*
X26416000Y-31411333D01*
X26416000Y-32512000D01*
X28194000Y-32512000D01*
X28194000Y-29633333D01*
X29464000Y-29633333D01*
X29464000Y-31411333D01*
X30649333Y-31411333D01*
X30649333Y-36914666D01*
X29464000Y-36914666D01*
X29464000Y-38777333D01*
X34459333Y-38777333D01*
X34459333Y-36914666D01*
X32512000Y-36914666D01*
X32512000Y-34967333D01*
X38015333Y-34967333D01*
X38015333Y-36914666D01*
X36152667Y-36914666D01*
X36152667Y-38777333D01*
X41148000Y-38777333D01*
X41148000Y-36914666D01*
X39878000Y-36914666D01*
X39878000Y-35768285D01*
X42590055Y-35768285D01*
X42610801Y-36413557D01*
X42750724Y-37009798D01*
X42759976Y-37034792D01*
X43051217Y-37592369D01*
X43461392Y-38071855D01*
X43958921Y-38444349D01*
X44512227Y-38680945D01*
X44577000Y-38697889D01*
X44714731Y-38711465D01*
X45002533Y-38724431D01*
X45421141Y-38736428D01*
X45951294Y-38747095D01*
X46573727Y-38756072D01*
X47269179Y-38763000D01*
X48018385Y-38767520D01*
X48365833Y-38768666D01*
X51900667Y-38777333D01*
X51900667Y-35306000D01*
X50038000Y-35306000D01*
X50038000Y-36914666D01*
X47551751Y-36914666D01*
X46835902Y-36914169D01*
X46269687Y-36911838D01*
X45833407Y-36906412D01*
X45507365Y-36896631D01*
X45271863Y-36881235D01*
X45107201Y-36858962D01*
X44993682Y-36828552D01*
X44911607Y-36788746D01*
X44845334Y-36741482D01*
X44626155Y-36471649D01*
X44512071Y-36123944D01*
X44505954Y-35752091D01*
X44610678Y-35409815D01*
X44763196Y-35205300D01*
X44831271Y-35145936D01*
X44908036Y-35099496D01*
X45014519Y-35063905D01*
X45171745Y-35037086D01*
X45400739Y-35016965D01*
X45722528Y-35001464D01*
X46158136Y-34988509D01*
X46728589Y-34976023D01*
X47173471Y-34967333D01*
X49375704Y-34925000D01*
X49579852Y-34687445D01*
X49756424Y-34363158D01*
X49793256Y-33999957D01*
X49692151Y-33649916D01*
X49536513Y-33436820D01*
X49289025Y-33189333D01*
X47138271Y-33189333D01*
X46479843Y-33188943D01*
X45969744Y-33186628D01*
X45586970Y-33180667D01*
X45310515Y-33169339D01*
X45119376Y-33150923D01*
X44992548Y-33123700D01*
X44909027Y-33085949D01*
X44847808Y-33035949D01*
X44812566Y-32998833D01*
X44664737Y-32771077D01*
X44582041Y-32545127D01*
X44579652Y-32245464D01*
X44669526Y-31929723D01*
X44825779Y-31660821D01*
X45008910Y-31507497D01*
X45173637Y-31473407D01*
X45502516Y-31446795D01*
X45996768Y-31427617D01*
X46657616Y-31415825D01*
X47486285Y-31411376D01*
X47586650Y-31411333D01*
X49953333Y-31411333D01*
X49953333Y-32512000D01*
X51731333Y-32512000D01*
X51731333Y-29633333D01*
X52578000Y-29633333D01*
X52578000Y-32512000D01*
X54356000Y-32512000D01*
X54356000Y-31411333D01*
X57065333Y-31411333D01*
X57065333Y-36999333D01*
X55033333Y-36999333D01*
X55033333Y-38777333D01*
X61044667Y-38777333D01*
X61044667Y-36914666D01*
X59012667Y-36914666D01*
X59012667Y-34163000D01*
X63970249Y-34163000D01*
X63972160Y-34687111D01*
X63981245Y-35081014D01*
X64001929Y-35383810D01*
X64038640Y-35634601D01*
X64095804Y-35872489D01*
X64177846Y-36136576D01*
X64201772Y-36208325D01*
X64536224Y-37003052D01*
X64957547Y-37657200D01*
X65463381Y-38168017D01*
X66051365Y-38532753D01*
X66276831Y-38625645D01*
X66394110Y-38662351D01*
X66535785Y-38692428D01*
X66718946Y-38716540D01*
X66960681Y-38735353D01*
X67278081Y-38749532D01*
X67688234Y-38759742D01*
X68208230Y-38766649D01*
X68855159Y-38770918D01*
X69646110Y-38773214D01*
X70082833Y-38773812D01*
X73490667Y-38777333D01*
X73490667Y-36914666D01*
X70318539Y-36914666D01*
X69446206Y-36914270D01*
X68726364Y-36911237D01*
X68142171Y-36902800D01*
X67676785Y-36886192D01*
X67313362Y-36858647D01*
X67035062Y-36817398D01*
X66825041Y-36759678D01*
X66666457Y-36682721D01*
X66542468Y-36583758D01*
X66436232Y-36460025D01*
X66330907Y-36308753D01*
X66294313Y-36253578D01*
X66050024Y-35760870D01*
X65888211Y-35171604D01*
X65807888Y-34524363D01*
X65808064Y-33857733D01*
X65887751Y-33210298D01*
X66045961Y-32620643D01*
X66281705Y-32127352D01*
X66404404Y-31957211D01*
X66537850Y-31803406D01*
X66670132Y-31681546D01*
X66822060Y-31587922D01*
X67014441Y-31518823D01*
X67268087Y-31470540D01*
X67603805Y-31439363D01*
X68042406Y-31421581D01*
X68604699Y-31413486D01*
X69311492Y-31411366D01*
X69466280Y-31411333D01*
X71712667Y-31411333D01*
X71712667Y-32512000D01*
X73490667Y-32512000D01*
X73490667Y-29633333D01*
X74845333Y-29633333D01*
X74845333Y-31411333D01*
X76030667Y-31411333D01*
X76030667Y-36914666D01*
X74845333Y-36914666D01*
X74845333Y-38777333D01*
X79840667Y-38777333D01*
X79840667Y-36914666D01*
X77893333Y-36914666D01*
X77893333Y-34967333D01*
X83396667Y-34967333D01*
X83396667Y-36914666D01*
X81534000Y-36914666D01*
X81534000Y-38777333D01*
X86529333Y-38777333D01*
X86529333Y-36914666D01*
X85259333Y-36914666D01*
X85259333Y-31411333D01*
X86529333Y-31411333D01*
X86529333Y-29633333D01*
X81534000Y-29633333D01*
X81534000Y-31411333D01*
X83396667Y-31411333D01*
X83396667Y-33189333D01*
X77893333Y-33189333D01*
X77893333Y-31411333D01*
X79840667Y-31411333D01*
X79840667Y-29633333D01*
X74845333Y-29633333D01*
X73490667Y-29633333D01*
X73490667Y-29626410D01*
X69913500Y-29651038D01*
X69041425Y-29657239D01*
X68322106Y-29663311D01*
X67738970Y-29670162D01*
X67275442Y-29678701D01*
X66914948Y-29689836D01*
X66640915Y-29704476D01*
X66436768Y-29723529D01*
X66285934Y-29747903D01*
X66171838Y-29778506D01*
X66077907Y-29816248D01*
X65987567Y-29862037D01*
X65978854Y-29866686D01*
X65401897Y-30256042D01*
X64918421Y-30762831D01*
X64517870Y-31400594D01*
X64202630Y-32145576D01*
X64114168Y-32409973D01*
X64051500Y-32641034D01*
X64010209Y-32877109D01*
X63985877Y-33156547D01*
X63974087Y-33517697D01*
X63970421Y-33998909D01*
X63970249Y-34163000D01*
X59012667Y-34163000D01*
X59012667Y-31411333D01*
X61722000Y-31411333D01*
X61722000Y-32512000D01*
X63500000Y-32512000D01*
X63500000Y-29633333D01*
X52578000Y-29633333D01*
X51731333Y-29633333D01*
X48220843Y-29633333D01*
X47353163Y-29633707D01*
X46637525Y-29635328D01*
X46056639Y-29638949D01*
X45593213Y-29645319D01*
X45229958Y-29655190D01*
X44949581Y-29669312D01*
X44734794Y-29688436D01*
X44568304Y-29713314D01*
X44432822Y-29744695D01*
X44311056Y-29783332D01*
X44249410Y-29805793D01*
X43784630Y-30060474D01*
X43359144Y-30446106D01*
X43011729Y-30924310D01*
X42898912Y-31142459D01*
X42768442Y-31571449D01*
X42708230Y-32094097D01*
X42717410Y-32650388D01*
X42795114Y-33180309D01*
X42934571Y-33611136D01*
X43147478Y-34075273D01*
X42893263Y-34568185D01*
X42685279Y-35133367D01*
X42590055Y-35768285D01*
X39878000Y-35768285D01*
X39878000Y-31411333D01*
X41148000Y-31411333D01*
X41148000Y-29633333D01*
X36152667Y-29633333D01*
X36152667Y-31411333D01*
X38015333Y-31411333D01*
X38015333Y-33189333D01*
X32512000Y-33189333D01*
X32512000Y-31411333D01*
X34459333Y-31411333D01*
X34459333Y-29633333D01*
X29464000Y-29633333D01*
X28194000Y-29633333D01*
X28194000Y-29626410D01*
X24616833Y-29651038D01*
X21039667Y-29675666D01*
X20586840Y-29926487D01*
X20011919Y-30340079D01*
X19528116Y-30886987D01*
X19141560Y-31554063D01*
X18858382Y-32328162D01*
X18684712Y-33196138D01*
X18626667Y-34130042D01*
X17071471Y-34130042D01*
X16976267Y-33984444D01*
X16507375Y-33560358D01*
X16134535Y-33349388D01*
X16028181Y-33306737D01*
X15904292Y-33272537D01*
X15743958Y-33245853D01*
X15528265Y-33225748D01*
X15238301Y-33211290D01*
X14855156Y-33201541D01*
X14359915Y-33195568D01*
X13733668Y-33192435D01*
X12957502Y-33191207D01*
X12934785Y-33191192D01*
X10079237Y-33189333D01*
X9932142Y-32964838D01*
X9824631Y-32685579D01*
X9785056Y-32306213D01*
X9785047Y-32300333D01*
X9823551Y-31919968D01*
X9930181Y-31638846D01*
X9932142Y-31635828D01*
X10079237Y-31411333D01*
X15494000Y-31411333D01*
X15494000Y-32512000D01*
X17356667Y-32512000D01*
X17356667Y-29633333D01*
X13483167Y-29635192D01*
X12565597Y-29636047D01*
X11801645Y-29638039D01*
X11175593Y-29641754D01*
X10671726Y-29647776D01*
X10274329Y-29656688D01*
X9967685Y-29669074D01*
X9736078Y-29685520D01*
X9563794Y-29706609D01*
X9435115Y-29732924D01*
X9334327Y-29765051D01*
X9271000Y-29791745D01*
X8885650Y-30041160D01*
X8522440Y-30406384D01*
X8226557Y-30835470D01*
X8077367Y-31164002D01*
X7956572Y-31689216D01*
X7915691Y-32285736D01*
X6098553Y-32285736D01*
X6097580Y-31103235D01*
X6096760Y-29489903D01*
X6096439Y-27872616D01*
X6096618Y-26260562D01*
X6097299Y-24662930D01*
X6098485Y-23088906D01*
X6099442Y-22217276D01*
X17145000Y-22217276D01*
X17150683Y-22636639D01*
X17173598Y-22939767D01*
X17222542Y-23179546D01*
X17306311Y-23408864D01*
X17364573Y-23537333D01*
X17721004Y-24100489D01*
X18200391Y-24555712D01*
X18782774Y-24885890D01*
X19050000Y-24982159D01*
X19178077Y-24996141D01*
X19456647Y-25009426D01*
X19866867Y-25021656D01*
X20389897Y-25032473D01*
X21006895Y-25041521D01*
X21699022Y-25048442D01*
X22447435Y-25052877D01*
X22838833Y-25054056D01*
X26416000Y-25061333D01*
X26416000Y-21590000D01*
X24553333Y-21590000D01*
X24553333Y-23198666D01*
X22089903Y-23198666D01*
X21377224Y-23198142D01*
X20813882Y-23195715D01*
X20379885Y-23190103D01*
X20055238Y-23180023D01*
X19819947Y-23164195D01*
X19654019Y-23141335D01*
X19537458Y-23110162D01*
X19450271Y-23069394D01*
X19382687Y-23025075D01*
X19145334Y-22760946D01*
X19023821Y-22420832D01*
X19018710Y-22052785D01*
X19130565Y-21704857D01*
X19359951Y-21425100D01*
X19363880Y-21421990D01*
X19439983Y-21369114D01*
X19531454Y-21328427D01*
X19659965Y-21298341D01*
X19847187Y-21277267D01*
X20114792Y-21263619D01*
X20484450Y-21255806D01*
X20977833Y-21252242D01*
X21616612Y-21251338D01*
X21692597Y-21251333D01*
X23804359Y-21251333D01*
X24051846Y-21003846D01*
X24216339Y-20801936D01*
X24287414Y-20583471D01*
X24299333Y-20362333D01*
X24275831Y-20076941D01*
X24183256Y-19871207D01*
X24051846Y-19720820D01*
X23804359Y-19473333D01*
X21692597Y-19473333D01*
X21036860Y-19472578D01*
X20528827Y-19469273D01*
X20146868Y-19461856D01*
X19869358Y-19448767D01*
X19674668Y-19428444D01*
X19541171Y-19399325D01*
X19447240Y-19359850D01*
X19371246Y-19308457D01*
X19367453Y-19305486D01*
X19198033Y-19098072D01*
X19099642Y-18847513D01*
X19098121Y-18527863D01*
X19189008Y-18203466D01*
X19348168Y-17934346D01*
X19524243Y-17791497D01*
X19688971Y-17757407D01*
X20017849Y-17730795D01*
X20512101Y-17711617D01*
X21172950Y-17699825D01*
X22001618Y-17695376D01*
X22101984Y-17695333D01*
X24468667Y-17695333D01*
X24468667Y-18796000D01*
X26246667Y-18796000D01*
X26246667Y-15917333D01*
X27093333Y-15917333D01*
X27093333Y-18796000D01*
X28871333Y-18796000D01*
X28871333Y-17695333D01*
X31580667Y-17695333D01*
X31580667Y-23283333D01*
X29548667Y-23283333D01*
X29548667Y-25061333D01*
X35560000Y-25061333D01*
X35560000Y-23198666D01*
X33528000Y-23198666D01*
X33528000Y-20198392D01*
X38448539Y-20198392D01*
X38452194Y-20867515D01*
X38497727Y-21495511D01*
X38564224Y-21921809D01*
X38771058Y-22649919D01*
X39065462Y-23320199D01*
X39429439Y-23901332D01*
X39844990Y-24362003D01*
X40068128Y-24538514D01*
X40249691Y-24659459D01*
X40422421Y-24759671D01*
X40603825Y-24841127D01*
X40811412Y-24905808D01*
X41062689Y-24955692D01*
X41375163Y-24992760D01*
X41766342Y-25018990D01*
X42253734Y-25036361D01*
X42854845Y-25046854D01*
X43587185Y-25052446D01*
X44468259Y-25055118D01*
X44640500Y-25055436D01*
X48006000Y-25061333D01*
X48006000Y-23198666D01*
X44822629Y-23198666D01*
X43953419Y-23198234D01*
X43236770Y-23195306D01*
X42655906Y-23187435D01*
X42194056Y-23172175D01*
X41834445Y-23147078D01*
X41560299Y-23109698D01*
X41354846Y-23057587D01*
X41201311Y-22988299D01*
X41082922Y-22899387D01*
X40982904Y-22788403D01*
X40884485Y-22652901D01*
X40862333Y-22620934D01*
X40604705Y-22160461D01*
X40434106Y-21633897D01*
X40338407Y-21000433D01*
X40324080Y-20809702D01*
X40324981Y-20068121D01*
X40418557Y-19395295D01*
X40597464Y-18809897D01*
X40854360Y-18330598D01*
X41181902Y-17976071D01*
X41513345Y-17785639D01*
X41678172Y-17756635D01*
X41997545Y-17732605D01*
X42456739Y-17714088D01*
X43041024Y-17701620D01*
X43735672Y-17695737D01*
X43989845Y-17695333D01*
X46228000Y-17695333D01*
X46228000Y-18796000D01*
X48006000Y-18796000D01*
X48006000Y-15917333D01*
X49360667Y-15917333D01*
X49360667Y-17695333D01*
X50546000Y-17695333D01*
X50546000Y-23198666D01*
X49360667Y-23198666D01*
X49360667Y-25061333D01*
X54356000Y-25061333D01*
X54356000Y-23198666D01*
X52408667Y-23198666D01*
X52408667Y-21251333D01*
X57912000Y-21251333D01*
X57912000Y-23198666D01*
X56049333Y-23198666D01*
X56049333Y-25061333D01*
X61044667Y-25061333D01*
X61044667Y-23293069D01*
X66802000Y-23293069D01*
X66802000Y-25061333D01*
X72220667Y-25061333D01*
X72220667Y-23198666D01*
X69511333Y-23198666D01*
X69511333Y-21251333D01*
X75184000Y-21251333D01*
X75184000Y-23198666D01*
X72390000Y-23198666D01*
X72390000Y-25061333D01*
X77893333Y-25061333D01*
X77893333Y-23292611D01*
X77491167Y-23266805D01*
X77089000Y-23241000D01*
X77040610Y-20616333D01*
X77023651Y-19779554D01*
X77004074Y-19092733D01*
X76978052Y-18536497D01*
X76941753Y-18091475D01*
X76891349Y-17738296D01*
X76823008Y-17457586D01*
X76732901Y-17229976D01*
X76617198Y-17036093D01*
X76472068Y-16856566D01*
X76293683Y-16672022D01*
X76252870Y-16632018D01*
X76073837Y-16462603D01*
X75905628Y-16324314D01*
X75729317Y-16213996D01*
X75525980Y-16128494D01*
X75276690Y-16064651D01*
X74962524Y-16019313D01*
X74564556Y-15989323D01*
X74063861Y-15971525D01*
X73441514Y-15962765D01*
X72678590Y-15959886D01*
X72220667Y-15959666D01*
X71465119Y-15959951D01*
X70858912Y-15961648D01*
X70382053Y-15966021D01*
X70014548Y-15974335D01*
X69736406Y-15987853D01*
X69527632Y-16007840D01*
X69368234Y-16035560D01*
X69238220Y-16072278D01*
X69117597Y-16119256D01*
X69021310Y-16161965D01*
X68649914Y-16381949D01*
X68304926Y-16673814D01*
X68237751Y-16745830D01*
X68079533Y-16934529D01*
X67950657Y-17118392D01*
X67847713Y-17317173D01*
X67767294Y-17550627D01*
X67705992Y-17838508D01*
X67660400Y-18200571D01*
X67627110Y-18656571D01*
X67602713Y-19226261D01*
X67583803Y-19929397D01*
X67570056Y-20616333D01*
X67521667Y-23241000D01*
X67161833Y-23267034D01*
X66802000Y-23293069D01*
X61044667Y-23293069D01*
X61044667Y-23198666D01*
X59774667Y-23198666D01*
X59774667Y-17695333D01*
X61044667Y-17695333D01*
X61044667Y-15917333D01*
X56049333Y-15917333D01*
X56049333Y-17695333D01*
X57912000Y-17695333D01*
X57912000Y-19473333D01*
X52408667Y-19473333D01*
X52408667Y-17695333D01*
X54356000Y-17695333D01*
X54356000Y-15917333D01*
X49360667Y-15917333D01*
X48006000Y-15917333D01*
X48006000Y-15910410D01*
X44428833Y-15935038D01*
X40851667Y-15959666D01*
X40403915Y-16207725D01*
X39862186Y-16600360D01*
X39386913Y-17131538D01*
X38993015Y-17778505D01*
X38695412Y-18518504D01*
X38566635Y-19010095D01*
X38486705Y-19556474D01*
X38448539Y-20198392D01*
X33528000Y-20198392D01*
X33528000Y-17695333D01*
X36237333Y-17695333D01*
X36237333Y-18796000D01*
X38015333Y-18796000D01*
X38015333Y-15917333D01*
X27093333Y-15917333D01*
X26246667Y-15917333D01*
X22736176Y-15917333D01*
X21867314Y-15917744D01*
X21150551Y-15919464D01*
X20568654Y-15923223D01*
X20104390Y-15929752D01*
X19740525Y-15939782D01*
X19459826Y-15954044D01*
X19245060Y-15973267D01*
X19078994Y-15998183D01*
X18944394Y-16029523D01*
X18824028Y-16068016D01*
X18777069Y-16085182D01*
X18308342Y-16333523D01*
X17886947Y-16691163D01*
X17569105Y-17108679D01*
X17529446Y-17181993D01*
X17319537Y-17759866D01*
X17222998Y-18407794D01*
X17240971Y-19070085D01*
X17374595Y-19691046D01*
X17472924Y-19942513D01*
X17663650Y-20357647D01*
X17404325Y-20860267D01*
X17283899Y-21107511D01*
X17207788Y-21318577D01*
X17165960Y-21545964D01*
X17148380Y-21842172D01*
X17145000Y-22217276D01*
X6099442Y-22217276D01*
X6100178Y-21547678D01*
X6102379Y-20048435D01*
X6105091Y-18600363D01*
X6108316Y-17212651D01*
X6112056Y-15894486D01*
X6116312Y-14655055D01*
X6121088Y-13503547D01*
X6126385Y-12449149D01*
X6132206Y-11501049D01*
X6138551Y-10668435D01*
X6145424Y-9960493D01*
X6152827Y-9386413D01*
X6160761Y-8955381D01*
X6169228Y-8676585D01*
X6176609Y-8567755D01*
X6359886Y-7840533D01*
X6681616Y-7171528D01*
X7123678Y-6588855D01*
X7667952Y-6120626D01*
X7814283Y-6026895D01*
X7877482Y-5985698D01*
X7929235Y-5946717D01*
X7974163Y-5909890D01*
X8016888Y-5875156D01*
X8062035Y-5842454D01*
X8114224Y-5811723D01*
X8178078Y-5782903D01*
X8258221Y-5755932D01*
X8359273Y-5730749D01*
X8485859Y-5707293D01*
X8642599Y-5685504D01*
X8834117Y-5665320D01*
X9065035Y-5646680D01*
X9339976Y-5629524D01*
X9663562Y-5613790D01*
X10040415Y-5599417D01*
X10475158Y-5586345D01*
X10972414Y-5574512D01*
X11536804Y-5563858D01*
X12172952Y-5554321D01*
X12885479Y-5545841D01*
X13679008Y-5538356D01*
X14558163Y-5531806D01*
X15527564Y-5526129D01*
X16591835Y-5521265D01*
X17755598Y-5517152D01*
X19023475Y-5513730D01*
X20400089Y-5510938D01*
X21890063Y-5508714D01*
X23498018Y-5506999D01*
X25228578Y-5505729D01*
X27086365Y-5504846D01*
X29076000Y-5504287D01*
X31202108Y-5503992D01*
X33469309Y-5503900D01*
X35882228Y-5503949D01*
X35882228Y-5503949D01*
G37*
X35882228Y-5503949D02*
X38445485Y-5504080D01*
X41163703Y-5504230D01*
X44041506Y-5504339D01*
X47083515Y-5504346D01*
X47425581Y-5504338D01*
X50458350Y-5504263D01*
X53326452Y-5504216D01*
X56034555Y-5504218D01*
X58587325Y-5504289D01*
X60989429Y-5504449D01*
X63245535Y-5504718D01*
X65360308Y-5505118D01*
X67338417Y-5505667D01*
X69184528Y-5506388D01*
X70903308Y-5507299D01*
X72499423Y-5508422D01*
X73977542Y-5509777D01*
X75342330Y-5511383D01*
X76598454Y-5513263D01*
X77750582Y-5515435D01*
X78803381Y-5517920D01*
X79761517Y-5520739D01*
X80629657Y-5523912D01*
X81412468Y-5527460D01*
X82114617Y-5531402D01*
X82740772Y-5535759D01*
X83295598Y-5540552D01*
X83783763Y-5545801D01*
X84209934Y-5551526D01*
X84578777Y-5557747D01*
X84894960Y-5564486D01*
X85163149Y-5571762D01*
X85388012Y-5579595D01*
X85574216Y-5588007D01*
X85726426Y-5597017D01*
X85849311Y-5606646D01*
X85947536Y-5616914D01*
X86025770Y-5627842D01*
X86088679Y-5639449D01*
X86140929Y-5651757D01*
X86187188Y-5664786D01*
X86216274Y-5673657D01*
X86908476Y-5973649D01*
X87518768Y-6411929D01*
X88026484Y-6968913D01*
X88410955Y-7625018D01*
X88498313Y-7835967D01*
X88688333Y-8339666D01*
X88712492Y-28448000D01*
X88715120Y-30873093D01*
X88716968Y-33131861D01*
X88718025Y-35227308D01*
X88718283Y-37162440D01*
X88717730Y-38940263D01*
X88716358Y-40563783D01*
X88714155Y-42036005D01*
X88711114Y-43359935D01*
X88707222Y-44538578D01*
X88702472Y-45574940D01*
X88696852Y-46472027D01*
X88690353Y-47232843D01*
X88682965Y-47860396D01*
X88674678Y-48357690D01*
X88665482Y-48727731D01*
X88655367Y-48973525D01*
X88644567Y-49096681D01*
X88441313Y-49811882D01*
X88097225Y-50462468D01*
X87632136Y-51027982D01*
X87065879Y-51487972D01*
X86418286Y-51821982D01*
X85841837Y-51987260D01*
X85717570Y-51994822D01*
X85430892Y-52002005D01*
X84988354Y-52008813D01*
X84396512Y-52015248D01*
X83661917Y-52021315D01*
X82791123Y-52027015D01*
X81790683Y-52032352D01*
X80667151Y-52037330D01*
X79427080Y-52041950D01*
X78077022Y-52046218D01*
X76623532Y-52050134D01*
X75073161Y-52053704D01*
X73432465Y-52056929D01*
X71707995Y-52059814D01*
X69906305Y-52062360D01*
X68033949Y-52064572D01*
X66097478Y-52066451D01*
X64103448Y-52068003D01*
X62058410Y-52069229D01*
X59968918Y-52070132D01*
X57841526Y-52070717D01*
X55682786Y-52070985D01*
X53499251Y-52070941D01*
X51297476Y-52070586D01*
X49084012Y-52069925D01*
X46865414Y-52068961D01*
X44648235Y-52067696D01*
X42439027Y-52066134D01*
X40244344Y-52064277D01*
X38070740Y-52062130D01*
X35924767Y-52059695D01*
X33812978Y-52056975D01*
X31741927Y-52053973D01*
X29718167Y-52050693D01*
X27748252Y-52047137D01*
X25838734Y-52043309D01*
X23996167Y-52039212D01*
X22227103Y-52034849D01*
X20538097Y-52030223D01*
X18935701Y-52025337D01*
X17426468Y-52020195D01*
X16016952Y-52014799D01*
X14713707Y-52009152D01*
X13523284Y-52003259D01*
X12452238Y-51997121D01*
X11507121Y-51990742D01*
X10694487Y-51984125D01*
X10020889Y-51977274D01*
X9492881Y-51970191D01*
X9117014Y-51962879D01*
X8899844Y-51955342D01*
X8847667Y-51950532D01*
X8133527Y-51689804D01*
X7498293Y-51280296D01*
X7128412Y-50936436D01*
X6665223Y-50343162D01*
X6352599Y-49691869D01*
X6185750Y-49022000D01*
X6176776Y-48881607D01*
X6168265Y-48581070D01*
X6160220Y-48129576D01*
X6152641Y-47536311D01*
X6145532Y-46810465D01*
X6138894Y-45961225D01*
X6132730Y-44997778D01*
X6127041Y-43929312D01*
X6121830Y-42765015D01*
X6117098Y-41514074D01*
X6112848Y-40185677D01*
X6109082Y-38789013D01*
X6105801Y-37333267D01*
X6103009Y-35827629D01*
X6100707Y-34281286D01*
X6098896Y-32703426D01*
X6098553Y-32285736D01*
X7915691Y-32285736D01*
X7954458Y-32881842D01*
X8072607Y-33405816D01*
X8085794Y-33443333D01*
X8290584Y-33849131D01*
X8587527Y-34239440D01*
X8935845Y-34571788D01*
X9294759Y-34803705D01*
X9450156Y-34864368D01*
X9636699Y-34897514D01*
X9953822Y-34923912D01*
X10409468Y-34943824D01*
X11011580Y-34957515D01*
X11768103Y-34965247D01*
X12555609Y-34967333D01*
X13336274Y-34967473D01*
X13965218Y-34969717D01*
X14460048Y-34976804D01*
X14838374Y-34991472D01*
X15117806Y-35016460D01*
X15315953Y-35054504D01*
X15450425Y-35108343D01*
X15538832Y-35180716D01*
X15598782Y-35274359D01*
X15647885Y-35392012D01*
X15670424Y-35451650D01*
X15741531Y-35779845D01*
X15734546Y-36134021D01*
X15660055Y-36465580D01*
X15528646Y-36725919D01*
X15363207Y-36862073D01*
X15247223Y-36875030D01*
X14983542Y-36886828D01*
X14593799Y-36897060D01*
X14099630Y-36905319D01*
X13522668Y-36911198D01*
X12884549Y-36914291D01*
X12566075Y-36914666D01*
X9906000Y-36914666D01*
X9906000Y-36068000D01*
X8043333Y-36068000D01*
X8043333Y-38782208D01*
X11959167Y-38758604D01*
X12882235Y-38752621D01*
X13651463Y-38746356D01*
X14282339Y-38739152D01*
X14790356Y-38730357D01*
X15191005Y-38719315D01*
X15499776Y-38705372D01*
X15732161Y-38687874D01*
X15903651Y-38666166D01*
X16029738Y-38639594D01*
X16125911Y-38607504D01*
X16186527Y-38580020D01*
X16647405Y-38267047D01*
X17052875Y-37830230D01*
X17347294Y-37343637D01*
X17447710Y-37111036D01*
X17512412Y-36896239D01*
X17549005Y-36650982D01*
X17565094Y-36327002D01*
X17568333Y-35941000D01*
X17564514Y-35514616D01*
X17547711Y-35209569D01*
X17509910Y-34977937D01*
X17443093Y-34771796D01*
X17339246Y-34543224D01*
X17332080Y-34528601D01*
X17071471Y-34130042D01*
X18626667Y-34130042D01*
X18635452Y-34563784D01*
X18659085Y-34987453D01*
X18693476Y-35339885D01*
X18717702Y-35492332D01*
X18898399Y-36162514D01*
X19154540Y-36802452D01*
X19467708Y-37379420D01*
X19819484Y-37860687D01*
X20191451Y-38213527D01*
X20285116Y-38277631D01*
X20473184Y-38393881D01*
X20645826Y-38489972D01*
X20820880Y-38567858D01*
X21016186Y-38629493D01*
X21249582Y-38676831D01*
X21538908Y-38711828D01*
X21902001Y-38736438D01*
X22356702Y-38752614D01*
X22920848Y-38762312D01*
X23612278Y-38767487D01*
X24448832Y-38770091D01*
X24786167Y-38770771D01*
X28194000Y-38777333D01*
X28194000Y-36914666D01*
X25010629Y-36914666D01*
X24139216Y-36914379D01*
X23420388Y-36911663D01*
X22837399Y-36903739D01*
X22373500Y-36887826D01*
X22011944Y-36861144D01*
X21735983Y-36820913D01*
X21528871Y-36764353D01*
X21373859Y-36688682D01*
X21254200Y-36591121D01*
X21153146Y-36468890D01*
X21053951Y-36319208D01*
X21010805Y-36250651D01*
X20811113Y-35901707D01*
X20674278Y-35570168D01*
X20589516Y-35209867D01*
X20546044Y-34774637D01*
X20533077Y-34218311D01*
X20533055Y-34205333D01*
X20558323Y-33505577D01*
X20641318Y-32938237D01*
X20789509Y-32474028D01*
X21010364Y-32083663D01*
X21105764Y-31959605D01*
X21239689Y-31805137D01*
X21372203Y-31682752D01*
X21524127Y-31588722D01*
X21716283Y-31519323D01*
X21969492Y-31470827D01*
X22304575Y-31439510D01*
X22742356Y-31421646D01*
X23303654Y-31413507D01*
X24009291Y-31411368D01*
X24169614Y-31411333D01*
X26416000Y-31411333D01*
X26416000Y-32512000D01*
X28194000Y-32512000D01*
X28194000Y-29633333D01*
X29464000Y-29633333D01*
X29464000Y-31411333D01*
X30649333Y-31411333D01*
X30649333Y-36914666D01*
X29464000Y-36914666D01*
X29464000Y-38777333D01*
X34459333Y-38777333D01*
X34459333Y-36914666D01*
X32512000Y-36914666D01*
X32512000Y-34967333D01*
X38015333Y-34967333D01*
X38015333Y-36914666D01*
X36152667Y-36914666D01*
X36152667Y-38777333D01*
X41148000Y-38777333D01*
X41148000Y-36914666D01*
X39878000Y-36914666D01*
X39878000Y-35768285D01*
X42590055Y-35768285D01*
X42610801Y-36413557D01*
X42750724Y-37009798D01*
X42759976Y-37034792D01*
X43051217Y-37592369D01*
X43461392Y-38071855D01*
X43958921Y-38444349D01*
X44512227Y-38680945D01*
X44577000Y-38697889D01*
X44714731Y-38711465D01*
X45002533Y-38724431D01*
X45421141Y-38736428D01*
X45951294Y-38747095D01*
X46573727Y-38756072D01*
X47269179Y-38763000D01*
X48018385Y-38767520D01*
X48365833Y-38768666D01*
X51900667Y-38777333D01*
X51900667Y-35306000D01*
X50038000Y-35306000D01*
X50038000Y-36914666D01*
X47551751Y-36914666D01*
X46835902Y-36914169D01*
X46269687Y-36911838D01*
X45833407Y-36906412D01*
X45507365Y-36896631D01*
X45271863Y-36881235D01*
X45107201Y-36858962D01*
X44993682Y-36828552D01*
X44911607Y-36788746D01*
X44845334Y-36741482D01*
X44626155Y-36471649D01*
X44512071Y-36123944D01*
X44505954Y-35752091D01*
X44610678Y-35409815D01*
X44763196Y-35205300D01*
X44831271Y-35145936D01*
X44908036Y-35099496D01*
X45014519Y-35063905D01*
X45171745Y-35037086D01*
X45400739Y-35016965D01*
X45722528Y-35001464D01*
X46158136Y-34988509D01*
X46728589Y-34976023D01*
X47173471Y-34967333D01*
X49375704Y-34925000D01*
X49579852Y-34687445D01*
X49756424Y-34363158D01*
X49793256Y-33999957D01*
X49692151Y-33649916D01*
X49536513Y-33436820D01*
X49289025Y-33189333D01*
X47138271Y-33189333D01*
X46479843Y-33188943D01*
X45969744Y-33186628D01*
X45586970Y-33180667D01*
X45310515Y-33169339D01*
X45119376Y-33150923D01*
X44992548Y-33123700D01*
X44909027Y-33085949D01*
X44847808Y-33035949D01*
X44812566Y-32998833D01*
X44664737Y-32771077D01*
X44582041Y-32545127D01*
X44579652Y-32245464D01*
X44669526Y-31929723D01*
X44825779Y-31660821D01*
X45008910Y-31507497D01*
X45173637Y-31473407D01*
X45502516Y-31446795D01*
X45996768Y-31427617D01*
X46657616Y-31415825D01*
X47486285Y-31411376D01*
X47586650Y-31411333D01*
X49953333Y-31411333D01*
X49953333Y-32512000D01*
X51731333Y-32512000D01*
X51731333Y-29633333D01*
X52578000Y-29633333D01*
X52578000Y-32512000D01*
X54356000Y-32512000D01*
X54356000Y-31411333D01*
X57065333Y-31411333D01*
X57065333Y-36999333D01*
X55033333Y-36999333D01*
X55033333Y-38777333D01*
X61044667Y-38777333D01*
X61044667Y-36914666D01*
X59012667Y-36914666D01*
X59012667Y-34163000D01*
X63970249Y-34163000D01*
X63972160Y-34687111D01*
X63981245Y-35081014D01*
X64001929Y-35383810D01*
X64038640Y-35634601D01*
X64095804Y-35872489D01*
X64177846Y-36136576D01*
X64201772Y-36208325D01*
X64536224Y-37003052D01*
X64957547Y-37657200D01*
X65463381Y-38168017D01*
X66051365Y-38532753D01*
X66276831Y-38625645D01*
X66394110Y-38662351D01*
X66535785Y-38692428D01*
X66718946Y-38716540D01*
X66960681Y-38735353D01*
X67278081Y-38749532D01*
X67688234Y-38759742D01*
X68208230Y-38766649D01*
X68855159Y-38770918D01*
X69646110Y-38773214D01*
X70082833Y-38773812D01*
X73490667Y-38777333D01*
X73490667Y-36914666D01*
X70318539Y-36914666D01*
X69446206Y-36914270D01*
X68726364Y-36911237D01*
X68142171Y-36902800D01*
X67676785Y-36886192D01*
X67313362Y-36858647D01*
X67035062Y-36817398D01*
X66825041Y-36759678D01*
X66666457Y-36682721D01*
X66542468Y-36583758D01*
X66436232Y-36460025D01*
X66330907Y-36308753D01*
X66294313Y-36253578D01*
X66050024Y-35760870D01*
X65888211Y-35171604D01*
X65807888Y-34524363D01*
X65808064Y-33857733D01*
X65887751Y-33210298D01*
X66045961Y-32620643D01*
X66281705Y-32127352D01*
X66404404Y-31957211D01*
X66537850Y-31803406D01*
X66670132Y-31681546D01*
X66822060Y-31587922D01*
X67014441Y-31518823D01*
X67268087Y-31470540D01*
X67603805Y-31439363D01*
X68042406Y-31421581D01*
X68604699Y-31413486D01*
X69311492Y-31411366D01*
X69466280Y-31411333D01*
X71712667Y-31411333D01*
X71712667Y-32512000D01*
X73490667Y-32512000D01*
X73490667Y-29633333D01*
X74845333Y-29633333D01*
X74845333Y-31411333D01*
X76030667Y-31411333D01*
X76030667Y-36914666D01*
X74845333Y-36914666D01*
X74845333Y-38777333D01*
X79840667Y-38777333D01*
X79840667Y-36914666D01*
X77893333Y-36914666D01*
X77893333Y-34967333D01*
X83396667Y-34967333D01*
X83396667Y-36914666D01*
X81534000Y-36914666D01*
X81534000Y-38777333D01*
X86529333Y-38777333D01*
X86529333Y-36914666D01*
X85259333Y-36914666D01*
X85259333Y-31411333D01*
X86529333Y-31411333D01*
X86529333Y-29633333D01*
X81534000Y-29633333D01*
X81534000Y-31411333D01*
X83396667Y-31411333D01*
X83396667Y-33189333D01*
X77893333Y-33189333D01*
X77893333Y-31411333D01*
X79840667Y-31411333D01*
X79840667Y-29633333D01*
X74845333Y-29633333D01*
X73490667Y-29633333D01*
X73490667Y-29626410D01*
X69913500Y-29651038D01*
X69041425Y-29657239D01*
X68322106Y-29663311D01*
X67738970Y-29670162D01*
X67275442Y-29678701D01*
X66914948Y-29689836D01*
X66640915Y-29704476D01*
X66436768Y-29723529D01*
X66285934Y-29747903D01*
X66171838Y-29778506D01*
X66077907Y-29816248D01*
X65987567Y-29862037D01*
X65978854Y-29866686D01*
X65401897Y-30256042D01*
X64918421Y-30762831D01*
X64517870Y-31400594D01*
X64202630Y-32145576D01*
X64114168Y-32409973D01*
X64051500Y-32641034D01*
X64010209Y-32877109D01*
X63985877Y-33156547D01*
X63974087Y-33517697D01*
X63970421Y-33998909D01*
X63970249Y-34163000D01*
X59012667Y-34163000D01*
X59012667Y-31411333D01*
X61722000Y-31411333D01*
X61722000Y-32512000D01*
X63500000Y-32512000D01*
X63500000Y-29633333D01*
X52578000Y-29633333D01*
X51731333Y-29633333D01*
X48220843Y-29633333D01*
X47353163Y-29633707D01*
X46637525Y-29635328D01*
X46056639Y-29638949D01*
X45593213Y-29645319D01*
X45229958Y-29655190D01*
X44949581Y-29669312D01*
X44734794Y-29688436D01*
X44568304Y-29713314D01*
X44432822Y-29744695D01*
X44311056Y-29783332D01*
X44249410Y-29805793D01*
X43784630Y-30060474D01*
X43359144Y-30446106D01*
X43011729Y-30924310D01*
X42898912Y-31142459D01*
X42768442Y-31571449D01*
X42708230Y-32094097D01*
X42717410Y-32650388D01*
X42795114Y-33180309D01*
X42934571Y-33611136D01*
X43147478Y-34075273D01*
X42893263Y-34568185D01*
X42685279Y-35133367D01*
X42590055Y-35768285D01*
X39878000Y-35768285D01*
X39878000Y-31411333D01*
X41148000Y-31411333D01*
X41148000Y-29633333D01*
X36152667Y-29633333D01*
X36152667Y-31411333D01*
X38015333Y-31411333D01*
X38015333Y-33189333D01*
X32512000Y-33189333D01*
X32512000Y-31411333D01*
X34459333Y-31411333D01*
X34459333Y-29633333D01*
X29464000Y-29633333D01*
X28194000Y-29633333D01*
X28194000Y-29626410D01*
X24616833Y-29651038D01*
X21039667Y-29675666D01*
X20586840Y-29926487D01*
X20011919Y-30340079D01*
X19528116Y-30886987D01*
X19141560Y-31554063D01*
X18858382Y-32328162D01*
X18684712Y-33196138D01*
X18626667Y-34130042D01*
X17071471Y-34130042D01*
X16976267Y-33984444D01*
X16507375Y-33560358D01*
X16134535Y-33349388D01*
X16028181Y-33306737D01*
X15904292Y-33272537D01*
X15743958Y-33245853D01*
X15528265Y-33225748D01*
X15238301Y-33211290D01*
X14855156Y-33201541D01*
X14359915Y-33195568D01*
X13733668Y-33192435D01*
X12957502Y-33191207D01*
X12934785Y-33191192D01*
X10079237Y-33189333D01*
X9932142Y-32964838D01*
X9824631Y-32685579D01*
X9785056Y-32306213D01*
X9785047Y-32300333D01*
X9823551Y-31919968D01*
X9930181Y-31638846D01*
X9932142Y-31635828D01*
X10079237Y-31411333D01*
X15494000Y-31411333D01*
X15494000Y-32512000D01*
X17356667Y-32512000D01*
X17356667Y-29633333D01*
X13483167Y-29635192D01*
X12565597Y-29636047D01*
X11801645Y-29638039D01*
X11175593Y-29641754D01*
X10671726Y-29647776D01*
X10274329Y-29656688D01*
X9967685Y-29669074D01*
X9736078Y-29685520D01*
X9563794Y-29706609D01*
X9435115Y-29732924D01*
X9334327Y-29765051D01*
X9271000Y-29791745D01*
X8885650Y-30041160D01*
X8522440Y-30406384D01*
X8226557Y-30835470D01*
X8077367Y-31164002D01*
X7956572Y-31689216D01*
X7915691Y-32285736D01*
X6098553Y-32285736D01*
X6097580Y-31103235D01*
X6096760Y-29489903D01*
X6096439Y-27872616D01*
X6096618Y-26260562D01*
X6097299Y-24662930D01*
X6098485Y-23088906D01*
X6099442Y-22217276D01*
X17145000Y-22217276D01*
X17150683Y-22636639D01*
X17173598Y-22939767D01*
X17222542Y-23179546D01*
X17306311Y-23408864D01*
X17364573Y-23537333D01*
X17721004Y-24100489D01*
X18200391Y-24555712D01*
X18782774Y-24885890D01*
X19050000Y-24982159D01*
X19178077Y-24996141D01*
X19456647Y-25009426D01*
X19866867Y-25021656D01*
X20389897Y-25032473D01*
X21006895Y-25041521D01*
X21699022Y-25048442D01*
X22447435Y-25052877D01*
X22838833Y-25054056D01*
X26416000Y-25061333D01*
X26416000Y-21590000D01*
X24553333Y-21590000D01*
X24553333Y-23198666D01*
X22089903Y-23198666D01*
X21377224Y-23198142D01*
X20813882Y-23195715D01*
X20379885Y-23190103D01*
X20055238Y-23180023D01*
X19819947Y-23164195D01*
X19654019Y-23141335D01*
X19537458Y-23110162D01*
X19450271Y-23069394D01*
X19382687Y-23025075D01*
X19145334Y-22760946D01*
X19023821Y-22420832D01*
X19018710Y-22052785D01*
X19130565Y-21704857D01*
X19359951Y-21425100D01*
X19363880Y-21421990D01*
X19439983Y-21369114D01*
X19531454Y-21328427D01*
X19659965Y-21298341D01*
X19847187Y-21277267D01*
X20114792Y-21263619D01*
X20484450Y-21255806D01*
X20977833Y-21252242D01*
X21616612Y-21251338D01*
X21692597Y-21251333D01*
X23804359Y-21251333D01*
X24051846Y-21003846D01*
X24216339Y-20801936D01*
X24287414Y-20583471D01*
X24299333Y-20362333D01*
X24275831Y-20076941D01*
X24183256Y-19871207D01*
X24051846Y-19720820D01*
X23804359Y-19473333D01*
X21692597Y-19473333D01*
X21036860Y-19472578D01*
X20528827Y-19469273D01*
X20146868Y-19461856D01*
X19869358Y-19448767D01*
X19674668Y-19428444D01*
X19541171Y-19399325D01*
X19447240Y-19359850D01*
X19371246Y-19308457D01*
X19367453Y-19305486D01*
X19198033Y-19098072D01*
X19099642Y-18847513D01*
X19098121Y-18527863D01*
X19189008Y-18203466D01*
X19348168Y-17934346D01*
X19524243Y-17791497D01*
X19688971Y-17757407D01*
X20017849Y-17730795D01*
X20512101Y-17711617D01*
X21172950Y-17699825D01*
X22001618Y-17695376D01*
X22101984Y-17695333D01*
X24468667Y-17695333D01*
X24468667Y-18796000D01*
X26246667Y-18796000D01*
X26246667Y-15917333D01*
X27093333Y-15917333D01*
X27093333Y-18796000D01*
X28871333Y-18796000D01*
X28871333Y-17695333D01*
X31580667Y-17695333D01*
X31580667Y-23283333D01*
X29548667Y-23283333D01*
X29548667Y-25061333D01*
X35560000Y-25061333D01*
X35560000Y-23198666D01*
X33528000Y-23198666D01*
X33528000Y-20198392D01*
X38448539Y-20198392D01*
X38452194Y-20867515D01*
X38497727Y-21495511D01*
X38564224Y-21921809D01*
X38771058Y-22649919D01*
X39065462Y-23320199D01*
X39429439Y-23901332D01*
X39844990Y-24362003D01*
X40068128Y-24538514D01*
X40249691Y-24659459D01*
X40422421Y-24759671D01*
X40603825Y-24841127D01*
X40811412Y-24905808D01*
X41062689Y-24955692D01*
X41375163Y-24992760D01*
X41766342Y-25018990D01*
X42253734Y-25036361D01*
X42854845Y-25046854D01*
X43587185Y-25052446D01*
X44468259Y-25055118D01*
X44640500Y-25055436D01*
X48006000Y-25061333D01*
X48006000Y-23198666D01*
X44822629Y-23198666D01*
X43953419Y-23198234D01*
X43236770Y-23195306D01*
X42655906Y-23187435D01*
X42194056Y-23172175D01*
X41834445Y-23147078D01*
X41560299Y-23109698D01*
X41354846Y-23057587D01*
X41201311Y-22988299D01*
X41082922Y-22899387D01*
X40982904Y-22788403D01*
X40884485Y-22652901D01*
X40862333Y-22620934D01*
X40604705Y-22160461D01*
X40434106Y-21633897D01*
X40338407Y-21000433D01*
X40324080Y-20809702D01*
X40324981Y-20068121D01*
X40418557Y-19395295D01*
X40597464Y-18809897D01*
X40854360Y-18330598D01*
X41181902Y-17976071D01*
X41513345Y-17785639D01*
X41678172Y-17756635D01*
X41997545Y-17732605D01*
X42456739Y-17714088D01*
X43041024Y-17701620D01*
X43735672Y-17695737D01*
X43989845Y-17695333D01*
X46228000Y-17695333D01*
X46228000Y-18796000D01*
X48006000Y-18796000D01*
X48006000Y-15917333D01*
X49360667Y-15917333D01*
X49360667Y-17695333D01*
X50546000Y-17695333D01*
X50546000Y-23198666D01*
X49360667Y-23198666D01*
X49360667Y-25061333D01*
X54356000Y-25061333D01*
X54356000Y-23198666D01*
X52408667Y-23198666D01*
X52408667Y-21251333D01*
X57912000Y-21251333D01*
X57912000Y-23198666D01*
X56049333Y-23198666D01*
X56049333Y-25061333D01*
X61044667Y-25061333D01*
X61044667Y-23293069D01*
X66802000Y-23293069D01*
X66802000Y-25061333D01*
X72220667Y-25061333D01*
X72220667Y-23198666D01*
X69511333Y-23198666D01*
X69511333Y-21251333D01*
X75184000Y-21251333D01*
X75184000Y-23198666D01*
X72390000Y-23198666D01*
X72390000Y-25061333D01*
X77893333Y-25061333D01*
X77893333Y-23292611D01*
X77491167Y-23266805D01*
X77089000Y-23241000D01*
X77040610Y-20616333D01*
X77023651Y-19779554D01*
X77004074Y-19092733D01*
X76978052Y-18536497D01*
X76941753Y-18091475D01*
X76891349Y-17738296D01*
X76823008Y-17457586D01*
X76732901Y-17229976D01*
X76617198Y-17036093D01*
X76472068Y-16856566D01*
X76293683Y-16672022D01*
X76252870Y-16632018D01*
X76073837Y-16462603D01*
X75905628Y-16324314D01*
X75729317Y-16213996D01*
X75525980Y-16128494D01*
X75276690Y-16064651D01*
X74962524Y-16019313D01*
X74564556Y-15989323D01*
X74063861Y-15971525D01*
X73441514Y-15962765D01*
X72678590Y-15959886D01*
X72220667Y-15959666D01*
X71465119Y-15959951D01*
X70858912Y-15961648D01*
X70382053Y-15966021D01*
X70014548Y-15974335D01*
X69736406Y-15987853D01*
X69527632Y-16007840D01*
X69368234Y-16035560D01*
X69238220Y-16072278D01*
X69117597Y-16119256D01*
X69021310Y-16161965D01*
X68649914Y-16381949D01*
X68304926Y-16673814D01*
X68237751Y-16745830D01*
X68079533Y-16934529D01*
X67950657Y-17118392D01*
X67847713Y-17317173D01*
X67767294Y-17550627D01*
X67705992Y-17838508D01*
X67660400Y-18200571D01*
X67627110Y-18656571D01*
X67602713Y-19226261D01*
X67583803Y-19929397D01*
X67570056Y-20616333D01*
X67521667Y-23241000D01*
X67161833Y-23267034D01*
X66802000Y-23293069D01*
X61044667Y-23293069D01*
X61044667Y-23198666D01*
X59774667Y-23198666D01*
X59774667Y-17695333D01*
X61044667Y-17695333D01*
X61044667Y-15917333D01*
X56049333Y-15917333D01*
X56049333Y-17695333D01*
X57912000Y-17695333D01*
X57912000Y-19473333D01*
X52408667Y-19473333D01*
X52408667Y-17695333D01*
X54356000Y-17695333D01*
X54356000Y-15917333D01*
X49360667Y-15917333D01*
X48006000Y-15917333D01*
X48006000Y-15910410D01*
X44428833Y-15935038D01*
X40851667Y-15959666D01*
X40403915Y-16207725D01*
X39862186Y-16600360D01*
X39386913Y-17131538D01*
X38993015Y-17778505D01*
X38695412Y-18518504D01*
X38566635Y-19010095D01*
X38486705Y-19556474D01*
X38448539Y-20198392D01*
X33528000Y-20198392D01*
X33528000Y-17695333D01*
X36237333Y-17695333D01*
X36237333Y-18796000D01*
X38015333Y-18796000D01*
X38015333Y-15917333D01*
X27093333Y-15917333D01*
X26246667Y-15917333D01*
X22736176Y-15917333D01*
X21867314Y-15917744D01*
X21150551Y-15919464D01*
X20568654Y-15923223D01*
X20104390Y-15929752D01*
X19740525Y-15939782D01*
X19459826Y-15954044D01*
X19245060Y-15973267D01*
X19078994Y-15998183D01*
X18944394Y-16029523D01*
X18824028Y-16068016D01*
X18777069Y-16085182D01*
X18308342Y-16333523D01*
X17886947Y-16691163D01*
X17569105Y-17108679D01*
X17529446Y-17181993D01*
X17319537Y-17759866D01*
X17222998Y-18407794D01*
X17240971Y-19070085D01*
X17374595Y-19691046D01*
X17472924Y-19942513D01*
X17663650Y-20357647D01*
X17404325Y-20860267D01*
X17283899Y-21107511D01*
X17207788Y-21318577D01*
X17165960Y-21545964D01*
X17148380Y-21842172D01*
X17145000Y-22217276D01*
X6099442Y-22217276D01*
X6100178Y-21547678D01*
X6102379Y-20048435D01*
X6105091Y-18600363D01*
X6108316Y-17212651D01*
X6112056Y-15894486D01*
X6116312Y-14655055D01*
X6121088Y-13503547D01*
X6126385Y-12449149D01*
X6132206Y-11501049D01*
X6138551Y-10668435D01*
X6145424Y-9960493D01*
X6152827Y-9386413D01*
X6160761Y-8955381D01*
X6169228Y-8676585D01*
X6176609Y-8567755D01*
X6359886Y-7840533D01*
X6681616Y-7171528D01*
X7123678Y-6588855D01*
X7667952Y-6120626D01*
X7814283Y-6026895D01*
X7877482Y-5985698D01*
X7929235Y-5946717D01*
X7974163Y-5909890D01*
X8016888Y-5875156D01*
X8062035Y-5842454D01*
X8114224Y-5811723D01*
X8178078Y-5782903D01*
X8258221Y-5755932D01*
X8359273Y-5730749D01*
X8485859Y-5707293D01*
X8642599Y-5685504D01*
X8834117Y-5665320D01*
X9065035Y-5646680D01*
X9339976Y-5629524D01*
X9663562Y-5613790D01*
X10040415Y-5599417D01*
X10475158Y-5586345D01*
X10972414Y-5574512D01*
X11536804Y-5563858D01*
X12172952Y-5554321D01*
X12885479Y-5545841D01*
X13679008Y-5538356D01*
X14558163Y-5531806D01*
X15527564Y-5526129D01*
X16591835Y-5521265D01*
X17755598Y-5517152D01*
X19023475Y-5513730D01*
X20400089Y-5510938D01*
X21890063Y-5508714D01*
X23498018Y-5506999D01*
X25228578Y-5505729D01*
X27086365Y-5504846D01*
X29076000Y-5504287D01*
X31202108Y-5503992D01*
X33469309Y-5503900D01*
X35882228Y-5503949D01*
G36*
X85147134Y-58095735D02*
X85559983Y-58124912D01*
X85879014Y-58178417D01*
X86179644Y-58274760D01*
X86537286Y-58432451D01*
X86556926Y-58441759D01*
X87238318Y-58847116D01*
X87817133Y-59357037D01*
X88281615Y-59950563D01*
X88620004Y-60606731D01*
X88820542Y-61304580D01*
X88871472Y-62023148D01*
X88821212Y-62478338D01*
X88595152Y-63259385D01*
X88227092Y-63961470D01*
X87731893Y-64569408D01*
X87124421Y-65068013D01*
X86419537Y-65442099D01*
X85705510Y-65661601D01*
X85164903Y-65752146D01*
X84689201Y-65768448D01*
X84191030Y-65710319D01*
X83926905Y-65657805D01*
X83180042Y-65412550D01*
X82501321Y-65026577D01*
X81910034Y-64519771D01*
X81425473Y-63912016D01*
X81066932Y-63223199D01*
X80857360Y-62493955D01*
X80811777Y-61776700D01*
X80920269Y-61059419D01*
X81169504Y-60367549D01*
X81546149Y-59726530D01*
X82036873Y-59161799D01*
X82628342Y-58698797D01*
X82938532Y-58522965D01*
X83547162Y-58270137D01*
X84170139Y-58128605D01*
X84863030Y-58087621D01*
X85147134Y-58095735D01*
X85147134Y-58095735D01*
G37*
X85147134Y-58095735D02*
X85559983Y-58124912D01*
X85879014Y-58178417D01*
X86179644Y-58274760D01*
X86537286Y-58432451D01*
X86556926Y-58441759D01*
X87238318Y-58847116D01*
X87817133Y-59357037D01*
X88281615Y-59950563D01*
X88620004Y-60606731D01*
X88820542Y-61304580D01*
X88871472Y-62023148D01*
X88821212Y-62478338D01*
X88595152Y-63259385D01*
X88227092Y-63961470D01*
X87731893Y-64569408D01*
X87124421Y-65068013D01*
X86419537Y-65442099D01*
X85705510Y-65661601D01*
X85164903Y-65752146D01*
X84689201Y-65768448D01*
X84191030Y-65710319D01*
X83926905Y-65657805D01*
X83180042Y-65412550D01*
X82501321Y-65026577D01*
X81910034Y-64519771D01*
X81425473Y-63912016D01*
X81066932Y-63223199D01*
X80857360Y-62493955D01*
X80811777Y-61776700D01*
X80920269Y-61059419D01*
X81169504Y-60367549D01*
X81546149Y-59726530D01*
X82036873Y-59161799D01*
X82628342Y-58698797D01*
X82938532Y-58522965D01*
X83547162Y-58270137D01*
X84170139Y-58128605D01*
X84863030Y-58087621D01*
X85147134Y-58095735D01*
G36*
X10433796Y-58125950D02*
X10752870Y-58136131D01*
X10993166Y-58163543D01*
X11199960Y-58216443D01*
X11418529Y-58303087D01*
X11694150Y-58431730D01*
X11706483Y-58437618D01*
X12421547Y-58864655D01*
X13020226Y-59400928D01*
X13490708Y-60031245D01*
X13821179Y-60740411D01*
X13977496Y-61358446D01*
X14019282Y-62105766D01*
X13905085Y-62831160D01*
X13648216Y-63516253D01*
X13261986Y-64142667D01*
X12759708Y-64692028D01*
X12154694Y-65145959D01*
X11460255Y-65486085D01*
X10860177Y-65661601D01*
X10319570Y-65752146D01*
X9843868Y-65768448D01*
X9345697Y-65710319D01*
X9081571Y-65657805D01*
X8349775Y-65420092D01*
X7689364Y-65051721D01*
X7114777Y-64572751D01*
X6640449Y-64003238D01*
X6280818Y-63363241D01*
X6050321Y-62672818D01*
X5963396Y-61952025D01*
X6004395Y-61382580D01*
X6210150Y-60617579D01*
X6565253Y-59918580D01*
X7057210Y-59301779D01*
X7673527Y-58783370D01*
X8277646Y-58436052D01*
X8556040Y-58306988D01*
X8776775Y-58219798D01*
X8985262Y-58166232D01*
X9226909Y-58138035D01*
X9547126Y-58126957D01*
X9990667Y-58124745D01*
X10433796Y-58125950D01*
X10433796Y-58125950D01*
G37*
X10433796Y-58125950D02*
X10752870Y-58136131D01*
X10993166Y-58163543D01*
X11199960Y-58216443D01*
X11418529Y-58303087D01*
X11694150Y-58431730D01*
X11706483Y-58437618D01*
X12421547Y-58864655D01*
X13020226Y-59400928D01*
X13490708Y-60031245D01*
X13821179Y-60740411D01*
X13977496Y-61358446D01*
X14019282Y-62105766D01*
X13905085Y-62831160D01*
X13648216Y-63516253D01*
X13261986Y-64142667D01*
X12759708Y-64692028D01*
X12154694Y-65145959D01*
X11460255Y-65486085D01*
X10860177Y-65661601D01*
X10319570Y-65752146D01*
X9843868Y-65768448D01*
X9345697Y-65710319D01*
X9081571Y-65657805D01*
X8349775Y-65420092D01*
X7689364Y-65051721D01*
X7114777Y-64572751D01*
X6640449Y-64003238D01*
X6280818Y-63363241D01*
X6050321Y-62672818D01*
X5963396Y-61952025D01*
X6004395Y-61382580D01*
X6210150Y-60617579D01*
X6565253Y-59918580D01*
X7057210Y-59301779D01*
X7673527Y-58783370D01*
X8277646Y-58436052D01*
X8556040Y-58306988D01*
X8776775Y-58219798D01*
X8985262Y-58166232D01*
X9226909Y-58138035D01*
X9547126Y-58126957D01*
X9990667Y-58124745D01*
X10433796Y-58125950D01*
G36*
X93641333Y-68072000D02*
X338667Y-68072000D01*
X338667Y-61581279D01*
X4849421Y-61581279D01*
X4865867Y-62439577D01*
X5039931Y-63291777D01*
X5333438Y-64036360D01*
X5794162Y-64785911D01*
X6386184Y-65449918D01*
X7084997Y-66009152D01*
X7866093Y-66444386D01*
X8704965Y-66736393D01*
X8805333Y-66760216D01*
X9347157Y-66837384D01*
X9978974Y-66856689D01*
X10632708Y-66820995D01*
X11240285Y-66733169D01*
X11600627Y-66642536D01*
X12374658Y-66318930D01*
X13096782Y-65862880D01*
X13742251Y-65298484D01*
X14286316Y-64649842D01*
X14704228Y-63941052D01*
X14908632Y-63421440D01*
X15104940Y-62525283D01*
X15136634Y-61636577D01*
X15130096Y-61592708D01*
X79699849Y-61592708D01*
X79715033Y-62485019D01*
X79885659Y-63316974D01*
X80214604Y-64095980D01*
X80704745Y-64829444D01*
X81149369Y-65323812D01*
X81882016Y-65945082D01*
X82678163Y-66412997D01*
X83526171Y-66724302D01*
X84414403Y-66875743D01*
X85331220Y-66864065D01*
X86140204Y-66719412D01*
X86825848Y-66500988D01*
X87425513Y-66207614D01*
X87988249Y-65810526D01*
X88520969Y-65323425D01*
X88979611Y-64829201D01*
X89320400Y-64370120D01*
X89572419Y-63897164D01*
X89764752Y-63361313D01*
X89833183Y-63111766D01*
X89979320Y-62214969D01*
X89960268Y-61333883D01*
X89780171Y-60483282D01*
X89443170Y-59677938D01*
X88953409Y-58932624D01*
X88529315Y-58461813D01*
X87801735Y-57852024D01*
X87017877Y-57401373D01*
X86171002Y-57107075D01*
X85254372Y-56966345D01*
X84878333Y-56952495D01*
X84242463Y-56974416D01*
X83682838Y-57059667D01*
X83132722Y-57223559D01*
X82525378Y-57481406D01*
X82480551Y-57502629D01*
X81720621Y-57955280D01*
X81060504Y-58533146D01*
X80514011Y-59215915D01*
X80094949Y-59983274D01*
X79817130Y-60814910D01*
X79699849Y-61592708D01*
X15130096Y-61592708D01*
X15007678Y-60771351D01*
X14722040Y-59945634D01*
X14283685Y-59175456D01*
X13696580Y-58476846D01*
X13681425Y-58461813D01*
X12962905Y-57855336D01*
X12191854Y-57407785D01*
X11357760Y-57114870D01*
X10450110Y-56972303D01*
X9990667Y-56956013D01*
X9045779Y-57028020D01*
X8181063Y-57247144D01*
X7385151Y-57618043D01*
X6646677Y-58145375D01*
X6293600Y-58470977D01*
X5712684Y-59161734D01*
X5276141Y-59923165D01*
X4987283Y-60736078D01*
X4849421Y-61581279D01*
X338667Y-61581279D01*
X338667Y-25431594D01*
X4657765Y-25431594D01*
X4657845Y-27531230D01*
X4657918Y-28779043D01*
X4657946Y-31002668D01*
X4657850Y-33063428D01*
X4657784Y-34967790D01*
X4657903Y-36722221D01*
X4658363Y-38333189D01*
X4659318Y-39807162D01*
X4660923Y-41150606D01*
X4663333Y-42369990D01*
X4666703Y-43471781D01*
X4671187Y-44462447D01*
X4676941Y-45348454D01*
X4684119Y-46136271D01*
X4692876Y-46832366D01*
X4703368Y-47443204D01*
X4715748Y-47975255D01*
X4730172Y-48434986D01*
X4746795Y-48828863D01*
X4765771Y-49163355D01*
X4787256Y-49444930D01*
X4811404Y-49680053D01*
X4838371Y-49875195D01*
X4868310Y-50036820D01*
X4901377Y-50171398D01*
X4937727Y-50285396D01*
X4977515Y-50385281D01*
X5020895Y-50477520D01*
X5068022Y-50568582D01*
X5119052Y-50664934D01*
X5174139Y-50773043D01*
X5185113Y-50795522D01*
X5467031Y-51260948D01*
X5859312Y-51750636D01*
X6319548Y-52221985D01*
X6805330Y-52632393D01*
X7274248Y-52939261D01*
X7366000Y-52986267D01*
X7727361Y-53145553D01*
X8110564Y-53290603D01*
X8382000Y-53375568D01*
X8435015Y-53385389D01*
X8520647Y-53394670D01*
X8643337Y-53403423D01*
X8807527Y-53411662D01*
X9017660Y-53419397D01*
X9278176Y-53426642D01*
X9593518Y-53433408D01*
X9968127Y-53439707D01*
X10406446Y-53445553D01*
X10912916Y-53450955D01*
X11491979Y-53455928D01*
X12148077Y-53460483D01*
X12885652Y-53464632D01*
X13709145Y-53468388D01*
X14622998Y-53471762D01*
X15631654Y-53474767D01*
X16739554Y-53477415D01*
X17951140Y-53479717D01*
X19270853Y-53481687D01*
X20703136Y-53483336D01*
X22252431Y-53484677D01*
X23923178Y-53485721D01*
X25719821Y-53486482D01*
X27646801Y-53486970D01*
X29708560Y-53487198D01*
X31909539Y-53487178D01*
X34254180Y-53486923D01*
X36746926Y-53486444D01*
X39392218Y-53485754D01*
X42194498Y-53484865D01*
X45158208Y-53483789D01*
X47582667Y-53482829D01*
X86317667Y-53467000D01*
X86844529Y-53269505D01*
X87647922Y-52884915D01*
X88373314Y-52371620D01*
X89000227Y-51750692D01*
X89508188Y-51043203D01*
X89876718Y-50270226D01*
X89940091Y-50083849D01*
X90127667Y-49487666D01*
X90127667Y-28744333D01*
X90127637Y-26530587D01*
X90127518Y-24479791D01*
X90127260Y-22585562D01*
X90126815Y-20841516D01*
X90126136Y-19241271D01*
X90125174Y-17778442D01*
X90123881Y-16446646D01*
X90122209Y-15239501D01*
X90120110Y-14150622D01*
X90117536Y-13173628D01*
X90114438Y-12302133D01*
X90110768Y-11529755D01*
X90106479Y-10850111D01*
X90101522Y-10256817D01*
X90095850Y-9743490D01*
X90089413Y-9303746D01*
X90082164Y-8931203D01*
X90074055Y-8619477D01*
X90065038Y-8362185D01*
X90055064Y-8152943D01*
X90044086Y-7985368D01*
X90032055Y-7853077D01*
X90018923Y-7749687D01*
X90004642Y-7668813D01*
X89989164Y-7604074D01*
X89972441Y-7549085D01*
X89967792Y-7535333D01*
X89582205Y-6649047D01*
X89075141Y-5880450D01*
X88448269Y-5231235D01*
X87703260Y-4703097D01*
X86841784Y-4297728D01*
X86737771Y-4259923D01*
X86063667Y-4021666D01*
X47794333Y-3999706D01*
X44719736Y-3997993D01*
X41809961Y-3996486D01*
X39060498Y-3995197D01*
X36466835Y-3994137D01*
X34024462Y-3993320D01*
X31728869Y-3992755D01*
X29575544Y-3992456D01*
X27559976Y-3992434D01*
X25677655Y-3992701D01*
X23924069Y-3993268D01*
X22294709Y-3994147D01*
X20785062Y-3995351D01*
X19390619Y-3996891D01*
X18106869Y-3998779D01*
X16929300Y-4001026D01*
X15853402Y-4003645D01*
X14874664Y-4006646D01*
X13988576Y-4010043D01*
X13190625Y-4013847D01*
X12476302Y-4018069D01*
X11841096Y-4022722D01*
X11280496Y-4027817D01*
X10789991Y-4033366D01*
X10365070Y-4039381D01*
X10001223Y-4045873D01*
X9693938Y-4052855D01*
X9438705Y-4060338D01*
X9231013Y-4068334D01*
X9066351Y-4076855D01*
X8940208Y-4085913D01*
X8848074Y-4095519D01*
X8806287Y-4101715D01*
X7937778Y-4333515D01*
X7137336Y-4709454D01*
X6421344Y-5214539D01*
X5806190Y-5833780D01*
X5308259Y-6552182D01*
X4943938Y-7354756D01*
X4827212Y-7742261D01*
X4808863Y-7816019D01*
X4791881Y-7892672D01*
X4776212Y-7978732D01*
X4761804Y-8080710D01*
X4748605Y-8205119D01*
X4736563Y-8358469D01*
X4725624Y-8547273D01*
X4715737Y-8778043D01*
X4706849Y-9057289D01*
X4698908Y-9391524D01*
X4691861Y-9787259D01*
X4685656Y-10251006D01*
X4680240Y-10789276D01*
X4675562Y-11408582D01*
X4671569Y-12115434D01*
X4668207Y-12916345D01*
X4665426Y-13817825D01*
X4663172Y-14826388D01*
X4661394Y-15948544D01*
X4660038Y-17190805D01*
X4659052Y-18559683D01*
X4658385Y-20061689D01*
X4657983Y-21703335D01*
X4657794Y-23491133D01*
X4657765Y-25431594D01*
X338667Y-25431594D01*
X338667Y-508000D01*
X93641333Y-508000D01*
X93641333Y-68072000D01*
X93641333Y-68072000D01*
G37*
X93641333Y-68072000D02*
X338667Y-68072000D01*
X338667Y-61581279D01*
X4849421Y-61581279D01*
X4865867Y-62439577D01*
X5039931Y-63291777D01*
X5333438Y-64036360D01*
X5794162Y-64785911D01*
X6386184Y-65449918D01*
X7084997Y-66009152D01*
X7866093Y-66444386D01*
X8704965Y-66736393D01*
X8805333Y-66760216D01*
X9347157Y-66837384D01*
X9978974Y-66856689D01*
X10632708Y-66820995D01*
X11240285Y-66733169D01*
X11600627Y-66642536D01*
X12374658Y-66318930D01*
X13096782Y-65862880D01*
X13742251Y-65298484D01*
X14286316Y-64649842D01*
X14704228Y-63941052D01*
X14908632Y-63421440D01*
X15104940Y-62525283D01*
X15136634Y-61636577D01*
X15130096Y-61592708D01*
X79699849Y-61592708D01*
X79715033Y-62485019D01*
X79885659Y-63316974D01*
X80214604Y-64095980D01*
X80704745Y-64829444D01*
X81149369Y-65323812D01*
X81882016Y-65945082D01*
X82678163Y-66412997D01*
X83526171Y-66724302D01*
X84414403Y-66875743D01*
X85331220Y-66864065D01*
X86140204Y-66719412D01*
X86825848Y-66500988D01*
X87425513Y-66207614D01*
X87988249Y-65810526D01*
X88520969Y-65323425D01*
X88979611Y-64829201D01*
X89320400Y-64370120D01*
X89572419Y-63897164D01*
X89764752Y-63361313D01*
X89833183Y-63111766D01*
X89979320Y-62214969D01*
X89960268Y-61333883D01*
X89780171Y-60483282D01*
X89443170Y-59677938D01*
X88953409Y-58932624D01*
X88529315Y-58461813D01*
X87801735Y-57852024D01*
X87017877Y-57401373D01*
X86171002Y-57107075D01*
X85254372Y-56966345D01*
X84878333Y-56952495D01*
X84242463Y-56974416D01*
X83682838Y-57059667D01*
X83132722Y-57223559D01*
X82525378Y-57481406D01*
X82480551Y-57502629D01*
X81720621Y-57955280D01*
X81060504Y-58533146D01*
X80514011Y-59215915D01*
X80094949Y-59983274D01*
X79817130Y-60814910D01*
X79699849Y-61592708D01*
X15130096Y-61592708D01*
X15007678Y-60771351D01*
X14722040Y-59945634D01*
X14283685Y-59175456D01*
X13696580Y-58476846D01*
X13681425Y-58461813D01*
X12962905Y-57855336D01*
X12191854Y-57407785D01*
X11357760Y-57114870D01*
X10450110Y-56972303D01*
X9990667Y-56956013D01*
X9045779Y-57028020D01*
X8181063Y-57247144D01*
X7385151Y-57618043D01*
X6646677Y-58145375D01*
X6293600Y-58470977D01*
X5712684Y-59161734D01*
X5276141Y-59923165D01*
X4987283Y-60736078D01*
X4849421Y-61581279D01*
X338667Y-61581279D01*
X338667Y-25431594D01*
X4657765Y-25431594D01*
X4657845Y-27531230D01*
X4657918Y-28779043D01*
X4657946Y-31002668D01*
X4657850Y-33063428D01*
X4657784Y-34967790D01*
X4657903Y-36722221D01*
X4658363Y-38333189D01*
X4659318Y-39807162D01*
X4660923Y-41150606D01*
X4663333Y-42369990D01*
X4666703Y-43471781D01*
X4671187Y-44462447D01*
X4676941Y-45348454D01*
X4684119Y-46136271D01*
X4692876Y-46832366D01*
X4703368Y-47443204D01*
X4715748Y-47975255D01*
X4730172Y-48434986D01*
X4746795Y-48828863D01*
X4765771Y-49163355D01*
X4787256Y-49444930D01*
X4811404Y-49680053D01*
X4838371Y-49875195D01*
X4868310Y-50036820D01*
X4901377Y-50171398D01*
X4937727Y-50285396D01*
X4977515Y-50385281D01*
X5020895Y-50477520D01*
X5068022Y-50568582D01*
X5119052Y-50664934D01*
X5174139Y-50773043D01*
X5185113Y-50795522D01*
X5467031Y-51260948D01*
X5859312Y-51750636D01*
X6319548Y-52221985D01*
X6805330Y-52632393D01*
X7274248Y-52939261D01*
X7366000Y-52986267D01*
X7727361Y-53145553D01*
X8110564Y-53290603D01*
X8382000Y-53375568D01*
X8435015Y-53385389D01*
X8520647Y-53394670D01*
X8643337Y-53403423D01*
X8807527Y-53411662D01*
X9017660Y-53419397D01*
X9278176Y-53426642D01*
X9593518Y-53433408D01*
X9968127Y-53439707D01*
X10406446Y-53445553D01*
X10912916Y-53450955D01*
X11491979Y-53455928D01*
X12148077Y-53460483D01*
X12885652Y-53464632D01*
X13709145Y-53468388D01*
X14622998Y-53471762D01*
X15631654Y-53474767D01*
X16739554Y-53477415D01*
X17951140Y-53479717D01*
X19270853Y-53481687D01*
X20703136Y-53483336D01*
X22252431Y-53484677D01*
X23923178Y-53485721D01*
X25719821Y-53486482D01*
X27646801Y-53486970D01*
X29708560Y-53487198D01*
X31909539Y-53487178D01*
X34254180Y-53486923D01*
X36746926Y-53486444D01*
X39392218Y-53485754D01*
X42194498Y-53484865D01*
X45158208Y-53483789D01*
X47582667Y-53482829D01*
X86317667Y-53467000D01*
X86844529Y-53269505D01*
X87647922Y-52884915D01*
X88373314Y-52371620D01*
X89000227Y-51750692D01*
X89508188Y-51043203D01*
X89876718Y-50270226D01*
X89940091Y-50083849D01*
X90127667Y-49487666D01*
X90127667Y-28744333D01*
X90127637Y-26530587D01*
X90127518Y-24479791D01*
X90127260Y-22585562D01*
X90126815Y-20841516D01*
X90126136Y-19241271D01*
X90125174Y-17778442D01*
X90123881Y-16446646D01*
X90122209Y-15239501D01*
X90120110Y-14150622D01*
X90117536Y-13173628D01*
X90114438Y-12302133D01*
X90110768Y-11529755D01*
X90106479Y-10850111D01*
X90101522Y-10256817D01*
X90095850Y-9743490D01*
X90089413Y-9303746D01*
X90082164Y-8931203D01*
X90074055Y-8619477D01*
X90065038Y-8362185D01*
X90055064Y-8152943D01*
X90044086Y-7985368D01*
X90032055Y-7853077D01*
X90018923Y-7749687D01*
X90004642Y-7668813D01*
X89989164Y-7604074D01*
X89972441Y-7549085D01*
X89967792Y-7535333D01*
X89582205Y-6649047D01*
X89075141Y-5880450D01*
X88448269Y-5231235D01*
X87703260Y-4703097D01*
X86841784Y-4297728D01*
X86737771Y-4259923D01*
X86063667Y-4021666D01*
X47794333Y-3999706D01*
X44719736Y-3997993D01*
X41809961Y-3996486D01*
X39060498Y-3995197D01*
X36466835Y-3994137D01*
X34024462Y-3993320D01*
X31728869Y-3992755D01*
X29575544Y-3992456D01*
X27559976Y-3992434D01*
X25677655Y-3992701D01*
X23924069Y-3993268D01*
X22294709Y-3994147D01*
X20785062Y-3995351D01*
X19390619Y-3996891D01*
X18106869Y-3998779D01*
X16929300Y-4001026D01*
X15853402Y-4003645D01*
X14874664Y-4006646D01*
X13988576Y-4010043D01*
X13190625Y-4013847D01*
X12476302Y-4018069D01*
X11841096Y-4022722D01*
X11280496Y-4027817D01*
X10789991Y-4033366D01*
X10365070Y-4039381D01*
X10001223Y-4045873D01*
X9693938Y-4052855D01*
X9438705Y-4060338D01*
X9231013Y-4068334D01*
X9066351Y-4076855D01*
X8940208Y-4085913D01*
X8848074Y-4095519D01*
X8806287Y-4101715D01*
X7937778Y-4333515D01*
X7137336Y-4709454D01*
X6421344Y-5214539D01*
X5806190Y-5833780D01*
X5308259Y-6552182D01*
X4943938Y-7354756D01*
X4827212Y-7742261D01*
X4808863Y-7816019D01*
X4791881Y-7892672D01*
X4776212Y-7978732D01*
X4761804Y-8080710D01*
X4748605Y-8205119D01*
X4736563Y-8358469D01*
X4725624Y-8547273D01*
X4715737Y-8778043D01*
X4706849Y-9057289D01*
X4698908Y-9391524D01*
X4691861Y-9787259D01*
X4685656Y-10251006D01*
X4680240Y-10789276D01*
X4675562Y-11408582D01*
X4671569Y-12115434D01*
X4668207Y-12916345D01*
X4665426Y-13817825D01*
X4663172Y-14826388D01*
X4661394Y-15948544D01*
X4660038Y-17190805D01*
X4659052Y-18559683D01*
X4658385Y-20061689D01*
X4657983Y-21703335D01*
X4657794Y-23491133D01*
X4657765Y-25431594D01*
X338667Y-25431594D01*
X338667Y-508000D01*
X93641333Y-508000D01*
X93641333Y-68072000D01*
G04 #@! TD*
M02*
