G04 #@! TF.GenerationSoftware,KiCad,Pcbnew,(5.0.0)*
G04 #@! TF.CreationDate,2018-12-10T19:12:12-05:00*
G04 #@! TF.ProjectId,name_tag,6E616D655F7461672E6B696361645F70,rev?*
G04 #@! TF.SameCoordinates,Original*
G04 #@! TF.FileFunction,Legend,Top*
G04 #@! TF.FilePolarity,Positive*
%FSLAX46Y46*%
G04 Gerber Fmt 4.6, Leading zero omitted, Abs format (unit mm)*
G04 Created by KiCad (PCBNEW (5.0.0)) date 12/10/18 19:12:12*
%MOMM*%
%LPD*%
G01*
G04 APERTURE LIST*
%ADD10C,0.010000*%
G04 APERTURE END LIST*
D10*
G04 #@! TO.C,G\002A\002A\002A*
G36*
X63856260Y-19942212D02*
X64356811Y-19955696D01*
X64694419Y-19985220D01*
X64914593Y-20036553D01*
X65062842Y-20115464D01*
X65151000Y-20193000D01*
X65325624Y-20468874D01*
X65407315Y-20801211D01*
X65393807Y-21108094D01*
X65282839Y-21307605D01*
X65182750Y-21341830D01*
X64264423Y-21361390D01*
X63381597Y-21371825D01*
X62569964Y-21373503D01*
X61865216Y-21366792D01*
X61303045Y-21352061D01*
X60919143Y-21329679D01*
X60749201Y-21300013D01*
X60744898Y-21296009D01*
X60723071Y-21111409D01*
X60755062Y-20798527D01*
X60761981Y-20759909D01*
X60842646Y-20461371D01*
X60980241Y-20244452D01*
X61211524Y-20096501D01*
X61573256Y-20004867D01*
X62102195Y-19956900D01*
X62835102Y-19939947D01*
X63147258Y-19939000D01*
X63856260Y-19942212D01*
X63856260Y-19942212D01*
G37*
X63856260Y-19942212D02*
X64356811Y-19955696D01*
X64694419Y-19985220D01*
X64914593Y-20036553D01*
X65062842Y-20115464D01*
X65151000Y-20193000D01*
X65325624Y-20468874D01*
X65407315Y-20801211D01*
X65393807Y-21108094D01*
X65282839Y-21307605D01*
X65182750Y-21341830D01*
X64264423Y-21361390D01*
X63381597Y-21371825D01*
X62569964Y-21373503D01*
X61865216Y-21366792D01*
X61303045Y-21352061D01*
X60919143Y-21329679D01*
X60749201Y-21300013D01*
X60744898Y-21296009D01*
X60723071Y-21111409D01*
X60755062Y-20798527D01*
X60761981Y-20759909D01*
X60842646Y-20461371D01*
X60980241Y-20244452D01*
X61211524Y-20096501D01*
X61573256Y-20004867D01*
X62102195Y-19956900D01*
X62835102Y-19939947D01*
X63147258Y-19939000D01*
X63856260Y-19942212D01*
G36*
X59904155Y-19386035D02*
X59880500Y-19431000D01*
X59760838Y-19552285D01*
X59738509Y-19558000D01*
X59729844Y-19475964D01*
X59753500Y-19431000D01*
X59873161Y-19309714D01*
X59895490Y-19304000D01*
X59904155Y-19386035D01*
X59904155Y-19386035D01*
G37*
X59904155Y-19386035D02*
X59880500Y-19431000D01*
X59760838Y-19552285D01*
X59738509Y-19558000D01*
X59729844Y-19475964D01*
X59753500Y-19431000D01*
X59873161Y-19309714D01*
X59895490Y-19304000D01*
X59904155Y-19386035D01*
G36*
X59647666Y-19727333D02*
X59662866Y-19878052D01*
X59647666Y-19896666D01*
X59572165Y-19879233D01*
X59563000Y-19812000D01*
X59609467Y-19707464D01*
X59647666Y-19727333D01*
X59647666Y-19727333D01*
G37*
X59647666Y-19727333D02*
X59662866Y-19878052D01*
X59647666Y-19896666D01*
X59572165Y-19879233D01*
X59563000Y-19812000D01*
X59609467Y-19707464D01*
X59647666Y-19727333D01*
G36*
X64087654Y-19071590D02*
X64839872Y-19112438D01*
X65404050Y-19215505D01*
X65808586Y-19409419D01*
X66081878Y-19722807D01*
X66252323Y-20184294D01*
X66348319Y-20822508D01*
X66398263Y-21666076D01*
X66421000Y-22392973D01*
X66444666Y-23210927D01*
X66467486Y-23811241D01*
X66494666Y-24230206D01*
X66531415Y-24504110D01*
X66582939Y-24669242D01*
X66654446Y-24761892D01*
X66751143Y-24818349D01*
X66770250Y-24826865D01*
X66989960Y-24981384D01*
X67056000Y-25112615D01*
X66990702Y-25181040D01*
X66775366Y-25228455D01*
X66380832Y-25257590D01*
X65777938Y-25271171D01*
X65341500Y-25273000D01*
X64639026Y-25268981D01*
X64153497Y-25254186D01*
X63847943Y-25224508D01*
X63685397Y-25175838D01*
X63628891Y-25104070D01*
X63627000Y-25082500D01*
X63671542Y-24989562D01*
X63834108Y-24931673D01*
X64158104Y-24901597D01*
X64686938Y-24892100D01*
X64770000Y-24892000D01*
X65913000Y-24892000D01*
X65913000Y-22352000D01*
X60325000Y-22352000D01*
X60325000Y-24892000D01*
X61390912Y-24892000D01*
X61951176Y-24903315D01*
X62300749Y-24941839D01*
X62482124Y-25014443D01*
X62527321Y-25075711D01*
X62519383Y-25151505D01*
X62405057Y-25206480D01*
X62149613Y-25245318D01*
X61718320Y-25272702D01*
X61076447Y-25293315D01*
X60878901Y-25297961D01*
X60245788Y-25308378D01*
X59709760Y-25310042D01*
X59318902Y-25303344D01*
X59121300Y-25288674D01*
X59107492Y-25283583D01*
X59069195Y-25115058D01*
X59279120Y-24931110D01*
X59404250Y-24865790D01*
X59753500Y-24698720D01*
X59817000Y-22391185D01*
X59851627Y-21387376D01*
X59880938Y-21012435D01*
X60325000Y-21012435D01*
X60325000Y-21844000D01*
X65942589Y-21844000D01*
X65889812Y-21015154D01*
X65841100Y-20523325D01*
X65751985Y-20197254D01*
X65592611Y-19948919D01*
X65491343Y-19840404D01*
X65345853Y-19702500D01*
X65201163Y-19607226D01*
X65009735Y-19546738D01*
X64724033Y-19513191D01*
X64296519Y-19498741D01*
X63679656Y-19495542D01*
X63402075Y-19495635D01*
X62561934Y-19499854D01*
X61934720Y-19515234D01*
X61479412Y-19547730D01*
X61154990Y-19603300D01*
X60920433Y-19687899D01*
X60734720Y-19807485D01*
X60630044Y-19898166D01*
X60459844Y-20092382D01*
X60367132Y-20327760D01*
X60329891Y-20684725D01*
X60325000Y-21012435D01*
X59880938Y-21012435D01*
X59912484Y-20608922D01*
X60027989Y-20027190D01*
X60226564Y-19613545D01*
X60536630Y-19339354D01*
X60986606Y-19175981D01*
X61604913Y-19094793D01*
X62419972Y-19067154D01*
X63119000Y-19064336D01*
X64087654Y-19071590D01*
X64087654Y-19071590D01*
G37*
X64087654Y-19071590D02*
X64839872Y-19112438D01*
X65404050Y-19215505D01*
X65808586Y-19409419D01*
X66081878Y-19722807D01*
X66252323Y-20184294D01*
X66348319Y-20822508D01*
X66398263Y-21666076D01*
X66421000Y-22392973D01*
X66444666Y-23210927D01*
X66467486Y-23811241D01*
X66494666Y-24230206D01*
X66531415Y-24504110D01*
X66582939Y-24669242D01*
X66654446Y-24761892D01*
X66751143Y-24818349D01*
X66770250Y-24826865D01*
X66989960Y-24981384D01*
X67056000Y-25112615D01*
X66990702Y-25181040D01*
X66775366Y-25228455D01*
X66380832Y-25257590D01*
X65777938Y-25271171D01*
X65341500Y-25273000D01*
X64639026Y-25268981D01*
X64153497Y-25254186D01*
X63847943Y-25224508D01*
X63685397Y-25175838D01*
X63628891Y-25104070D01*
X63627000Y-25082500D01*
X63671542Y-24989562D01*
X63834108Y-24931673D01*
X64158104Y-24901597D01*
X64686938Y-24892100D01*
X64770000Y-24892000D01*
X65913000Y-24892000D01*
X65913000Y-22352000D01*
X60325000Y-22352000D01*
X60325000Y-24892000D01*
X61390912Y-24892000D01*
X61951176Y-24903315D01*
X62300749Y-24941839D01*
X62482124Y-25014443D01*
X62527321Y-25075711D01*
X62519383Y-25151505D01*
X62405057Y-25206480D01*
X62149613Y-25245318D01*
X61718320Y-25272702D01*
X61076447Y-25293315D01*
X60878901Y-25297961D01*
X60245788Y-25308378D01*
X59709760Y-25310042D01*
X59318902Y-25303344D01*
X59121300Y-25288674D01*
X59107492Y-25283583D01*
X59069195Y-25115058D01*
X59279120Y-24931110D01*
X59404250Y-24865790D01*
X59753500Y-24698720D01*
X59817000Y-22391185D01*
X59851627Y-21387376D01*
X59880938Y-21012435D01*
X60325000Y-21012435D01*
X60325000Y-21844000D01*
X65942589Y-21844000D01*
X65889812Y-21015154D01*
X65841100Y-20523325D01*
X65751985Y-20197254D01*
X65592611Y-19948919D01*
X65491343Y-19840404D01*
X65345853Y-19702500D01*
X65201163Y-19607226D01*
X65009735Y-19546738D01*
X64724033Y-19513191D01*
X64296519Y-19498741D01*
X63679656Y-19495542D01*
X63402075Y-19495635D01*
X62561934Y-19499854D01*
X61934720Y-19515234D01*
X61479412Y-19547730D01*
X61154990Y-19603300D01*
X60920433Y-19687899D01*
X60734720Y-19807485D01*
X60630044Y-19898166D01*
X60459844Y-20092382D01*
X60367132Y-20327760D01*
X60329891Y-20684725D01*
X60325000Y-21012435D01*
X59880938Y-21012435D01*
X59912484Y-20608922D01*
X60027989Y-20027190D01*
X60226564Y-19613545D01*
X60536630Y-19339354D01*
X60986606Y-19175981D01*
X61604913Y-19094793D01*
X62419972Y-19067154D01*
X63119000Y-19064336D01*
X64087654Y-19071590D01*
G36*
X52515719Y-19052439D02*
X52958550Y-19063815D01*
X53226186Y-19090216D01*
X53358021Y-19137728D01*
X53393447Y-19212439D01*
X53381663Y-19285396D01*
X53278559Y-19445401D01*
X53039660Y-19484934D01*
X52885552Y-19472904D01*
X52451000Y-19425017D01*
X52451000Y-24892000D01*
X52955014Y-24892000D01*
X53278668Y-24912453D01*
X53397953Y-24987771D01*
X53385926Y-25082500D01*
X53308414Y-25166129D01*
X53125099Y-25222108D01*
X52795766Y-25255274D01*
X52280201Y-25270467D01*
X51802412Y-25273000D01*
X51148687Y-25268159D01*
X50709834Y-25250359D01*
X50446851Y-25214680D01*
X50320736Y-25156202D01*
X50292000Y-25082500D01*
X50346888Y-24975901D01*
X50543115Y-24916517D01*
X50928022Y-24893485D01*
X51122098Y-24892000D01*
X51952197Y-24892000D01*
X51915848Y-23653750D01*
X51879500Y-22415500D01*
X46482000Y-22346948D01*
X46482000Y-24892000D01*
X47303514Y-24892000D01*
X47752089Y-24902424D01*
X47991455Y-24940874D01*
X48065819Y-25018117D01*
X48054807Y-25074991D01*
X47962795Y-25159893D01*
X47738032Y-25220593D01*
X47343709Y-25262434D01*
X46743016Y-25290759D01*
X46523717Y-25297241D01*
X45942365Y-25308421D01*
X45461203Y-25309277D01*
X45132742Y-25300284D01*
X45010423Y-25283583D01*
X44944875Y-25100060D01*
X45096972Y-24949732D01*
X45430370Y-24868242D01*
X45434250Y-24867916D01*
X45910500Y-24828500D01*
X45910500Y-19494500D01*
X45434250Y-19512216D01*
X45114551Y-19500235D01*
X44978817Y-19411544D01*
X44958000Y-19289966D01*
X44976189Y-19188489D01*
X45058665Y-19120410D01*
X45247284Y-19079141D01*
X45583907Y-19058089D01*
X46110391Y-19050664D01*
X46482000Y-19050000D01*
X47139061Y-19054776D01*
X47581103Y-19072343D01*
X47846984Y-19107558D01*
X47975561Y-19165278D01*
X48006000Y-19240500D01*
X47889368Y-19363264D01*
X47575216Y-19439855D01*
X47117156Y-19462154D01*
X46704250Y-19437641D01*
X46600846Y-19452648D01*
X46535315Y-19553137D01*
X46499280Y-19784124D01*
X46484365Y-20190623D01*
X46482000Y-20632042D01*
X46482000Y-21849051D01*
X49180750Y-21814775D01*
X51879500Y-21780500D01*
X51952774Y-19412634D01*
X51154269Y-19445223D01*
X50705679Y-19452292D01*
X50452636Y-19419163D01*
X50338226Y-19333545D01*
X50314570Y-19263906D01*
X50321034Y-19174654D01*
X50407178Y-19114124D01*
X50612216Y-19076883D01*
X50975364Y-19057496D01*
X51535837Y-19050530D01*
X51858298Y-19050000D01*
X52515719Y-19052439D01*
X52515719Y-19052439D01*
G37*
X52515719Y-19052439D02*
X52958550Y-19063815D01*
X53226186Y-19090216D01*
X53358021Y-19137728D01*
X53393447Y-19212439D01*
X53381663Y-19285396D01*
X53278559Y-19445401D01*
X53039660Y-19484934D01*
X52885552Y-19472904D01*
X52451000Y-19425017D01*
X52451000Y-24892000D01*
X52955014Y-24892000D01*
X53278668Y-24912453D01*
X53397953Y-24987771D01*
X53385926Y-25082500D01*
X53308414Y-25166129D01*
X53125099Y-25222108D01*
X52795766Y-25255274D01*
X52280201Y-25270467D01*
X51802412Y-25273000D01*
X51148687Y-25268159D01*
X50709834Y-25250359D01*
X50446851Y-25214680D01*
X50320736Y-25156202D01*
X50292000Y-25082500D01*
X50346888Y-24975901D01*
X50543115Y-24916517D01*
X50928022Y-24893485D01*
X51122098Y-24892000D01*
X51952197Y-24892000D01*
X51915848Y-23653750D01*
X51879500Y-22415500D01*
X46482000Y-22346948D01*
X46482000Y-24892000D01*
X47303514Y-24892000D01*
X47752089Y-24902424D01*
X47991455Y-24940874D01*
X48065819Y-25018117D01*
X48054807Y-25074991D01*
X47962795Y-25159893D01*
X47738032Y-25220593D01*
X47343709Y-25262434D01*
X46743016Y-25290759D01*
X46523717Y-25297241D01*
X45942365Y-25308421D01*
X45461203Y-25309277D01*
X45132742Y-25300284D01*
X45010423Y-25283583D01*
X44944875Y-25100060D01*
X45096972Y-24949732D01*
X45430370Y-24868242D01*
X45434250Y-24867916D01*
X45910500Y-24828500D01*
X45910500Y-19494500D01*
X45434250Y-19512216D01*
X45114551Y-19500235D01*
X44978817Y-19411544D01*
X44958000Y-19289966D01*
X44976189Y-19188489D01*
X45058665Y-19120410D01*
X45247284Y-19079141D01*
X45583907Y-19058089D01*
X46110391Y-19050664D01*
X46482000Y-19050000D01*
X47139061Y-19054776D01*
X47581103Y-19072343D01*
X47846984Y-19107558D01*
X47975561Y-19165278D01*
X48006000Y-19240500D01*
X47889368Y-19363264D01*
X47575216Y-19439855D01*
X47117156Y-19462154D01*
X46704250Y-19437641D01*
X46600846Y-19452648D01*
X46535315Y-19553137D01*
X46499280Y-19784124D01*
X46484365Y-20190623D01*
X46482000Y-20632042D01*
X46482000Y-21849051D01*
X49180750Y-21814775D01*
X51879500Y-21780500D01*
X51952774Y-19412634D01*
X51154269Y-19445223D01*
X50705679Y-19452292D01*
X50452636Y-19419163D01*
X50338226Y-19333545D01*
X50314570Y-19263906D01*
X50321034Y-19174654D01*
X50407178Y-19114124D01*
X50612216Y-19076883D01*
X50975364Y-19057496D01*
X51535837Y-19050530D01*
X51858298Y-19050000D01*
X52515719Y-19052439D01*
G36*
X42824350Y-19083432D02*
X42900333Y-19225336D01*
X42924913Y-19538125D01*
X42926000Y-19685000D01*
X42912627Y-20065875D01*
X42855865Y-20255832D01*
X42730749Y-20317282D01*
X42672000Y-20320000D01*
X42519649Y-20286567D01*
X42443666Y-20144663D01*
X42419086Y-19831874D01*
X42418000Y-19685000D01*
X42431372Y-19304124D01*
X42488134Y-19114167D01*
X42613250Y-19052717D01*
X42672000Y-19050000D01*
X42824350Y-19083432D01*
X42824350Y-19083432D01*
G37*
X42824350Y-19083432D02*
X42900333Y-19225336D01*
X42924913Y-19538125D01*
X42926000Y-19685000D01*
X42912627Y-20065875D01*
X42855865Y-20255832D01*
X42730749Y-20317282D01*
X42672000Y-20320000D01*
X42519649Y-20286567D01*
X42443666Y-20144663D01*
X42419086Y-19831874D01*
X42418000Y-19685000D01*
X42431372Y-19304124D01*
X42488134Y-19114167D01*
X42613250Y-19052717D01*
X42672000Y-19050000D01*
X42824350Y-19083432D01*
G36*
X41228565Y-19075003D02*
X41682370Y-19110291D01*
X41953475Y-19169909D01*
X41996674Y-19189402D01*
X42216015Y-19331498D01*
X42291035Y-19420710D01*
X42170839Y-19444649D01*
X41837388Y-19465347D01*
X41331416Y-19481444D01*
X40693661Y-19491582D01*
X40078858Y-19494500D01*
X39280028Y-19495578D01*
X38694552Y-19502184D01*
X38281784Y-19519375D01*
X38001077Y-19552207D01*
X37811787Y-19605737D01*
X37673266Y-19685021D01*
X37544870Y-19795117D01*
X37526756Y-19812000D01*
X37200173Y-20180479D01*
X36981260Y-20551942D01*
X36908697Y-20855374D01*
X36921508Y-20923250D01*
X36892858Y-21066431D01*
X36838099Y-21082000D01*
X36751015Y-21188257D01*
X36756075Y-21402087D01*
X36761598Y-21625985D01*
X36675254Y-21636352D01*
X36598957Y-21672109D01*
X36583338Y-21924124D01*
X36608376Y-22248000D01*
X36766841Y-23191483D01*
X37030740Y-23928590D01*
X37342601Y-24411268D01*
X37690682Y-24828500D01*
X40308341Y-24867512D01*
X41205929Y-24883484D01*
X41879130Y-24902681D01*
X42357557Y-24927617D01*
X42670822Y-24960808D01*
X42848537Y-25004767D01*
X42920315Y-25062008D01*
X42926000Y-25089762D01*
X42891048Y-25151935D01*
X42766423Y-25198693D01*
X42522474Y-25232076D01*
X42129546Y-25254120D01*
X41557988Y-25266863D01*
X40778147Y-25272343D01*
X40259365Y-25273000D01*
X37592731Y-25273000D01*
X37091935Y-24820560D01*
X36639611Y-24253197D01*
X36323582Y-23526855D01*
X36151960Y-22701839D01*
X36132854Y-21838451D01*
X36274373Y-20996995D01*
X36497745Y-20402286D01*
X36728037Y-19964170D01*
X36957544Y-19637834D01*
X37227787Y-19405926D01*
X37580292Y-19251089D01*
X38056579Y-19155969D01*
X38698173Y-19103212D01*
X39546595Y-19075462D01*
X39678924Y-19072691D01*
X40568577Y-19062864D01*
X41228565Y-19075003D01*
X41228565Y-19075003D01*
G37*
X41228565Y-19075003D02*
X41682370Y-19110291D01*
X41953475Y-19169909D01*
X41996674Y-19189402D01*
X42216015Y-19331498D01*
X42291035Y-19420710D01*
X42170839Y-19444649D01*
X41837388Y-19465347D01*
X41331416Y-19481444D01*
X40693661Y-19491582D01*
X40078858Y-19494500D01*
X39280028Y-19495578D01*
X38694552Y-19502184D01*
X38281784Y-19519375D01*
X38001077Y-19552207D01*
X37811787Y-19605737D01*
X37673266Y-19685021D01*
X37544870Y-19795117D01*
X37526756Y-19812000D01*
X37200173Y-20180479D01*
X36981260Y-20551942D01*
X36908697Y-20855374D01*
X36921508Y-20923250D01*
X36892858Y-21066431D01*
X36838099Y-21082000D01*
X36751015Y-21188257D01*
X36756075Y-21402087D01*
X36761598Y-21625985D01*
X36675254Y-21636352D01*
X36598957Y-21672109D01*
X36583338Y-21924124D01*
X36608376Y-22248000D01*
X36766841Y-23191483D01*
X37030740Y-23928590D01*
X37342601Y-24411268D01*
X37690682Y-24828500D01*
X40308341Y-24867512D01*
X41205929Y-24883484D01*
X41879130Y-24902681D01*
X42357557Y-24927617D01*
X42670822Y-24960808D01*
X42848537Y-25004767D01*
X42920315Y-25062008D01*
X42926000Y-25089762D01*
X42891048Y-25151935D01*
X42766423Y-25198693D01*
X42522474Y-25232076D01*
X42129546Y-25254120D01*
X41557988Y-25266863D01*
X40778147Y-25272343D01*
X40259365Y-25273000D01*
X37592731Y-25273000D01*
X37091935Y-24820560D01*
X36639611Y-24253197D01*
X36323582Y-23526855D01*
X36151960Y-22701839D01*
X36132854Y-21838451D01*
X36274373Y-20996995D01*
X36497745Y-20402286D01*
X36728037Y-19964170D01*
X36957544Y-19637834D01*
X37227787Y-19405926D01*
X37580292Y-19251089D01*
X38056579Y-19155969D01*
X38698173Y-19103212D01*
X39546595Y-19075462D01*
X39678924Y-19072691D01*
X40568577Y-19062864D01*
X41228565Y-19075003D01*
G36*
X34798000Y-19663833D02*
X34783516Y-20037860D01*
X34746712Y-20295599D01*
X34722083Y-20353582D01*
X34546619Y-20399527D01*
X34382363Y-20259450D01*
X34293203Y-19995809D01*
X34290000Y-19931167D01*
X34250292Y-19671041D01*
X34080183Y-19542443D01*
X33877250Y-19493485D01*
X33561386Y-19463023D01*
X33079149Y-19448034D01*
X32517811Y-19450623D01*
X32321500Y-19455981D01*
X31178500Y-19494500D01*
X31109948Y-24892000D01*
X31937974Y-24892000D01*
X32401815Y-24904650D01*
X32659944Y-24949867D01*
X32759722Y-25038546D01*
X32766000Y-25082500D01*
X32713964Y-25256098D01*
X32670750Y-25280259D01*
X32515760Y-25284496D01*
X32155041Y-25291178D01*
X31636843Y-25299500D01*
X31009415Y-25308657D01*
X30765718Y-25312009D01*
X30052068Y-25319191D01*
X29554142Y-25315378D01*
X29233760Y-25296397D01*
X29052737Y-25258075D01*
X28972891Y-25196241D01*
X28955968Y-25114250D01*
X28999871Y-24981461D01*
X29169941Y-24913447D01*
X29523791Y-24890836D01*
X29622750Y-24890055D01*
X30033455Y-24870389D01*
X30349439Y-24822279D01*
X30450951Y-24785640D01*
X30507846Y-24688543D01*
X30548437Y-24462552D01*
X30573980Y-24080961D01*
X30585733Y-23517069D01*
X30584954Y-22744170D01*
X30577951Y-22088835D01*
X30543500Y-19494500D01*
X29273500Y-19457371D01*
X28551771Y-19442868D01*
X28045978Y-19455172D01*
X27718622Y-19504139D01*
X27532205Y-19599627D01*
X27449230Y-19751491D01*
X27432000Y-19941419D01*
X27391516Y-20219215D01*
X27241219Y-20316370D01*
X27178000Y-20320000D01*
X27025649Y-20286567D01*
X26949666Y-20144663D01*
X26925086Y-19831874D01*
X26924000Y-19685000D01*
X26924000Y-19050000D01*
X34798000Y-19050000D01*
X34798000Y-19663833D01*
X34798000Y-19663833D01*
G37*
X34798000Y-19663833D02*
X34783516Y-20037860D01*
X34746712Y-20295599D01*
X34722083Y-20353582D01*
X34546619Y-20399527D01*
X34382363Y-20259450D01*
X34293203Y-19995809D01*
X34290000Y-19931167D01*
X34250292Y-19671041D01*
X34080183Y-19542443D01*
X33877250Y-19493485D01*
X33561386Y-19463023D01*
X33079149Y-19448034D01*
X32517811Y-19450623D01*
X32321500Y-19455981D01*
X31178500Y-19494500D01*
X31109948Y-24892000D01*
X31937974Y-24892000D01*
X32401815Y-24904650D01*
X32659944Y-24949867D01*
X32759722Y-25038546D01*
X32766000Y-25082500D01*
X32713964Y-25256098D01*
X32670750Y-25280259D01*
X32515760Y-25284496D01*
X32155041Y-25291178D01*
X31636843Y-25299500D01*
X31009415Y-25308657D01*
X30765718Y-25312009D01*
X30052068Y-25319191D01*
X29554142Y-25315378D01*
X29233760Y-25296397D01*
X29052737Y-25258075D01*
X28972891Y-25196241D01*
X28955968Y-25114250D01*
X28999871Y-24981461D01*
X29169941Y-24913447D01*
X29523791Y-24890836D01*
X29622750Y-24890055D01*
X30033455Y-24870389D01*
X30349439Y-24822279D01*
X30450951Y-24785640D01*
X30507846Y-24688543D01*
X30548437Y-24462552D01*
X30573980Y-24080961D01*
X30585733Y-23517069D01*
X30584954Y-22744170D01*
X30577951Y-22088835D01*
X30543500Y-19494500D01*
X29273500Y-19457371D01*
X28551771Y-19442868D01*
X28045978Y-19455172D01*
X27718622Y-19504139D01*
X27532205Y-19599627D01*
X27449230Y-19751491D01*
X27432000Y-19941419D01*
X27391516Y-20219215D01*
X27241219Y-20316370D01*
X27178000Y-20320000D01*
X27025649Y-20286567D01*
X26949666Y-20144663D01*
X26925086Y-19831874D01*
X26924000Y-19685000D01*
X26924000Y-19050000D01*
X34798000Y-19050000D01*
X34798000Y-19663833D01*
G36*
X25177321Y-19076480D02*
X25248066Y-19197574D01*
X25259012Y-19475764D01*
X25247886Y-19706767D01*
X25185257Y-20159730D01*
X25068971Y-20400342D01*
X24909403Y-20411345D01*
X24852312Y-20364979D01*
X24801081Y-20196187D01*
X24769671Y-19866157D01*
X24765000Y-19663833D01*
X24778899Y-19291503D01*
X24838626Y-19108790D01*
X24971223Y-19052006D01*
X25025636Y-19050000D01*
X25177321Y-19076480D01*
X25177321Y-19076480D01*
G37*
X25177321Y-19076480D02*
X25248066Y-19197574D01*
X25259012Y-19475764D01*
X25247886Y-19706767D01*
X25185257Y-20159730D01*
X25068971Y-20400342D01*
X24909403Y-20411345D01*
X24852312Y-20364979D01*
X24801081Y-20196187D01*
X24769671Y-19866157D01*
X24765000Y-19663833D01*
X24778899Y-19291503D01*
X24838626Y-19108790D01*
X24971223Y-19052006D01*
X25025636Y-19050000D01*
X25177321Y-19076480D01*
G36*
X25190166Y-23568384D02*
X25275828Y-23733463D01*
X25303044Y-24131923D01*
X25294049Y-24416884D01*
X25241397Y-24978120D01*
X25156148Y-25290907D01*
X25037039Y-25358859D01*
X24978783Y-25317450D01*
X24932274Y-25150262D01*
X24903728Y-24817641D01*
X24893694Y-24407080D01*
X24902724Y-24006070D01*
X24931366Y-23702103D01*
X24967916Y-23588417D01*
X25139109Y-23554473D01*
X25190166Y-23568384D01*
X25190166Y-23568384D01*
G37*
X25190166Y-23568384D02*
X25275828Y-23733463D01*
X25303044Y-24131923D01*
X25294049Y-24416884D01*
X25241397Y-24978120D01*
X25156148Y-25290907D01*
X25037039Y-25358859D01*
X24978783Y-25317450D01*
X24932274Y-25150262D01*
X24903728Y-24817641D01*
X24893694Y-24407080D01*
X24902724Y-24006070D01*
X24931366Y-23702103D01*
X24967916Y-23588417D01*
X25139109Y-23554473D01*
X25190166Y-23568384D01*
G36*
X23103876Y-19052275D02*
X23701473Y-19091305D01*
X24160688Y-19152297D01*
X24426803Y-19235494D01*
X24440023Y-19244539D01*
X24583358Y-19384754D01*
X24567023Y-19436503D01*
X24405779Y-19437716D01*
X24035198Y-19437584D01*
X23499938Y-19436212D01*
X22844659Y-19433706D01*
X22315766Y-19431217D01*
X20184033Y-19420427D01*
X19807516Y-19796944D01*
X19506631Y-20259661D01*
X19422842Y-20784805D01*
X19560841Y-21301478D01*
X19694217Y-21509372D01*
X19803899Y-21640190D01*
X19921881Y-21731511D01*
X20092453Y-21790433D01*
X20359909Y-21824054D01*
X20768540Y-21839473D01*
X21362639Y-21843787D01*
X21782222Y-21844000D01*
X22447329Y-21851997D01*
X23011901Y-21874051D01*
X23430145Y-21907252D01*
X23656268Y-21948693D01*
X23681561Y-21964627D01*
X23670993Y-22115659D01*
X23425728Y-22228807D01*
X22941111Y-22304947D01*
X22212489Y-22344954D01*
X21620487Y-22352000D01*
X20943585Y-22354776D01*
X20472888Y-22367903D01*
X20160618Y-22398577D01*
X19958998Y-22453997D01*
X19820251Y-22541359D01*
X19723629Y-22637750D01*
X19460356Y-23101524D01*
X19392857Y-23639808D01*
X19519734Y-24166991D01*
X19754342Y-24517097D01*
X20113521Y-24892000D01*
X22454811Y-24892000D01*
X23282710Y-24894185D01*
X23886655Y-24902429D01*
X24296666Y-24919266D01*
X24542766Y-24947231D01*
X24654974Y-24988856D01*
X24663313Y-25046675D01*
X24642837Y-25076671D01*
X24460036Y-25148922D01*
X24074131Y-25209803D01*
X23535812Y-25258123D01*
X22895773Y-25292691D01*
X22204704Y-25312315D01*
X21513296Y-25315802D01*
X20872242Y-25301963D01*
X20332233Y-25269606D01*
X19943961Y-25217539D01*
X19838568Y-25189589D01*
X19420183Y-24975653D01*
X19132977Y-24638068D01*
X18925186Y-24114308D01*
X18912967Y-24071517D01*
X18853172Y-23489782D01*
X18966692Y-22909125D01*
X19231027Y-22430601D01*
X19293491Y-22362508D01*
X19443212Y-22185922D01*
X19433352Y-22035871D01*
X19290904Y-21830036D01*
X19047071Y-21331357D01*
X18971344Y-20753952D01*
X19052628Y-20171597D01*
X19279827Y-19658069D01*
X19641846Y-19287144D01*
X19676555Y-19265690D01*
X19955341Y-19178050D01*
X20424059Y-19110915D01*
X21027990Y-19064527D01*
X21712416Y-19039129D01*
X22422618Y-19034964D01*
X23103876Y-19052275D01*
X23103876Y-19052275D01*
G37*
X23103876Y-19052275D02*
X23701473Y-19091305D01*
X24160688Y-19152297D01*
X24426803Y-19235494D01*
X24440023Y-19244539D01*
X24583358Y-19384754D01*
X24567023Y-19436503D01*
X24405779Y-19437716D01*
X24035198Y-19437584D01*
X23499938Y-19436212D01*
X22844659Y-19433706D01*
X22315766Y-19431217D01*
X20184033Y-19420427D01*
X19807516Y-19796944D01*
X19506631Y-20259661D01*
X19422842Y-20784805D01*
X19560841Y-21301478D01*
X19694217Y-21509372D01*
X19803899Y-21640190D01*
X19921881Y-21731511D01*
X20092453Y-21790433D01*
X20359909Y-21824054D01*
X20768540Y-21839473D01*
X21362639Y-21843787D01*
X21782222Y-21844000D01*
X22447329Y-21851997D01*
X23011901Y-21874051D01*
X23430145Y-21907252D01*
X23656268Y-21948693D01*
X23681561Y-21964627D01*
X23670993Y-22115659D01*
X23425728Y-22228807D01*
X22941111Y-22304947D01*
X22212489Y-22344954D01*
X21620487Y-22352000D01*
X20943585Y-22354776D01*
X20472888Y-22367903D01*
X20160618Y-22398577D01*
X19958998Y-22453997D01*
X19820251Y-22541359D01*
X19723629Y-22637750D01*
X19460356Y-23101524D01*
X19392857Y-23639808D01*
X19519734Y-24166991D01*
X19754342Y-24517097D01*
X20113521Y-24892000D01*
X22454811Y-24892000D01*
X23282710Y-24894185D01*
X23886655Y-24902429D01*
X24296666Y-24919266D01*
X24542766Y-24947231D01*
X24654974Y-24988856D01*
X24663313Y-25046675D01*
X24642837Y-25076671D01*
X24460036Y-25148922D01*
X24074131Y-25209803D01*
X23535812Y-25258123D01*
X22895773Y-25292691D01*
X22204704Y-25312315D01*
X21513296Y-25315802D01*
X20872242Y-25301963D01*
X20332233Y-25269606D01*
X19943961Y-25217539D01*
X19838568Y-25189589D01*
X19420183Y-24975653D01*
X19132977Y-24638068D01*
X18925186Y-24114308D01*
X18912967Y-24071517D01*
X18853172Y-23489782D01*
X18966692Y-22909125D01*
X19231027Y-22430601D01*
X19293491Y-22362508D01*
X19443212Y-22185922D01*
X19433352Y-22035871D01*
X19290904Y-21830036D01*
X19047071Y-21331357D01*
X18971344Y-20753952D01*
X19052628Y-20171597D01*
X19279827Y-19658069D01*
X19641846Y-19287144D01*
X19676555Y-19265690D01*
X19955341Y-19178050D01*
X20424059Y-19110915D01*
X21027990Y-19064527D01*
X21712416Y-19039129D01*
X22422618Y-19034964D01*
X23103876Y-19052275D01*
G36*
X67747018Y-29974693D02*
X68163525Y-29987757D01*
X68411993Y-30018664D01*
X68535394Y-30074888D01*
X68576699Y-30163901D01*
X68580000Y-30226000D01*
X68552196Y-30367864D01*
X68430060Y-30444520D01*
X68155503Y-30475330D01*
X67818000Y-30480000D01*
X67056000Y-30480000D01*
X67056000Y-31609232D01*
X67060109Y-32149255D01*
X67080733Y-32487485D01*
X67130313Y-32676097D01*
X67221293Y-32767266D01*
X67341750Y-32807424D01*
X67581293Y-32835056D01*
X68013956Y-32857043D01*
X68588801Y-32873251D01*
X69254892Y-32883547D01*
X69961291Y-32887796D01*
X70657063Y-32885863D01*
X71291269Y-32877616D01*
X71812975Y-32862918D01*
X72171242Y-32841637D01*
X72304164Y-32820497D01*
X72408840Y-32739681D01*
X72473324Y-32562094D01*
X72506397Y-32238018D01*
X72516842Y-31717736D01*
X72517000Y-31615472D01*
X72517000Y-30492120D01*
X71723250Y-30454310D01*
X71264031Y-30416756D01*
X71014423Y-30350806D01*
X70930524Y-30243832D01*
X70929500Y-30226000D01*
X70970228Y-30143354D01*
X71117700Y-30084717D01*
X71409842Y-30044577D01*
X71884583Y-30017419D01*
X72485250Y-29999841D01*
X73135718Y-29987046D01*
X73574048Y-29987955D01*
X73841981Y-30008533D01*
X73981261Y-30054741D01*
X74033629Y-30132543D01*
X74041000Y-30222091D01*
X73999945Y-30390227D01*
X73832094Y-30464829D01*
X73530423Y-30480000D01*
X73019846Y-30480000D01*
X73088500Y-35750500D01*
X73564750Y-35789916D01*
X73890635Y-35847131D01*
X74025721Y-35970262D01*
X74041000Y-36075666D01*
X74024179Y-36180350D01*
X73945543Y-36250330D01*
X73762825Y-36292536D01*
X73433762Y-36313894D01*
X72916090Y-36321332D01*
X72538166Y-36322000D01*
X71945125Y-36315935D01*
X71448995Y-36299434D01*
X71102584Y-36275035D01*
X70959417Y-36246083D01*
X70929773Y-36076773D01*
X70951838Y-35992083D01*
X71099033Y-35878712D01*
X71449343Y-35822704D01*
X71768587Y-35814000D01*
X72517000Y-35814000D01*
X72517000Y-33268948D01*
X67119500Y-33337500D01*
X67046802Y-35814000D01*
X67813401Y-35814000D01*
X68240550Y-35823158D01*
X68471920Y-35863430D01*
X68565452Y-35954015D01*
X68580000Y-36068000D01*
X68564320Y-36177796D01*
X68488431Y-36250408D01*
X68309055Y-36293475D01*
X67982913Y-36314634D01*
X67466727Y-36321520D01*
X67140666Y-36322000D01*
X66560739Y-36315674D01*
X66078480Y-36298505D01*
X65748001Y-36273202D01*
X65625417Y-36246083D01*
X65573638Y-36070119D01*
X65717868Y-35911986D01*
X66002065Y-35820932D01*
X66117087Y-35814000D01*
X66548000Y-35814000D01*
X66548000Y-30480000D01*
X66262250Y-30464952D01*
X65961238Y-30461424D01*
X65817750Y-30470519D01*
X65690586Y-30382387D01*
X65659000Y-30231567D01*
X65673357Y-30120100D01*
X65745124Y-30046123D01*
X65917339Y-30001988D01*
X66233044Y-29980044D01*
X66735279Y-29972643D01*
X67119500Y-29972000D01*
X67747018Y-29974693D01*
X67747018Y-29974693D01*
G37*
X67747018Y-29974693D02*
X68163525Y-29987757D01*
X68411993Y-30018664D01*
X68535394Y-30074888D01*
X68576699Y-30163901D01*
X68580000Y-30226000D01*
X68552196Y-30367864D01*
X68430060Y-30444520D01*
X68155503Y-30475330D01*
X67818000Y-30480000D01*
X67056000Y-30480000D01*
X67056000Y-31609232D01*
X67060109Y-32149255D01*
X67080733Y-32487485D01*
X67130313Y-32676097D01*
X67221293Y-32767266D01*
X67341750Y-32807424D01*
X67581293Y-32835056D01*
X68013956Y-32857043D01*
X68588801Y-32873251D01*
X69254892Y-32883547D01*
X69961291Y-32887796D01*
X70657063Y-32885863D01*
X71291269Y-32877616D01*
X71812975Y-32862918D01*
X72171242Y-32841637D01*
X72304164Y-32820497D01*
X72408840Y-32739681D01*
X72473324Y-32562094D01*
X72506397Y-32238018D01*
X72516842Y-31717736D01*
X72517000Y-31615472D01*
X72517000Y-30492120D01*
X71723250Y-30454310D01*
X71264031Y-30416756D01*
X71014423Y-30350806D01*
X70930524Y-30243832D01*
X70929500Y-30226000D01*
X70970228Y-30143354D01*
X71117700Y-30084717D01*
X71409842Y-30044577D01*
X71884583Y-30017419D01*
X72485250Y-29999841D01*
X73135718Y-29987046D01*
X73574048Y-29987955D01*
X73841981Y-30008533D01*
X73981261Y-30054741D01*
X74033629Y-30132543D01*
X74041000Y-30222091D01*
X73999945Y-30390227D01*
X73832094Y-30464829D01*
X73530423Y-30480000D01*
X73019846Y-30480000D01*
X73088500Y-35750500D01*
X73564750Y-35789916D01*
X73890635Y-35847131D01*
X74025721Y-35970262D01*
X74041000Y-36075666D01*
X74024179Y-36180350D01*
X73945543Y-36250330D01*
X73762825Y-36292536D01*
X73433762Y-36313894D01*
X72916090Y-36321332D01*
X72538166Y-36322000D01*
X71945125Y-36315935D01*
X71448995Y-36299434D01*
X71102584Y-36275035D01*
X70959417Y-36246083D01*
X70929773Y-36076773D01*
X70951838Y-35992083D01*
X71099033Y-35878712D01*
X71449343Y-35822704D01*
X71768587Y-35814000D01*
X72517000Y-35814000D01*
X72517000Y-33268948D01*
X67119500Y-33337500D01*
X67046802Y-35814000D01*
X67813401Y-35814000D01*
X68240550Y-35823158D01*
X68471920Y-35863430D01*
X68565452Y-35954015D01*
X68580000Y-36068000D01*
X68564320Y-36177796D01*
X68488431Y-36250408D01*
X68309055Y-36293475D01*
X67982913Y-36314634D01*
X67466727Y-36321520D01*
X67140666Y-36322000D01*
X66560739Y-36315674D01*
X66078480Y-36298505D01*
X65748001Y-36273202D01*
X65625417Y-36246083D01*
X65573638Y-36070119D01*
X65717868Y-35911986D01*
X66002065Y-35820932D01*
X66117087Y-35814000D01*
X66548000Y-35814000D01*
X66548000Y-30480000D01*
X66262250Y-30464952D01*
X65961238Y-30461424D01*
X65817750Y-30470519D01*
X65690586Y-30382387D01*
X65659000Y-30231567D01*
X65673357Y-30120100D01*
X65745124Y-30046123D01*
X65917339Y-30001988D01*
X66233044Y-29980044D01*
X66735279Y-29972643D01*
X67119500Y-29972000D01*
X67747018Y-29974693D01*
G36*
X63440609Y-30080159D02*
X63507904Y-30346695D01*
X63513511Y-30684692D01*
X63459556Y-31007233D01*
X63348162Y-31227402D01*
X63277750Y-31270495D01*
X63118409Y-31259883D01*
X63069589Y-31073765D01*
X63071375Y-30967807D01*
X63089630Y-30569034D01*
X63103125Y-30289500D01*
X63182628Y-30037788D01*
X63309500Y-29972000D01*
X63440609Y-30080159D01*
X63440609Y-30080159D01*
G37*
X63440609Y-30080159D02*
X63507904Y-30346695D01*
X63513511Y-30684692D01*
X63459556Y-31007233D01*
X63348162Y-31227402D01*
X63277750Y-31270495D01*
X63118409Y-31259883D01*
X63069589Y-31073765D01*
X63071375Y-30967807D01*
X63089630Y-30569034D01*
X63103125Y-30289500D01*
X63182628Y-30037788D01*
X63309500Y-29972000D01*
X63440609Y-30080159D01*
G36*
X61296463Y-29979309D02*
X61828589Y-29993622D01*
X62197035Y-30022958D01*
X62446940Y-30072512D01*
X62623442Y-30147478D01*
X62738000Y-30226000D01*
X63055500Y-30474352D01*
X60858443Y-30477176D01*
X59962054Y-30484622D01*
X59288126Y-30505830D01*
X58805385Y-30543023D01*
X58482554Y-30598430D01*
X58317076Y-30658049D01*
X57907128Y-31004741D01*
X57586951Y-31552655D01*
X57376680Y-32258742D01*
X57305940Y-32819739D01*
X57309953Y-33707341D01*
X57456447Y-34421591D01*
X57758571Y-35007743D01*
X58036263Y-35333145D01*
X58517117Y-35814000D01*
X61008558Y-35814000D01*
X61861956Y-35815033D01*
X62494399Y-35820380D01*
X62938933Y-35833408D01*
X63228603Y-35857487D01*
X63396452Y-35895986D01*
X63475524Y-35952273D01*
X63498866Y-36029717D01*
X63500000Y-36068000D01*
X63489875Y-36155680D01*
X63437261Y-36220298D01*
X63308798Y-36265209D01*
X63071127Y-36293769D01*
X62690888Y-36309335D01*
X62134723Y-36315262D01*
X61369271Y-36314906D01*
X61055250Y-36313949D01*
X60273198Y-36305271D01*
X59562186Y-36285949D01*
X58967645Y-36258122D01*
X58535005Y-36223932D01*
X58309698Y-36185520D01*
X58306911Y-36184443D01*
X58058525Y-36046254D01*
X57751874Y-35826369D01*
X57454905Y-35580844D01*
X57235564Y-35365736D01*
X57161227Y-35239243D01*
X57132210Y-35080762D01*
X57048055Y-34824302D01*
X56918625Y-34472365D01*
X56830287Y-34226500D01*
X56787877Y-33973200D01*
X56764202Y-33558262D01*
X56764043Y-33095530D01*
X56871064Y-32153128D01*
X57129137Y-31346018D01*
X57523455Y-30702399D01*
X58039215Y-30250470D01*
X58333017Y-30107079D01*
X58585984Y-30058819D01*
X59036478Y-30018589D01*
X59628071Y-29989745D01*
X60304334Y-29975646D01*
X60555517Y-29974823D01*
X61296463Y-29979309D01*
X61296463Y-29979309D01*
G37*
X61296463Y-29979309D02*
X61828589Y-29993622D01*
X62197035Y-30022958D01*
X62446940Y-30072512D01*
X62623442Y-30147478D01*
X62738000Y-30226000D01*
X63055500Y-30474352D01*
X60858443Y-30477176D01*
X59962054Y-30484622D01*
X59288126Y-30505830D01*
X58805385Y-30543023D01*
X58482554Y-30598430D01*
X58317076Y-30658049D01*
X57907128Y-31004741D01*
X57586951Y-31552655D01*
X57376680Y-32258742D01*
X57305940Y-32819739D01*
X57309953Y-33707341D01*
X57456447Y-34421591D01*
X57758571Y-35007743D01*
X58036263Y-35333145D01*
X58517117Y-35814000D01*
X61008558Y-35814000D01*
X61861956Y-35815033D01*
X62494399Y-35820380D01*
X62938933Y-35833408D01*
X63228603Y-35857487D01*
X63396452Y-35895986D01*
X63475524Y-35952273D01*
X63498866Y-36029717D01*
X63500000Y-36068000D01*
X63489875Y-36155680D01*
X63437261Y-36220298D01*
X63308798Y-36265209D01*
X63071127Y-36293769D01*
X62690888Y-36309335D01*
X62134723Y-36315262D01*
X61369271Y-36314906D01*
X61055250Y-36313949D01*
X60273198Y-36305271D01*
X59562186Y-36285949D01*
X58967645Y-36258122D01*
X58535005Y-36223932D01*
X58309698Y-36185520D01*
X58306911Y-36184443D01*
X58058525Y-36046254D01*
X57751874Y-35826369D01*
X57454905Y-35580844D01*
X57235564Y-35365736D01*
X57161227Y-35239243D01*
X57132210Y-35080762D01*
X57048055Y-34824302D01*
X56918625Y-34472365D01*
X56830287Y-34226500D01*
X56787877Y-33973200D01*
X56764202Y-33558262D01*
X56764043Y-33095530D01*
X56871064Y-32153128D01*
X57129137Y-31346018D01*
X57523455Y-30702399D01*
X58039215Y-30250470D01*
X58333017Y-30107079D01*
X58585984Y-30058819D01*
X59036478Y-30018589D01*
X59628071Y-29989745D01*
X60304334Y-29975646D01*
X60555517Y-29974823D01*
X61296463Y-29979309D01*
G36*
X55391492Y-30619160D02*
X55404091Y-30994831D01*
X55388242Y-31248898D01*
X55365936Y-31309281D01*
X55196322Y-31292927D01*
X55042270Y-31096677D01*
X54972053Y-30861000D01*
X54927500Y-30543500D01*
X51752500Y-30543500D01*
X51716688Y-33178750D01*
X51680877Y-35814000D01*
X52573938Y-35814000D01*
X53042420Y-35820792D01*
X53311242Y-35851446D01*
X53434603Y-35921377D01*
X53466703Y-36046000D01*
X53467000Y-36068000D01*
X53454835Y-36164268D01*
X53393591Y-36232554D01*
X53246139Y-36277647D01*
X52975353Y-36304339D01*
X52544105Y-36317420D01*
X51915268Y-36321680D01*
X51498500Y-36322000D01*
X50739005Y-36318701D01*
X50198658Y-36306559D01*
X49842661Y-36282208D01*
X49636222Y-36242280D01*
X49544544Y-36183408D01*
X49530000Y-36131500D01*
X49616385Y-35955033D01*
X49688750Y-35928055D01*
X49910081Y-35914239D01*
X50264849Y-35895840D01*
X50374571Y-35890628D01*
X50676285Y-35871509D01*
X50904777Y-35824921D01*
X51070224Y-35719396D01*
X51182804Y-35523465D01*
X51252692Y-35205661D01*
X51290068Y-34734516D01*
X51305107Y-34078562D01*
X51307987Y-33206330D01*
X51308000Y-33004449D01*
X51308000Y-30480000D01*
X49809400Y-30480000D01*
X49090159Y-30489294D01*
X48587727Y-30524424D01*
X48265355Y-30596258D01*
X48086292Y-30715667D01*
X48013789Y-30893520D01*
X48006000Y-31013399D01*
X47919098Y-31204991D01*
X47815500Y-31242000D01*
X47695701Y-31174020D01*
X47637190Y-30938659D01*
X47625000Y-30607000D01*
X47625000Y-29972000D01*
X55347485Y-29972000D01*
X55391492Y-30619160D01*
X55391492Y-30619160D01*
G37*
X55391492Y-30619160D02*
X55404091Y-30994831D01*
X55388242Y-31248898D01*
X55365936Y-31309281D01*
X55196322Y-31292927D01*
X55042270Y-31096677D01*
X54972053Y-30861000D01*
X54927500Y-30543500D01*
X51752500Y-30543500D01*
X51716688Y-33178750D01*
X51680877Y-35814000D01*
X52573938Y-35814000D01*
X53042420Y-35820792D01*
X53311242Y-35851446D01*
X53434603Y-35921377D01*
X53466703Y-36046000D01*
X53467000Y-36068000D01*
X53454835Y-36164268D01*
X53393591Y-36232554D01*
X53246139Y-36277647D01*
X52975353Y-36304339D01*
X52544105Y-36317420D01*
X51915268Y-36321680D01*
X51498500Y-36322000D01*
X50739005Y-36318701D01*
X50198658Y-36306559D01*
X49842661Y-36282208D01*
X49636222Y-36242280D01*
X49544544Y-36183408D01*
X49530000Y-36131500D01*
X49616385Y-35955033D01*
X49688750Y-35928055D01*
X49910081Y-35914239D01*
X50264849Y-35895840D01*
X50374571Y-35890628D01*
X50676285Y-35871509D01*
X50904777Y-35824921D01*
X51070224Y-35719396D01*
X51182804Y-35523465D01*
X51252692Y-35205661D01*
X51290068Y-34734516D01*
X51305107Y-34078562D01*
X51307987Y-33206330D01*
X51308000Y-33004449D01*
X51308000Y-30480000D01*
X49809400Y-30480000D01*
X49090159Y-30489294D01*
X48587727Y-30524424D01*
X48265355Y-30596258D01*
X48086292Y-30715667D01*
X48013789Y-30893520D01*
X48006000Y-31013399D01*
X47919098Y-31204991D01*
X47815500Y-31242000D01*
X47695701Y-31174020D01*
X47637190Y-30938659D01*
X47625000Y-30607000D01*
X47625000Y-29972000D01*
X55347485Y-29972000D01*
X55391492Y-30619160D01*
G36*
X45771382Y-30034709D02*
X45830529Y-30254754D01*
X45847000Y-30670500D01*
X45841790Y-31051216D01*
X45828350Y-31301149D01*
X45815250Y-31360073D01*
X45688841Y-31307572D01*
X45593000Y-31264823D01*
X45452907Y-31085256D01*
X45418201Y-30861000D01*
X45437731Y-30482396D01*
X45449951Y-30257750D01*
X45535253Y-30030558D01*
X45656500Y-29972000D01*
X45771382Y-30034709D01*
X45771382Y-30034709D01*
G37*
X45771382Y-30034709D02*
X45830529Y-30254754D01*
X45847000Y-30670500D01*
X45841790Y-31051216D01*
X45828350Y-31301149D01*
X45815250Y-31360073D01*
X45688841Y-31307572D01*
X45593000Y-31264823D01*
X45452907Y-31085256D01*
X45418201Y-30861000D01*
X45437731Y-30482396D01*
X45449951Y-30257750D01*
X45535253Y-30030558D01*
X45656500Y-29972000D01*
X45771382Y-30034709D01*
G36*
X45783500Y-34498073D02*
X45891640Y-34609867D01*
X45951860Y-34872429D01*
X45973485Y-35332185D01*
X45974000Y-35446587D01*
X45965234Y-35914076D01*
X45930022Y-36180590D01*
X45854988Y-36298816D01*
X45751750Y-36322075D01*
X45603805Y-36267843D01*
X45550021Y-36063789D01*
X45552063Y-35845825D01*
X45570798Y-35367684D01*
X45583813Y-34897235D01*
X45613341Y-34587423D01*
X45700559Y-34483391D01*
X45783500Y-34498073D01*
X45783500Y-34498073D01*
G37*
X45783500Y-34498073D02*
X45891640Y-34609867D01*
X45951860Y-34872429D01*
X45973485Y-35332185D01*
X45974000Y-35446587D01*
X45965234Y-35914076D01*
X45930022Y-36180590D01*
X45854988Y-36298816D01*
X45751750Y-36322075D01*
X45603805Y-36267843D01*
X45550021Y-36063789D01*
X45552063Y-35845825D01*
X45570798Y-35367684D01*
X45583813Y-34897235D01*
X45613341Y-34587423D01*
X45700559Y-34483391D01*
X45783500Y-34498073D01*
G36*
X43610832Y-29983423D02*
X44149757Y-29994937D01*
X44523813Y-30021422D01*
X44777540Y-30067770D01*
X44955476Y-30138868D01*
X45085000Y-30226000D01*
X45402500Y-30474352D01*
X43026197Y-30477176D01*
X42192044Y-30479517D01*
X41574147Y-30486939D01*
X41134764Y-30503442D01*
X40836154Y-30533028D01*
X40640575Y-30579697D01*
X40510286Y-30647451D01*
X40407544Y-30740291D01*
X40392399Y-30756388D01*
X40101444Y-31181768D01*
X40024381Y-31648235D01*
X40058921Y-31934105D01*
X40140189Y-32253016D01*
X40271229Y-32487117D01*
X40488895Y-32650537D01*
X40830038Y-32757408D01*
X41331513Y-32821858D01*
X42030171Y-32858016D01*
X42501847Y-32870740D01*
X43273539Y-32894531D01*
X43812987Y-32927233D01*
X44141858Y-32971158D01*
X44281823Y-33028616D01*
X44288419Y-33061240D01*
X44148755Y-33132260D01*
X43776206Y-33191224D01*
X43163638Y-33238923D01*
X42368371Y-33274000D01*
X41641703Y-33300442D01*
X41125560Y-33327517D01*
X40776567Y-33363042D01*
X40551351Y-33414833D01*
X40406537Y-33490707D01*
X40298752Y-33598480D01*
X40254195Y-33655000D01*
X40062895Y-34077963D01*
X40007823Y-34522019D01*
X40050286Y-34948479D01*
X40220389Y-35271171D01*
X40376230Y-35442769D01*
X40747461Y-35814000D01*
X43138480Y-35816823D01*
X45529500Y-35819647D01*
X45212000Y-36068000D01*
X45068402Y-36162283D01*
X44888714Y-36229514D01*
X44630282Y-36274246D01*
X44250454Y-36301037D01*
X43706579Y-36314442D01*
X42956003Y-36319018D01*
X42860518Y-36319176D01*
X42067481Y-36316479D01*
X41483225Y-36303017D01*
X41062615Y-36274526D01*
X40760517Y-36226747D01*
X40531794Y-36155419D01*
X40384018Y-36085386D01*
X40028545Y-35828693D01*
X39746955Y-35515351D01*
X39724692Y-35479722D01*
X39615231Y-35216085D01*
X39525170Y-34866713D01*
X39464055Y-34501653D01*
X39441435Y-34190954D01*
X39466854Y-34004661D01*
X39521325Y-33987533D01*
X39605249Y-33937740D01*
X39646938Y-33729547D01*
X39628456Y-33464500D01*
X39664894Y-33406096D01*
X39696109Y-33430775D01*
X39832929Y-33421011D01*
X39941922Y-33315444D01*
X40014605Y-33135201D01*
X39960558Y-32899398D01*
X39810644Y-32607171D01*
X39606267Y-32040304D01*
X39588828Y-31449979D01*
X39740731Y-30897518D01*
X40044378Y-30444241D01*
X40482169Y-30151471D01*
X40519271Y-30137918D01*
X40832971Y-30076212D01*
X41354674Y-30027635D01*
X42038581Y-29995233D01*
X42838896Y-29982054D01*
X42862500Y-29981992D01*
X43610832Y-29983423D01*
X43610832Y-29983423D01*
G37*
X43610832Y-29983423D02*
X44149757Y-29994937D01*
X44523813Y-30021422D01*
X44777540Y-30067770D01*
X44955476Y-30138868D01*
X45085000Y-30226000D01*
X45402500Y-30474352D01*
X43026197Y-30477176D01*
X42192044Y-30479517D01*
X41574147Y-30486939D01*
X41134764Y-30503442D01*
X40836154Y-30533028D01*
X40640575Y-30579697D01*
X40510286Y-30647451D01*
X40407544Y-30740291D01*
X40392399Y-30756388D01*
X40101444Y-31181768D01*
X40024381Y-31648235D01*
X40058921Y-31934105D01*
X40140189Y-32253016D01*
X40271229Y-32487117D01*
X40488895Y-32650537D01*
X40830038Y-32757408D01*
X41331513Y-32821858D01*
X42030171Y-32858016D01*
X42501847Y-32870740D01*
X43273539Y-32894531D01*
X43812987Y-32927233D01*
X44141858Y-32971158D01*
X44281823Y-33028616D01*
X44288419Y-33061240D01*
X44148755Y-33132260D01*
X43776206Y-33191224D01*
X43163638Y-33238923D01*
X42368371Y-33274000D01*
X41641703Y-33300442D01*
X41125560Y-33327517D01*
X40776567Y-33363042D01*
X40551351Y-33414833D01*
X40406537Y-33490707D01*
X40298752Y-33598480D01*
X40254195Y-33655000D01*
X40062895Y-34077963D01*
X40007823Y-34522019D01*
X40050286Y-34948479D01*
X40220389Y-35271171D01*
X40376230Y-35442769D01*
X40747461Y-35814000D01*
X43138480Y-35816823D01*
X45529500Y-35819647D01*
X45212000Y-36068000D01*
X45068402Y-36162283D01*
X44888714Y-36229514D01*
X44630282Y-36274246D01*
X44250454Y-36301037D01*
X43706579Y-36314442D01*
X42956003Y-36319018D01*
X42860518Y-36319176D01*
X42067481Y-36316479D01*
X41483225Y-36303017D01*
X41062615Y-36274526D01*
X40760517Y-36226747D01*
X40531794Y-36155419D01*
X40384018Y-36085386D01*
X40028545Y-35828693D01*
X39746955Y-35515351D01*
X39724692Y-35479722D01*
X39615231Y-35216085D01*
X39525170Y-34866713D01*
X39464055Y-34501653D01*
X39441435Y-34190954D01*
X39466854Y-34004661D01*
X39521325Y-33987533D01*
X39605249Y-33937740D01*
X39646938Y-33729547D01*
X39628456Y-33464500D01*
X39664894Y-33406096D01*
X39696109Y-33430775D01*
X39832929Y-33421011D01*
X39941922Y-33315444D01*
X40014605Y-33135201D01*
X39960558Y-32899398D01*
X39810644Y-32607171D01*
X39606267Y-32040304D01*
X39588828Y-31449979D01*
X39740731Y-30897518D01*
X40044378Y-30444241D01*
X40482169Y-30151471D01*
X40519271Y-30137918D01*
X40832971Y-30076212D01*
X41354674Y-30027635D01*
X42038581Y-29995233D01*
X42838896Y-29982054D01*
X42862500Y-29981992D01*
X43610832Y-29983423D01*
G36*
X36473257Y-29974556D02*
X36899741Y-29987001D01*
X37156999Y-30016496D01*
X37287408Y-30070206D01*
X37333349Y-30155291D01*
X37338000Y-30226000D01*
X37298482Y-30425416D01*
X37242750Y-30464960D01*
X37059952Y-30458760D01*
X36748245Y-30464392D01*
X36732173Y-30464960D01*
X36316846Y-30480000D01*
X36385500Y-35750500D01*
X36869496Y-35790378D01*
X37192130Y-35843999D01*
X37313171Y-35951842D01*
X37312462Y-36044378D01*
X37262700Y-36137831D01*
X37127565Y-36202669D01*
X36865023Y-36245749D01*
X36433040Y-36273929D01*
X35789580Y-36294067D01*
X35780716Y-36294280D01*
X35146320Y-36307225D01*
X34723164Y-36305616D01*
X34468623Y-36283098D01*
X34340067Y-36233316D01*
X34294870Y-36149915D01*
X34290000Y-36072030D01*
X34316760Y-35928048D01*
X34435897Y-35850250D01*
X34705693Y-35818903D01*
X35052000Y-35814000D01*
X35814000Y-35814000D01*
X35814000Y-33268948D01*
X30416500Y-33337500D01*
X30343802Y-35814000D01*
X31096813Y-35814000D01*
X31587854Y-35843307D01*
X31872329Y-35945318D01*
X31992383Y-36141164D01*
X32004000Y-36268887D01*
X31884994Y-36288953D01*
X31559945Y-36305547D01*
X31076801Y-36317074D01*
X30483511Y-36321939D01*
X30407187Y-36322000D01*
X29744904Y-36319111D01*
X29297195Y-36306691D01*
X29024664Y-36279108D01*
X28887917Y-36230731D01*
X28847556Y-36155926D01*
X28852494Y-36099750D01*
X28987813Y-35926142D01*
X29331099Y-35841606D01*
X29369806Y-35838083D01*
X29845000Y-35798667D01*
X29845000Y-30495332D01*
X29368750Y-30455916D01*
X29012681Y-30380353D01*
X28892550Y-30230009D01*
X28892500Y-30226000D01*
X28934177Y-30141781D01*
X29084903Y-30082452D01*
X29383212Y-30042168D01*
X29867642Y-30015086D01*
X30384750Y-29999719D01*
X31019528Y-29986777D01*
X31443044Y-29988367D01*
X31697904Y-30010835D01*
X31826713Y-30060528D01*
X31872076Y-30143789D01*
X31877000Y-30221969D01*
X31850239Y-30365951D01*
X31731102Y-30443749D01*
X31461306Y-30475096D01*
X31115000Y-30480000D01*
X30353000Y-30480000D01*
X30353000Y-31534099D01*
X30372171Y-32122822D01*
X30426174Y-32540240D01*
X30505400Y-32740599D01*
X30671690Y-32785174D01*
X31043390Y-32823602D01*
X31571967Y-32855168D01*
X32208887Y-32879158D01*
X32905619Y-32894854D01*
X33613630Y-32901542D01*
X34284387Y-32898507D01*
X34869357Y-32885031D01*
X35320009Y-32860401D01*
X35587808Y-32823899D01*
X35613112Y-32815912D01*
X35712699Y-32729957D01*
X35774105Y-32533543D01*
X35805236Y-32179191D01*
X35813998Y-31619423D01*
X35814000Y-31609412D01*
X35814000Y-30480000D01*
X35065587Y-30480000D01*
X34579667Y-30455326D01*
X34314266Y-30377085D01*
X34248838Y-30301916D01*
X34230316Y-30098493D01*
X34256417Y-30047916D01*
X34406124Y-30018264D01*
X34757008Y-29994036D01*
X35256265Y-29977769D01*
X35835166Y-29972000D01*
X36473257Y-29974556D01*
X36473257Y-29974556D01*
G37*
X36473257Y-29974556D02*
X36899741Y-29987001D01*
X37156999Y-30016496D01*
X37287408Y-30070206D01*
X37333349Y-30155291D01*
X37338000Y-30226000D01*
X37298482Y-30425416D01*
X37242750Y-30464960D01*
X37059952Y-30458760D01*
X36748245Y-30464392D01*
X36732173Y-30464960D01*
X36316846Y-30480000D01*
X36385500Y-35750500D01*
X36869496Y-35790378D01*
X37192130Y-35843999D01*
X37313171Y-35951842D01*
X37312462Y-36044378D01*
X37262700Y-36137831D01*
X37127565Y-36202669D01*
X36865023Y-36245749D01*
X36433040Y-36273929D01*
X35789580Y-36294067D01*
X35780716Y-36294280D01*
X35146320Y-36307225D01*
X34723164Y-36305616D01*
X34468623Y-36283098D01*
X34340067Y-36233316D01*
X34294870Y-36149915D01*
X34290000Y-36072030D01*
X34316760Y-35928048D01*
X34435897Y-35850250D01*
X34705693Y-35818903D01*
X35052000Y-35814000D01*
X35814000Y-35814000D01*
X35814000Y-33268948D01*
X30416500Y-33337500D01*
X30343802Y-35814000D01*
X31096813Y-35814000D01*
X31587854Y-35843307D01*
X31872329Y-35945318D01*
X31992383Y-36141164D01*
X32004000Y-36268887D01*
X31884994Y-36288953D01*
X31559945Y-36305547D01*
X31076801Y-36317074D01*
X30483511Y-36321939D01*
X30407187Y-36322000D01*
X29744904Y-36319111D01*
X29297195Y-36306691D01*
X29024664Y-36279108D01*
X28887917Y-36230731D01*
X28847556Y-36155926D01*
X28852494Y-36099750D01*
X28987813Y-35926142D01*
X29331099Y-35841606D01*
X29369806Y-35838083D01*
X29845000Y-35798667D01*
X29845000Y-30495332D01*
X29368750Y-30455916D01*
X29012681Y-30380353D01*
X28892550Y-30230009D01*
X28892500Y-30226000D01*
X28934177Y-30141781D01*
X29084903Y-30082452D01*
X29383212Y-30042168D01*
X29867642Y-30015086D01*
X30384750Y-29999719D01*
X31019528Y-29986777D01*
X31443044Y-29988367D01*
X31697904Y-30010835D01*
X31826713Y-30060528D01*
X31872076Y-30143789D01*
X31877000Y-30221969D01*
X31850239Y-30365951D01*
X31731102Y-30443749D01*
X31461306Y-30475096D01*
X31115000Y-30480000D01*
X30353000Y-30480000D01*
X30353000Y-31534099D01*
X30372171Y-32122822D01*
X30426174Y-32540240D01*
X30505400Y-32740599D01*
X30671690Y-32785174D01*
X31043390Y-32823602D01*
X31571967Y-32855168D01*
X32208887Y-32879158D01*
X32905619Y-32894854D01*
X33613630Y-32901542D01*
X34284387Y-32898507D01*
X34869357Y-32885031D01*
X35320009Y-32860401D01*
X35587808Y-32823899D01*
X35613112Y-32815912D01*
X35712699Y-32729957D01*
X35774105Y-32533543D01*
X35805236Y-32179191D01*
X35813998Y-31619423D01*
X35814000Y-31609412D01*
X35814000Y-30480000D01*
X35065587Y-30480000D01*
X34579667Y-30455326D01*
X34314266Y-30377085D01*
X34248838Y-30301916D01*
X34230316Y-30098493D01*
X34256417Y-30047916D01*
X34406124Y-30018264D01*
X34757008Y-29994036D01*
X35256265Y-29977769D01*
X35835166Y-29972000D01*
X36473257Y-29974556D01*
G36*
X26710011Y-30017554D02*
X26777239Y-30193258D01*
X26796868Y-30557423D01*
X26797000Y-30607000D01*
X26773786Y-31015786D01*
X26697186Y-31211427D01*
X26618757Y-31242000D01*
X26492570Y-31137988D01*
X26415665Y-30812197D01*
X26396507Y-30606921D01*
X26383380Y-30224886D01*
X26424241Y-30033873D01*
X26536005Y-29973620D01*
X26574750Y-29971921D01*
X26710011Y-30017554D01*
X26710011Y-30017554D01*
G37*
X26710011Y-30017554D02*
X26777239Y-30193258D01*
X26796868Y-30557423D01*
X26797000Y-30607000D01*
X26773786Y-31015786D01*
X26697186Y-31211427D01*
X26618757Y-31242000D01*
X26492570Y-31137988D01*
X26415665Y-30812197D01*
X26396507Y-30606921D01*
X26383380Y-30224886D01*
X26424241Y-30033873D01*
X26536005Y-29973620D01*
X26574750Y-29971921D01*
X26710011Y-30017554D01*
G36*
X24283926Y-29971159D02*
X24914081Y-29993727D01*
X25441063Y-30035460D01*
X25808898Y-30096333D01*
X25939750Y-30148789D01*
X26117321Y-30316118D01*
X26162000Y-30398750D01*
X26041960Y-30425717D01*
X25709665Y-30448898D01*
X25206849Y-30466686D01*
X24575248Y-30477472D01*
X24054345Y-30480000D01*
X23243044Y-30483812D01*
X22643511Y-30497759D01*
X22213594Y-30525606D01*
X21911141Y-30571116D01*
X21693999Y-30638055D01*
X21565758Y-30702250D01*
X21129055Y-31101937D01*
X20816046Y-31711476D01*
X20633788Y-32515082D01*
X20600758Y-32860679D01*
X20613631Y-33821361D01*
X20793963Y-34610175D01*
X21147708Y-35251293D01*
X21208320Y-35326943D01*
X21561682Y-35750500D01*
X24179341Y-35789512D01*
X25057579Y-35803732D01*
X25714000Y-35818928D01*
X26180777Y-35838612D01*
X26490079Y-35866296D01*
X26674078Y-35905492D01*
X26764945Y-35959711D01*
X26794851Y-36032467D01*
X26797000Y-36075262D01*
X26785291Y-36161426D01*
X26727663Y-36224549D01*
X26590366Y-36267965D01*
X26339647Y-36295010D01*
X25941756Y-36309018D01*
X25362942Y-36313325D01*
X24569453Y-36311265D01*
X24415750Y-36310546D01*
X23636470Y-36301036D01*
X22921398Y-36281588D01*
X22318700Y-36254349D01*
X21876545Y-36221465D01*
X21650318Y-36187317D01*
X21185739Y-35937547D01*
X20750799Y-35498815D01*
X20401338Y-34934804D01*
X20273084Y-34616626D01*
X20127024Y-33940867D01*
X20072211Y-33145212D01*
X20111559Y-32347909D01*
X20204217Y-31821565D01*
X20441766Y-31243629D01*
X20822793Y-30706377D01*
X21280934Y-30292730D01*
X21544672Y-30146722D01*
X21851072Y-30073068D01*
X22334172Y-30018711D01*
X22937997Y-29983625D01*
X23606573Y-29967783D01*
X24283926Y-29971159D01*
X24283926Y-29971159D01*
G37*
X24283926Y-29971159D02*
X24914081Y-29993727D01*
X25441063Y-30035460D01*
X25808898Y-30096333D01*
X25939750Y-30148789D01*
X26117321Y-30316118D01*
X26162000Y-30398750D01*
X26041960Y-30425717D01*
X25709665Y-30448898D01*
X25206849Y-30466686D01*
X24575248Y-30477472D01*
X24054345Y-30480000D01*
X23243044Y-30483812D01*
X22643511Y-30497759D01*
X22213594Y-30525606D01*
X21911141Y-30571116D01*
X21693999Y-30638055D01*
X21565758Y-30702250D01*
X21129055Y-31101937D01*
X20816046Y-31711476D01*
X20633788Y-32515082D01*
X20600758Y-32860679D01*
X20613631Y-33821361D01*
X20793963Y-34610175D01*
X21147708Y-35251293D01*
X21208320Y-35326943D01*
X21561682Y-35750500D01*
X24179341Y-35789512D01*
X25057579Y-35803732D01*
X25714000Y-35818928D01*
X26180777Y-35838612D01*
X26490079Y-35866296D01*
X26674078Y-35905492D01*
X26764945Y-35959711D01*
X26794851Y-36032467D01*
X26797000Y-36075262D01*
X26785291Y-36161426D01*
X26727663Y-36224549D01*
X26590366Y-36267965D01*
X26339647Y-36295010D01*
X25941756Y-36309018D01*
X25362942Y-36313325D01*
X24569453Y-36311265D01*
X24415750Y-36310546D01*
X23636470Y-36301036D01*
X22921398Y-36281588D01*
X22318700Y-36254349D01*
X21876545Y-36221465D01*
X21650318Y-36187317D01*
X21185739Y-35937547D01*
X20750799Y-35498815D01*
X20401338Y-34934804D01*
X20273084Y-34616626D01*
X20127024Y-33940867D01*
X20072211Y-33145212D01*
X20111559Y-32347909D01*
X20204217Y-31821565D01*
X20441766Y-31243629D01*
X20822793Y-30706377D01*
X21280934Y-30292730D01*
X21544672Y-30146722D01*
X21851072Y-30073068D01*
X22334172Y-30018711D01*
X22937997Y-29983625D01*
X23606573Y-29967783D01*
X24283926Y-29971159D01*
G36*
X15718601Y-29970423D02*
X16353889Y-30006758D01*
X16860258Y-30063056D01*
X17184562Y-30139332D01*
X17243741Y-30169701D01*
X17447493Y-30296166D01*
X17518702Y-30264178D01*
X17526000Y-30160389D01*
X17618336Y-30001889D01*
X17748250Y-29995580D01*
X17897489Y-30094964D01*
X17980462Y-30357208D01*
X18009208Y-30639892D01*
X18020259Y-31005502D01*
X17975668Y-31183804D01*
X17851552Y-31239498D01*
X17786958Y-31242000D01*
X17596718Y-31185045D01*
X17529189Y-30969532D01*
X17526000Y-30861000D01*
X17526000Y-30480000D01*
X12324855Y-30480000D01*
X12120844Y-30791360D01*
X11958327Y-31206162D01*
X11913739Y-31703258D01*
X11983426Y-32181338D01*
X12163731Y-32539093D01*
X12184720Y-32561388D01*
X12291456Y-32653246D01*
X12427300Y-32722923D01*
X12628566Y-32774698D01*
X12931568Y-32812849D01*
X13372620Y-32841652D01*
X13988037Y-32865386D01*
X14814130Y-32888328D01*
X14999870Y-32893000D01*
X15893921Y-32915484D01*
X16570173Y-32940064D01*
X17064648Y-32978335D01*
X17413369Y-33041893D01*
X17652360Y-33142333D01*
X17817642Y-33291251D01*
X17945239Y-33500242D01*
X18071173Y-33780902D01*
X18121338Y-33897780D01*
X18239721Y-34446786D01*
X18175709Y-35032254D01*
X17954626Y-35575497D01*
X17601796Y-35997827D01*
X17403157Y-36129350D01*
X17126239Y-36203686D01*
X16650900Y-36261632D01*
X16032215Y-36302801D01*
X15325257Y-36326805D01*
X14585100Y-36333257D01*
X13866819Y-36321771D01*
X13225488Y-36291959D01*
X12716182Y-36243435D01*
X12393974Y-36175811D01*
X12366811Y-36164743D01*
X12108016Y-36072867D01*
X11989786Y-36119156D01*
X11969252Y-36164743D01*
X11813847Y-36308602D01*
X11736916Y-36322000D01*
X11614343Y-36231607D01*
X11561192Y-35938596D01*
X11557000Y-35764087D01*
X11599418Y-35340134D01*
X11729698Y-35141095D01*
X11747500Y-35133073D01*
X11886157Y-35144514D01*
X11936298Y-35352940D01*
X11938000Y-35436985D01*
X11938000Y-35814000D01*
X14408524Y-35814000D01*
X15364595Y-35809291D01*
X16099585Y-35791161D01*
X16646303Y-35753602D01*
X17037560Y-35690607D01*
X17306165Y-35596168D01*
X17484929Y-35464279D01*
X17606662Y-35288931D01*
X17638995Y-35222519D01*
X17755971Y-34760693D01*
X17739143Y-34261491D01*
X17606829Y-33803427D01*
X17377346Y-33465015D01*
X17202810Y-33352890D01*
X17013229Y-33327116D01*
X16615194Y-33304654D01*
X16054243Y-33287004D01*
X15375915Y-33275668D01*
X14753362Y-33272127D01*
X13845713Y-33266470D01*
X13155606Y-33245255D01*
X12646671Y-33199548D01*
X12282537Y-33120412D01*
X12026833Y-32998910D01*
X11843187Y-32826106D01*
X11695230Y-32593064D01*
X11652447Y-32510233D01*
X11467961Y-31924658D01*
X11462947Y-31324563D01*
X11622755Y-30775437D01*
X11932737Y-30342774D01*
X12175688Y-30170935D01*
X12468446Y-30087757D01*
X12951155Y-30024466D01*
X13570670Y-29981074D01*
X14273846Y-29957594D01*
X15007538Y-29954039D01*
X15718601Y-29970423D01*
X15718601Y-29970423D01*
G37*
X15718601Y-29970423D02*
X16353889Y-30006758D01*
X16860258Y-30063056D01*
X17184562Y-30139332D01*
X17243741Y-30169701D01*
X17447493Y-30296166D01*
X17518702Y-30264178D01*
X17526000Y-30160389D01*
X17618336Y-30001889D01*
X17748250Y-29995580D01*
X17897489Y-30094964D01*
X17980462Y-30357208D01*
X18009208Y-30639892D01*
X18020259Y-31005502D01*
X17975668Y-31183804D01*
X17851552Y-31239498D01*
X17786958Y-31242000D01*
X17596718Y-31185045D01*
X17529189Y-30969532D01*
X17526000Y-30861000D01*
X17526000Y-30480000D01*
X12324855Y-30480000D01*
X12120844Y-30791360D01*
X11958327Y-31206162D01*
X11913739Y-31703258D01*
X11983426Y-32181338D01*
X12163731Y-32539093D01*
X12184720Y-32561388D01*
X12291456Y-32653246D01*
X12427300Y-32722923D01*
X12628566Y-32774698D01*
X12931568Y-32812849D01*
X13372620Y-32841652D01*
X13988037Y-32865386D01*
X14814130Y-32888328D01*
X14999870Y-32893000D01*
X15893921Y-32915484D01*
X16570173Y-32940064D01*
X17064648Y-32978335D01*
X17413369Y-33041893D01*
X17652360Y-33142333D01*
X17817642Y-33291251D01*
X17945239Y-33500242D01*
X18071173Y-33780902D01*
X18121338Y-33897780D01*
X18239721Y-34446786D01*
X18175709Y-35032254D01*
X17954626Y-35575497D01*
X17601796Y-35997827D01*
X17403157Y-36129350D01*
X17126239Y-36203686D01*
X16650900Y-36261632D01*
X16032215Y-36302801D01*
X15325257Y-36326805D01*
X14585100Y-36333257D01*
X13866819Y-36321771D01*
X13225488Y-36291959D01*
X12716182Y-36243435D01*
X12393974Y-36175811D01*
X12366811Y-36164743D01*
X12108016Y-36072867D01*
X11989786Y-36119156D01*
X11969252Y-36164743D01*
X11813847Y-36308602D01*
X11736916Y-36322000D01*
X11614343Y-36231607D01*
X11561192Y-35938596D01*
X11557000Y-35764087D01*
X11599418Y-35340134D01*
X11729698Y-35141095D01*
X11747500Y-35133073D01*
X11886157Y-35144514D01*
X11936298Y-35352940D01*
X11938000Y-35436985D01*
X11938000Y-35814000D01*
X14408524Y-35814000D01*
X15364595Y-35809291D01*
X16099585Y-35791161D01*
X16646303Y-35753602D01*
X17037560Y-35690607D01*
X17306165Y-35596168D01*
X17484929Y-35464279D01*
X17606662Y-35288931D01*
X17638995Y-35222519D01*
X17755971Y-34760693D01*
X17739143Y-34261491D01*
X17606829Y-33803427D01*
X17377346Y-33465015D01*
X17202810Y-33352890D01*
X17013229Y-33327116D01*
X16615194Y-33304654D01*
X16054243Y-33287004D01*
X15375915Y-33275668D01*
X14753362Y-33272127D01*
X13845713Y-33266470D01*
X13155606Y-33245255D01*
X12646671Y-33199548D01*
X12282537Y-33120412D01*
X12026833Y-32998910D01*
X11843187Y-32826106D01*
X11695230Y-32593064D01*
X11652447Y-32510233D01*
X11467961Y-31924658D01*
X11462947Y-31324563D01*
X11622755Y-30775437D01*
X11932737Y-30342774D01*
X12175688Y-30170935D01*
X12468446Y-30087757D01*
X12951155Y-30024466D01*
X13570670Y-29981074D01*
X14273846Y-29957594D01*
X15007538Y-29954039D01*
X15718601Y-29970423D01*
G36*
X58304338Y-9922364D02*
X60750293Y-9923420D01*
X62979768Y-9925531D01*
X64999015Y-9928716D01*
X66814287Y-9932997D01*
X68431837Y-9938393D01*
X69857918Y-9944926D01*
X71098784Y-9952616D01*
X72160686Y-9961484D01*
X73049878Y-9971550D01*
X73772613Y-9982836D01*
X74335144Y-9995361D01*
X74743724Y-10009147D01*
X75004605Y-10024213D01*
X75120500Y-10039491D01*
X75528772Y-10202811D01*
X75879295Y-10418493D01*
X75925339Y-10457823D01*
X76016837Y-10538762D01*
X76099419Y-10612871D01*
X76173540Y-10692916D01*
X76239657Y-10791659D01*
X76298226Y-10921867D01*
X76349703Y-11096304D01*
X76394544Y-11327735D01*
X76433206Y-11628923D01*
X76466144Y-12012635D01*
X76493816Y-12491634D01*
X76516676Y-13078686D01*
X76535181Y-13786555D01*
X76549788Y-14628006D01*
X76560952Y-15615804D01*
X76569130Y-16762712D01*
X76574778Y-18081497D01*
X76578352Y-19584922D01*
X76580308Y-21285753D01*
X76581102Y-23196754D01*
X76581191Y-25330690D01*
X76581031Y-27700325D01*
X76580999Y-28804412D01*
X76580957Y-31240974D01*
X76580702Y-33436529D01*
X76580044Y-35404070D01*
X76578790Y-37156592D01*
X76576750Y-38707086D01*
X76573732Y-40068547D01*
X76569544Y-41253968D01*
X76563995Y-42276342D01*
X76556893Y-43148662D01*
X76548048Y-43883922D01*
X76537267Y-44495115D01*
X76524360Y-44995234D01*
X76509134Y-45397273D01*
X76491398Y-45714225D01*
X76470962Y-45959083D01*
X76447633Y-46144840D01*
X76421220Y-46284490D01*
X76391531Y-46391027D01*
X76358375Y-46477442D01*
X76321561Y-46556730D01*
X76319366Y-46561269D01*
X76000678Y-47031743D01*
X75536991Y-47353721D01*
X75517269Y-47363366D01*
X74976806Y-47625000D01*
X42854153Y-47624802D01*
X39473559Y-47624716D01*
X36337659Y-47624457D01*
X33437146Y-47623962D01*
X30762714Y-47623167D01*
X28305055Y-47622010D01*
X26054864Y-47620426D01*
X24002834Y-47618352D01*
X22139658Y-47615724D01*
X20456031Y-47612480D01*
X18942644Y-47608555D01*
X17590193Y-47603886D01*
X16389370Y-47598409D01*
X15330869Y-47592061D01*
X14405384Y-47584779D01*
X13603607Y-47576498D01*
X12916233Y-47567156D01*
X12333955Y-47556688D01*
X11847466Y-47545032D01*
X11447460Y-47532124D01*
X11124630Y-47517900D01*
X10869671Y-47502296D01*
X10673275Y-47485250D01*
X10526135Y-47466698D01*
X10418946Y-47446576D01*
X10342401Y-47424820D01*
X10289531Y-47402552D01*
X9917069Y-47140501D01*
X9590175Y-46793035D01*
X9559281Y-46748968D01*
X9271000Y-46317437D01*
X9271000Y-31178500D01*
X10922000Y-31178500D01*
X10985515Y-31314704D01*
X11080750Y-31288616D01*
X11172654Y-31253180D01*
X11090516Y-31377158D01*
X11078020Y-31392673D01*
X10981320Y-31649121D01*
X11043126Y-31925052D01*
X11110734Y-32163575D01*
X11093806Y-32258000D01*
X11100147Y-32338815D01*
X11192199Y-32472878D01*
X11283249Y-32613225D01*
X11209204Y-32593282D01*
X11104160Y-32579854D01*
X11127262Y-32695174D01*
X11240116Y-32833586D01*
X11301968Y-32830137D01*
X11376849Y-32877767D01*
X11383911Y-32989616D01*
X11459573Y-33168840D01*
X11597216Y-33191450D01*
X11755797Y-33206348D01*
X11756774Y-33243558D01*
X11793954Y-33357823D01*
X11970557Y-33516608D01*
X12122066Y-33590831D01*
X12363982Y-33649017D01*
X12730202Y-33694425D01*
X13254626Y-33730312D01*
X13971151Y-33759937D01*
X14732000Y-33782000D01*
X15628689Y-33808956D01*
X16295872Y-33839022D01*
X16758042Y-33874424D01*
X17039692Y-33917389D01*
X17165313Y-33970143D01*
X17176749Y-34004250D01*
X17227071Y-34149858D01*
X17276806Y-34163000D01*
X17371823Y-34262657D01*
X17368078Y-34506712D01*
X17281219Y-34812784D01*
X17126890Y-35098497D01*
X17090347Y-35144724D01*
X16991426Y-35249057D01*
X16873003Y-35324611D01*
X16695756Y-35376025D01*
X16420367Y-35407934D01*
X16007514Y-35424975D01*
X15417877Y-35431785D01*
X14645597Y-35433000D01*
X12446000Y-35433000D01*
X12446000Y-35052000D01*
X12433476Y-34831235D01*
X12353464Y-34718161D01*
X12142302Y-34676757D01*
X11772631Y-34671000D01*
X11099263Y-34671000D01*
X11065262Y-35756973D01*
X11031262Y-36842947D01*
X14056381Y-36804723D01*
X15026283Y-36790761D01*
X15777535Y-36774490D01*
X16345488Y-36752981D01*
X16765489Y-36723303D01*
X17072889Y-36682525D01*
X17303037Y-36627716D01*
X17491282Y-36555947D01*
X17581304Y-36512500D01*
X18075936Y-36189471D01*
X18394887Y-35784657D01*
X18574606Y-35237909D01*
X18634273Y-34774843D01*
X18655244Y-34256177D01*
X18606312Y-33872785D01*
X18469990Y-33511408D01*
X18444029Y-33459001D01*
X19577413Y-33459001D01*
X19745107Y-34450268D01*
X19795768Y-34623731D01*
X20109743Y-35413989D01*
X20507830Y-35991405D01*
X21023678Y-36392073D01*
X21685172Y-36650541D01*
X21987346Y-36699178D01*
X22477804Y-36741569D01*
X23106094Y-36776761D01*
X23821762Y-36803799D01*
X24574354Y-36821732D01*
X25313417Y-36829605D01*
X25988499Y-36826466D01*
X26549146Y-36811362D01*
X26944905Y-36783340D01*
X27104112Y-36752912D01*
X27238027Y-36611397D01*
X27298311Y-36290469D01*
X27305000Y-36054412D01*
X27305000Y-35433000D01*
X24758693Y-35433000D01*
X23783940Y-35429419D01*
X23029850Y-35412463D01*
X22463120Y-35372808D01*
X22050444Y-35301131D01*
X21758520Y-35188109D01*
X21554042Y-35024421D01*
X21403707Y-34800742D01*
X21274209Y-34507751D01*
X21252286Y-34451454D01*
X21073616Y-33772526D01*
X21027313Y-33060739D01*
X21102507Y-32371481D01*
X21288327Y-31760143D01*
X21573899Y-31282113D01*
X21929510Y-31001079D01*
X22178832Y-30946300D01*
X22635049Y-30902672D01*
X23251187Y-30873263D01*
X23980271Y-30861146D01*
X24072475Y-30861000D01*
X25908000Y-30861000D01*
X25908000Y-31750000D01*
X27314888Y-31750000D01*
X27241500Y-29527500D01*
X24574500Y-29527500D01*
X23755179Y-29532025D01*
X23003773Y-29544660D01*
X22364094Y-29563993D01*
X21879955Y-29588614D01*
X21595170Y-29617111D01*
X21560579Y-29624585D01*
X21251345Y-29768762D01*
X20886878Y-30015536D01*
X20758672Y-30121152D01*
X20205221Y-30769558D01*
X19817305Y-31572659D01*
X19604757Y-32484469D01*
X19577413Y-33459001D01*
X18444029Y-33459001D01*
X18425251Y-33421095D01*
X18239590Y-33088469D01*
X18042124Y-32835567D01*
X17796514Y-32651557D01*
X17466424Y-32525607D01*
X17015514Y-32446885D01*
X16407448Y-32404558D01*
X15605886Y-32387796D01*
X14951106Y-32385474D01*
X12566713Y-32385000D01*
X12433754Y-32035750D01*
X12367577Y-31560697D01*
X12409901Y-31305500D01*
X12519006Y-30924500D01*
X17072314Y-30924500D01*
X17076907Y-31305500D01*
X17094336Y-31527971D01*
X17182539Y-31646015D01*
X17405808Y-31699794D01*
X17748250Y-31724886D01*
X18415000Y-31763273D01*
X18415000Y-29485627D01*
X28448000Y-29485627D01*
X28448000Y-30861000D01*
X29337000Y-30861000D01*
X29337000Y-35433000D01*
X28448000Y-35433000D01*
X28448000Y-36840176D01*
X32385000Y-36806662D01*
X32385000Y-35433000D01*
X30861000Y-35433000D01*
X30851225Y-35020250D01*
X30836441Y-34570879D01*
X30819475Y-34194740D01*
X30830117Y-33913081D01*
X30885501Y-33780197D01*
X30892750Y-33778734D01*
X31332690Y-33769417D01*
X31897215Y-33765688D01*
X32538315Y-33766891D01*
X33207976Y-33772371D01*
X33858189Y-33781471D01*
X34440941Y-33793536D01*
X34908220Y-33807911D01*
X35212016Y-33823941D01*
X35306000Y-33838987D01*
X35306000Y-35433000D01*
X33782000Y-35433000D01*
X33782000Y-36807189D01*
X35812954Y-36823583D01*
X37843909Y-36839978D01*
X37813204Y-36168239D01*
X37782500Y-35496500D01*
X37302044Y-35433000D01*
X36995751Y-35370220D01*
X36833690Y-35293427D01*
X36825794Y-35274250D01*
X36827180Y-35121564D01*
X36828374Y-34758577D01*
X36829153Y-34310045D01*
X39010517Y-34310045D01*
X39030538Y-35007157D01*
X39299839Y-35657030D01*
X39696472Y-36147157D01*
X39891669Y-36338435D01*
X40071304Y-36487565D01*
X40268589Y-36599635D01*
X40516734Y-36679733D01*
X40848951Y-36732948D01*
X41298451Y-36764367D01*
X41898446Y-36779079D01*
X42682147Y-36782172D01*
X43682765Y-36778734D01*
X43815000Y-36778143D01*
X46418500Y-36766500D01*
X46454546Y-35401250D01*
X46490593Y-34036000D01*
X45085000Y-34036000D01*
X45085000Y-35433000D01*
X43009183Y-35433000D01*
X42226668Y-35430278D01*
X41658485Y-35419446D01*
X41265001Y-35396503D01*
X41006582Y-35357449D01*
X40843592Y-35298283D01*
X40736398Y-35215005D01*
X40724691Y-35202416D01*
X40513868Y-34837411D01*
X40440861Y-34421450D01*
X40520169Y-34061830D01*
X40561923Y-33997802D01*
X40661010Y-33906042D01*
X40818461Y-33842207D01*
X41076713Y-33801318D01*
X41478207Y-33778395D01*
X42065379Y-33768457D01*
X42531801Y-33766645D01*
X43325360Y-33758504D01*
X43899815Y-33728815D01*
X44289869Y-33665910D01*
X44530225Y-33558121D01*
X44655588Y-33393780D01*
X44700661Y-33161221D01*
X44704000Y-33036328D01*
X44685503Y-32792289D01*
X44605958Y-32617855D01*
X44429284Y-32501497D01*
X44119399Y-32431680D01*
X43640221Y-32396876D01*
X42955668Y-32385550D01*
X42666032Y-32385000D01*
X41952322Y-32380994D01*
X41446598Y-32365357D01*
X41102921Y-32332660D01*
X40875353Y-32277474D01*
X40717956Y-32194370D01*
X40659432Y-32147853D01*
X40432340Y-31815543D01*
X40409075Y-31446037D01*
X40588953Y-31123838D01*
X40668258Y-31058701D01*
X40829441Y-30980227D01*
X41079117Y-30924626D01*
X41456395Y-30888514D01*
X42000383Y-30868509D01*
X42750190Y-30861229D01*
X42954258Y-30861000D01*
X44958000Y-30861000D01*
X44958000Y-31750000D01*
X46364888Y-31750000D01*
X47116391Y-31750000D01*
X48514000Y-31750000D01*
X48514000Y-30861000D01*
X50800000Y-30861000D01*
X50800000Y-35433000D01*
X49149000Y-35433000D01*
X49149000Y-36057416D01*
X49180754Y-36474185D01*
X49267416Y-36715164D01*
X49307750Y-36747364D01*
X49481617Y-36767462D01*
X49864851Y-36782384D01*
X50412856Y-36791335D01*
X51081037Y-36793523D01*
X51689000Y-36789697D01*
X53911500Y-36766500D01*
X53911500Y-35496500D01*
X52197000Y-35421394D01*
X52197000Y-33371084D01*
X56277499Y-33371084D01*
X56394640Y-34273188D01*
X56677213Y-35107790D01*
X57127579Y-35820932D01*
X57166369Y-35865955D01*
X57428188Y-36145119D01*
X57686926Y-36362651D01*
X57977534Y-36525888D01*
X58334960Y-36642167D01*
X58794154Y-36718827D01*
X59390066Y-36763205D01*
X60157645Y-36782637D01*
X61131842Y-36784463D01*
X61530946Y-36782281D01*
X63943393Y-36766500D01*
X63985339Y-36106826D01*
X64027285Y-35447153D01*
X61309548Y-35408326D01*
X60367690Y-35393938D01*
X59645744Y-35374742D01*
X59109668Y-35341123D01*
X58725419Y-35283466D01*
X58458955Y-35192157D01*
X58276235Y-35057581D01*
X58143215Y-34870123D01*
X58025853Y-34620169D01*
X57959673Y-34462210D01*
X57819966Y-33920746D01*
X57768170Y-33247771D01*
X57803480Y-32549779D01*
X57925087Y-31933260D01*
X57980035Y-31775697D01*
X58131054Y-31453645D01*
X58314847Y-31216712D01*
X58570293Y-31052117D01*
X58936274Y-30947083D01*
X59451671Y-30888831D01*
X60155362Y-30864585D01*
X60763193Y-30861000D01*
X62611000Y-30861000D01*
X62611000Y-31763273D01*
X63277750Y-31724886D01*
X63944500Y-31686500D01*
X63944500Y-29527500D01*
X61277500Y-29527500D01*
X60457734Y-29532092D01*
X59705462Y-29544913D01*
X59064609Y-29564531D01*
X58579101Y-29589514D01*
X58292861Y-29618428D01*
X58258048Y-29625973D01*
X57955515Y-29769632D01*
X57588480Y-30022218D01*
X57415980Y-30166784D01*
X56895030Y-30799327D01*
X56530057Y-31580196D01*
X56323426Y-32455434D01*
X56277499Y-33371084D01*
X52197000Y-33371084D01*
X52197000Y-30861000D01*
X53340000Y-30861000D01*
X53901468Y-30865523D01*
X54253650Y-30896382D01*
X54441260Y-30979508D01*
X54509012Y-31140834D01*
X54501620Y-31406293D01*
X54489641Y-31527750D01*
X54514410Y-31656421D01*
X54659235Y-31723945D01*
X54979471Y-31748308D01*
X55173517Y-31750000D01*
X55880000Y-31750000D01*
X55880000Y-29478111D01*
X65151000Y-29478111D01*
X65151000Y-30861000D01*
X65627250Y-30860848D01*
X66103500Y-30860697D01*
X66066209Y-33146848D01*
X66028919Y-35433000D01*
X65151000Y-35433000D01*
X65151000Y-36840176D01*
X69088000Y-36806662D01*
X69088000Y-35433000D01*
X67585673Y-35433000D01*
X67543086Y-34612632D01*
X67500500Y-33792264D01*
X69723000Y-33755382D01*
X70444678Y-33743669D01*
X71071446Y-33734000D01*
X71562043Y-33726970D01*
X71875205Y-33723174D01*
X71971109Y-33722942D01*
X71989535Y-33841113D01*
X72012752Y-34145812D01*
X72034609Y-34548442D01*
X72072500Y-35369500D01*
X70485000Y-35445120D01*
X70485000Y-36830000D01*
X74520666Y-36830000D01*
X74511276Y-35496500D01*
X73990388Y-35433000D01*
X73661139Y-35380220D01*
X73515578Y-35277710D01*
X73485043Y-35046841D01*
X73491332Y-34861500D01*
X73500217Y-34544246D01*
X73508969Y-34038428D01*
X73516665Y-33409477D01*
X73522385Y-32722828D01*
X73523082Y-32607250D01*
X73533000Y-30861000D01*
X74526405Y-30861000D01*
X74493951Y-30194250D01*
X74461498Y-29527500D01*
X70485000Y-29457550D01*
X70485000Y-30848879D01*
X71275101Y-30886689D01*
X72065203Y-30924500D01*
X72052041Y-31623000D01*
X72038880Y-32321500D01*
X69801440Y-32356180D01*
X69078723Y-32362095D01*
X68452154Y-32357133D01*
X67962445Y-32342444D01*
X67650306Y-32319180D01*
X67554849Y-32292680D01*
X67545812Y-32117707D01*
X67532985Y-31781307D01*
X67525604Y-31559500D01*
X67505510Y-30924500D01*
X68296755Y-30886689D01*
X69088000Y-30848879D01*
X69088000Y-29478111D01*
X65151000Y-29478111D01*
X55880000Y-29478111D01*
X55880000Y-29476444D01*
X47140954Y-29458174D01*
X47128672Y-30604087D01*
X47116391Y-31750000D01*
X46364888Y-31750000D01*
X46291500Y-29527500D01*
X44005500Y-29488916D01*
X43215123Y-29480616D01*
X42463692Y-29481896D01*
X41808236Y-29491979D01*
X41305783Y-29510090D01*
X41059158Y-29529004D01*
X40307589Y-29723358D01*
X39730791Y-30099479D01*
X39339372Y-30645549D01*
X39143941Y-31349744D01*
X39122882Y-31686500D01*
X39156814Y-32140111D01*
X39248644Y-32546020D01*
X39300460Y-32672118D01*
X39402325Y-32917597D01*
X39399419Y-33144164D01*
X39284272Y-33459806D01*
X39238967Y-33561118D01*
X39010517Y-34310045D01*
X36829153Y-34310045D01*
X36829294Y-34228987D01*
X36829859Y-33576493D01*
X36830000Y-33020000D01*
X36830000Y-30861000D01*
X37859273Y-30861000D01*
X37820886Y-30194250D01*
X37782500Y-29527500D01*
X33845500Y-29527500D01*
X33807328Y-30188023D01*
X33769157Y-30848546D01*
X34554968Y-30886523D01*
X35340778Y-30924500D01*
X35339866Y-32321500D01*
X30824714Y-32321500D01*
X30833785Y-31718250D01*
X30840977Y-31334135D01*
X30848764Y-31054602D01*
X30851928Y-30988000D01*
X30972364Y-30920946D01*
X31276177Y-30874921D01*
X31623000Y-30861000D01*
X32385000Y-30861000D01*
X32385000Y-29455962D01*
X30416500Y-29470795D01*
X28448000Y-29485627D01*
X18415000Y-29485627D01*
X18415000Y-29447646D01*
X12235084Y-29527500D01*
X11769042Y-29883213D01*
X11477277Y-30159745D01*
X11316462Y-30420563D01*
X11303000Y-30493958D01*
X11250708Y-30668538D01*
X11162393Y-30662091D01*
X11077202Y-30671872D01*
X11112500Y-30861000D01*
X11145155Y-31060659D01*
X11062606Y-31059908D01*
X10943179Y-31079393D01*
X10922000Y-31178500D01*
X9271000Y-31178500D01*
X9270999Y-28861162D01*
X9270693Y-26358757D01*
X9270165Y-24097810D01*
X9270129Y-23647258D01*
X18415000Y-23647258D01*
X18525309Y-24375296D01*
X18839845Y-24991103D01*
X19334017Y-25456129D01*
X19685065Y-25638321D01*
X19902380Y-25675699D01*
X20333433Y-25709325D01*
X20937969Y-25737510D01*
X21675736Y-25758564D01*
X22506478Y-25770796D01*
X22891750Y-25772949D01*
X25781000Y-25781000D01*
X25781000Y-23100726D01*
X24449488Y-23177500D01*
X24410325Y-23744835D01*
X24377897Y-24095474D01*
X24341656Y-24319858D01*
X24327696Y-24355636D01*
X24192482Y-24370348D01*
X23847208Y-24382801D01*
X23335809Y-24392089D01*
X22702221Y-24397305D01*
X22270487Y-24398098D01*
X21510653Y-24395881D01*
X20963725Y-24386732D01*
X20588614Y-24365585D01*
X20344233Y-24327376D01*
X20189494Y-24267041D01*
X20083308Y-24179515D01*
X20034371Y-24122477D01*
X19833292Y-23699036D01*
X19881144Y-23253021D01*
X20009701Y-23015258D01*
X20101870Y-22902845D01*
X20223045Y-22825033D01*
X20417230Y-22775483D01*
X20728427Y-22747855D01*
X21200641Y-22735812D01*
X21877876Y-22733015D01*
X21969129Y-22733000D01*
X22705236Y-22727860D01*
X23228369Y-22709668D01*
X23579401Y-22674266D01*
X23799204Y-22617494D01*
X23928649Y-22535194D01*
X23930428Y-22533428D01*
X24113763Y-22197143D01*
X24052591Y-21817274D01*
X23950009Y-21646023D01*
X23855011Y-21547722D01*
X23708738Y-21477434D01*
X23468839Y-21429079D01*
X23092963Y-21396577D01*
X22538758Y-21373847D01*
X21949759Y-21358864D01*
X21290781Y-21336856D01*
X20721570Y-21304096D01*
X20290886Y-21264439D01*
X20047491Y-21221734D01*
X20014755Y-21206020D01*
X19927193Y-20980083D01*
X19919196Y-20636417D01*
X19984223Y-20296253D01*
X20073306Y-20120696D01*
X20183713Y-20049804D01*
X20401818Y-19999022D01*
X20761813Y-19965548D01*
X21297889Y-19946580D01*
X22044237Y-19939317D01*
X22291026Y-19939000D01*
X24357951Y-19939000D01*
X24339225Y-20351750D01*
X24339358Y-20591576D01*
X24409158Y-20718373D01*
X24610459Y-20774869D01*
X24992293Y-20803061D01*
X25664087Y-20841623D01*
X25663639Y-20828000D01*
X26406111Y-20828000D01*
X27109555Y-20828000D01*
X27528612Y-20815477D01*
X27749543Y-20746287D01*
X27828052Y-20572992D01*
X27819845Y-20248158D01*
X27817968Y-20224750D01*
X27819014Y-20091329D01*
X27879738Y-20007608D01*
X28047126Y-19962016D01*
X28368163Y-19942983D01*
X28889833Y-19938937D01*
X28978661Y-19938908D01*
X30162500Y-19938817D01*
X30132550Y-22066158D01*
X30122473Y-22783769D01*
X30113620Y-23417490D01*
X30106628Y-23921551D01*
X30102132Y-24250180D01*
X30100800Y-24352250D01*
X29998944Y-24448007D01*
X29682397Y-24499310D01*
X29273500Y-24511000D01*
X28448000Y-24511000D01*
X28448000Y-25781000D01*
X33274000Y-25781000D01*
X33274000Y-24387983D01*
X32416750Y-24417231D01*
X31993443Y-24419109D01*
X31697433Y-24396212D01*
X31590812Y-24353465D01*
X31591250Y-24351739D01*
X31601717Y-24199230D01*
X31610731Y-23836407D01*
X31617675Y-23306954D01*
X31621936Y-22654557D01*
X31623000Y-22098000D01*
X31623000Y-21926102D01*
X35712667Y-21926102D01*
X35722805Y-22929132D01*
X35869046Y-23749577D01*
X36168248Y-24429121D01*
X36637267Y-25009446D01*
X37123025Y-25413669D01*
X37630109Y-25781000D01*
X43307000Y-25781000D01*
X44430576Y-25781000D01*
X48514000Y-25781000D01*
X48514000Y-24366033D01*
X46926500Y-24431653D01*
X46888947Y-23582326D01*
X46851394Y-22733000D01*
X51413326Y-22733000D01*
X51498500Y-24384532D01*
X49911000Y-24384000D01*
X49911000Y-25781000D01*
X53848000Y-25781000D01*
X53848000Y-25146000D01*
X58674000Y-25146000D01*
X58674000Y-25781000D01*
X63005273Y-25781000D01*
X62966886Y-25114250D01*
X62928500Y-24447500D01*
X61817250Y-24410805D01*
X60706000Y-24374111D01*
X60706000Y-22733000D01*
X65405000Y-22733000D01*
X65405000Y-24384000D01*
X63105947Y-24384000D01*
X63134206Y-25082500D01*
X63162466Y-25781000D01*
X67564000Y-25781000D01*
X67564000Y-25146000D01*
X67553706Y-24769133D01*
X67501172Y-24581124D01*
X67373920Y-24517015D01*
X67246500Y-24511000D01*
X67002287Y-24456044D01*
X66929988Y-24251779D01*
X66929671Y-24225250D01*
X66924414Y-23454981D01*
X66906721Y-22654877D01*
X66878921Y-21871249D01*
X66843347Y-21150408D01*
X66802328Y-20538667D01*
X66758195Y-20082336D01*
X66713279Y-19827728D01*
X66707563Y-19812000D01*
X66354802Y-19266627D01*
X65820614Y-18822468D01*
X65784642Y-18800917D01*
X65570571Y-18737609D01*
X65183784Y-18681380D01*
X64667800Y-18633407D01*
X64066135Y-18594866D01*
X63422307Y-18566935D01*
X62779834Y-18550792D01*
X62182233Y-18547612D01*
X61673023Y-18558574D01*
X61295719Y-18584854D01*
X61093841Y-18627629D01*
X61087000Y-18673854D01*
X61188570Y-18771842D01*
X61075702Y-18772509D01*
X60988914Y-18754665D01*
X60599977Y-18773893D01*
X60193158Y-18954394D01*
X59830102Y-19243603D01*
X59572453Y-19588955D01*
X59481856Y-19937885D01*
X59494740Y-20028753D01*
X59503203Y-20257037D01*
X59429872Y-20320000D01*
X59374415Y-20424268D01*
X59339056Y-20744500D01*
X59323275Y-21291835D01*
X59326553Y-22077412D01*
X59332203Y-22415669D01*
X59372500Y-24511338D01*
X59023250Y-24511169D01*
X58816339Y-24527835D01*
X58713141Y-24621648D01*
X58677717Y-24857935D01*
X58674000Y-25146000D01*
X53848000Y-25146000D01*
X53848000Y-25082499D01*
X53832406Y-24703167D01*
X53792167Y-24455810D01*
X53752750Y-24399039D01*
X53569801Y-24405240D01*
X53258543Y-24399531D01*
X53244750Y-24399039D01*
X52832000Y-24384000D01*
X52832000Y-19939000D01*
X53848000Y-19939000D01*
X53848000Y-18555094D01*
X49911000Y-18557120D01*
X49911000Y-19939000D01*
X50704750Y-19938826D01*
X51498500Y-19938653D01*
X51454996Y-20637326D01*
X51412189Y-21020709D01*
X51347461Y-21275903D01*
X51296246Y-21339342D01*
X51136447Y-21340672D01*
X50767248Y-21342235D01*
X50233245Y-21343888D01*
X49579037Y-21345487D01*
X49053750Y-21346534D01*
X46926500Y-21350383D01*
X46888412Y-20644691D01*
X46850324Y-19939000D01*
X48527273Y-19939000D01*
X48488886Y-19272250D01*
X48450500Y-18605500D01*
X46555171Y-18570228D01*
X45781663Y-18557898D01*
X45226020Y-18563690D01*
X44852135Y-18601834D01*
X44623904Y-18686561D01*
X44505220Y-18832105D01*
X44459978Y-19052696D01*
X44452072Y-19362565D01*
X44451944Y-19399250D01*
X44450000Y-19939000D01*
X44948687Y-19939000D01*
X45309406Y-19975298D01*
X45472058Y-20096308D01*
X45488437Y-20147445D01*
X45500118Y-20340675D01*
X45505847Y-20739801D01*
X45505552Y-21296784D01*
X45499158Y-21963588D01*
X45491953Y-22419045D01*
X45454407Y-24482200D01*
X45026367Y-24440720D01*
X44753260Y-24433712D01*
X44594019Y-24514059D01*
X44511706Y-24734287D01*
X44469386Y-25146921D01*
X44463434Y-25241250D01*
X44430576Y-25781000D01*
X43307000Y-25781000D01*
X43307000Y-25159587D01*
X43277864Y-24734162D01*
X43181594Y-24510741D01*
X43106112Y-24461087D01*
X42920044Y-24436769D01*
X42523664Y-24415602D01*
X41960653Y-24398886D01*
X41274693Y-24387919D01*
X40512999Y-24384000D01*
X39747565Y-24379937D01*
X39061150Y-24368640D01*
X38497562Y-24351443D01*
X38100606Y-24329680D01*
X37914477Y-24304836D01*
X37686630Y-24106736D01*
X37460642Y-23726822D01*
X37268317Y-23235509D01*
X37141460Y-22703209D01*
X37121177Y-22548522D01*
X37121778Y-21907731D01*
X37235506Y-21264998D01*
X37440088Y-20697259D01*
X37713247Y-20281448D01*
X37800752Y-20201332D01*
X37951963Y-20098814D01*
X38131633Y-20026947D01*
X38385061Y-19980382D01*
X38757545Y-19953768D01*
X39294383Y-19941758D01*
X40022127Y-19939000D01*
X41910000Y-19939000D01*
X41925039Y-20288250D01*
X41931212Y-20579571D01*
X41925039Y-20732750D01*
X42031167Y-20784812D01*
X42320795Y-20819409D01*
X42608499Y-20828000D01*
X43307000Y-20828000D01*
X43307000Y-18571220D01*
X40640000Y-18551616D01*
X39847981Y-18550815D01*
X39149495Y-18559712D01*
X38581636Y-18577040D01*
X38181502Y-18601530D01*
X37986187Y-18631914D01*
X37973000Y-18642840D01*
X37871555Y-18754924D01*
X37814250Y-18767390D01*
X37185352Y-18946164D01*
X36630400Y-19361328D01*
X36162230Y-20002731D01*
X36096002Y-20126124D01*
X35919537Y-20524549D01*
X35807378Y-20943210D01*
X35740914Y-21469487D01*
X35712667Y-21926102D01*
X31623000Y-21926102D01*
X31623000Y-19939000D01*
X33909000Y-19939000D01*
X33909000Y-20828000D01*
X35299094Y-20828000D01*
X35242500Y-18605500D01*
X26479500Y-18605500D01*
X26442805Y-19716750D01*
X26406111Y-20828000D01*
X25663639Y-20828000D01*
X25627293Y-19723561D01*
X25590500Y-18605500D01*
X22828250Y-18586583D01*
X21921998Y-18585701D01*
X21168061Y-18595795D01*
X20591171Y-18615964D01*
X20216058Y-18645303D01*
X20067456Y-18682911D01*
X20066000Y-18687400D01*
X19968056Y-18785233D01*
X19907250Y-18786519D01*
X19616042Y-18786923D01*
X19363840Y-18906041D01*
X19058825Y-19187769D01*
X19051104Y-19195835D01*
X18813946Y-19456504D01*
X18670299Y-19638252D01*
X18652791Y-19672085D01*
X18626585Y-19848924D01*
X18608046Y-20002500D01*
X18544354Y-20340484D01*
X18492228Y-20531121D01*
X18484340Y-20823392D01*
X18573538Y-21258707D01*
X18654361Y-21515371D01*
X18770132Y-21890101D01*
X18819112Y-22147275D01*
X18798811Y-22225000D01*
X18672129Y-22340539D01*
X18554029Y-22641692D01*
X18462913Y-23060264D01*
X18417184Y-23528059D01*
X18415000Y-23647258D01*
X9270129Y-23647258D01*
X9270002Y-22065780D01*
X9270791Y-20250127D01*
X9273120Y-18638310D01*
X9277575Y-17217788D01*
X9284743Y-15976020D01*
X9295211Y-14900466D01*
X9309567Y-13978585D01*
X9328396Y-13197836D01*
X9352287Y-12545679D01*
X9381826Y-12009573D01*
X9417600Y-11576976D01*
X9460196Y-11235349D01*
X9510201Y-10972151D01*
X9568202Y-10774841D01*
X9634786Y-10630878D01*
X9710540Y-10527721D01*
X9796051Y-10452831D01*
X9891906Y-10393665D01*
X9998692Y-10337684D01*
X10116996Y-10272346D01*
X10141770Y-10257251D01*
X10604500Y-9969500D01*
X42608500Y-9932168D01*
X46230652Y-9928264D01*
X49605059Y-9925311D01*
X52737974Y-9923330D01*
X55635649Y-9922340D01*
X58304338Y-9922364D01*
X58304338Y-9922364D01*
G37*
X58304338Y-9922364D02*
X60750293Y-9923420D01*
X62979768Y-9925531D01*
X64999015Y-9928716D01*
X66814287Y-9932997D01*
X68431837Y-9938393D01*
X69857918Y-9944926D01*
X71098784Y-9952616D01*
X72160686Y-9961484D01*
X73049878Y-9971550D01*
X73772613Y-9982836D01*
X74335144Y-9995361D01*
X74743724Y-10009147D01*
X75004605Y-10024213D01*
X75120500Y-10039491D01*
X75528772Y-10202811D01*
X75879295Y-10418493D01*
X75925339Y-10457823D01*
X76016837Y-10538762D01*
X76099419Y-10612871D01*
X76173540Y-10692916D01*
X76239657Y-10791659D01*
X76298226Y-10921867D01*
X76349703Y-11096304D01*
X76394544Y-11327735D01*
X76433206Y-11628923D01*
X76466144Y-12012635D01*
X76493816Y-12491634D01*
X76516676Y-13078686D01*
X76535181Y-13786555D01*
X76549788Y-14628006D01*
X76560952Y-15615804D01*
X76569130Y-16762712D01*
X76574778Y-18081497D01*
X76578352Y-19584922D01*
X76580308Y-21285753D01*
X76581102Y-23196754D01*
X76581191Y-25330690D01*
X76581031Y-27700325D01*
X76580999Y-28804412D01*
X76580957Y-31240974D01*
X76580702Y-33436529D01*
X76580044Y-35404070D01*
X76578790Y-37156592D01*
X76576750Y-38707086D01*
X76573732Y-40068547D01*
X76569544Y-41253968D01*
X76563995Y-42276342D01*
X76556893Y-43148662D01*
X76548048Y-43883922D01*
X76537267Y-44495115D01*
X76524360Y-44995234D01*
X76509134Y-45397273D01*
X76491398Y-45714225D01*
X76470962Y-45959083D01*
X76447633Y-46144840D01*
X76421220Y-46284490D01*
X76391531Y-46391027D01*
X76358375Y-46477442D01*
X76321561Y-46556730D01*
X76319366Y-46561269D01*
X76000678Y-47031743D01*
X75536991Y-47353721D01*
X75517269Y-47363366D01*
X74976806Y-47625000D01*
X42854153Y-47624802D01*
X39473559Y-47624716D01*
X36337659Y-47624457D01*
X33437146Y-47623962D01*
X30762714Y-47623167D01*
X28305055Y-47622010D01*
X26054864Y-47620426D01*
X24002834Y-47618352D01*
X22139658Y-47615724D01*
X20456031Y-47612480D01*
X18942644Y-47608555D01*
X17590193Y-47603886D01*
X16389370Y-47598409D01*
X15330869Y-47592061D01*
X14405384Y-47584779D01*
X13603607Y-47576498D01*
X12916233Y-47567156D01*
X12333955Y-47556688D01*
X11847466Y-47545032D01*
X11447460Y-47532124D01*
X11124630Y-47517900D01*
X10869671Y-47502296D01*
X10673275Y-47485250D01*
X10526135Y-47466698D01*
X10418946Y-47446576D01*
X10342401Y-47424820D01*
X10289531Y-47402552D01*
X9917069Y-47140501D01*
X9590175Y-46793035D01*
X9559281Y-46748968D01*
X9271000Y-46317437D01*
X9271000Y-31178500D01*
X10922000Y-31178500D01*
X10985515Y-31314704D01*
X11080750Y-31288616D01*
X11172654Y-31253180D01*
X11090516Y-31377158D01*
X11078020Y-31392673D01*
X10981320Y-31649121D01*
X11043126Y-31925052D01*
X11110734Y-32163575D01*
X11093806Y-32258000D01*
X11100147Y-32338815D01*
X11192199Y-32472878D01*
X11283249Y-32613225D01*
X11209204Y-32593282D01*
X11104160Y-32579854D01*
X11127262Y-32695174D01*
X11240116Y-32833586D01*
X11301968Y-32830137D01*
X11376849Y-32877767D01*
X11383911Y-32989616D01*
X11459573Y-33168840D01*
X11597216Y-33191450D01*
X11755797Y-33206348D01*
X11756774Y-33243558D01*
X11793954Y-33357823D01*
X11970557Y-33516608D01*
X12122066Y-33590831D01*
X12363982Y-33649017D01*
X12730202Y-33694425D01*
X13254626Y-33730312D01*
X13971151Y-33759937D01*
X14732000Y-33782000D01*
X15628689Y-33808956D01*
X16295872Y-33839022D01*
X16758042Y-33874424D01*
X17039692Y-33917389D01*
X17165313Y-33970143D01*
X17176749Y-34004250D01*
X17227071Y-34149858D01*
X17276806Y-34163000D01*
X17371823Y-34262657D01*
X17368078Y-34506712D01*
X17281219Y-34812784D01*
X17126890Y-35098497D01*
X17090347Y-35144724D01*
X16991426Y-35249057D01*
X16873003Y-35324611D01*
X16695756Y-35376025D01*
X16420367Y-35407934D01*
X16007514Y-35424975D01*
X15417877Y-35431785D01*
X14645597Y-35433000D01*
X12446000Y-35433000D01*
X12446000Y-35052000D01*
X12433476Y-34831235D01*
X12353464Y-34718161D01*
X12142302Y-34676757D01*
X11772631Y-34671000D01*
X11099263Y-34671000D01*
X11065262Y-35756973D01*
X11031262Y-36842947D01*
X14056381Y-36804723D01*
X15026283Y-36790761D01*
X15777535Y-36774490D01*
X16345488Y-36752981D01*
X16765489Y-36723303D01*
X17072889Y-36682525D01*
X17303037Y-36627716D01*
X17491282Y-36555947D01*
X17581304Y-36512500D01*
X18075936Y-36189471D01*
X18394887Y-35784657D01*
X18574606Y-35237909D01*
X18634273Y-34774843D01*
X18655244Y-34256177D01*
X18606312Y-33872785D01*
X18469990Y-33511408D01*
X18444029Y-33459001D01*
X19577413Y-33459001D01*
X19745107Y-34450268D01*
X19795768Y-34623731D01*
X20109743Y-35413989D01*
X20507830Y-35991405D01*
X21023678Y-36392073D01*
X21685172Y-36650541D01*
X21987346Y-36699178D01*
X22477804Y-36741569D01*
X23106094Y-36776761D01*
X23821762Y-36803799D01*
X24574354Y-36821732D01*
X25313417Y-36829605D01*
X25988499Y-36826466D01*
X26549146Y-36811362D01*
X26944905Y-36783340D01*
X27104112Y-36752912D01*
X27238027Y-36611397D01*
X27298311Y-36290469D01*
X27305000Y-36054412D01*
X27305000Y-35433000D01*
X24758693Y-35433000D01*
X23783940Y-35429419D01*
X23029850Y-35412463D01*
X22463120Y-35372808D01*
X22050444Y-35301131D01*
X21758520Y-35188109D01*
X21554042Y-35024421D01*
X21403707Y-34800742D01*
X21274209Y-34507751D01*
X21252286Y-34451454D01*
X21073616Y-33772526D01*
X21027313Y-33060739D01*
X21102507Y-32371481D01*
X21288327Y-31760143D01*
X21573899Y-31282113D01*
X21929510Y-31001079D01*
X22178832Y-30946300D01*
X22635049Y-30902672D01*
X23251187Y-30873263D01*
X23980271Y-30861146D01*
X24072475Y-30861000D01*
X25908000Y-30861000D01*
X25908000Y-31750000D01*
X27314888Y-31750000D01*
X27241500Y-29527500D01*
X24574500Y-29527500D01*
X23755179Y-29532025D01*
X23003773Y-29544660D01*
X22364094Y-29563993D01*
X21879955Y-29588614D01*
X21595170Y-29617111D01*
X21560579Y-29624585D01*
X21251345Y-29768762D01*
X20886878Y-30015536D01*
X20758672Y-30121152D01*
X20205221Y-30769558D01*
X19817305Y-31572659D01*
X19604757Y-32484469D01*
X19577413Y-33459001D01*
X18444029Y-33459001D01*
X18425251Y-33421095D01*
X18239590Y-33088469D01*
X18042124Y-32835567D01*
X17796514Y-32651557D01*
X17466424Y-32525607D01*
X17015514Y-32446885D01*
X16407448Y-32404558D01*
X15605886Y-32387796D01*
X14951106Y-32385474D01*
X12566713Y-32385000D01*
X12433754Y-32035750D01*
X12367577Y-31560697D01*
X12409901Y-31305500D01*
X12519006Y-30924500D01*
X17072314Y-30924500D01*
X17076907Y-31305500D01*
X17094336Y-31527971D01*
X17182539Y-31646015D01*
X17405808Y-31699794D01*
X17748250Y-31724886D01*
X18415000Y-31763273D01*
X18415000Y-29485627D01*
X28448000Y-29485627D01*
X28448000Y-30861000D01*
X29337000Y-30861000D01*
X29337000Y-35433000D01*
X28448000Y-35433000D01*
X28448000Y-36840176D01*
X32385000Y-36806662D01*
X32385000Y-35433000D01*
X30861000Y-35433000D01*
X30851225Y-35020250D01*
X30836441Y-34570879D01*
X30819475Y-34194740D01*
X30830117Y-33913081D01*
X30885501Y-33780197D01*
X30892750Y-33778734D01*
X31332690Y-33769417D01*
X31897215Y-33765688D01*
X32538315Y-33766891D01*
X33207976Y-33772371D01*
X33858189Y-33781471D01*
X34440941Y-33793536D01*
X34908220Y-33807911D01*
X35212016Y-33823941D01*
X35306000Y-33838987D01*
X35306000Y-35433000D01*
X33782000Y-35433000D01*
X33782000Y-36807189D01*
X35812954Y-36823583D01*
X37843909Y-36839978D01*
X37813204Y-36168239D01*
X37782500Y-35496500D01*
X37302044Y-35433000D01*
X36995751Y-35370220D01*
X36833690Y-35293427D01*
X36825794Y-35274250D01*
X36827180Y-35121564D01*
X36828374Y-34758577D01*
X36829153Y-34310045D01*
X39010517Y-34310045D01*
X39030538Y-35007157D01*
X39299839Y-35657030D01*
X39696472Y-36147157D01*
X39891669Y-36338435D01*
X40071304Y-36487565D01*
X40268589Y-36599635D01*
X40516734Y-36679733D01*
X40848951Y-36732948D01*
X41298451Y-36764367D01*
X41898446Y-36779079D01*
X42682147Y-36782172D01*
X43682765Y-36778734D01*
X43815000Y-36778143D01*
X46418500Y-36766500D01*
X46454546Y-35401250D01*
X46490593Y-34036000D01*
X45085000Y-34036000D01*
X45085000Y-35433000D01*
X43009183Y-35433000D01*
X42226668Y-35430278D01*
X41658485Y-35419446D01*
X41265001Y-35396503D01*
X41006582Y-35357449D01*
X40843592Y-35298283D01*
X40736398Y-35215005D01*
X40724691Y-35202416D01*
X40513868Y-34837411D01*
X40440861Y-34421450D01*
X40520169Y-34061830D01*
X40561923Y-33997802D01*
X40661010Y-33906042D01*
X40818461Y-33842207D01*
X41076713Y-33801318D01*
X41478207Y-33778395D01*
X42065379Y-33768457D01*
X42531801Y-33766645D01*
X43325360Y-33758504D01*
X43899815Y-33728815D01*
X44289869Y-33665910D01*
X44530225Y-33558121D01*
X44655588Y-33393780D01*
X44700661Y-33161221D01*
X44704000Y-33036328D01*
X44685503Y-32792289D01*
X44605958Y-32617855D01*
X44429284Y-32501497D01*
X44119399Y-32431680D01*
X43640221Y-32396876D01*
X42955668Y-32385550D01*
X42666032Y-32385000D01*
X41952322Y-32380994D01*
X41446598Y-32365357D01*
X41102921Y-32332660D01*
X40875353Y-32277474D01*
X40717956Y-32194370D01*
X40659432Y-32147853D01*
X40432340Y-31815543D01*
X40409075Y-31446037D01*
X40588953Y-31123838D01*
X40668258Y-31058701D01*
X40829441Y-30980227D01*
X41079117Y-30924626D01*
X41456395Y-30888514D01*
X42000383Y-30868509D01*
X42750190Y-30861229D01*
X42954258Y-30861000D01*
X44958000Y-30861000D01*
X44958000Y-31750000D01*
X46364888Y-31750000D01*
X47116391Y-31750000D01*
X48514000Y-31750000D01*
X48514000Y-30861000D01*
X50800000Y-30861000D01*
X50800000Y-35433000D01*
X49149000Y-35433000D01*
X49149000Y-36057416D01*
X49180754Y-36474185D01*
X49267416Y-36715164D01*
X49307750Y-36747364D01*
X49481617Y-36767462D01*
X49864851Y-36782384D01*
X50412856Y-36791335D01*
X51081037Y-36793523D01*
X51689000Y-36789697D01*
X53911500Y-36766500D01*
X53911500Y-35496500D01*
X52197000Y-35421394D01*
X52197000Y-33371084D01*
X56277499Y-33371084D01*
X56394640Y-34273188D01*
X56677213Y-35107790D01*
X57127579Y-35820932D01*
X57166369Y-35865955D01*
X57428188Y-36145119D01*
X57686926Y-36362651D01*
X57977534Y-36525888D01*
X58334960Y-36642167D01*
X58794154Y-36718827D01*
X59390066Y-36763205D01*
X60157645Y-36782637D01*
X61131842Y-36784463D01*
X61530946Y-36782281D01*
X63943393Y-36766500D01*
X63985339Y-36106826D01*
X64027285Y-35447153D01*
X61309548Y-35408326D01*
X60367690Y-35393938D01*
X59645744Y-35374742D01*
X59109668Y-35341123D01*
X58725419Y-35283466D01*
X58458955Y-35192157D01*
X58276235Y-35057581D01*
X58143215Y-34870123D01*
X58025853Y-34620169D01*
X57959673Y-34462210D01*
X57819966Y-33920746D01*
X57768170Y-33247771D01*
X57803480Y-32549779D01*
X57925087Y-31933260D01*
X57980035Y-31775697D01*
X58131054Y-31453645D01*
X58314847Y-31216712D01*
X58570293Y-31052117D01*
X58936274Y-30947083D01*
X59451671Y-30888831D01*
X60155362Y-30864585D01*
X60763193Y-30861000D01*
X62611000Y-30861000D01*
X62611000Y-31763273D01*
X63277750Y-31724886D01*
X63944500Y-31686500D01*
X63944500Y-29527500D01*
X61277500Y-29527500D01*
X60457734Y-29532092D01*
X59705462Y-29544913D01*
X59064609Y-29564531D01*
X58579101Y-29589514D01*
X58292861Y-29618428D01*
X58258048Y-29625973D01*
X57955515Y-29769632D01*
X57588480Y-30022218D01*
X57415980Y-30166784D01*
X56895030Y-30799327D01*
X56530057Y-31580196D01*
X56323426Y-32455434D01*
X56277499Y-33371084D01*
X52197000Y-33371084D01*
X52197000Y-30861000D01*
X53340000Y-30861000D01*
X53901468Y-30865523D01*
X54253650Y-30896382D01*
X54441260Y-30979508D01*
X54509012Y-31140834D01*
X54501620Y-31406293D01*
X54489641Y-31527750D01*
X54514410Y-31656421D01*
X54659235Y-31723945D01*
X54979471Y-31748308D01*
X55173517Y-31750000D01*
X55880000Y-31750000D01*
X55880000Y-29478111D01*
X65151000Y-29478111D01*
X65151000Y-30861000D01*
X65627250Y-30860848D01*
X66103500Y-30860697D01*
X66066209Y-33146848D01*
X66028919Y-35433000D01*
X65151000Y-35433000D01*
X65151000Y-36840176D01*
X69088000Y-36806662D01*
X69088000Y-35433000D01*
X67585673Y-35433000D01*
X67543086Y-34612632D01*
X67500500Y-33792264D01*
X69723000Y-33755382D01*
X70444678Y-33743669D01*
X71071446Y-33734000D01*
X71562043Y-33726970D01*
X71875205Y-33723174D01*
X71971109Y-33722942D01*
X71989535Y-33841113D01*
X72012752Y-34145812D01*
X72034609Y-34548442D01*
X72072500Y-35369500D01*
X70485000Y-35445120D01*
X70485000Y-36830000D01*
X74520666Y-36830000D01*
X74511276Y-35496500D01*
X73990388Y-35433000D01*
X73661139Y-35380220D01*
X73515578Y-35277710D01*
X73485043Y-35046841D01*
X73491332Y-34861500D01*
X73500217Y-34544246D01*
X73508969Y-34038428D01*
X73516665Y-33409477D01*
X73522385Y-32722828D01*
X73523082Y-32607250D01*
X73533000Y-30861000D01*
X74526405Y-30861000D01*
X74493951Y-30194250D01*
X74461498Y-29527500D01*
X70485000Y-29457550D01*
X70485000Y-30848879D01*
X71275101Y-30886689D01*
X72065203Y-30924500D01*
X72052041Y-31623000D01*
X72038880Y-32321500D01*
X69801440Y-32356180D01*
X69078723Y-32362095D01*
X68452154Y-32357133D01*
X67962445Y-32342444D01*
X67650306Y-32319180D01*
X67554849Y-32292680D01*
X67545812Y-32117707D01*
X67532985Y-31781307D01*
X67525604Y-31559500D01*
X67505510Y-30924500D01*
X68296755Y-30886689D01*
X69088000Y-30848879D01*
X69088000Y-29478111D01*
X65151000Y-29478111D01*
X55880000Y-29478111D01*
X55880000Y-29476444D01*
X47140954Y-29458174D01*
X47128672Y-30604087D01*
X47116391Y-31750000D01*
X46364888Y-31750000D01*
X46291500Y-29527500D01*
X44005500Y-29488916D01*
X43215123Y-29480616D01*
X42463692Y-29481896D01*
X41808236Y-29491979D01*
X41305783Y-29510090D01*
X41059158Y-29529004D01*
X40307589Y-29723358D01*
X39730791Y-30099479D01*
X39339372Y-30645549D01*
X39143941Y-31349744D01*
X39122882Y-31686500D01*
X39156814Y-32140111D01*
X39248644Y-32546020D01*
X39300460Y-32672118D01*
X39402325Y-32917597D01*
X39399419Y-33144164D01*
X39284272Y-33459806D01*
X39238967Y-33561118D01*
X39010517Y-34310045D01*
X36829153Y-34310045D01*
X36829294Y-34228987D01*
X36829859Y-33576493D01*
X36830000Y-33020000D01*
X36830000Y-30861000D01*
X37859273Y-30861000D01*
X37820886Y-30194250D01*
X37782500Y-29527500D01*
X33845500Y-29527500D01*
X33807328Y-30188023D01*
X33769157Y-30848546D01*
X34554968Y-30886523D01*
X35340778Y-30924500D01*
X35339866Y-32321500D01*
X30824714Y-32321500D01*
X30833785Y-31718250D01*
X30840977Y-31334135D01*
X30848764Y-31054602D01*
X30851928Y-30988000D01*
X30972364Y-30920946D01*
X31276177Y-30874921D01*
X31623000Y-30861000D01*
X32385000Y-30861000D01*
X32385000Y-29455962D01*
X30416500Y-29470795D01*
X28448000Y-29485627D01*
X18415000Y-29485627D01*
X18415000Y-29447646D01*
X12235084Y-29527500D01*
X11769042Y-29883213D01*
X11477277Y-30159745D01*
X11316462Y-30420563D01*
X11303000Y-30493958D01*
X11250708Y-30668538D01*
X11162393Y-30662091D01*
X11077202Y-30671872D01*
X11112500Y-30861000D01*
X11145155Y-31060659D01*
X11062606Y-31059908D01*
X10943179Y-31079393D01*
X10922000Y-31178500D01*
X9271000Y-31178500D01*
X9270999Y-28861162D01*
X9270693Y-26358757D01*
X9270165Y-24097810D01*
X9270129Y-23647258D01*
X18415000Y-23647258D01*
X18525309Y-24375296D01*
X18839845Y-24991103D01*
X19334017Y-25456129D01*
X19685065Y-25638321D01*
X19902380Y-25675699D01*
X20333433Y-25709325D01*
X20937969Y-25737510D01*
X21675736Y-25758564D01*
X22506478Y-25770796D01*
X22891750Y-25772949D01*
X25781000Y-25781000D01*
X25781000Y-23100726D01*
X24449488Y-23177500D01*
X24410325Y-23744835D01*
X24377897Y-24095474D01*
X24341656Y-24319858D01*
X24327696Y-24355636D01*
X24192482Y-24370348D01*
X23847208Y-24382801D01*
X23335809Y-24392089D01*
X22702221Y-24397305D01*
X22270487Y-24398098D01*
X21510653Y-24395881D01*
X20963725Y-24386732D01*
X20588614Y-24365585D01*
X20344233Y-24327376D01*
X20189494Y-24267041D01*
X20083308Y-24179515D01*
X20034371Y-24122477D01*
X19833292Y-23699036D01*
X19881144Y-23253021D01*
X20009701Y-23015258D01*
X20101870Y-22902845D01*
X20223045Y-22825033D01*
X20417230Y-22775483D01*
X20728427Y-22747855D01*
X21200641Y-22735812D01*
X21877876Y-22733015D01*
X21969129Y-22733000D01*
X22705236Y-22727860D01*
X23228369Y-22709668D01*
X23579401Y-22674266D01*
X23799204Y-22617494D01*
X23928649Y-22535194D01*
X23930428Y-22533428D01*
X24113763Y-22197143D01*
X24052591Y-21817274D01*
X23950009Y-21646023D01*
X23855011Y-21547722D01*
X23708738Y-21477434D01*
X23468839Y-21429079D01*
X23092963Y-21396577D01*
X22538758Y-21373847D01*
X21949759Y-21358864D01*
X21290781Y-21336856D01*
X20721570Y-21304096D01*
X20290886Y-21264439D01*
X20047491Y-21221734D01*
X20014755Y-21206020D01*
X19927193Y-20980083D01*
X19919196Y-20636417D01*
X19984223Y-20296253D01*
X20073306Y-20120696D01*
X20183713Y-20049804D01*
X20401818Y-19999022D01*
X20761813Y-19965548D01*
X21297889Y-19946580D01*
X22044237Y-19939317D01*
X22291026Y-19939000D01*
X24357951Y-19939000D01*
X24339225Y-20351750D01*
X24339358Y-20591576D01*
X24409158Y-20718373D01*
X24610459Y-20774869D01*
X24992293Y-20803061D01*
X25664087Y-20841623D01*
X25663639Y-20828000D01*
X26406111Y-20828000D01*
X27109555Y-20828000D01*
X27528612Y-20815477D01*
X27749543Y-20746287D01*
X27828052Y-20572992D01*
X27819845Y-20248158D01*
X27817968Y-20224750D01*
X27819014Y-20091329D01*
X27879738Y-20007608D01*
X28047126Y-19962016D01*
X28368163Y-19942983D01*
X28889833Y-19938937D01*
X28978661Y-19938908D01*
X30162500Y-19938817D01*
X30132550Y-22066158D01*
X30122473Y-22783769D01*
X30113620Y-23417490D01*
X30106628Y-23921551D01*
X30102132Y-24250180D01*
X30100800Y-24352250D01*
X29998944Y-24448007D01*
X29682397Y-24499310D01*
X29273500Y-24511000D01*
X28448000Y-24511000D01*
X28448000Y-25781000D01*
X33274000Y-25781000D01*
X33274000Y-24387983D01*
X32416750Y-24417231D01*
X31993443Y-24419109D01*
X31697433Y-24396212D01*
X31590812Y-24353465D01*
X31591250Y-24351739D01*
X31601717Y-24199230D01*
X31610731Y-23836407D01*
X31617675Y-23306954D01*
X31621936Y-22654557D01*
X31623000Y-22098000D01*
X31623000Y-21926102D01*
X35712667Y-21926102D01*
X35722805Y-22929132D01*
X35869046Y-23749577D01*
X36168248Y-24429121D01*
X36637267Y-25009446D01*
X37123025Y-25413669D01*
X37630109Y-25781000D01*
X43307000Y-25781000D01*
X44430576Y-25781000D01*
X48514000Y-25781000D01*
X48514000Y-24366033D01*
X46926500Y-24431653D01*
X46888947Y-23582326D01*
X46851394Y-22733000D01*
X51413326Y-22733000D01*
X51498500Y-24384532D01*
X49911000Y-24384000D01*
X49911000Y-25781000D01*
X53848000Y-25781000D01*
X53848000Y-25146000D01*
X58674000Y-25146000D01*
X58674000Y-25781000D01*
X63005273Y-25781000D01*
X62966886Y-25114250D01*
X62928500Y-24447500D01*
X61817250Y-24410805D01*
X60706000Y-24374111D01*
X60706000Y-22733000D01*
X65405000Y-22733000D01*
X65405000Y-24384000D01*
X63105947Y-24384000D01*
X63134206Y-25082500D01*
X63162466Y-25781000D01*
X67564000Y-25781000D01*
X67564000Y-25146000D01*
X67553706Y-24769133D01*
X67501172Y-24581124D01*
X67373920Y-24517015D01*
X67246500Y-24511000D01*
X67002287Y-24456044D01*
X66929988Y-24251779D01*
X66929671Y-24225250D01*
X66924414Y-23454981D01*
X66906721Y-22654877D01*
X66878921Y-21871249D01*
X66843347Y-21150408D01*
X66802328Y-20538667D01*
X66758195Y-20082336D01*
X66713279Y-19827728D01*
X66707563Y-19812000D01*
X66354802Y-19266627D01*
X65820614Y-18822468D01*
X65784642Y-18800917D01*
X65570571Y-18737609D01*
X65183784Y-18681380D01*
X64667800Y-18633407D01*
X64066135Y-18594866D01*
X63422307Y-18566935D01*
X62779834Y-18550792D01*
X62182233Y-18547612D01*
X61673023Y-18558574D01*
X61295719Y-18584854D01*
X61093841Y-18627629D01*
X61087000Y-18673854D01*
X61188570Y-18771842D01*
X61075702Y-18772509D01*
X60988914Y-18754665D01*
X60599977Y-18773893D01*
X60193158Y-18954394D01*
X59830102Y-19243603D01*
X59572453Y-19588955D01*
X59481856Y-19937885D01*
X59494740Y-20028753D01*
X59503203Y-20257037D01*
X59429872Y-20320000D01*
X59374415Y-20424268D01*
X59339056Y-20744500D01*
X59323275Y-21291835D01*
X59326553Y-22077412D01*
X59332203Y-22415669D01*
X59372500Y-24511338D01*
X59023250Y-24511169D01*
X58816339Y-24527835D01*
X58713141Y-24621648D01*
X58677717Y-24857935D01*
X58674000Y-25146000D01*
X53848000Y-25146000D01*
X53848000Y-25082499D01*
X53832406Y-24703167D01*
X53792167Y-24455810D01*
X53752750Y-24399039D01*
X53569801Y-24405240D01*
X53258543Y-24399531D01*
X53244750Y-24399039D01*
X52832000Y-24384000D01*
X52832000Y-19939000D01*
X53848000Y-19939000D01*
X53848000Y-18555094D01*
X49911000Y-18557120D01*
X49911000Y-19939000D01*
X50704750Y-19938826D01*
X51498500Y-19938653D01*
X51454996Y-20637326D01*
X51412189Y-21020709D01*
X51347461Y-21275903D01*
X51296246Y-21339342D01*
X51136447Y-21340672D01*
X50767248Y-21342235D01*
X50233245Y-21343888D01*
X49579037Y-21345487D01*
X49053750Y-21346534D01*
X46926500Y-21350383D01*
X46888412Y-20644691D01*
X46850324Y-19939000D01*
X48527273Y-19939000D01*
X48488886Y-19272250D01*
X48450500Y-18605500D01*
X46555171Y-18570228D01*
X45781663Y-18557898D01*
X45226020Y-18563690D01*
X44852135Y-18601834D01*
X44623904Y-18686561D01*
X44505220Y-18832105D01*
X44459978Y-19052696D01*
X44452072Y-19362565D01*
X44451944Y-19399250D01*
X44450000Y-19939000D01*
X44948687Y-19939000D01*
X45309406Y-19975298D01*
X45472058Y-20096308D01*
X45488437Y-20147445D01*
X45500118Y-20340675D01*
X45505847Y-20739801D01*
X45505552Y-21296784D01*
X45499158Y-21963588D01*
X45491953Y-22419045D01*
X45454407Y-24482200D01*
X45026367Y-24440720D01*
X44753260Y-24433712D01*
X44594019Y-24514059D01*
X44511706Y-24734287D01*
X44469386Y-25146921D01*
X44463434Y-25241250D01*
X44430576Y-25781000D01*
X43307000Y-25781000D01*
X43307000Y-25159587D01*
X43277864Y-24734162D01*
X43181594Y-24510741D01*
X43106112Y-24461087D01*
X42920044Y-24436769D01*
X42523664Y-24415602D01*
X41960653Y-24398886D01*
X41274693Y-24387919D01*
X40512999Y-24384000D01*
X39747565Y-24379937D01*
X39061150Y-24368640D01*
X38497562Y-24351443D01*
X38100606Y-24329680D01*
X37914477Y-24304836D01*
X37686630Y-24106736D01*
X37460642Y-23726822D01*
X37268317Y-23235509D01*
X37141460Y-22703209D01*
X37121177Y-22548522D01*
X37121778Y-21907731D01*
X37235506Y-21264998D01*
X37440088Y-20697259D01*
X37713247Y-20281448D01*
X37800752Y-20201332D01*
X37951963Y-20098814D01*
X38131633Y-20026947D01*
X38385061Y-19980382D01*
X38757545Y-19953768D01*
X39294383Y-19941758D01*
X40022127Y-19939000D01*
X41910000Y-19939000D01*
X41925039Y-20288250D01*
X41931212Y-20579571D01*
X41925039Y-20732750D01*
X42031167Y-20784812D01*
X42320795Y-20819409D01*
X42608499Y-20828000D01*
X43307000Y-20828000D01*
X43307000Y-18571220D01*
X40640000Y-18551616D01*
X39847981Y-18550815D01*
X39149495Y-18559712D01*
X38581636Y-18577040D01*
X38181502Y-18601530D01*
X37986187Y-18631914D01*
X37973000Y-18642840D01*
X37871555Y-18754924D01*
X37814250Y-18767390D01*
X37185352Y-18946164D01*
X36630400Y-19361328D01*
X36162230Y-20002731D01*
X36096002Y-20126124D01*
X35919537Y-20524549D01*
X35807378Y-20943210D01*
X35740914Y-21469487D01*
X35712667Y-21926102D01*
X31623000Y-21926102D01*
X31623000Y-19939000D01*
X33909000Y-19939000D01*
X33909000Y-20828000D01*
X35299094Y-20828000D01*
X35242500Y-18605500D01*
X26479500Y-18605500D01*
X26442805Y-19716750D01*
X26406111Y-20828000D01*
X25663639Y-20828000D01*
X25627293Y-19723561D01*
X25590500Y-18605500D01*
X22828250Y-18586583D01*
X21921998Y-18585701D01*
X21168061Y-18595795D01*
X20591171Y-18615964D01*
X20216058Y-18645303D01*
X20067456Y-18682911D01*
X20066000Y-18687400D01*
X19968056Y-18785233D01*
X19907250Y-18786519D01*
X19616042Y-18786923D01*
X19363840Y-18906041D01*
X19058825Y-19187769D01*
X19051104Y-19195835D01*
X18813946Y-19456504D01*
X18670299Y-19638252D01*
X18652791Y-19672085D01*
X18626585Y-19848924D01*
X18608046Y-20002500D01*
X18544354Y-20340484D01*
X18492228Y-20531121D01*
X18484340Y-20823392D01*
X18573538Y-21258707D01*
X18654361Y-21515371D01*
X18770132Y-21890101D01*
X18819112Y-22147275D01*
X18798811Y-22225000D01*
X18672129Y-22340539D01*
X18554029Y-22641692D01*
X18462913Y-23060264D01*
X18417184Y-23528059D01*
X18415000Y-23647258D01*
X9270129Y-23647258D01*
X9270002Y-22065780D01*
X9270791Y-20250127D01*
X9273120Y-18638310D01*
X9277575Y-17217788D01*
X9284743Y-15976020D01*
X9295211Y-14900466D01*
X9309567Y-13978585D01*
X9328396Y-13197836D01*
X9352287Y-12545679D01*
X9381826Y-12009573D01*
X9417600Y-11576976D01*
X9460196Y-11235349D01*
X9510201Y-10972151D01*
X9568202Y-10774841D01*
X9634786Y-10630878D01*
X9710540Y-10527721D01*
X9796051Y-10452831D01*
X9891906Y-10393665D01*
X9998692Y-10337684D01*
X10116996Y-10272346D01*
X10141770Y-10257251D01*
X10604500Y-9969500D01*
X42608500Y-9932168D01*
X46230652Y-9928264D01*
X49605059Y-9925311D01*
X52737974Y-9923330D01*
X55635649Y-9922340D01*
X58304338Y-9922364D01*
G36*
X74304129Y-52240549D02*
X75112802Y-52597435D01*
X75764929Y-53126933D01*
X76243562Y-53790971D01*
X76531756Y-54551471D01*
X76612565Y-55370360D01*
X76469043Y-56209563D01*
X76280740Y-56681631D01*
X75787551Y-57417302D01*
X75128042Y-57974308D01*
X74326872Y-58341446D01*
X73408702Y-58507510D01*
X72398192Y-58461295D01*
X72372579Y-58457418D01*
X71881376Y-58294997D01*
X71334120Y-57981468D01*
X70816070Y-57576781D01*
X70412489Y-57140889D01*
X70332587Y-57023000D01*
X69965113Y-56219156D01*
X69828209Y-55416889D01*
X69899695Y-54642911D01*
X70157386Y-53923934D01*
X70579101Y-53286668D01*
X71142658Y-52757825D01*
X71825873Y-52364118D01*
X72606565Y-52132257D01*
X73462552Y-52088954D01*
X74304129Y-52240549D01*
X74304129Y-52240549D01*
G37*
X74304129Y-52240549D02*
X75112802Y-52597435D01*
X75764929Y-53126933D01*
X76243562Y-53790971D01*
X76531756Y-54551471D01*
X76612565Y-55370360D01*
X76469043Y-56209563D01*
X76280740Y-56681631D01*
X75787551Y-57417302D01*
X75128042Y-57974308D01*
X74326872Y-58341446D01*
X73408702Y-58507510D01*
X72398192Y-58461295D01*
X72372579Y-58457418D01*
X71881376Y-58294997D01*
X71334120Y-57981468D01*
X70816070Y-57576781D01*
X70412489Y-57140889D01*
X70332587Y-57023000D01*
X69965113Y-56219156D01*
X69828209Y-55416889D01*
X69899695Y-54642911D01*
X70157386Y-53923934D01*
X70579101Y-53286668D01*
X71142658Y-52757825D01*
X71825873Y-52364118D01*
X72606565Y-52132257D01*
X73462552Y-52088954D01*
X74304129Y-52240549D01*
G36*
X13139361Y-52139855D02*
X13939236Y-52370292D01*
X14666284Y-52778262D01*
X15277853Y-53356941D01*
X15700540Y-54031437D01*
X15946255Y-54781846D01*
X15969711Y-55537550D01*
X15771864Y-56356308D01*
X15740415Y-56442618D01*
X15332840Y-57190475D01*
X14747256Y-57788905D01*
X14022522Y-58220712D01*
X13197497Y-58468698D01*
X12311039Y-58515666D01*
X11426111Y-58351935D01*
X10983413Y-58158437D01*
X10512290Y-57868443D01*
X10310480Y-57712135D01*
X9702916Y-57041535D01*
X9320289Y-56285110D01*
X9164517Y-55478602D01*
X9237517Y-54657753D01*
X9541206Y-53858304D01*
X10064635Y-53129889D01*
X10729296Y-52581967D01*
X11491739Y-52238869D01*
X12309311Y-52093773D01*
X13139361Y-52139855D01*
X13139361Y-52139855D01*
G37*
X13139361Y-52139855D02*
X13939236Y-52370292D01*
X14666284Y-52778262D01*
X15277853Y-53356941D01*
X15700540Y-54031437D01*
X15946255Y-54781846D01*
X15969711Y-55537550D01*
X15771864Y-56356308D01*
X15740415Y-56442618D01*
X15332840Y-57190475D01*
X14747256Y-57788905D01*
X14022522Y-58220712D01*
X13197497Y-58468698D01*
X12311039Y-58515666D01*
X11426111Y-58351935D01*
X10983413Y-58158437D01*
X10512290Y-57868443D01*
X10310480Y-57712135D01*
X9702916Y-57041535D01*
X9320289Y-56285110D01*
X9164517Y-55478602D01*
X9237517Y-54657753D01*
X9541206Y-53858304D01*
X10064635Y-53129889D01*
X10729296Y-52581967D01*
X11491739Y-52238869D01*
X12309311Y-52093773D01*
X13139361Y-52139855D01*
G36*
X67341278Y-2432654D02*
X69168805Y-2433903D01*
X70826939Y-2435844D01*
X72324142Y-2438522D01*
X73668874Y-2441981D01*
X74869596Y-2446266D01*
X75934769Y-2451422D01*
X76872853Y-2457493D01*
X77692309Y-2464524D01*
X78401599Y-2472561D01*
X79009182Y-2481647D01*
X79523520Y-2491827D01*
X79953073Y-2503146D01*
X80306302Y-2515648D01*
X80591668Y-2529379D01*
X80817631Y-2544384D01*
X80992653Y-2560705D01*
X81125194Y-2578390D01*
X81223714Y-2597481D01*
X81296676Y-2618025D01*
X81352538Y-2640065D01*
X81381138Y-2653908D01*
X81904368Y-2994889D01*
X82251361Y-3422713D01*
X82403727Y-3746500D01*
X82421416Y-3852467D01*
X82437631Y-4081441D01*
X82452404Y-4440919D01*
X82465766Y-4938399D01*
X82477746Y-5581379D01*
X82488375Y-6377355D01*
X82497685Y-7333826D01*
X82505705Y-8458288D01*
X82512466Y-9758240D01*
X82518000Y-11241178D01*
X82522336Y-12914601D01*
X82525505Y-14786005D01*
X82527537Y-16862889D01*
X82528465Y-19152750D01*
X82528317Y-21663085D01*
X82527124Y-24401392D01*
X82524918Y-27375169D01*
X82521729Y-30591912D01*
X82519894Y-32194500D01*
X82516132Y-35339384D01*
X82512562Y-38240290D01*
X82509080Y-40907240D01*
X82505584Y-43350254D01*
X82501971Y-45579353D01*
X82498140Y-47604560D01*
X82493986Y-49435896D01*
X82489408Y-51083382D01*
X82484304Y-52557040D01*
X82478570Y-53866891D01*
X82472104Y-55022957D01*
X82464804Y-56035258D01*
X82456567Y-56913817D01*
X82447290Y-57668655D01*
X82436872Y-58309793D01*
X82425208Y-58847253D01*
X82412198Y-59291056D01*
X82397739Y-59651224D01*
X82381727Y-59937778D01*
X82364060Y-60160739D01*
X82344636Y-60330129D01*
X82323353Y-60455970D01*
X82300107Y-60548282D01*
X82274797Y-60617088D01*
X82247319Y-60672408D01*
X82228179Y-60706000D01*
X81939349Y-61062991D01*
X81574513Y-61348397D01*
X81529679Y-61372552D01*
X81478382Y-61393814D01*
X81406007Y-61413678D01*
X81304133Y-61432192D01*
X81164342Y-61449402D01*
X80978211Y-61465357D01*
X80737322Y-61480103D01*
X80433254Y-61493688D01*
X80057586Y-61506159D01*
X79601899Y-61517563D01*
X79057773Y-61527949D01*
X78416786Y-61537362D01*
X77670519Y-61545851D01*
X76810552Y-61553463D01*
X75828464Y-61560245D01*
X74715836Y-61566245D01*
X73464246Y-61571510D01*
X72065275Y-61576087D01*
X70510503Y-61580024D01*
X68791509Y-61583367D01*
X66899873Y-61586165D01*
X64827175Y-61588464D01*
X62564994Y-61590313D01*
X60104911Y-61591757D01*
X57438505Y-61592846D01*
X54557356Y-61593625D01*
X51453044Y-61594143D01*
X48117148Y-61594447D01*
X44541249Y-61594583D01*
X42037000Y-61594605D01*
X38297557Y-61594553D01*
X34803695Y-61594365D01*
X31546995Y-61593995D01*
X28519037Y-61593394D01*
X25711402Y-61592516D01*
X23115672Y-61591313D01*
X20723426Y-61589738D01*
X18526245Y-61587743D01*
X16515711Y-61585281D01*
X14683405Y-61582305D01*
X13020906Y-61578768D01*
X11519796Y-61574621D01*
X10171655Y-61569818D01*
X8968065Y-61564312D01*
X7900606Y-61558054D01*
X6960859Y-61550998D01*
X6140405Y-61543097D01*
X5430825Y-61534302D01*
X4823698Y-61524567D01*
X4310607Y-61513844D01*
X3883132Y-61502087D01*
X3532854Y-61489247D01*
X3251353Y-61475277D01*
X3030210Y-61460130D01*
X2861007Y-61443758D01*
X2735323Y-61426115D01*
X2644741Y-61407153D01*
X2580840Y-61386824D01*
X2549027Y-61372552D01*
X2177053Y-61121011D01*
X1865726Y-60812097D01*
X1850527Y-60791944D01*
X1587500Y-60433389D01*
X1580745Y-55328814D01*
X8603432Y-55328814D01*
X8695212Y-56218202D01*
X8980441Y-56988042D01*
X9484583Y-57698237D01*
X9713273Y-57939635D01*
X10502373Y-58556170D01*
X11388234Y-58944184D01*
X12348313Y-59099393D01*
X13360068Y-59017516D01*
X14170248Y-58786445D01*
X14788374Y-58453208D01*
X15400172Y-57947826D01*
X15930327Y-57342606D01*
X16281296Y-56759627D01*
X16482531Y-56101011D01*
X16551692Y-55308500D01*
X16545293Y-54973884D01*
X69230144Y-54973884D01*
X69268813Y-55894500D01*
X69526456Y-56760746D01*
X69985638Y-57541067D01*
X70628921Y-58203908D01*
X71438868Y-58717714D01*
X72170440Y-58993422D01*
X73096868Y-59123215D01*
X74067588Y-59015502D01*
X74961260Y-58713249D01*
X75771824Y-58225561D01*
X76408862Y-57590807D01*
X76865670Y-56846368D01*
X77135545Y-56029623D01*
X77211784Y-55177956D01*
X77087683Y-54328746D01*
X76756537Y-53519374D01*
X76211645Y-52787222D01*
X76052059Y-52630604D01*
X75219326Y-52018919D01*
X74303950Y-51630814D01*
X73341223Y-51472632D01*
X72366441Y-51550715D01*
X71530703Y-51818127D01*
X70977977Y-52149352D01*
X70418035Y-52630114D01*
X69918821Y-53188933D01*
X69548277Y-53754328D01*
X69427889Y-54030451D01*
X69230144Y-54973884D01*
X16545293Y-54973884D01*
X16541679Y-54784981D01*
X16474896Y-54384570D01*
X16321083Y-53984720D01*
X16134557Y-53619223D01*
X15556000Y-52771979D01*
X14843948Y-52140749D01*
X13997726Y-51725135D01*
X13016663Y-51524739D01*
X12566935Y-51504663D01*
X12006156Y-51519899D01*
X11573902Y-51588541D01*
X11145922Y-51739105D01*
X10760506Y-51919244D01*
X9897277Y-52460629D01*
X9254779Y-53127359D01*
X8831398Y-53921987D01*
X8625516Y-54847068D01*
X8603432Y-55328814D01*
X1580745Y-55328814D01*
X1550243Y-32280444D01*
X1546076Y-28800688D01*
X1544016Y-26540478D01*
X8509628Y-26540478D01*
X8509650Y-28855690D01*
X8510301Y-46545500D01*
X8795400Y-47007363D01*
X9188743Y-47514296D01*
X9669188Y-47943665D01*
X10154217Y-48224643D01*
X10254716Y-48259924D01*
X10411088Y-48269238D01*
X10810648Y-48278393D01*
X11442583Y-48287354D01*
X12296081Y-48296081D01*
X13360329Y-48304539D01*
X14624515Y-48312688D01*
X16077827Y-48320492D01*
X17709452Y-48327914D01*
X19508578Y-48334915D01*
X21464392Y-48341458D01*
X23566082Y-48347505D01*
X25802837Y-48353020D01*
X28163842Y-48357964D01*
X30638287Y-48362301D01*
X33215358Y-48365991D01*
X35884243Y-48368999D01*
X38634130Y-48371287D01*
X41454206Y-48372816D01*
X42926000Y-48373294D01*
X46314170Y-48374095D01*
X49457660Y-48374687D01*
X52365791Y-48375008D01*
X55047882Y-48374994D01*
X57513253Y-48374582D01*
X59771225Y-48373708D01*
X61831117Y-48372310D01*
X63702249Y-48370323D01*
X65393942Y-48367684D01*
X66915516Y-48364331D01*
X68276290Y-48360199D01*
X69485585Y-48355226D01*
X70552721Y-48349348D01*
X71487018Y-48342502D01*
X72297795Y-48334623D01*
X72994374Y-48325650D01*
X73586073Y-48315519D01*
X74082214Y-48304165D01*
X74492116Y-48291527D01*
X74825099Y-48277540D01*
X75090484Y-48262142D01*
X75297590Y-48245268D01*
X75455737Y-48226856D01*
X75574246Y-48206842D01*
X75662436Y-48185163D01*
X75729628Y-48161756D01*
X75756589Y-48150147D01*
X76317660Y-47788914D01*
X76803518Y-47282272D01*
X77140092Y-46713533D01*
X77208363Y-46517221D01*
X77227911Y-46320182D01*
X77245980Y-45887247D01*
X77262573Y-45236518D01*
X77277692Y-44386094D01*
X77291339Y-43354076D01*
X77303517Y-42158563D01*
X77314228Y-40817658D01*
X77323476Y-39349459D01*
X77331262Y-37772067D01*
X77337589Y-36103582D01*
X77342459Y-34362106D01*
X77345876Y-32565737D01*
X77347841Y-30732577D01*
X77348356Y-28880726D01*
X77347425Y-27028284D01*
X77345050Y-25193352D01*
X77341233Y-23394030D01*
X77335977Y-21648418D01*
X77329285Y-19974616D01*
X77321158Y-18390726D01*
X77311600Y-16914846D01*
X77300612Y-15565079D01*
X77288198Y-14359524D01*
X77274359Y-13316280D01*
X77259099Y-12453450D01*
X77242420Y-11789133D01*
X77224323Y-11341429D01*
X77204813Y-11128439D01*
X77203497Y-11123155D01*
X76895175Y-10419871D01*
X76387614Y-9851748D01*
X75946000Y-9544338D01*
X75374500Y-9207500D01*
X43307000Y-9168853D01*
X39671284Y-9164798D01*
X36283333Y-9161713D01*
X33136913Y-9159619D01*
X30225788Y-9158535D01*
X27543726Y-9158482D01*
X25084493Y-9159479D01*
X22841854Y-9161548D01*
X20809575Y-9164709D01*
X18981422Y-9168981D01*
X17351162Y-9174385D01*
X15912561Y-9180940D01*
X14659384Y-9188669D01*
X13585398Y-9197589D01*
X12684368Y-9207722D01*
X11950061Y-9219089D01*
X11376242Y-9231708D01*
X10956679Y-9245600D01*
X10685135Y-9260786D01*
X10564758Y-9275000D01*
X9818090Y-9560422D01*
X9194283Y-10054960D01*
X8755517Y-10682666D01*
X8721058Y-10755522D01*
X8689967Y-10840679D01*
X8662074Y-10950902D01*
X8637205Y-11098956D01*
X8615188Y-11297608D01*
X8595849Y-11559625D01*
X8579016Y-11897771D01*
X8564517Y-12324813D01*
X8552178Y-12853516D01*
X8541827Y-13496648D01*
X8533291Y-14266974D01*
X8526398Y-15177259D01*
X8520975Y-16240271D01*
X8516849Y-17468774D01*
X8513847Y-18875535D01*
X8511796Y-20473320D01*
X8510525Y-22274895D01*
X8509860Y-24293025D01*
X8509628Y-26540478D01*
X1544016Y-26540478D01*
X1543131Y-25569990D01*
X1541426Y-22583412D01*
X1540978Y-19836016D01*
X1541804Y-17322862D01*
X1543922Y-15039013D01*
X1547348Y-12979530D01*
X1552102Y-11139474D01*
X1558199Y-9513907D01*
X1565657Y-8097890D01*
X1574495Y-6886485D01*
X1584728Y-5874752D01*
X1596375Y-5057755D01*
X1609453Y-4430553D01*
X1623980Y-3988209D01*
X1639972Y-3725783D01*
X1651178Y-3649289D01*
X1866956Y-3217293D01*
X2270892Y-2852940D01*
X2314157Y-2823789D01*
X2838944Y-2476500D01*
X41874860Y-2445172D01*
X45607651Y-2442206D01*
X49094904Y-2439529D01*
X52345078Y-2437186D01*
X55366634Y-2435223D01*
X58168034Y-2433683D01*
X60757737Y-2432611D01*
X63144205Y-2432053D01*
X65335899Y-2432052D01*
X67341278Y-2432654D01*
X67341278Y-2432654D01*
G37*
X67341278Y-2432654D02*
X69168805Y-2433903D01*
X70826939Y-2435844D01*
X72324142Y-2438522D01*
X73668874Y-2441981D01*
X74869596Y-2446266D01*
X75934769Y-2451422D01*
X76872853Y-2457493D01*
X77692309Y-2464524D01*
X78401599Y-2472561D01*
X79009182Y-2481647D01*
X79523520Y-2491827D01*
X79953073Y-2503146D01*
X80306302Y-2515648D01*
X80591668Y-2529379D01*
X80817631Y-2544384D01*
X80992653Y-2560705D01*
X81125194Y-2578390D01*
X81223714Y-2597481D01*
X81296676Y-2618025D01*
X81352538Y-2640065D01*
X81381138Y-2653908D01*
X81904368Y-2994889D01*
X82251361Y-3422713D01*
X82403727Y-3746500D01*
X82421416Y-3852467D01*
X82437631Y-4081441D01*
X82452404Y-4440919D01*
X82465766Y-4938399D01*
X82477746Y-5581379D01*
X82488375Y-6377355D01*
X82497685Y-7333826D01*
X82505705Y-8458288D01*
X82512466Y-9758240D01*
X82518000Y-11241178D01*
X82522336Y-12914601D01*
X82525505Y-14786005D01*
X82527537Y-16862889D01*
X82528465Y-19152750D01*
X82528317Y-21663085D01*
X82527124Y-24401392D01*
X82524918Y-27375169D01*
X82521729Y-30591912D01*
X82519894Y-32194500D01*
X82516132Y-35339384D01*
X82512562Y-38240290D01*
X82509080Y-40907240D01*
X82505584Y-43350254D01*
X82501971Y-45579353D01*
X82498140Y-47604560D01*
X82493986Y-49435896D01*
X82489408Y-51083382D01*
X82484304Y-52557040D01*
X82478570Y-53866891D01*
X82472104Y-55022957D01*
X82464804Y-56035258D01*
X82456567Y-56913817D01*
X82447290Y-57668655D01*
X82436872Y-58309793D01*
X82425208Y-58847253D01*
X82412198Y-59291056D01*
X82397739Y-59651224D01*
X82381727Y-59937778D01*
X82364060Y-60160739D01*
X82344636Y-60330129D01*
X82323353Y-60455970D01*
X82300107Y-60548282D01*
X82274797Y-60617088D01*
X82247319Y-60672408D01*
X82228179Y-60706000D01*
X81939349Y-61062991D01*
X81574513Y-61348397D01*
X81529679Y-61372552D01*
X81478382Y-61393814D01*
X81406007Y-61413678D01*
X81304133Y-61432192D01*
X81164342Y-61449402D01*
X80978211Y-61465357D01*
X80737322Y-61480103D01*
X80433254Y-61493688D01*
X80057586Y-61506159D01*
X79601899Y-61517563D01*
X79057773Y-61527949D01*
X78416786Y-61537362D01*
X77670519Y-61545851D01*
X76810552Y-61553463D01*
X75828464Y-61560245D01*
X74715836Y-61566245D01*
X73464246Y-61571510D01*
X72065275Y-61576087D01*
X70510503Y-61580024D01*
X68791509Y-61583367D01*
X66899873Y-61586165D01*
X64827175Y-61588464D01*
X62564994Y-61590313D01*
X60104911Y-61591757D01*
X57438505Y-61592846D01*
X54557356Y-61593625D01*
X51453044Y-61594143D01*
X48117148Y-61594447D01*
X44541249Y-61594583D01*
X42037000Y-61594605D01*
X38297557Y-61594553D01*
X34803695Y-61594365D01*
X31546995Y-61593995D01*
X28519037Y-61593394D01*
X25711402Y-61592516D01*
X23115672Y-61591313D01*
X20723426Y-61589738D01*
X18526245Y-61587743D01*
X16515711Y-61585281D01*
X14683405Y-61582305D01*
X13020906Y-61578768D01*
X11519796Y-61574621D01*
X10171655Y-61569818D01*
X8968065Y-61564312D01*
X7900606Y-61558054D01*
X6960859Y-61550998D01*
X6140405Y-61543097D01*
X5430825Y-61534302D01*
X4823698Y-61524567D01*
X4310607Y-61513844D01*
X3883132Y-61502087D01*
X3532854Y-61489247D01*
X3251353Y-61475277D01*
X3030210Y-61460130D01*
X2861007Y-61443758D01*
X2735323Y-61426115D01*
X2644741Y-61407153D01*
X2580840Y-61386824D01*
X2549027Y-61372552D01*
X2177053Y-61121011D01*
X1865726Y-60812097D01*
X1850527Y-60791944D01*
X1587500Y-60433389D01*
X1580745Y-55328814D01*
X8603432Y-55328814D01*
X8695212Y-56218202D01*
X8980441Y-56988042D01*
X9484583Y-57698237D01*
X9713273Y-57939635D01*
X10502373Y-58556170D01*
X11388234Y-58944184D01*
X12348313Y-59099393D01*
X13360068Y-59017516D01*
X14170248Y-58786445D01*
X14788374Y-58453208D01*
X15400172Y-57947826D01*
X15930327Y-57342606D01*
X16281296Y-56759627D01*
X16482531Y-56101011D01*
X16551692Y-55308500D01*
X16545293Y-54973884D01*
X69230144Y-54973884D01*
X69268813Y-55894500D01*
X69526456Y-56760746D01*
X69985638Y-57541067D01*
X70628921Y-58203908D01*
X71438868Y-58717714D01*
X72170440Y-58993422D01*
X73096868Y-59123215D01*
X74067588Y-59015502D01*
X74961260Y-58713249D01*
X75771824Y-58225561D01*
X76408862Y-57590807D01*
X76865670Y-56846368D01*
X77135545Y-56029623D01*
X77211784Y-55177956D01*
X77087683Y-54328746D01*
X76756537Y-53519374D01*
X76211645Y-52787222D01*
X76052059Y-52630604D01*
X75219326Y-52018919D01*
X74303950Y-51630814D01*
X73341223Y-51472632D01*
X72366441Y-51550715D01*
X71530703Y-51818127D01*
X70977977Y-52149352D01*
X70418035Y-52630114D01*
X69918821Y-53188933D01*
X69548277Y-53754328D01*
X69427889Y-54030451D01*
X69230144Y-54973884D01*
X16545293Y-54973884D01*
X16541679Y-54784981D01*
X16474896Y-54384570D01*
X16321083Y-53984720D01*
X16134557Y-53619223D01*
X15556000Y-52771979D01*
X14843948Y-52140749D01*
X13997726Y-51725135D01*
X13016663Y-51524739D01*
X12566935Y-51504663D01*
X12006156Y-51519899D01*
X11573902Y-51588541D01*
X11145922Y-51739105D01*
X10760506Y-51919244D01*
X9897277Y-52460629D01*
X9254779Y-53127359D01*
X8831398Y-53921987D01*
X8625516Y-54847068D01*
X8603432Y-55328814D01*
X1580745Y-55328814D01*
X1550243Y-32280444D01*
X1546076Y-28800688D01*
X1544016Y-26540478D01*
X8509628Y-26540478D01*
X8509650Y-28855690D01*
X8510301Y-46545500D01*
X8795400Y-47007363D01*
X9188743Y-47514296D01*
X9669188Y-47943665D01*
X10154217Y-48224643D01*
X10254716Y-48259924D01*
X10411088Y-48269238D01*
X10810648Y-48278393D01*
X11442583Y-48287354D01*
X12296081Y-48296081D01*
X13360329Y-48304539D01*
X14624515Y-48312688D01*
X16077827Y-48320492D01*
X17709452Y-48327914D01*
X19508578Y-48334915D01*
X21464392Y-48341458D01*
X23566082Y-48347505D01*
X25802837Y-48353020D01*
X28163842Y-48357964D01*
X30638287Y-48362301D01*
X33215358Y-48365991D01*
X35884243Y-48368999D01*
X38634130Y-48371287D01*
X41454206Y-48372816D01*
X42926000Y-48373294D01*
X46314170Y-48374095D01*
X49457660Y-48374687D01*
X52365791Y-48375008D01*
X55047882Y-48374994D01*
X57513253Y-48374582D01*
X59771225Y-48373708D01*
X61831117Y-48372310D01*
X63702249Y-48370323D01*
X65393942Y-48367684D01*
X66915516Y-48364331D01*
X68276290Y-48360199D01*
X69485585Y-48355226D01*
X70552721Y-48349348D01*
X71487018Y-48342502D01*
X72297795Y-48334623D01*
X72994374Y-48325650D01*
X73586073Y-48315519D01*
X74082214Y-48304165D01*
X74492116Y-48291527D01*
X74825099Y-48277540D01*
X75090484Y-48262142D01*
X75297590Y-48245268D01*
X75455737Y-48226856D01*
X75574246Y-48206842D01*
X75662436Y-48185163D01*
X75729628Y-48161756D01*
X75756589Y-48150147D01*
X76317660Y-47788914D01*
X76803518Y-47282272D01*
X77140092Y-46713533D01*
X77208363Y-46517221D01*
X77227911Y-46320182D01*
X77245980Y-45887247D01*
X77262573Y-45236518D01*
X77277692Y-44386094D01*
X77291339Y-43354076D01*
X77303517Y-42158563D01*
X77314228Y-40817658D01*
X77323476Y-39349459D01*
X77331262Y-37772067D01*
X77337589Y-36103582D01*
X77342459Y-34362106D01*
X77345876Y-32565737D01*
X77347841Y-30732577D01*
X77348356Y-28880726D01*
X77347425Y-27028284D01*
X77345050Y-25193352D01*
X77341233Y-23394030D01*
X77335977Y-21648418D01*
X77329285Y-19974616D01*
X77321158Y-18390726D01*
X77311600Y-16914846D01*
X77300612Y-15565079D01*
X77288198Y-14359524D01*
X77274359Y-13316280D01*
X77259099Y-12453450D01*
X77242420Y-11789133D01*
X77224323Y-11341429D01*
X77204813Y-11128439D01*
X77203497Y-11123155D01*
X76895175Y-10419871D01*
X76387614Y-9851748D01*
X75946000Y-9544338D01*
X75374500Y-9207500D01*
X43307000Y-9168853D01*
X39671284Y-9164798D01*
X36283333Y-9161713D01*
X33136913Y-9159619D01*
X30225788Y-9158535D01*
X27543726Y-9158482D01*
X25084493Y-9159479D01*
X22841854Y-9161548D01*
X20809575Y-9164709D01*
X18981422Y-9168981D01*
X17351162Y-9174385D01*
X15912561Y-9180940D01*
X14659384Y-9188669D01*
X13585398Y-9197589D01*
X12684368Y-9207722D01*
X11950061Y-9219089D01*
X11376242Y-9231708D01*
X10956679Y-9245600D01*
X10685135Y-9260786D01*
X10564758Y-9275000D01*
X9818090Y-9560422D01*
X9194283Y-10054960D01*
X8755517Y-10682666D01*
X8721058Y-10755522D01*
X8689967Y-10840679D01*
X8662074Y-10950902D01*
X8637205Y-11098956D01*
X8615188Y-11297608D01*
X8595849Y-11559625D01*
X8579016Y-11897771D01*
X8564517Y-12324813D01*
X8552178Y-12853516D01*
X8541827Y-13496648D01*
X8533291Y-14266974D01*
X8526398Y-15177259D01*
X8520975Y-16240271D01*
X8516849Y-17468774D01*
X8513847Y-18875535D01*
X8511796Y-20473320D01*
X8510525Y-22274895D01*
X8509860Y-24293025D01*
X8509628Y-26540478D01*
X1544016Y-26540478D01*
X1543131Y-25569990D01*
X1541426Y-22583412D01*
X1540978Y-19836016D01*
X1541804Y-17322862D01*
X1543922Y-15039013D01*
X1547348Y-12979530D01*
X1552102Y-11139474D01*
X1558199Y-9513907D01*
X1565657Y-8097890D01*
X1574495Y-6886485D01*
X1584728Y-5874752D01*
X1596375Y-5057755D01*
X1609453Y-4430553D01*
X1623980Y-3988209D01*
X1639972Y-3725783D01*
X1651178Y-3649289D01*
X1866956Y-3217293D01*
X2270892Y-2852940D01*
X2314157Y-2823789D01*
X2838944Y-2476500D01*
X41874860Y-2445172D01*
X45607651Y-2442206D01*
X49094904Y-2439529D01*
X52345078Y-2437186D01*
X55366634Y-2435223D01*
X58168034Y-2433683D01*
X60757737Y-2432611D01*
X63144205Y-2432053D01*
X65335899Y-2432052D01*
X67341278Y-2432654D01*
G36*
X83566000Y-62357000D02*
X82712241Y-62357000D01*
X82264509Y-62354165D01*
X82035326Y-62336241D01*
X81989240Y-62289096D01*
X82090803Y-62198600D01*
X82172491Y-62141845D01*
X82714581Y-61664762D01*
X83147476Y-61028195D01*
X83197389Y-60933309D01*
X83224312Y-60875715D01*
X83249157Y-60805466D01*
X83272006Y-60712601D01*
X83292941Y-60587158D01*
X83312044Y-60419177D01*
X83329398Y-60198695D01*
X83345085Y-59915752D01*
X83359188Y-59560386D01*
X83371788Y-59122636D01*
X83382968Y-58592541D01*
X83392811Y-57960140D01*
X83401399Y-57215471D01*
X83408814Y-56348573D01*
X83415139Y-55349485D01*
X83420455Y-54208245D01*
X83424845Y-52914893D01*
X83428392Y-51459466D01*
X83431178Y-49832004D01*
X83433285Y-48022546D01*
X83434795Y-46021130D01*
X83435791Y-43817794D01*
X83436356Y-41402579D01*
X83436571Y-38765521D01*
X83436519Y-35896661D01*
X83436282Y-32786037D01*
X83436210Y-32040809D01*
X83435845Y-28872008D01*
X83435340Y-25947240D01*
X83434615Y-23256540D01*
X83433586Y-20789941D01*
X83432172Y-18537477D01*
X83430292Y-16489181D01*
X83427862Y-14635087D01*
X83424801Y-12965229D01*
X83421027Y-11469641D01*
X83416459Y-10138356D01*
X83411013Y-8961409D01*
X83404609Y-7928831D01*
X83397163Y-7030659D01*
X83388595Y-6256924D01*
X83378821Y-5597661D01*
X83367761Y-5042904D01*
X83355332Y-4582685D01*
X83341452Y-4207040D01*
X83326039Y-3906001D01*
X83309011Y-3669603D01*
X83290287Y-3487878D01*
X83269784Y-3350862D01*
X83247420Y-3248586D01*
X83223113Y-3171086D01*
X83198225Y-3111500D01*
X82748638Y-2429352D01*
X82124502Y-1907640D01*
X81760329Y-1721237D01*
X81697084Y-1702299D01*
X81595537Y-1684598D01*
X81447429Y-1668092D01*
X81244500Y-1652741D01*
X80978491Y-1638503D01*
X80641142Y-1625337D01*
X80224194Y-1613202D01*
X79719386Y-1602058D01*
X79118461Y-1591864D01*
X78413157Y-1582577D01*
X77595217Y-1574159D01*
X76656379Y-1566567D01*
X75588386Y-1559760D01*
X74382976Y-1553698D01*
X73031891Y-1548339D01*
X71526872Y-1543643D01*
X69859658Y-1539569D01*
X68021991Y-1536075D01*
X66005610Y-1533121D01*
X63802256Y-1530666D01*
X61403671Y-1528668D01*
X58801593Y-1527088D01*
X55987764Y-1525883D01*
X52953925Y-1525012D01*
X49691815Y-1524436D01*
X46193176Y-1524112D01*
X42449748Y-1524001D01*
X42002514Y-1524000D01*
X2716871Y-1524000D01*
X2050231Y-1856200D01*
X1642301Y-2098551D01*
X1306911Y-2366093D01*
X1170978Y-2522950D01*
X997817Y-2778166D01*
X880769Y-2921000D01*
X839482Y-2963784D01*
X801354Y-3028441D01*
X766258Y-3124761D01*
X734071Y-3262537D01*
X704666Y-3451557D01*
X677920Y-3701614D01*
X653708Y-4022498D01*
X631904Y-4424001D01*
X612384Y-4915912D01*
X595022Y-5508024D01*
X579695Y-6210127D01*
X566276Y-7032011D01*
X554642Y-7983468D01*
X544667Y-9074289D01*
X536226Y-10314264D01*
X529195Y-11713185D01*
X523449Y-13280843D01*
X518862Y-15027027D01*
X515311Y-16961530D01*
X512669Y-19094143D01*
X510812Y-21434655D01*
X509616Y-23992858D01*
X508955Y-26778543D01*
X508705Y-29801501D01*
X508708Y-32091988D01*
X509386Y-35650756D01*
X511230Y-38978540D01*
X514232Y-42073690D01*
X518384Y-44934555D01*
X523679Y-47559487D01*
X530109Y-49946837D01*
X537668Y-52094953D01*
X546348Y-54002188D01*
X556140Y-55666891D01*
X567038Y-57087414D01*
X579035Y-58262106D01*
X592122Y-59189317D01*
X606292Y-59867400D01*
X621539Y-60294703D01*
X637036Y-60466939D01*
X943529Y-61170668D01*
X1418983Y-61780023D01*
X1768053Y-62068227D01*
X2196562Y-62357000D01*
X381000Y-62357000D01*
X381000Y-1270000D01*
X83566000Y-1270000D01*
X83566000Y-62357000D01*
X83566000Y-62357000D01*
G37*
X83566000Y-62357000D02*
X82712241Y-62357000D01*
X82264509Y-62354165D01*
X82035326Y-62336241D01*
X81989240Y-62289096D01*
X82090803Y-62198600D01*
X82172491Y-62141845D01*
X82714581Y-61664762D01*
X83147476Y-61028195D01*
X83197389Y-60933309D01*
X83224312Y-60875715D01*
X83249157Y-60805466D01*
X83272006Y-60712601D01*
X83292941Y-60587158D01*
X83312044Y-60419177D01*
X83329398Y-60198695D01*
X83345085Y-59915752D01*
X83359188Y-59560386D01*
X83371788Y-59122636D01*
X83382968Y-58592541D01*
X83392811Y-57960140D01*
X83401399Y-57215471D01*
X83408814Y-56348573D01*
X83415139Y-55349485D01*
X83420455Y-54208245D01*
X83424845Y-52914893D01*
X83428392Y-51459466D01*
X83431178Y-49832004D01*
X83433285Y-48022546D01*
X83434795Y-46021130D01*
X83435791Y-43817794D01*
X83436356Y-41402579D01*
X83436571Y-38765521D01*
X83436519Y-35896661D01*
X83436282Y-32786037D01*
X83436210Y-32040809D01*
X83435845Y-28872008D01*
X83435340Y-25947240D01*
X83434615Y-23256540D01*
X83433586Y-20789941D01*
X83432172Y-18537477D01*
X83430292Y-16489181D01*
X83427862Y-14635087D01*
X83424801Y-12965229D01*
X83421027Y-11469641D01*
X83416459Y-10138356D01*
X83411013Y-8961409D01*
X83404609Y-7928831D01*
X83397163Y-7030659D01*
X83388595Y-6256924D01*
X83378821Y-5597661D01*
X83367761Y-5042904D01*
X83355332Y-4582685D01*
X83341452Y-4207040D01*
X83326039Y-3906001D01*
X83309011Y-3669603D01*
X83290287Y-3487878D01*
X83269784Y-3350862D01*
X83247420Y-3248586D01*
X83223113Y-3171086D01*
X83198225Y-3111500D01*
X82748638Y-2429352D01*
X82124502Y-1907640D01*
X81760329Y-1721237D01*
X81697084Y-1702299D01*
X81595537Y-1684598D01*
X81447429Y-1668092D01*
X81244500Y-1652741D01*
X80978491Y-1638503D01*
X80641142Y-1625337D01*
X80224194Y-1613202D01*
X79719386Y-1602058D01*
X79118461Y-1591864D01*
X78413157Y-1582577D01*
X77595217Y-1574159D01*
X76656379Y-1566567D01*
X75588386Y-1559760D01*
X74382976Y-1553698D01*
X73031891Y-1548339D01*
X71526872Y-1543643D01*
X69859658Y-1539569D01*
X68021991Y-1536075D01*
X66005610Y-1533121D01*
X63802256Y-1530666D01*
X61403671Y-1528668D01*
X58801593Y-1527088D01*
X55987764Y-1525883D01*
X52953925Y-1525012D01*
X49691815Y-1524436D01*
X46193176Y-1524112D01*
X42449748Y-1524001D01*
X42002514Y-1524000D01*
X2716871Y-1524000D01*
X2050231Y-1856200D01*
X1642301Y-2098551D01*
X1306911Y-2366093D01*
X1170978Y-2522950D01*
X997817Y-2778166D01*
X880769Y-2921000D01*
X839482Y-2963784D01*
X801354Y-3028441D01*
X766258Y-3124761D01*
X734071Y-3262537D01*
X704666Y-3451557D01*
X677920Y-3701614D01*
X653708Y-4022498D01*
X631904Y-4424001D01*
X612384Y-4915912D01*
X595022Y-5508024D01*
X579695Y-6210127D01*
X566276Y-7032011D01*
X554642Y-7983468D01*
X544667Y-9074289D01*
X536226Y-10314264D01*
X529195Y-11713185D01*
X523449Y-13280843D01*
X518862Y-15027027D01*
X515311Y-16961530D01*
X512669Y-19094143D01*
X510812Y-21434655D01*
X509616Y-23992858D01*
X508955Y-26778543D01*
X508705Y-29801501D01*
X508708Y-32091988D01*
X509386Y-35650756D01*
X511230Y-38978540D01*
X514232Y-42073690D01*
X518384Y-44934555D01*
X523679Y-47559487D01*
X530109Y-49946837D01*
X537668Y-52094953D01*
X546348Y-54002188D01*
X556140Y-55666891D01*
X567038Y-57087414D01*
X579035Y-58262106D01*
X592122Y-59189317D01*
X606292Y-59867400D01*
X621539Y-60294703D01*
X637036Y-60466939D01*
X943529Y-61170668D01*
X1418983Y-61780023D01*
X1768053Y-62068227D01*
X2196562Y-62357000D01*
X381000Y-62357000D01*
X381000Y-1270000D01*
X83566000Y-1270000D01*
X83566000Y-62357000D01*
G04 #@! TD*
M02*
