G04 #@! TF.GenerationSoftware,KiCad,Pcbnew,(5.0.0)*
G04 #@! TF.CreationDate,2018-12-17T10:24:25-05:00*
G04 #@! TF.ProjectId,secret,7365637265742E6B696361645F706362,rev?*
G04 #@! TF.SameCoordinates,Original*
G04 #@! TF.FileFunction,Legend,Top*
G04 #@! TF.FilePolarity,Positive*
%FSLAX46Y46*%
G04 Gerber Fmt 4.6, Leading zero omitted, Abs format (unit mm)*
G04 Created by KiCad (PCBNEW (5.0.0)) date 12/17/18 10:24:25*
%MOMM*%
%LPD*%
G01*
G04 APERTURE LIST*
%ADD10C,0.010000*%
G04 APERTURE END LIST*
D10*
G04 #@! TO.C,G\002A\002A\002A*
G36*
X34497844Y-23734687D02*
X34700501Y-23777865D01*
X35024140Y-23865417D01*
X35429826Y-23986045D01*
X35878623Y-24128449D01*
X36049792Y-24185059D01*
X36522848Y-24346170D01*
X36858507Y-24469384D01*
X37081228Y-24566559D01*
X37215475Y-24649549D01*
X37285709Y-24730211D01*
X37311110Y-24796391D01*
X37306639Y-25014680D01*
X37160611Y-25150665D01*
X36869858Y-25205962D01*
X36533666Y-25193460D01*
X35749836Y-25119487D01*
X35105648Y-25065641D01*
X34572495Y-25032930D01*
X34121768Y-25022361D01*
X33724859Y-25034940D01*
X33353160Y-25071675D01*
X32978064Y-25133571D01*
X32570963Y-25221637D01*
X32103247Y-25336879D01*
X32046333Y-25351395D01*
X31431491Y-25489967D01*
X30953575Y-25554551D01*
X30597698Y-25546171D01*
X30353000Y-25468161D01*
X30169326Y-25332141D01*
X30081444Y-25156554D01*
X30072986Y-25056288D01*
X30166294Y-25056288D01*
X30285693Y-25282583D01*
X30462709Y-25387552D01*
X30613229Y-25436197D01*
X30761931Y-25462101D01*
X30937721Y-25461956D01*
X31169505Y-25432456D01*
X31486187Y-25370293D01*
X31916674Y-25272159D01*
X32325746Y-25174378D01*
X33621160Y-24862072D01*
X35140470Y-24972286D01*
X35762327Y-25016897D01*
X36236558Y-25048782D01*
X36584390Y-25067957D01*
X36827048Y-25074437D01*
X36985761Y-25068237D01*
X37081754Y-25049374D01*
X37136254Y-25017862D01*
X37170462Y-24973761D01*
X37211133Y-24868008D01*
X37176566Y-24773404D01*
X37046603Y-24676526D01*
X36801085Y-24563946D01*
X36419857Y-24422239D01*
X36257378Y-24365602D01*
X35719208Y-24179409D01*
X35293308Y-24036818D01*
X34945468Y-23934608D01*
X34641476Y-23869558D01*
X34347122Y-23838450D01*
X34028196Y-23838061D01*
X33650485Y-23865172D01*
X33179780Y-23916563D01*
X32581870Y-23989013D01*
X32439849Y-24006250D01*
X31780283Y-24087843D01*
X31268998Y-24157777D01*
X30885911Y-24222489D01*
X30610939Y-24288410D01*
X30424000Y-24361975D01*
X30305011Y-24449618D01*
X30233888Y-24557773D01*
X30190549Y-24692874D01*
X30182156Y-24729544D01*
X30166294Y-25056288D01*
X30072986Y-25056288D01*
X30057975Y-24878371D01*
X30057963Y-24875555D01*
X30131353Y-24525152D01*
X30247166Y-24352027D01*
X30319769Y-24281811D01*
X30411453Y-24224301D01*
X30545076Y-24174624D01*
X30743492Y-24127909D01*
X31029557Y-24079283D01*
X31426126Y-24023873D01*
X31956056Y-23956808D01*
X32296511Y-23915150D01*
X32860942Y-23850400D01*
X33388620Y-23797149D01*
X33849436Y-23757867D01*
X34213284Y-23735019D01*
X34450057Y-23731076D01*
X34497844Y-23734687D01*
X34497844Y-23734687D01*
G37*
X34497844Y-23734687D02*
X34700501Y-23777865D01*
X35024140Y-23865417D01*
X35429826Y-23986045D01*
X35878623Y-24128449D01*
X36049792Y-24185059D01*
X36522848Y-24346170D01*
X36858507Y-24469384D01*
X37081228Y-24566559D01*
X37215475Y-24649549D01*
X37285709Y-24730211D01*
X37311110Y-24796391D01*
X37306639Y-25014680D01*
X37160611Y-25150665D01*
X36869858Y-25205962D01*
X36533666Y-25193460D01*
X35749836Y-25119487D01*
X35105648Y-25065641D01*
X34572495Y-25032930D01*
X34121768Y-25022361D01*
X33724859Y-25034940D01*
X33353160Y-25071675D01*
X32978064Y-25133571D01*
X32570963Y-25221637D01*
X32103247Y-25336879D01*
X32046333Y-25351395D01*
X31431491Y-25489967D01*
X30953575Y-25554551D01*
X30597698Y-25546171D01*
X30353000Y-25468161D01*
X30169326Y-25332141D01*
X30081444Y-25156554D01*
X30072986Y-25056288D01*
X30166294Y-25056288D01*
X30285693Y-25282583D01*
X30462709Y-25387552D01*
X30613229Y-25436197D01*
X30761931Y-25462101D01*
X30937721Y-25461956D01*
X31169505Y-25432456D01*
X31486187Y-25370293D01*
X31916674Y-25272159D01*
X32325746Y-25174378D01*
X33621160Y-24862072D01*
X35140470Y-24972286D01*
X35762327Y-25016897D01*
X36236558Y-25048782D01*
X36584390Y-25067957D01*
X36827048Y-25074437D01*
X36985761Y-25068237D01*
X37081754Y-25049374D01*
X37136254Y-25017862D01*
X37170462Y-24973761D01*
X37211133Y-24868008D01*
X37176566Y-24773404D01*
X37046603Y-24676526D01*
X36801085Y-24563946D01*
X36419857Y-24422239D01*
X36257378Y-24365602D01*
X35719208Y-24179409D01*
X35293308Y-24036818D01*
X34945468Y-23934608D01*
X34641476Y-23869558D01*
X34347122Y-23838450D01*
X34028196Y-23838061D01*
X33650485Y-23865172D01*
X33179780Y-23916563D01*
X32581870Y-23989013D01*
X32439849Y-24006250D01*
X31780283Y-24087843D01*
X31268998Y-24157777D01*
X30885911Y-24222489D01*
X30610939Y-24288410D01*
X30424000Y-24361975D01*
X30305011Y-24449618D01*
X30233888Y-24557773D01*
X30190549Y-24692874D01*
X30182156Y-24729544D01*
X30166294Y-25056288D01*
X30072986Y-25056288D01*
X30057975Y-24878371D01*
X30057963Y-24875555D01*
X30131353Y-24525152D01*
X30247166Y-24352027D01*
X30319769Y-24281811D01*
X30411453Y-24224301D01*
X30545076Y-24174624D01*
X30743492Y-24127909D01*
X31029557Y-24079283D01*
X31426126Y-24023873D01*
X31956056Y-23956808D01*
X32296511Y-23915150D01*
X32860942Y-23850400D01*
X33388620Y-23797149D01*
X33849436Y-23757867D01*
X34213284Y-23735019D01*
X34450057Y-23731076D01*
X34497844Y-23734687D01*
G36*
X21949739Y-24819620D02*
X22353549Y-24882690D01*
X22797858Y-24973554D01*
X23236759Y-25081371D01*
X23624347Y-25195302D01*
X23914715Y-25304507D01*
X24015104Y-25357812D01*
X24180239Y-25554035D01*
X24211519Y-25808969D01*
X24109809Y-26078736D01*
X23998151Y-26216879D01*
X23813767Y-26363114D01*
X23619663Y-26399825D01*
X23468984Y-26383102D01*
X22649301Y-26297244D01*
X21687138Y-26279144D01*
X20595239Y-26328886D01*
X20194979Y-26361422D01*
X18757625Y-26490343D01*
X17824312Y-26962206D01*
X17462379Y-27142810D01*
X17155807Y-27291307D01*
X16935733Y-27392932D01*
X16833292Y-27432919D01*
X16831549Y-27433035D01*
X16819023Y-27360215D01*
X16840635Y-27242737D01*
X16945589Y-27242737D01*
X16962881Y-27262667D01*
X17052816Y-27225871D01*
X17260178Y-27126106D01*
X17552569Y-26979308D01*
X17844232Y-26829202D01*
X18235591Y-26631391D01*
X18537166Y-26499631D01*
X18806302Y-26416145D01*
X19100342Y-26363155D01*
X19476629Y-26322884D01*
X19477792Y-26322778D01*
X20274688Y-26252049D01*
X20926068Y-26199422D01*
X21454702Y-26164188D01*
X21883358Y-26145636D01*
X22234807Y-26143058D01*
X22531818Y-26155745D01*
X22797159Y-26182987D01*
X22993257Y-26213268D01*
X23338695Y-26268319D01*
X23563876Y-26286777D01*
X23714010Y-26268039D01*
X23834305Y-26211502D01*
X23849331Y-26201855D01*
X24041540Y-26003906D01*
X24110532Y-25772156D01*
X24047488Y-25556604D01*
X23976542Y-25480497D01*
X23771260Y-25368489D01*
X23441635Y-25248172D01*
X23031507Y-25130954D01*
X22584714Y-25028244D01*
X22145096Y-24951449D01*
X21801666Y-24914537D01*
X21587336Y-24904529D01*
X21394207Y-24909272D01*
X21192786Y-24935705D01*
X20953583Y-24990764D01*
X20647106Y-25081388D01*
X20243862Y-25214514D01*
X19714360Y-25397080D01*
X19639234Y-25423232D01*
X19135856Y-25600756D01*
X18671839Y-25768493D01*
X18277042Y-25915327D01*
X17981324Y-26030146D01*
X17814545Y-26101835D01*
X17810303Y-26103997D01*
X17620743Y-26232838D01*
X17405556Y-26422442D01*
X17206045Y-26630271D01*
X17063514Y-26813784D01*
X17018000Y-26920022D01*
X16990188Y-27058901D01*
X16966608Y-27128742D01*
X16945589Y-27242737D01*
X16840635Y-27242737D01*
X16852985Y-27175607D01*
X16890223Y-27039504D01*
X17111672Y-26579693D01*
X17458737Y-26199052D01*
X17734234Y-26016096D01*
X17891259Y-25947830D01*
X18178853Y-25835838D01*
X18567352Y-25691157D01*
X19027093Y-25524825D01*
X19528411Y-25347880D01*
X19554568Y-25338767D01*
X20141591Y-25137886D01*
X20598578Y-24990891D01*
X20953389Y-24890495D01*
X21233884Y-24829407D01*
X21467922Y-24800340D01*
X21632333Y-24795182D01*
X21949739Y-24819620D01*
X21949739Y-24819620D01*
G37*
X21949739Y-24819620D02*
X22353549Y-24882690D01*
X22797858Y-24973554D01*
X23236759Y-25081371D01*
X23624347Y-25195302D01*
X23914715Y-25304507D01*
X24015104Y-25357812D01*
X24180239Y-25554035D01*
X24211519Y-25808969D01*
X24109809Y-26078736D01*
X23998151Y-26216879D01*
X23813767Y-26363114D01*
X23619663Y-26399825D01*
X23468984Y-26383102D01*
X22649301Y-26297244D01*
X21687138Y-26279144D01*
X20595239Y-26328886D01*
X20194979Y-26361422D01*
X18757625Y-26490343D01*
X17824312Y-26962206D01*
X17462379Y-27142810D01*
X17155807Y-27291307D01*
X16935733Y-27392932D01*
X16833292Y-27432919D01*
X16831549Y-27433035D01*
X16819023Y-27360215D01*
X16840635Y-27242737D01*
X16945589Y-27242737D01*
X16962881Y-27262667D01*
X17052816Y-27225871D01*
X17260178Y-27126106D01*
X17552569Y-26979308D01*
X17844232Y-26829202D01*
X18235591Y-26631391D01*
X18537166Y-26499631D01*
X18806302Y-26416145D01*
X19100342Y-26363155D01*
X19476629Y-26322884D01*
X19477792Y-26322778D01*
X20274688Y-26252049D01*
X20926068Y-26199422D01*
X21454702Y-26164188D01*
X21883358Y-26145636D01*
X22234807Y-26143058D01*
X22531818Y-26155745D01*
X22797159Y-26182987D01*
X22993257Y-26213268D01*
X23338695Y-26268319D01*
X23563876Y-26286777D01*
X23714010Y-26268039D01*
X23834305Y-26211502D01*
X23849331Y-26201855D01*
X24041540Y-26003906D01*
X24110532Y-25772156D01*
X24047488Y-25556604D01*
X23976542Y-25480497D01*
X23771260Y-25368489D01*
X23441635Y-25248172D01*
X23031507Y-25130954D01*
X22584714Y-25028244D01*
X22145096Y-24951449D01*
X21801666Y-24914537D01*
X21587336Y-24904529D01*
X21394207Y-24909272D01*
X21192786Y-24935705D01*
X20953583Y-24990764D01*
X20647106Y-25081388D01*
X20243862Y-25214514D01*
X19714360Y-25397080D01*
X19639234Y-25423232D01*
X19135856Y-25600756D01*
X18671839Y-25768493D01*
X18277042Y-25915327D01*
X17981324Y-26030146D01*
X17814545Y-26101835D01*
X17810303Y-26103997D01*
X17620743Y-26232838D01*
X17405556Y-26422442D01*
X17206045Y-26630271D01*
X17063514Y-26813784D01*
X17018000Y-26920022D01*
X16990188Y-27058901D01*
X16966608Y-27128742D01*
X16945589Y-27242737D01*
X16840635Y-27242737D01*
X16852985Y-27175607D01*
X16890223Y-27039504D01*
X17111672Y-26579693D01*
X17458737Y-26199052D01*
X17734234Y-26016096D01*
X17891259Y-25947830D01*
X18178853Y-25835838D01*
X18567352Y-25691157D01*
X19027093Y-25524825D01*
X19528411Y-25347880D01*
X19554568Y-25338767D01*
X20141591Y-25137886D01*
X20598578Y-24990891D01*
X20953389Y-24890495D01*
X21233884Y-24829407D01*
X21467922Y-24800340D01*
X21632333Y-24795182D01*
X21949739Y-24819620D01*
G36*
X31432794Y-38853566D02*
X31438759Y-38855576D01*
X31516328Y-38901920D01*
X31479783Y-38960417D01*
X31310087Y-39052633D01*
X31232707Y-39089014D01*
X30671513Y-39296152D01*
X29987540Y-39464667D01*
X29223945Y-39589682D01*
X28423885Y-39666319D01*
X27630518Y-39689702D01*
X26887001Y-39654953D01*
X26563655Y-39616657D01*
X26463236Y-39595713D01*
X27877699Y-39595713D01*
X27943520Y-39606418D01*
X28155600Y-39590845D01*
X28194000Y-39586773D01*
X28501997Y-39553932D01*
X28872823Y-39515255D01*
X29083000Y-39493700D01*
X29524995Y-39435198D01*
X29983035Y-39351847D01*
X30410813Y-39254199D01*
X30762026Y-39152807D01*
X30988000Y-39059584D01*
X31119650Y-38980462D01*
X31116236Y-38955792D01*
X30963200Y-38971940D01*
X30903333Y-38980271D01*
X30461086Y-39046545D01*
X30003446Y-39122729D01*
X29548373Y-39204800D01*
X29113829Y-39288739D01*
X28717776Y-39370524D01*
X28378175Y-39446135D01*
X28112988Y-39511550D01*
X27940175Y-39562750D01*
X27877699Y-39595713D01*
X26463236Y-39595713D01*
X26214554Y-39543847D01*
X25868301Y-39437877D01*
X25716989Y-39376085D01*
X25599877Y-39320935D01*
X26017052Y-39320935D01*
X26039233Y-39362831D01*
X26212620Y-39446764D01*
X26508104Y-39504977D01*
X26754666Y-39524489D01*
X26874336Y-39522400D01*
X26857464Y-39491072D01*
X26693841Y-39414409D01*
X26681446Y-39409019D01*
X26463551Y-39334840D01*
X26251114Y-39293342D01*
X26087744Y-39287662D01*
X26017052Y-39320935D01*
X25599877Y-39320935D01*
X25357666Y-39206875D01*
X25992666Y-39235995D01*
X26383492Y-39266203D01*
X26779189Y-39316428D01*
X27070953Y-39370870D01*
X27316893Y-39418472D01*
X27552227Y-39431458D01*
X27831810Y-39408000D01*
X28210497Y-39346272D01*
X28298620Y-39329984D01*
X29144190Y-39173691D01*
X29836409Y-39049943D01*
X30387720Y-38956860D01*
X30810569Y-38892560D01*
X31117401Y-38855165D01*
X31320661Y-38842794D01*
X31432794Y-38853566D01*
X31432794Y-38853566D01*
G37*
X31432794Y-38853566D02*
X31438759Y-38855576D01*
X31516328Y-38901920D01*
X31479783Y-38960417D01*
X31310087Y-39052633D01*
X31232707Y-39089014D01*
X30671513Y-39296152D01*
X29987540Y-39464667D01*
X29223945Y-39589682D01*
X28423885Y-39666319D01*
X27630518Y-39689702D01*
X26887001Y-39654953D01*
X26563655Y-39616657D01*
X26463236Y-39595713D01*
X27877699Y-39595713D01*
X27943520Y-39606418D01*
X28155600Y-39590845D01*
X28194000Y-39586773D01*
X28501997Y-39553932D01*
X28872823Y-39515255D01*
X29083000Y-39493700D01*
X29524995Y-39435198D01*
X29983035Y-39351847D01*
X30410813Y-39254199D01*
X30762026Y-39152807D01*
X30988000Y-39059584D01*
X31119650Y-38980462D01*
X31116236Y-38955792D01*
X30963200Y-38971940D01*
X30903333Y-38980271D01*
X30461086Y-39046545D01*
X30003446Y-39122729D01*
X29548373Y-39204800D01*
X29113829Y-39288739D01*
X28717776Y-39370524D01*
X28378175Y-39446135D01*
X28112988Y-39511550D01*
X27940175Y-39562750D01*
X27877699Y-39595713D01*
X26463236Y-39595713D01*
X26214554Y-39543847D01*
X25868301Y-39437877D01*
X25716989Y-39376085D01*
X25599877Y-39320935D01*
X26017052Y-39320935D01*
X26039233Y-39362831D01*
X26212620Y-39446764D01*
X26508104Y-39504977D01*
X26754666Y-39524489D01*
X26874336Y-39522400D01*
X26857464Y-39491072D01*
X26693841Y-39414409D01*
X26681446Y-39409019D01*
X26463551Y-39334840D01*
X26251114Y-39293342D01*
X26087744Y-39287662D01*
X26017052Y-39320935D01*
X25599877Y-39320935D01*
X25357666Y-39206875D01*
X25992666Y-39235995D01*
X26383492Y-39266203D01*
X26779189Y-39316428D01*
X27070953Y-39370870D01*
X27316893Y-39418472D01*
X27552227Y-39431458D01*
X27831810Y-39408000D01*
X28210497Y-39346272D01*
X28298620Y-39329984D01*
X29144190Y-39173691D01*
X29836409Y-39049943D01*
X30387720Y-38956860D01*
X30810569Y-38892560D01*
X31117401Y-38855165D01*
X31320661Y-38842794D01*
X31432794Y-38853566D01*
G36*
X24735941Y-40713623D02*
X24959465Y-40861177D01*
X25088729Y-40973938D01*
X25349886Y-41188181D01*
X25618920Y-41368269D01*
X25759352Y-41440745D01*
X26004017Y-41510150D01*
X26380736Y-41576868D01*
X26852231Y-41636998D01*
X27381225Y-41686639D01*
X27930444Y-41721892D01*
X28462610Y-41738856D01*
X28617333Y-41739793D01*
X28898278Y-41736034D01*
X29133301Y-41719077D01*
X29359378Y-41679436D01*
X29613483Y-41607627D01*
X29932593Y-41494163D01*
X30353681Y-41329558D01*
X30597254Y-41231863D01*
X31121228Y-41022887D01*
X31507654Y-40874943D01*
X31775062Y-40783393D01*
X31941984Y-40743594D01*
X32026950Y-40750906D01*
X32048490Y-40800688D01*
X32030806Y-40872834D01*
X31912781Y-41090319D01*
X31711041Y-41264639D01*
X31390146Y-41422861D01*
X31230399Y-41484100D01*
X30931150Y-41606681D01*
X30749086Y-41725762D01*
X30636675Y-41877109D01*
X30598525Y-41959558D01*
X30501312Y-42148049D01*
X30415176Y-42245133D01*
X30401873Y-42248667D01*
X30307618Y-42299790D01*
X30117713Y-42436926D01*
X29864936Y-42635728D01*
X29718000Y-42756667D01*
X29427371Y-42994667D01*
X29205782Y-43145813D01*
X29003983Y-43221960D01*
X28772723Y-43234963D01*
X28462754Y-43196675D01*
X28132148Y-43138377D01*
X27493278Y-42978752D01*
X26987172Y-42749732D01*
X26586647Y-42437517D01*
X26447271Y-42283030D01*
X26264705Y-42079226D01*
X26113345Y-41943536D01*
X26045967Y-41909528D01*
X25670878Y-41832460D01*
X25274469Y-41618686D01*
X24946532Y-41340624D01*
X24745217Y-41121728D01*
X24603436Y-40939489D01*
X24567150Y-40866154D01*
X24706699Y-40866154D01*
X24806061Y-41029082D01*
X24867223Y-41109681D01*
X25259606Y-41491498D01*
X25712099Y-41724605D01*
X25897836Y-41771978D01*
X26163359Y-41885036D01*
X26479310Y-42139049D01*
X26618326Y-42277523D01*
X26960706Y-42585037D01*
X27331487Y-42807054D01*
X27774163Y-42962719D01*
X28332228Y-43071177D01*
X28461652Y-43088906D01*
X28738905Y-43126237D01*
X28936083Y-43155379D01*
X29007686Y-43169264D01*
X29072591Y-43124255D01*
X29239387Y-42994500D01*
X29479130Y-42802751D01*
X29640316Y-42672000D01*
X29915941Y-42452343D01*
X30143243Y-42280485D01*
X30290247Y-42180130D01*
X30325490Y-42164000D01*
X30398515Y-42095236D01*
X30499831Y-41925485D01*
X30521211Y-41881989D01*
X30697708Y-41651788D01*
X30961977Y-41453551D01*
X31244688Y-41333553D01*
X31367151Y-41317334D01*
X31491643Y-41272068D01*
X31657304Y-41163282D01*
X31814351Y-41031491D01*
X31913006Y-40917211D01*
X31919333Y-40867918D01*
X31830503Y-40884154D01*
X31613041Y-40955430D01*
X31294675Y-41071777D01*
X30903129Y-41223226D01*
X30656279Y-41322066D01*
X30196131Y-41500557D01*
X29754184Y-41657734D01*
X29370631Y-41780291D01*
X29085662Y-41854918D01*
X29005279Y-41868739D01*
X28704595Y-41882687D01*
X28292123Y-41871330D01*
X27806939Y-41838953D01*
X27288114Y-41789840D01*
X26774725Y-41728276D01*
X26305843Y-41658546D01*
X25920543Y-41584933D01*
X25657900Y-41511723D01*
X25624728Y-41498050D01*
X25337585Y-41331932D01*
X25071327Y-41121329D01*
X25024326Y-41074340D01*
X24828705Y-40885887D01*
X24718538Y-40817457D01*
X24706699Y-40866154D01*
X24567150Y-40866154D01*
X24553333Y-40838232D01*
X24599511Y-40705708D01*
X24735941Y-40713623D01*
X24735941Y-40713623D01*
G37*
X24735941Y-40713623D02*
X24959465Y-40861177D01*
X25088729Y-40973938D01*
X25349886Y-41188181D01*
X25618920Y-41368269D01*
X25759352Y-41440745D01*
X26004017Y-41510150D01*
X26380736Y-41576868D01*
X26852231Y-41636998D01*
X27381225Y-41686639D01*
X27930444Y-41721892D01*
X28462610Y-41738856D01*
X28617333Y-41739793D01*
X28898278Y-41736034D01*
X29133301Y-41719077D01*
X29359378Y-41679436D01*
X29613483Y-41607627D01*
X29932593Y-41494163D01*
X30353681Y-41329558D01*
X30597254Y-41231863D01*
X31121228Y-41022887D01*
X31507654Y-40874943D01*
X31775062Y-40783393D01*
X31941984Y-40743594D01*
X32026950Y-40750906D01*
X32048490Y-40800688D01*
X32030806Y-40872834D01*
X31912781Y-41090319D01*
X31711041Y-41264639D01*
X31390146Y-41422861D01*
X31230399Y-41484100D01*
X30931150Y-41606681D01*
X30749086Y-41725762D01*
X30636675Y-41877109D01*
X30598525Y-41959558D01*
X30501312Y-42148049D01*
X30415176Y-42245133D01*
X30401873Y-42248667D01*
X30307618Y-42299790D01*
X30117713Y-42436926D01*
X29864936Y-42635728D01*
X29718000Y-42756667D01*
X29427371Y-42994667D01*
X29205782Y-43145813D01*
X29003983Y-43221960D01*
X28772723Y-43234963D01*
X28462754Y-43196675D01*
X28132148Y-43138377D01*
X27493278Y-42978752D01*
X26987172Y-42749732D01*
X26586647Y-42437517D01*
X26447271Y-42283030D01*
X26264705Y-42079226D01*
X26113345Y-41943536D01*
X26045967Y-41909528D01*
X25670878Y-41832460D01*
X25274469Y-41618686D01*
X24946532Y-41340624D01*
X24745217Y-41121728D01*
X24603436Y-40939489D01*
X24567150Y-40866154D01*
X24706699Y-40866154D01*
X24806061Y-41029082D01*
X24867223Y-41109681D01*
X25259606Y-41491498D01*
X25712099Y-41724605D01*
X25897836Y-41771978D01*
X26163359Y-41885036D01*
X26479310Y-42139049D01*
X26618326Y-42277523D01*
X26960706Y-42585037D01*
X27331487Y-42807054D01*
X27774163Y-42962719D01*
X28332228Y-43071177D01*
X28461652Y-43088906D01*
X28738905Y-43126237D01*
X28936083Y-43155379D01*
X29007686Y-43169264D01*
X29072591Y-43124255D01*
X29239387Y-42994500D01*
X29479130Y-42802751D01*
X29640316Y-42672000D01*
X29915941Y-42452343D01*
X30143243Y-42280485D01*
X30290247Y-42180130D01*
X30325490Y-42164000D01*
X30398515Y-42095236D01*
X30499831Y-41925485D01*
X30521211Y-41881989D01*
X30697708Y-41651788D01*
X30961977Y-41453551D01*
X31244688Y-41333553D01*
X31367151Y-41317334D01*
X31491643Y-41272068D01*
X31657304Y-41163282D01*
X31814351Y-41031491D01*
X31913006Y-40917211D01*
X31919333Y-40867918D01*
X31830503Y-40884154D01*
X31613041Y-40955430D01*
X31294675Y-41071777D01*
X30903129Y-41223226D01*
X30656279Y-41322066D01*
X30196131Y-41500557D01*
X29754184Y-41657734D01*
X29370631Y-41780291D01*
X29085662Y-41854918D01*
X29005279Y-41868739D01*
X28704595Y-41882687D01*
X28292123Y-41871330D01*
X27806939Y-41838953D01*
X27288114Y-41789840D01*
X26774725Y-41728276D01*
X26305843Y-41658546D01*
X25920543Y-41584933D01*
X25657900Y-41511723D01*
X25624728Y-41498050D01*
X25337585Y-41331932D01*
X25071327Y-41121329D01*
X25024326Y-41074340D01*
X24828705Y-40885887D01*
X24718538Y-40817457D01*
X24706699Y-40866154D01*
X24567150Y-40866154D01*
X24553333Y-40838232D01*
X24599511Y-40705708D01*
X24735941Y-40713623D01*
G36*
X33929247Y-15184250D02*
X34364715Y-15397430D01*
X34752376Y-15591882D01*
X35063918Y-15753037D01*
X35271028Y-15866326D01*
X35339216Y-15909767D01*
X35447774Y-16065288D01*
X35520303Y-16268006D01*
X35564630Y-16430918D01*
X35652309Y-16722336D01*
X35773322Y-17110063D01*
X35917652Y-17561901D01*
X36038726Y-17934323D01*
X36219885Y-18494013D01*
X36409578Y-19091496D01*
X36589862Y-19669525D01*
X36742795Y-20170852D01*
X36799650Y-20362090D01*
X36953228Y-20834146D01*
X37157642Y-21391338D01*
X37387466Y-21967609D01*
X37617276Y-22496907D01*
X37642155Y-22550920D01*
X37946321Y-23222066D01*
X38178570Y-23774428D01*
X38348817Y-24237467D01*
X38466975Y-24640649D01*
X38542959Y-25013436D01*
X38583620Y-25348917D01*
X38634641Y-25932833D01*
X38388487Y-25874841D01*
X37888219Y-25797112D01*
X37227872Y-25762047D01*
X36406856Y-25769679D01*
X35424580Y-25820041D01*
X34280454Y-25913168D01*
X32973886Y-26049092D01*
X31504287Y-26227848D01*
X30988000Y-26295634D01*
X30277876Y-26394743D01*
X29706311Y-26486230D01*
X29243195Y-26577443D01*
X28858417Y-26675731D01*
X28521864Y-26788443D01*
X28203427Y-26922928D01*
X27986759Y-27028092D01*
X27474333Y-27287053D01*
X26712333Y-27176087D01*
X26379784Y-27137569D01*
X25985776Y-27111317D01*
X25517987Y-27097638D01*
X24964093Y-27096835D01*
X24311773Y-27109215D01*
X23548702Y-27135082D01*
X22662558Y-27174741D01*
X21641019Y-27228497D01*
X20471760Y-27296655D01*
X19558000Y-27353147D01*
X18924643Y-27398730D01*
X18428099Y-27451956D01*
X18035856Y-27522234D01*
X17715403Y-27618976D01*
X17434229Y-27751593D01*
X17159821Y-27929494D01*
X16913509Y-28118608D01*
X16625395Y-28337985D01*
X16409953Y-28464313D01*
X16217135Y-28521223D01*
X16036505Y-28532667D01*
X15749010Y-28498680D01*
X15552535Y-28409062D01*
X15542304Y-28399543D01*
X15449977Y-28212185D01*
X15449563Y-28176985D01*
X15596865Y-28176985D01*
X15636400Y-28337760D01*
X15745674Y-28417534D01*
X15935615Y-28444392D01*
X16051624Y-28446704D01*
X16265933Y-28401553D01*
X16534040Y-28253879D01*
X16823130Y-28038526D01*
X17048282Y-27860601D01*
X17249911Y-27715069D01*
X17448325Y-27597586D01*
X17663833Y-27503807D01*
X17916743Y-27429386D01*
X18227364Y-27369980D01*
X18616004Y-27321243D01*
X19102972Y-27278831D01*
X19708577Y-27238400D01*
X20453127Y-27195605D01*
X20870333Y-27172701D01*
X22009494Y-27112364D01*
X22993808Y-27064631D01*
X23837276Y-27029262D01*
X24553897Y-27006019D01*
X25157669Y-26994665D01*
X25662594Y-26994960D01*
X26082669Y-27006667D01*
X26431895Y-27029547D01*
X26724271Y-27063362D01*
X26781255Y-27072069D01*
X27442844Y-27177804D01*
X28051255Y-26883360D01*
X28351612Y-26746574D01*
X28652209Y-26631344D01*
X28978782Y-26532007D01*
X29357066Y-26442902D01*
X29812797Y-26358364D01*
X30371711Y-26272730D01*
X31059543Y-26180338D01*
X31496000Y-26125349D01*
X32762107Y-25972984D01*
X33872673Y-25849669D01*
X34838858Y-25754724D01*
X35671823Y-25687468D01*
X36382728Y-25647223D01*
X36982736Y-25633309D01*
X37483007Y-25645045D01*
X37894701Y-25681752D01*
X38132302Y-25721149D01*
X38545605Y-25805633D01*
X38495002Y-25327650D01*
X38420957Y-24893083D01*
X38280315Y-24389903D01*
X38066082Y-23798132D01*
X37771259Y-23097795D01*
X37524250Y-22555937D01*
X37294492Y-22028988D01*
X37052671Y-21416290D01*
X36828487Y-20796197D01*
X36660697Y-20277667D01*
X36493424Y-19726321D01*
X36296159Y-19091507D01*
X36093059Y-18450196D01*
X35908283Y-17879362D01*
X35901400Y-17858429D01*
X35754755Y-17407182D01*
X35623631Y-16993236D01*
X35519113Y-16652371D01*
X35452289Y-16420368D01*
X35437563Y-16361446D01*
X35359950Y-16143224D01*
X35259812Y-15998801D01*
X35145514Y-15928067D01*
X34908321Y-15797799D01*
X34577203Y-15623365D01*
X34181134Y-15420128D01*
X33931754Y-15294451D01*
X32723666Y-14689667D01*
X29506333Y-14663760D01*
X28358477Y-14658220D01*
X27362855Y-14662049D01*
X26502574Y-14676213D01*
X25760744Y-14701681D01*
X25120472Y-14739420D01*
X24564868Y-14790398D01*
X24077039Y-14855581D01*
X23640095Y-14935938D01*
X23283333Y-15020215D01*
X22917876Y-15120909D01*
X22463269Y-15254232D01*
X21944023Y-15412197D01*
X21384651Y-15586820D01*
X20809665Y-15770114D01*
X20243579Y-15954094D01*
X19710904Y-16130774D01*
X19236154Y-16292167D01*
X18843840Y-16430289D01*
X18558475Y-16537153D01*
X18404572Y-16604774D01*
X18389633Y-16614510D01*
X18197111Y-16795391D01*
X17943070Y-17066203D01*
X17651077Y-17398111D01*
X17344698Y-17762282D01*
X17047503Y-18129883D01*
X16783057Y-18472078D01*
X16574928Y-18760035D01*
X16446683Y-18964920D01*
X16421142Y-19022886D01*
X16390132Y-19205598D01*
X16359517Y-19545122D01*
X16329950Y-20028935D01*
X16302085Y-20644517D01*
X16276575Y-21379346D01*
X16254075Y-22220899D01*
X16253979Y-22225000D01*
X16233913Y-23036280D01*
X16214294Y-23700373D01*
X16193632Y-24239411D01*
X16170438Y-24675530D01*
X16143222Y-25030863D01*
X16110496Y-25327545D01*
X16070769Y-25587710D01*
X16022553Y-25833492D01*
X16006149Y-25908000D01*
X15903338Y-26384192D01*
X15794318Y-26918879D01*
X15699565Y-27411095D01*
X15683307Y-27500103D01*
X15616144Y-27907128D01*
X15596865Y-28176985D01*
X15449563Y-28176985D01*
X15448443Y-28082043D01*
X15617265Y-27287696D01*
X15754704Y-26628828D01*
X15864385Y-26075245D01*
X15949936Y-25596752D01*
X16014983Y-25163153D01*
X16063153Y-24744254D01*
X16098074Y-24309860D01*
X16123372Y-23829776D01*
X16142673Y-23273806D01*
X16159605Y-22611756D01*
X16172292Y-22055667D01*
X16192440Y-21286704D01*
X16215973Y-20596736D01*
X16241998Y-20003169D01*
X16269622Y-19523410D01*
X16297953Y-19174866D01*
X16326097Y-18974946D01*
X16331336Y-18955242D01*
X16432695Y-18755409D01*
X16636005Y-18456338D01*
X16924370Y-18079417D01*
X17280899Y-17646031D01*
X17688698Y-17177565D01*
X18038724Y-16793812D01*
X18156633Y-16674041D01*
X18279213Y-16573166D01*
X18430801Y-16480419D01*
X18635735Y-16385031D01*
X18918351Y-16276231D01*
X19302986Y-16143252D01*
X19813977Y-15975323D01*
X20090752Y-15885766D01*
X21034438Y-15584039D01*
X21837302Y-15334264D01*
X22517983Y-15131418D01*
X23095118Y-14970476D01*
X23587347Y-14846416D01*
X24013307Y-14754212D01*
X24391637Y-14688842D01*
X24661679Y-14653691D01*
X24929509Y-14633503D01*
X25344060Y-14614939D01*
X25882722Y-14598467D01*
X26522886Y-14584554D01*
X27241943Y-14573669D01*
X28017283Y-14566279D01*
X28826298Y-14562853D01*
X29061251Y-14562667D01*
X32644510Y-14562667D01*
X33929247Y-15184250D01*
X33929247Y-15184250D01*
G37*
X33929247Y-15184250D02*
X34364715Y-15397430D01*
X34752376Y-15591882D01*
X35063918Y-15753037D01*
X35271028Y-15866326D01*
X35339216Y-15909767D01*
X35447774Y-16065288D01*
X35520303Y-16268006D01*
X35564630Y-16430918D01*
X35652309Y-16722336D01*
X35773322Y-17110063D01*
X35917652Y-17561901D01*
X36038726Y-17934323D01*
X36219885Y-18494013D01*
X36409578Y-19091496D01*
X36589862Y-19669525D01*
X36742795Y-20170852D01*
X36799650Y-20362090D01*
X36953228Y-20834146D01*
X37157642Y-21391338D01*
X37387466Y-21967609D01*
X37617276Y-22496907D01*
X37642155Y-22550920D01*
X37946321Y-23222066D01*
X38178570Y-23774428D01*
X38348817Y-24237467D01*
X38466975Y-24640649D01*
X38542959Y-25013436D01*
X38583620Y-25348917D01*
X38634641Y-25932833D01*
X38388487Y-25874841D01*
X37888219Y-25797112D01*
X37227872Y-25762047D01*
X36406856Y-25769679D01*
X35424580Y-25820041D01*
X34280454Y-25913168D01*
X32973886Y-26049092D01*
X31504287Y-26227848D01*
X30988000Y-26295634D01*
X30277876Y-26394743D01*
X29706311Y-26486230D01*
X29243195Y-26577443D01*
X28858417Y-26675731D01*
X28521864Y-26788443D01*
X28203427Y-26922928D01*
X27986759Y-27028092D01*
X27474333Y-27287053D01*
X26712333Y-27176087D01*
X26379784Y-27137569D01*
X25985776Y-27111317D01*
X25517987Y-27097638D01*
X24964093Y-27096835D01*
X24311773Y-27109215D01*
X23548702Y-27135082D01*
X22662558Y-27174741D01*
X21641019Y-27228497D01*
X20471760Y-27296655D01*
X19558000Y-27353147D01*
X18924643Y-27398730D01*
X18428099Y-27451956D01*
X18035856Y-27522234D01*
X17715403Y-27618976D01*
X17434229Y-27751593D01*
X17159821Y-27929494D01*
X16913509Y-28118608D01*
X16625395Y-28337985D01*
X16409953Y-28464313D01*
X16217135Y-28521223D01*
X16036505Y-28532667D01*
X15749010Y-28498680D01*
X15552535Y-28409062D01*
X15542304Y-28399543D01*
X15449977Y-28212185D01*
X15449563Y-28176985D01*
X15596865Y-28176985D01*
X15636400Y-28337760D01*
X15745674Y-28417534D01*
X15935615Y-28444392D01*
X16051624Y-28446704D01*
X16265933Y-28401553D01*
X16534040Y-28253879D01*
X16823130Y-28038526D01*
X17048282Y-27860601D01*
X17249911Y-27715069D01*
X17448325Y-27597586D01*
X17663833Y-27503807D01*
X17916743Y-27429386D01*
X18227364Y-27369980D01*
X18616004Y-27321243D01*
X19102972Y-27278831D01*
X19708577Y-27238400D01*
X20453127Y-27195605D01*
X20870333Y-27172701D01*
X22009494Y-27112364D01*
X22993808Y-27064631D01*
X23837276Y-27029262D01*
X24553897Y-27006019D01*
X25157669Y-26994665D01*
X25662594Y-26994960D01*
X26082669Y-27006667D01*
X26431895Y-27029547D01*
X26724271Y-27063362D01*
X26781255Y-27072069D01*
X27442844Y-27177804D01*
X28051255Y-26883360D01*
X28351612Y-26746574D01*
X28652209Y-26631344D01*
X28978782Y-26532007D01*
X29357066Y-26442902D01*
X29812797Y-26358364D01*
X30371711Y-26272730D01*
X31059543Y-26180338D01*
X31496000Y-26125349D01*
X32762107Y-25972984D01*
X33872673Y-25849669D01*
X34838858Y-25754724D01*
X35671823Y-25687468D01*
X36382728Y-25647223D01*
X36982736Y-25633309D01*
X37483007Y-25645045D01*
X37894701Y-25681752D01*
X38132302Y-25721149D01*
X38545605Y-25805633D01*
X38495002Y-25327650D01*
X38420957Y-24893083D01*
X38280315Y-24389903D01*
X38066082Y-23798132D01*
X37771259Y-23097795D01*
X37524250Y-22555937D01*
X37294492Y-22028988D01*
X37052671Y-21416290D01*
X36828487Y-20796197D01*
X36660697Y-20277667D01*
X36493424Y-19726321D01*
X36296159Y-19091507D01*
X36093059Y-18450196D01*
X35908283Y-17879362D01*
X35901400Y-17858429D01*
X35754755Y-17407182D01*
X35623631Y-16993236D01*
X35519113Y-16652371D01*
X35452289Y-16420368D01*
X35437563Y-16361446D01*
X35359950Y-16143224D01*
X35259812Y-15998801D01*
X35145514Y-15928067D01*
X34908321Y-15797799D01*
X34577203Y-15623365D01*
X34181134Y-15420128D01*
X33931754Y-15294451D01*
X32723666Y-14689667D01*
X29506333Y-14663760D01*
X28358477Y-14658220D01*
X27362855Y-14662049D01*
X26502574Y-14676213D01*
X25760744Y-14701681D01*
X25120472Y-14739420D01*
X24564868Y-14790398D01*
X24077039Y-14855581D01*
X23640095Y-14935938D01*
X23283333Y-15020215D01*
X22917876Y-15120909D01*
X22463269Y-15254232D01*
X21944023Y-15412197D01*
X21384651Y-15586820D01*
X20809665Y-15770114D01*
X20243579Y-15954094D01*
X19710904Y-16130774D01*
X19236154Y-16292167D01*
X18843840Y-16430289D01*
X18558475Y-16537153D01*
X18404572Y-16604774D01*
X18389633Y-16614510D01*
X18197111Y-16795391D01*
X17943070Y-17066203D01*
X17651077Y-17398111D01*
X17344698Y-17762282D01*
X17047503Y-18129883D01*
X16783057Y-18472078D01*
X16574928Y-18760035D01*
X16446683Y-18964920D01*
X16421142Y-19022886D01*
X16390132Y-19205598D01*
X16359517Y-19545122D01*
X16329950Y-20028935D01*
X16302085Y-20644517D01*
X16276575Y-21379346D01*
X16254075Y-22220899D01*
X16253979Y-22225000D01*
X16233913Y-23036280D01*
X16214294Y-23700373D01*
X16193632Y-24239411D01*
X16170438Y-24675530D01*
X16143222Y-25030863D01*
X16110496Y-25327545D01*
X16070769Y-25587710D01*
X16022553Y-25833492D01*
X16006149Y-25908000D01*
X15903338Y-26384192D01*
X15794318Y-26918879D01*
X15699565Y-27411095D01*
X15683307Y-27500103D01*
X15616144Y-27907128D01*
X15596865Y-28176985D01*
X15449563Y-28176985D01*
X15448443Y-28082043D01*
X15617265Y-27287696D01*
X15754704Y-26628828D01*
X15864385Y-26075245D01*
X15949936Y-25596752D01*
X16014983Y-25163153D01*
X16063153Y-24744254D01*
X16098074Y-24309860D01*
X16123372Y-23829776D01*
X16142673Y-23273806D01*
X16159605Y-22611756D01*
X16172292Y-22055667D01*
X16192440Y-21286704D01*
X16215973Y-20596736D01*
X16241998Y-20003169D01*
X16269622Y-19523410D01*
X16297953Y-19174866D01*
X16326097Y-18974946D01*
X16331336Y-18955242D01*
X16432695Y-18755409D01*
X16636005Y-18456338D01*
X16924370Y-18079417D01*
X17280899Y-17646031D01*
X17688698Y-17177565D01*
X18038724Y-16793812D01*
X18156633Y-16674041D01*
X18279213Y-16573166D01*
X18430801Y-16480419D01*
X18635735Y-16385031D01*
X18918351Y-16276231D01*
X19302986Y-16143252D01*
X19813977Y-15975323D01*
X20090752Y-15885766D01*
X21034438Y-15584039D01*
X21837302Y-15334264D01*
X22517983Y-15131418D01*
X23095118Y-14970476D01*
X23587347Y-14846416D01*
X24013307Y-14754212D01*
X24391637Y-14688842D01*
X24661679Y-14653691D01*
X24929509Y-14633503D01*
X25344060Y-14614939D01*
X25882722Y-14598467D01*
X26522886Y-14584554D01*
X27241943Y-14573669D01*
X28017283Y-14566279D01*
X28826298Y-14562853D01*
X29061251Y-14562667D01*
X32644510Y-14562667D01*
X33929247Y-15184250D01*
G36*
X35112079Y-26431318D02*
X35405093Y-26452750D01*
X35531643Y-26477282D01*
X35742270Y-26511514D01*
X36077389Y-26521091D01*
X36493832Y-26505105D01*
X36576000Y-26499299D01*
X36924964Y-26475362D01*
X37203637Y-26460895D01*
X37373762Y-26457635D01*
X37407547Y-26461498D01*
X37445283Y-26584155D01*
X37446920Y-26821539D01*
X37418147Y-27124280D01*
X37364652Y-27443009D01*
X37292123Y-27728354D01*
X37247582Y-27849936D01*
X37011501Y-28260144D01*
X36676213Y-28610060D01*
X36230952Y-28904092D01*
X35664951Y-29146651D01*
X34967443Y-29342145D01*
X34127662Y-29494983D01*
X33134840Y-29609574D01*
X32901871Y-29629518D01*
X32328272Y-29673153D01*
X31890454Y-29698154D01*
X31555868Y-29704269D01*
X31291964Y-29691248D01*
X31066190Y-29658838D01*
X30872244Y-29613826D01*
X30750280Y-29575775D01*
X30632265Y-29519736D01*
X30500757Y-29429837D01*
X30338313Y-29290207D01*
X30127493Y-29084973D01*
X29850853Y-28798264D01*
X29490953Y-28414208D01*
X29151518Y-28048001D01*
X28846497Y-27705281D01*
X28665747Y-27470499D01*
X28640085Y-27413894D01*
X28786666Y-27413894D01*
X28840282Y-27492677D01*
X28984042Y-27664894D01*
X29192312Y-27900412D01*
X29315833Y-28035977D01*
X29601317Y-28349441D01*
X29888649Y-28670118D01*
X30126093Y-28940146D01*
X30174319Y-28996140D01*
X30496943Y-29304055D01*
X30844578Y-29485192D01*
X30893986Y-29501321D01*
X31112998Y-29563100D01*
X31317662Y-29602318D01*
X31543835Y-29619820D01*
X31827377Y-29616453D01*
X32204146Y-29593063D01*
X32710001Y-29550496D01*
X32766000Y-29545492D01*
X33837181Y-29425450D01*
X34745295Y-29271598D01*
X35493353Y-29083148D01*
X36084370Y-28859313D01*
X36521359Y-28599305D01*
X36585373Y-28547334D01*
X36934794Y-28155881D01*
X37190091Y-27682552D01*
X37323840Y-27184251D01*
X37337172Y-26987500D01*
X37338000Y-26585334D01*
X36978166Y-26586069D01*
X36668515Y-26597483D01*
X36310783Y-26625371D01*
X36176260Y-26639909D01*
X35734188Y-26693012D01*
X36079530Y-27178000D01*
X35642619Y-27178000D01*
X35271230Y-27214477D01*
X35011455Y-27331229D01*
X34994827Y-27343879D01*
X34797797Y-27465882D01*
X34514002Y-27604199D01*
X34304139Y-27690546D01*
X34108890Y-27758316D01*
X33919480Y-27805663D01*
X33702365Y-27835286D01*
X33424000Y-27849883D01*
X33050841Y-27852152D01*
X32549344Y-27844792D01*
X32419331Y-27842166D01*
X31878590Y-27833527D01*
X31481874Y-27834448D01*
X31204061Y-27846504D01*
X31020030Y-27871270D01*
X30904662Y-27910324D01*
X30859482Y-27940000D01*
X30748419Y-28019796D01*
X30733108Y-27974206D01*
X30752873Y-27897667D01*
X30811278Y-27719520D01*
X30856558Y-27593746D01*
X30988000Y-27593746D01*
X31067258Y-27649250D01*
X31284008Y-27694096D01*
X31606714Y-27727773D01*
X32003838Y-27749768D01*
X32443844Y-27759572D01*
X32895194Y-27756673D01*
X33326353Y-27740560D01*
X33705782Y-27710721D01*
X34001945Y-27666646D01*
X34092885Y-27644073D01*
X34416276Y-27523381D01*
X34730300Y-27368022D01*
X34831679Y-27305407D01*
X35225403Y-27125751D01*
X35479093Y-27093334D01*
X35720059Y-27073827D01*
X35801934Y-27007362D01*
X35731297Y-26882019D01*
X35643303Y-26795767D01*
X35580758Y-26746933D01*
X35501462Y-26711444D01*
X35383369Y-26688798D01*
X35204430Y-26678491D01*
X34942598Y-26680023D01*
X34575827Y-26692890D01*
X34082070Y-26716591D01*
X33505470Y-26747060D01*
X32937752Y-26779060D01*
X32420666Y-26811000D01*
X31980227Y-26841046D01*
X31642454Y-26867367D01*
X31433364Y-26888130D01*
X31382437Y-26896574D01*
X31257656Y-26997453D01*
X31125285Y-27194789D01*
X31023058Y-27421883D01*
X30988000Y-27593746D01*
X30856558Y-27593746D01*
X30904266Y-27461231D01*
X30954029Y-27329196D01*
X31031386Y-27090622D01*
X31060778Y-26920239D01*
X31050894Y-26874006D01*
X30955728Y-26874012D01*
X30735927Y-26909461D01*
X30428154Y-26971612D01*
X30069069Y-27051722D01*
X29695335Y-27141050D01*
X29343613Y-27230854D01*
X29050564Y-27312393D01*
X28852850Y-27376925D01*
X28786666Y-27413894D01*
X28640085Y-27413894D01*
X28606446Y-27339696D01*
X28625926Y-27310139D01*
X28800931Y-27258002D01*
X29089088Y-27181763D01*
X29451586Y-27090687D01*
X29849611Y-26994037D01*
X30244351Y-26901075D01*
X30596992Y-26821064D01*
X30868723Y-26763268D01*
X31020730Y-26736950D01*
X31030333Y-26736302D01*
X31208284Y-26710076D01*
X31287756Y-26691590D01*
X31985405Y-26691590D01*
X32112314Y-26708538D01*
X32361757Y-26710106D01*
X32710768Y-26697145D01*
X33136380Y-26670505D01*
X33615625Y-26631034D01*
X34120666Y-26580120D01*
X34328358Y-26554719D01*
X34404106Y-26537908D01*
X34339715Y-26529168D01*
X34126991Y-26527978D01*
X33757739Y-26533818D01*
X33485666Y-26539821D01*
X33022043Y-26556136D01*
X32604322Y-26580951D01*
X32268634Y-26611375D01*
X32051111Y-26644515D01*
X32004000Y-26658414D01*
X31985405Y-26691590D01*
X31287756Y-26691590D01*
X31471662Y-26648812D01*
X31623000Y-26606903D01*
X31856970Y-26561611D01*
X32215876Y-26520761D01*
X32666131Y-26485467D01*
X33174147Y-26456842D01*
X33706338Y-26436001D01*
X34229115Y-26424057D01*
X34708891Y-26422125D01*
X35112079Y-26431318D01*
X35112079Y-26431318D01*
G37*
X35112079Y-26431318D02*
X35405093Y-26452750D01*
X35531643Y-26477282D01*
X35742270Y-26511514D01*
X36077389Y-26521091D01*
X36493832Y-26505105D01*
X36576000Y-26499299D01*
X36924964Y-26475362D01*
X37203637Y-26460895D01*
X37373762Y-26457635D01*
X37407547Y-26461498D01*
X37445283Y-26584155D01*
X37446920Y-26821539D01*
X37418147Y-27124280D01*
X37364652Y-27443009D01*
X37292123Y-27728354D01*
X37247582Y-27849936D01*
X37011501Y-28260144D01*
X36676213Y-28610060D01*
X36230952Y-28904092D01*
X35664951Y-29146651D01*
X34967443Y-29342145D01*
X34127662Y-29494983D01*
X33134840Y-29609574D01*
X32901871Y-29629518D01*
X32328272Y-29673153D01*
X31890454Y-29698154D01*
X31555868Y-29704269D01*
X31291964Y-29691248D01*
X31066190Y-29658838D01*
X30872244Y-29613826D01*
X30750280Y-29575775D01*
X30632265Y-29519736D01*
X30500757Y-29429837D01*
X30338313Y-29290207D01*
X30127493Y-29084973D01*
X29850853Y-28798264D01*
X29490953Y-28414208D01*
X29151518Y-28048001D01*
X28846497Y-27705281D01*
X28665747Y-27470499D01*
X28640085Y-27413894D01*
X28786666Y-27413894D01*
X28840282Y-27492677D01*
X28984042Y-27664894D01*
X29192312Y-27900412D01*
X29315833Y-28035977D01*
X29601317Y-28349441D01*
X29888649Y-28670118D01*
X30126093Y-28940146D01*
X30174319Y-28996140D01*
X30496943Y-29304055D01*
X30844578Y-29485192D01*
X30893986Y-29501321D01*
X31112998Y-29563100D01*
X31317662Y-29602318D01*
X31543835Y-29619820D01*
X31827377Y-29616453D01*
X32204146Y-29593063D01*
X32710001Y-29550496D01*
X32766000Y-29545492D01*
X33837181Y-29425450D01*
X34745295Y-29271598D01*
X35493353Y-29083148D01*
X36084370Y-28859313D01*
X36521359Y-28599305D01*
X36585373Y-28547334D01*
X36934794Y-28155881D01*
X37190091Y-27682552D01*
X37323840Y-27184251D01*
X37337172Y-26987500D01*
X37338000Y-26585334D01*
X36978166Y-26586069D01*
X36668515Y-26597483D01*
X36310783Y-26625371D01*
X36176260Y-26639909D01*
X35734188Y-26693012D01*
X36079530Y-27178000D01*
X35642619Y-27178000D01*
X35271230Y-27214477D01*
X35011455Y-27331229D01*
X34994827Y-27343879D01*
X34797797Y-27465882D01*
X34514002Y-27604199D01*
X34304139Y-27690546D01*
X34108890Y-27758316D01*
X33919480Y-27805663D01*
X33702365Y-27835286D01*
X33424000Y-27849883D01*
X33050841Y-27852152D01*
X32549344Y-27844792D01*
X32419331Y-27842166D01*
X31878590Y-27833527D01*
X31481874Y-27834448D01*
X31204061Y-27846504D01*
X31020030Y-27871270D01*
X30904662Y-27910324D01*
X30859482Y-27940000D01*
X30748419Y-28019796D01*
X30733108Y-27974206D01*
X30752873Y-27897667D01*
X30811278Y-27719520D01*
X30856558Y-27593746D01*
X30988000Y-27593746D01*
X31067258Y-27649250D01*
X31284008Y-27694096D01*
X31606714Y-27727773D01*
X32003838Y-27749768D01*
X32443844Y-27759572D01*
X32895194Y-27756673D01*
X33326353Y-27740560D01*
X33705782Y-27710721D01*
X34001945Y-27666646D01*
X34092885Y-27644073D01*
X34416276Y-27523381D01*
X34730300Y-27368022D01*
X34831679Y-27305407D01*
X35225403Y-27125751D01*
X35479093Y-27093334D01*
X35720059Y-27073827D01*
X35801934Y-27007362D01*
X35731297Y-26882019D01*
X35643303Y-26795767D01*
X35580758Y-26746933D01*
X35501462Y-26711444D01*
X35383369Y-26688798D01*
X35204430Y-26678491D01*
X34942598Y-26680023D01*
X34575827Y-26692890D01*
X34082070Y-26716591D01*
X33505470Y-26747060D01*
X32937752Y-26779060D01*
X32420666Y-26811000D01*
X31980227Y-26841046D01*
X31642454Y-26867367D01*
X31433364Y-26888130D01*
X31382437Y-26896574D01*
X31257656Y-26997453D01*
X31125285Y-27194789D01*
X31023058Y-27421883D01*
X30988000Y-27593746D01*
X30856558Y-27593746D01*
X30904266Y-27461231D01*
X30954029Y-27329196D01*
X31031386Y-27090622D01*
X31060778Y-26920239D01*
X31050894Y-26874006D01*
X30955728Y-26874012D01*
X30735927Y-26909461D01*
X30428154Y-26971612D01*
X30069069Y-27051722D01*
X29695335Y-27141050D01*
X29343613Y-27230854D01*
X29050564Y-27312393D01*
X28852850Y-27376925D01*
X28786666Y-27413894D01*
X28640085Y-27413894D01*
X28606446Y-27339696D01*
X28625926Y-27310139D01*
X28800931Y-27258002D01*
X29089088Y-27181763D01*
X29451586Y-27090687D01*
X29849611Y-26994037D01*
X30244351Y-26901075D01*
X30596992Y-26821064D01*
X30868723Y-26763268D01*
X31020730Y-26736950D01*
X31030333Y-26736302D01*
X31208284Y-26710076D01*
X31287756Y-26691590D01*
X31985405Y-26691590D01*
X32112314Y-26708538D01*
X32361757Y-26710106D01*
X32710768Y-26697145D01*
X33136380Y-26670505D01*
X33615625Y-26631034D01*
X34120666Y-26580120D01*
X34328358Y-26554719D01*
X34404106Y-26537908D01*
X34339715Y-26529168D01*
X34126991Y-26527978D01*
X33757739Y-26533818D01*
X33485666Y-26539821D01*
X33022043Y-26556136D01*
X32604322Y-26580951D01*
X32268634Y-26611375D01*
X32051111Y-26644515D01*
X32004000Y-26658414D01*
X31985405Y-26691590D01*
X31287756Y-26691590D01*
X31471662Y-26648812D01*
X31623000Y-26606903D01*
X31856970Y-26561611D01*
X32215876Y-26520761D01*
X32666131Y-26485467D01*
X33174147Y-26456842D01*
X33706338Y-26436001D01*
X34229115Y-26424057D01*
X34708891Y-26422125D01*
X35112079Y-26431318D01*
G36*
X23919214Y-27603926D02*
X24377496Y-27615576D01*
X24775326Y-27633474D01*
X25081322Y-27657399D01*
X25264101Y-27687132D01*
X25298400Y-27702934D01*
X25380697Y-27888655D01*
X25396850Y-28180312D01*
X25350796Y-28529691D01*
X25246472Y-28888575D01*
X25190761Y-29020882D01*
X24994981Y-29407042D01*
X24793656Y-29708782D01*
X24558568Y-29945310D01*
X24261499Y-30135837D01*
X23874229Y-30299573D01*
X23368540Y-30455727D01*
X22905249Y-30576758D01*
X22509417Y-30649956D01*
X21983923Y-30709520D01*
X21368003Y-30753964D01*
X20700892Y-30781800D01*
X20021826Y-30791542D01*
X19370039Y-30781702D01*
X18784768Y-30750793D01*
X18640501Y-30738384D01*
X18172277Y-30674465D01*
X17851159Y-30583310D01*
X17709168Y-30505303D01*
X17473310Y-30266901D01*
X17261939Y-29942368D01*
X17106514Y-29592506D01*
X17038492Y-29278115D01*
X17038510Y-29275493D01*
X17122423Y-29275493D01*
X17180532Y-29526928D01*
X17335477Y-29838079D01*
X17523039Y-30138901D01*
X17715809Y-30347137D01*
X17953437Y-30484620D01*
X18275571Y-30573181D01*
X18721860Y-30634653D01*
X18796000Y-30642290D01*
X19319788Y-30678501D01*
X19927558Y-30694199D01*
X20575833Y-30690710D01*
X21221140Y-30669360D01*
X21820003Y-30631477D01*
X22328948Y-30578388D01*
X22647246Y-30524753D01*
X23382253Y-30340922D01*
X23959400Y-30144807D01*
X24374610Y-29937994D01*
X24581299Y-29772570D01*
X24826622Y-29454876D01*
X25034057Y-29083486D01*
X25191052Y-28696198D01*
X25285055Y-28330809D01*
X25303515Y-28025116D01*
X25233879Y-27816917D01*
X25231646Y-27814180D01*
X25128012Y-27747201D01*
X24932703Y-27706781D01*
X24615508Y-27688380D01*
X24378820Y-27686000D01*
X23632375Y-27686000D01*
X23575858Y-28062886D01*
X23526971Y-28287804D01*
X23435982Y-28452070D01*
X23263447Y-28609792D01*
X23083836Y-28737895D01*
X22773748Y-28928643D01*
X22446459Y-29097446D01*
X22267333Y-29172485D01*
X21912813Y-29259412D01*
X21440325Y-29319025D01*
X20899317Y-29349430D01*
X20339236Y-29348731D01*
X19809530Y-29315032D01*
X19523630Y-29277656D01*
X18854260Y-29167667D01*
X18700144Y-28804403D01*
X18613231Y-28565560D01*
X18610174Y-28443163D01*
X18649848Y-28412956D01*
X18782553Y-28383601D01*
X19026838Y-28334700D01*
X19304000Y-28281718D01*
X19674694Y-28203244D01*
X19912204Y-28133732D01*
X20007944Y-28078002D01*
X19953326Y-28040874D01*
X19757418Y-28027241D01*
X19348802Y-28073219D01*
X18847213Y-28207083D01*
X18295105Y-28415071D01*
X17737666Y-28681963D01*
X17388773Y-28888129D01*
X17187765Y-29074266D01*
X17122423Y-29275493D01*
X17038510Y-29275493D01*
X17038982Y-29210000D01*
X17065191Y-29042775D01*
X17138426Y-28917500D01*
X17294021Y-28796134D01*
X17567307Y-28640638D01*
X17568333Y-28640086D01*
X18364813Y-28261928D01*
X19107618Y-28011433D01*
X19473333Y-27933228D01*
X19789294Y-27898678D01*
X20076863Y-27897181D01*
X20300496Y-27924554D01*
X20424647Y-27976612D01*
X20418689Y-28044510D01*
X20287099Y-28114860D01*
X20040381Y-28202662D01*
X19729786Y-28293873D01*
X19406566Y-28374453D01*
X19121972Y-28430360D01*
X18945999Y-28448000D01*
X18784673Y-28455085D01*
X18725253Y-28503948D01*
X18754559Y-28636002D01*
X18828268Y-28817972D01*
X18945204Y-29097838D01*
X19861856Y-29210928D01*
X20367313Y-29263953D01*
X20774123Y-29281042D01*
X21148984Y-29262783D01*
X21457911Y-29224994D01*
X21921103Y-29130366D01*
X22362580Y-28991804D01*
X22742860Y-28825767D01*
X23022464Y-28648714D01*
X23138933Y-28524205D01*
X23262178Y-28395488D01*
X23346032Y-28363334D01*
X23424353Y-28289524D01*
X23452666Y-28125250D01*
X23452666Y-27887166D01*
X22838833Y-27994889D01*
X22471781Y-28046125D01*
X22067316Y-28081535D01*
X21662875Y-28100501D01*
X21295894Y-28102404D01*
X21003810Y-28086624D01*
X20824058Y-28052543D01*
X20788219Y-28028798D01*
X20816580Y-27983587D01*
X21161062Y-27983587D01*
X21270299Y-28014529D01*
X21496548Y-28022945D01*
X21814464Y-28009290D01*
X22198701Y-27974018D01*
X22623913Y-27917583D01*
X22721008Y-27902281D01*
X23059089Y-27843257D01*
X23329472Y-27788275D01*
X23491492Y-27745956D01*
X23518285Y-27733270D01*
X23460628Y-27713281D01*
X23267275Y-27697476D01*
X22971853Y-27687906D01*
X22742906Y-27686000D01*
X22220603Y-27701965D01*
X21856662Y-27750480D01*
X21681196Y-27809623D01*
X21502880Y-27882049D01*
X21397734Y-27888488D01*
X21395417Y-27886529D01*
X21294873Y-27885573D01*
X21194183Y-27929665D01*
X21161062Y-27983587D01*
X20816580Y-27983587D01*
X20830458Y-27961464D01*
X20994615Y-27883777D01*
X21100722Y-27850958D01*
X21374810Y-27771882D01*
X21610256Y-27695052D01*
X21657483Y-27677494D01*
X21819434Y-27647057D01*
X22109231Y-27624182D01*
X22495490Y-27608651D01*
X22946829Y-27600244D01*
X23431864Y-27598743D01*
X23919214Y-27603926D01*
X23919214Y-27603926D01*
G37*
X23919214Y-27603926D02*
X24377496Y-27615576D01*
X24775326Y-27633474D01*
X25081322Y-27657399D01*
X25264101Y-27687132D01*
X25298400Y-27702934D01*
X25380697Y-27888655D01*
X25396850Y-28180312D01*
X25350796Y-28529691D01*
X25246472Y-28888575D01*
X25190761Y-29020882D01*
X24994981Y-29407042D01*
X24793656Y-29708782D01*
X24558568Y-29945310D01*
X24261499Y-30135837D01*
X23874229Y-30299573D01*
X23368540Y-30455727D01*
X22905249Y-30576758D01*
X22509417Y-30649956D01*
X21983923Y-30709520D01*
X21368003Y-30753964D01*
X20700892Y-30781800D01*
X20021826Y-30791542D01*
X19370039Y-30781702D01*
X18784768Y-30750793D01*
X18640501Y-30738384D01*
X18172277Y-30674465D01*
X17851159Y-30583310D01*
X17709168Y-30505303D01*
X17473310Y-30266901D01*
X17261939Y-29942368D01*
X17106514Y-29592506D01*
X17038492Y-29278115D01*
X17038510Y-29275493D01*
X17122423Y-29275493D01*
X17180532Y-29526928D01*
X17335477Y-29838079D01*
X17523039Y-30138901D01*
X17715809Y-30347137D01*
X17953437Y-30484620D01*
X18275571Y-30573181D01*
X18721860Y-30634653D01*
X18796000Y-30642290D01*
X19319788Y-30678501D01*
X19927558Y-30694199D01*
X20575833Y-30690710D01*
X21221140Y-30669360D01*
X21820003Y-30631477D01*
X22328948Y-30578388D01*
X22647246Y-30524753D01*
X23382253Y-30340922D01*
X23959400Y-30144807D01*
X24374610Y-29937994D01*
X24581299Y-29772570D01*
X24826622Y-29454876D01*
X25034057Y-29083486D01*
X25191052Y-28696198D01*
X25285055Y-28330809D01*
X25303515Y-28025116D01*
X25233879Y-27816917D01*
X25231646Y-27814180D01*
X25128012Y-27747201D01*
X24932703Y-27706781D01*
X24615508Y-27688380D01*
X24378820Y-27686000D01*
X23632375Y-27686000D01*
X23575858Y-28062886D01*
X23526971Y-28287804D01*
X23435982Y-28452070D01*
X23263447Y-28609792D01*
X23083836Y-28737895D01*
X22773748Y-28928643D01*
X22446459Y-29097446D01*
X22267333Y-29172485D01*
X21912813Y-29259412D01*
X21440325Y-29319025D01*
X20899317Y-29349430D01*
X20339236Y-29348731D01*
X19809530Y-29315032D01*
X19523630Y-29277656D01*
X18854260Y-29167667D01*
X18700144Y-28804403D01*
X18613231Y-28565560D01*
X18610174Y-28443163D01*
X18649848Y-28412956D01*
X18782553Y-28383601D01*
X19026838Y-28334700D01*
X19304000Y-28281718D01*
X19674694Y-28203244D01*
X19912204Y-28133732D01*
X20007944Y-28078002D01*
X19953326Y-28040874D01*
X19757418Y-28027241D01*
X19348802Y-28073219D01*
X18847213Y-28207083D01*
X18295105Y-28415071D01*
X17737666Y-28681963D01*
X17388773Y-28888129D01*
X17187765Y-29074266D01*
X17122423Y-29275493D01*
X17038510Y-29275493D01*
X17038982Y-29210000D01*
X17065191Y-29042775D01*
X17138426Y-28917500D01*
X17294021Y-28796134D01*
X17567307Y-28640638D01*
X17568333Y-28640086D01*
X18364813Y-28261928D01*
X19107618Y-28011433D01*
X19473333Y-27933228D01*
X19789294Y-27898678D01*
X20076863Y-27897181D01*
X20300496Y-27924554D01*
X20424647Y-27976612D01*
X20418689Y-28044510D01*
X20287099Y-28114860D01*
X20040381Y-28202662D01*
X19729786Y-28293873D01*
X19406566Y-28374453D01*
X19121972Y-28430360D01*
X18945999Y-28448000D01*
X18784673Y-28455085D01*
X18725253Y-28503948D01*
X18754559Y-28636002D01*
X18828268Y-28817972D01*
X18945204Y-29097838D01*
X19861856Y-29210928D01*
X20367313Y-29263953D01*
X20774123Y-29281042D01*
X21148984Y-29262783D01*
X21457911Y-29224994D01*
X21921103Y-29130366D01*
X22362580Y-28991804D01*
X22742860Y-28825767D01*
X23022464Y-28648714D01*
X23138933Y-28524205D01*
X23262178Y-28395488D01*
X23346032Y-28363334D01*
X23424353Y-28289524D01*
X23452666Y-28125250D01*
X23452666Y-27887166D01*
X22838833Y-27994889D01*
X22471781Y-28046125D01*
X22067316Y-28081535D01*
X21662875Y-28100501D01*
X21295894Y-28102404D01*
X21003810Y-28086624D01*
X20824058Y-28052543D01*
X20788219Y-28028798D01*
X20816580Y-27983587D01*
X21161062Y-27983587D01*
X21270299Y-28014529D01*
X21496548Y-28022945D01*
X21814464Y-28009290D01*
X22198701Y-27974018D01*
X22623913Y-27917583D01*
X22721008Y-27902281D01*
X23059089Y-27843257D01*
X23329472Y-27788275D01*
X23491492Y-27745956D01*
X23518285Y-27733270D01*
X23460628Y-27713281D01*
X23267275Y-27697476D01*
X22971853Y-27687906D01*
X22742906Y-27686000D01*
X22220603Y-27701965D01*
X21856662Y-27750480D01*
X21681196Y-27809623D01*
X21502880Y-27882049D01*
X21397734Y-27888488D01*
X21395417Y-27886529D01*
X21294873Y-27885573D01*
X21194183Y-27929665D01*
X21161062Y-27983587D01*
X20816580Y-27983587D01*
X20830458Y-27961464D01*
X20994615Y-27883777D01*
X21100722Y-27850958D01*
X21374810Y-27771882D01*
X21610256Y-27695052D01*
X21657483Y-27677494D01*
X21819434Y-27647057D01*
X22109231Y-27624182D01*
X22495490Y-27608651D01*
X22946829Y-27600244D01*
X23431864Y-27598743D01*
X23919214Y-27603926D01*
G36*
X15073137Y-31347203D02*
X15099157Y-31435255D01*
X15120166Y-31628609D01*
X15139079Y-31946907D01*
X15158807Y-32409794D01*
X15164357Y-32554334D01*
X15189030Y-33136415D01*
X15216259Y-33580929D01*
X15251086Y-33919624D01*
X15298554Y-34184247D01*
X15363704Y-34406547D01*
X15451579Y-34618271D01*
X15511920Y-34742705D01*
X15615736Y-34983065D01*
X15629145Y-35101047D01*
X15553956Y-35087690D01*
X15458960Y-35004865D01*
X15238387Y-34698370D01*
X15047591Y-34266081D01*
X14905345Y-33751178D01*
X14897921Y-33714326D01*
X14850465Y-33352350D01*
X14829976Y-32922717D01*
X14832090Y-32713822D01*
X14917199Y-32713822D01*
X14929856Y-33100773D01*
X14958713Y-33471517D01*
X15001061Y-33768468D01*
X15034807Y-33895342D01*
X15087506Y-34006589D01*
X15104978Y-34018485D01*
X15106573Y-33929501D01*
X15101429Y-33703700D01*
X15090508Y-33373421D01*
X15074772Y-32971003D01*
X15071485Y-32893000D01*
X15050648Y-32454680D01*
X15030959Y-32171006D01*
X15010137Y-32027327D01*
X14985900Y-32008990D01*
X14955964Y-32101343D01*
X14951328Y-32121644D01*
X14923453Y-32368251D01*
X14917199Y-32713822D01*
X14832090Y-32713822D01*
X14834550Y-32470944D01*
X14862280Y-32042549D01*
X14911264Y-31683049D01*
X14979595Y-31437963D01*
X14994413Y-31408430D01*
X15039193Y-31344809D01*
X15073137Y-31347203D01*
X15073137Y-31347203D01*
G37*
X15073137Y-31347203D02*
X15099157Y-31435255D01*
X15120166Y-31628609D01*
X15139079Y-31946907D01*
X15158807Y-32409794D01*
X15164357Y-32554334D01*
X15189030Y-33136415D01*
X15216259Y-33580929D01*
X15251086Y-33919624D01*
X15298554Y-34184247D01*
X15363704Y-34406547D01*
X15451579Y-34618271D01*
X15511920Y-34742705D01*
X15615736Y-34983065D01*
X15629145Y-35101047D01*
X15553956Y-35087690D01*
X15458960Y-35004865D01*
X15238387Y-34698370D01*
X15047591Y-34266081D01*
X14905345Y-33751178D01*
X14897921Y-33714326D01*
X14850465Y-33352350D01*
X14829976Y-32922717D01*
X14832090Y-32713822D01*
X14917199Y-32713822D01*
X14929856Y-33100773D01*
X14958713Y-33471517D01*
X15001061Y-33768468D01*
X15034807Y-33895342D01*
X15087506Y-34006589D01*
X15104978Y-34018485D01*
X15106573Y-33929501D01*
X15101429Y-33703700D01*
X15090508Y-33373421D01*
X15074772Y-32971003D01*
X15071485Y-32893000D01*
X15050648Y-32454680D01*
X15030959Y-32171006D01*
X15010137Y-32027327D01*
X14985900Y-32008990D01*
X14955964Y-32101343D01*
X14951328Y-32121644D01*
X14923453Y-32368251D01*
X14917199Y-32713822D01*
X14832090Y-32713822D01*
X14834550Y-32470944D01*
X14862280Y-32042549D01*
X14911264Y-31683049D01*
X14979595Y-31437963D01*
X14994413Y-31408430D01*
X15039193Y-31344809D01*
X15073137Y-31347203D01*
G36*
X32033148Y-33061480D02*
X32205693Y-33242897D01*
X32298348Y-33530450D01*
X32304641Y-33569554D01*
X32314102Y-34074215D01*
X32192956Y-34520021D01*
X31952985Y-34878956D01*
X31662862Y-35095611D01*
X31396965Y-35175934D01*
X31047303Y-35209694D01*
X30694226Y-35192055D01*
X30543500Y-35162971D01*
X30436890Y-35112734D01*
X31039437Y-35112734D01*
X31157333Y-35129666D01*
X31372915Y-35090023D01*
X31616203Y-34984832D01*
X31639566Y-34971059D01*
X31943766Y-34728234D01*
X32122717Y-34428712D01*
X32196703Y-34032548D01*
X32201555Y-33864503D01*
X32183154Y-33560644D01*
X32135016Y-33324700D01*
X32092410Y-33236178D01*
X31960949Y-33114684D01*
X31902092Y-33137472D01*
X31926100Y-33291385D01*
X31965986Y-33398281D01*
X32079336Y-33846397D01*
X32031613Y-34250220D01*
X31827189Y-34601529D01*
X31470438Y-34892106D01*
X31072666Y-35077362D01*
X31039437Y-35112734D01*
X30436890Y-35112734D01*
X30405885Y-35098124D01*
X30416521Y-35030911D01*
X30555788Y-34981194D01*
X30736719Y-34967334D01*
X31192514Y-34902370D01*
X31559021Y-34723148D01*
X31819646Y-34453167D01*
X31957794Y-34115928D01*
X31956872Y-33734933D01*
X31839952Y-33404906D01*
X31737719Y-33148852D01*
X31745368Y-33001896D01*
X31856291Y-32975783D01*
X32033148Y-33061480D01*
X32033148Y-33061480D01*
G37*
X32033148Y-33061480D02*
X32205693Y-33242897D01*
X32298348Y-33530450D01*
X32304641Y-33569554D01*
X32314102Y-34074215D01*
X32192956Y-34520021D01*
X31952985Y-34878956D01*
X31662862Y-35095611D01*
X31396965Y-35175934D01*
X31047303Y-35209694D01*
X30694226Y-35192055D01*
X30543500Y-35162971D01*
X30436890Y-35112734D01*
X31039437Y-35112734D01*
X31157333Y-35129666D01*
X31372915Y-35090023D01*
X31616203Y-34984832D01*
X31639566Y-34971059D01*
X31943766Y-34728234D01*
X32122717Y-34428712D01*
X32196703Y-34032548D01*
X32201555Y-33864503D01*
X32183154Y-33560644D01*
X32135016Y-33324700D01*
X32092410Y-33236178D01*
X31960949Y-33114684D01*
X31902092Y-33137472D01*
X31926100Y-33291385D01*
X31965986Y-33398281D01*
X32079336Y-33846397D01*
X32031613Y-34250220D01*
X31827189Y-34601529D01*
X31470438Y-34892106D01*
X31072666Y-35077362D01*
X31039437Y-35112734D01*
X30436890Y-35112734D01*
X30405885Y-35098124D01*
X30416521Y-35030911D01*
X30555788Y-34981194D01*
X30736719Y-34967334D01*
X31192514Y-34902370D01*
X31559021Y-34723148D01*
X31819646Y-34453167D01*
X31957794Y-34115928D01*
X31956872Y-33734933D01*
X31839952Y-33404906D01*
X31737719Y-33148852D01*
X31745368Y-33001896D01*
X31856291Y-32975783D01*
X32033148Y-33061480D01*
G36*
X30046400Y-34317309D02*
X30265857Y-34416535D01*
X30322040Y-34477737D01*
X30336255Y-34578366D01*
X30230017Y-34662382D01*
X29986763Y-34737519D01*
X29616324Y-34807293D01*
X29254349Y-34888726D01*
X28983249Y-35016565D01*
X28770661Y-35183387D01*
X28603369Y-35326917D01*
X28459187Y-35413508D01*
X28287609Y-35457526D01*
X28038127Y-35473338D01*
X27744271Y-35475334D01*
X27310380Y-35460970D01*
X27022927Y-35415893D01*
X26876682Y-35349957D01*
X26706662Y-35274164D01*
X26448002Y-35258439D01*
X26243274Y-35274215D01*
X25887273Y-35278627D01*
X25668217Y-35204989D01*
X25593078Y-35057004D01*
X25603740Y-35005574D01*
X25738666Y-35005574D01*
X25811523Y-35131578D01*
X26003609Y-35189953D01*
X26275199Y-35171443D01*
X26361729Y-35150767D01*
X26607521Y-35114230D01*
X26814003Y-35181124D01*
X26893804Y-35230093D01*
X27098287Y-35325720D01*
X27375974Y-35376044D01*
X27749256Y-35390109D01*
X28075195Y-35385092D01*
X28290165Y-35356947D01*
X28452470Y-35287127D01*
X28620411Y-35157087D01*
X28697266Y-35088537D01*
X28941157Y-34898336D01*
X29192948Y-34785547D01*
X29530864Y-34715910D01*
X29556408Y-34712239D01*
X29907374Y-34647756D01*
X30121287Y-34576048D01*
X30188777Y-34503174D01*
X30100473Y-34435187D01*
X30021983Y-34411355D01*
X29609313Y-34389306D01*
X29189310Y-34509282D01*
X28898998Y-34688121D01*
X28659592Y-34880187D01*
X28435779Y-35059742D01*
X28392659Y-35094334D01*
X28124156Y-35222599D01*
X27777568Y-35274766D01*
X27417915Y-35251965D01*
X27110220Y-35155331D01*
X26985295Y-35069814D01*
X26770516Y-34931797D01*
X26500090Y-34843027D01*
X26217919Y-34805768D01*
X25967909Y-34822282D01*
X25793961Y-34894830D01*
X25738666Y-35005574D01*
X25603740Y-35005574D01*
X25616994Y-34941648D01*
X25760898Y-34782441D01*
X26011356Y-34702347D01*
X26325558Y-34700702D01*
X26660695Y-34776840D01*
X26973957Y-34930097D01*
X27021527Y-34963454D01*
X27412359Y-35160985D01*
X27819470Y-35191827D01*
X28235897Y-35057024D01*
X28654682Y-34757618D01*
X28704055Y-34711359D01*
X29094364Y-34423137D01*
X29402669Y-34309855D01*
X29740953Y-34278513D01*
X30046400Y-34317309D01*
X30046400Y-34317309D01*
G37*
X30046400Y-34317309D02*
X30265857Y-34416535D01*
X30322040Y-34477737D01*
X30336255Y-34578366D01*
X30230017Y-34662382D01*
X29986763Y-34737519D01*
X29616324Y-34807293D01*
X29254349Y-34888726D01*
X28983249Y-35016565D01*
X28770661Y-35183387D01*
X28603369Y-35326917D01*
X28459187Y-35413508D01*
X28287609Y-35457526D01*
X28038127Y-35473338D01*
X27744271Y-35475334D01*
X27310380Y-35460970D01*
X27022927Y-35415893D01*
X26876682Y-35349957D01*
X26706662Y-35274164D01*
X26448002Y-35258439D01*
X26243274Y-35274215D01*
X25887273Y-35278627D01*
X25668217Y-35204989D01*
X25593078Y-35057004D01*
X25603740Y-35005574D01*
X25738666Y-35005574D01*
X25811523Y-35131578D01*
X26003609Y-35189953D01*
X26275199Y-35171443D01*
X26361729Y-35150767D01*
X26607521Y-35114230D01*
X26814003Y-35181124D01*
X26893804Y-35230093D01*
X27098287Y-35325720D01*
X27375974Y-35376044D01*
X27749256Y-35390109D01*
X28075195Y-35385092D01*
X28290165Y-35356947D01*
X28452470Y-35287127D01*
X28620411Y-35157087D01*
X28697266Y-35088537D01*
X28941157Y-34898336D01*
X29192948Y-34785547D01*
X29530864Y-34715910D01*
X29556408Y-34712239D01*
X29907374Y-34647756D01*
X30121287Y-34576048D01*
X30188777Y-34503174D01*
X30100473Y-34435187D01*
X30021983Y-34411355D01*
X29609313Y-34389306D01*
X29189310Y-34509282D01*
X28898998Y-34688121D01*
X28659592Y-34880187D01*
X28435779Y-35059742D01*
X28392659Y-35094334D01*
X28124156Y-35222599D01*
X27777568Y-35274766D01*
X27417915Y-35251965D01*
X27110220Y-35155331D01*
X26985295Y-35069814D01*
X26770516Y-34931797D01*
X26500090Y-34843027D01*
X26217919Y-34805768D01*
X25967909Y-34822282D01*
X25793961Y-34894830D01*
X25738666Y-35005574D01*
X25603740Y-35005574D01*
X25616994Y-34941648D01*
X25760898Y-34782441D01*
X26011356Y-34702347D01*
X26325558Y-34700702D01*
X26660695Y-34776840D01*
X26973957Y-34930097D01*
X27021527Y-34963454D01*
X27412359Y-35160985D01*
X27819470Y-35191827D01*
X28235897Y-35057024D01*
X28654682Y-34757618D01*
X28704055Y-34711359D01*
X29094364Y-34423137D01*
X29402669Y-34309855D01*
X29740953Y-34278513D01*
X30046400Y-34317309D01*
G36*
X25036531Y-32596677D02*
X24940254Y-32781285D01*
X24717747Y-33062290D01*
X24689421Y-33094434D01*
X24375454Y-33518153D01*
X24197526Y-33952825D01*
X24132118Y-34460494D01*
X24130472Y-34569015D01*
X24155222Y-34870022D01*
X24245599Y-35077227D01*
X24327836Y-35172867D01*
X24542222Y-35311201D01*
X24864842Y-35434097D01*
X25234626Y-35523126D01*
X25590500Y-35559861D01*
X25610837Y-35560000D01*
X25807988Y-35590093D01*
X25852336Y-35663033D01*
X25745778Y-35752814D01*
X25592667Y-35808950D01*
X25306002Y-35876513D01*
X25084679Y-35883137D01*
X24840320Y-35825305D01*
X24686929Y-35772918D01*
X24315763Y-35576329D01*
X24015297Y-35294941D01*
X23828091Y-34971967D01*
X23800211Y-34872619D01*
X23785286Y-34661041D01*
X23882232Y-34661041D01*
X23899391Y-34876667D01*
X23957598Y-35034189D01*
X24050021Y-35167383D01*
X24402602Y-35503627D01*
X24811980Y-35684001D01*
X25188333Y-35722286D01*
X25611666Y-35715872D01*
X25089958Y-35602441D01*
X24773217Y-35518361D01*
X24493891Y-35418277D01*
X24350701Y-35346468D01*
X24135036Y-35106349D01*
X24026274Y-34747226D01*
X24028398Y-34284559D01*
X24045580Y-34161483D01*
X24129225Y-33766183D01*
X24252604Y-33465769D01*
X24452670Y-33185817D01*
X24622859Y-32998834D01*
X24793108Y-32796946D01*
X24833619Y-32695068D01*
X24751777Y-32703273D01*
X24554973Y-32831631D01*
X24520055Y-32858670D01*
X24221547Y-33197344D01*
X24013039Y-33663566D01*
X23903478Y-34236208D01*
X23895979Y-34332334D01*
X23882232Y-34661041D01*
X23785286Y-34661041D01*
X23768297Y-34420233D01*
X23835619Y-33937191D01*
X23986085Y-33468643D01*
X24203602Y-33059740D01*
X24472076Y-32755630D01*
X24582513Y-32677876D01*
X24856207Y-32539308D01*
X25008031Y-32514130D01*
X25036531Y-32596677D01*
X25036531Y-32596677D01*
G37*
X25036531Y-32596677D02*
X24940254Y-32781285D01*
X24717747Y-33062290D01*
X24689421Y-33094434D01*
X24375454Y-33518153D01*
X24197526Y-33952825D01*
X24132118Y-34460494D01*
X24130472Y-34569015D01*
X24155222Y-34870022D01*
X24245599Y-35077227D01*
X24327836Y-35172867D01*
X24542222Y-35311201D01*
X24864842Y-35434097D01*
X25234626Y-35523126D01*
X25590500Y-35559861D01*
X25610837Y-35560000D01*
X25807988Y-35590093D01*
X25852336Y-35663033D01*
X25745778Y-35752814D01*
X25592667Y-35808950D01*
X25306002Y-35876513D01*
X25084679Y-35883137D01*
X24840320Y-35825305D01*
X24686929Y-35772918D01*
X24315763Y-35576329D01*
X24015297Y-35294941D01*
X23828091Y-34971967D01*
X23800211Y-34872619D01*
X23785286Y-34661041D01*
X23882232Y-34661041D01*
X23899391Y-34876667D01*
X23957598Y-35034189D01*
X24050021Y-35167383D01*
X24402602Y-35503627D01*
X24811980Y-35684001D01*
X25188333Y-35722286D01*
X25611666Y-35715872D01*
X25089958Y-35602441D01*
X24773217Y-35518361D01*
X24493891Y-35418277D01*
X24350701Y-35346468D01*
X24135036Y-35106349D01*
X24026274Y-34747226D01*
X24028398Y-34284559D01*
X24045580Y-34161483D01*
X24129225Y-33766183D01*
X24252604Y-33465769D01*
X24452670Y-33185817D01*
X24622859Y-32998834D01*
X24793108Y-32796946D01*
X24833619Y-32695068D01*
X24751777Y-32703273D01*
X24554973Y-32831631D01*
X24520055Y-32858670D01*
X24221547Y-33197344D01*
X24013039Y-33663566D01*
X23903478Y-34236208D01*
X23895979Y-34332334D01*
X23882232Y-34661041D01*
X23785286Y-34661041D01*
X23768297Y-34420233D01*
X23835619Y-33937191D01*
X23986085Y-33468643D01*
X24203602Y-33059740D01*
X24472076Y-32755630D01*
X24582513Y-32677876D01*
X24856207Y-32539308D01*
X25008031Y-32514130D01*
X25036531Y-32596677D01*
G36*
X35268936Y-36257257D02*
X35447200Y-36474627D01*
X35533040Y-36671570D01*
X35558188Y-36931536D01*
X35558703Y-37019257D01*
X35545564Y-37365110D01*
X35509079Y-37543701D01*
X35449892Y-37555395D01*
X35368650Y-37400555D01*
X35266000Y-37079545D01*
X35196407Y-36815358D01*
X35105346Y-36451020D01*
X35251879Y-36451020D01*
X35258581Y-36594972D01*
X35317912Y-36842620D01*
X35384166Y-37054333D01*
X35422265Y-37116812D01*
X35446658Y-37044707D01*
X35455696Y-36982354D01*
X35443238Y-36738366D01*
X35389026Y-36572936D01*
X35296794Y-36438240D01*
X35251879Y-36451020D01*
X35105346Y-36451020D01*
X34977873Y-35941000D01*
X35268936Y-36257257D01*
X35268936Y-36257257D01*
G37*
X35268936Y-36257257D02*
X35447200Y-36474627D01*
X35533040Y-36671570D01*
X35558188Y-36931536D01*
X35558703Y-37019257D01*
X35545564Y-37365110D01*
X35509079Y-37543701D01*
X35449892Y-37555395D01*
X35368650Y-37400555D01*
X35266000Y-37079545D01*
X35196407Y-36815358D01*
X35105346Y-36451020D01*
X35251879Y-36451020D01*
X35258581Y-36594972D01*
X35317912Y-36842620D01*
X35384166Y-37054333D01*
X35422265Y-37116812D01*
X35446658Y-37044707D01*
X35455696Y-36982354D01*
X35443238Y-36738366D01*
X35389026Y-36572936D01*
X35296794Y-36438240D01*
X35251879Y-36451020D01*
X35105346Y-36451020D01*
X34977873Y-35941000D01*
X35268936Y-36257257D01*
G36*
X21318109Y-37900858D02*
X21262615Y-38174430D01*
X21169543Y-38476578D01*
X21048765Y-38811634D01*
X20962006Y-38991879D01*
X20903899Y-39027193D01*
X20885817Y-38998820D01*
X20822836Y-38657834D01*
X20838413Y-38518349D01*
X20919543Y-38518349D01*
X20928061Y-38657770D01*
X20956287Y-38658511D01*
X21027879Y-38513396D01*
X21042724Y-38481000D01*
X21124816Y-38265533D01*
X21160138Y-38101250D01*
X21160155Y-38100000D01*
X21137853Y-38035628D01*
X21055838Y-38112883D01*
X21036973Y-38137349D01*
X20941178Y-38352415D01*
X20919543Y-38518349D01*
X20838413Y-38518349D01*
X20862772Y-38300244D01*
X20995340Y-38002643D01*
X21024536Y-37965622D01*
X21198587Y-37794755D01*
X21296606Y-37773733D01*
X21318109Y-37900858D01*
X21318109Y-37900858D01*
G37*
X21318109Y-37900858D02*
X21262615Y-38174430D01*
X21169543Y-38476578D01*
X21048765Y-38811634D01*
X20962006Y-38991879D01*
X20903899Y-39027193D01*
X20885817Y-38998820D01*
X20822836Y-38657834D01*
X20838413Y-38518349D01*
X20919543Y-38518349D01*
X20928061Y-38657770D01*
X20956287Y-38658511D01*
X21027879Y-38513396D01*
X21042724Y-38481000D01*
X21124816Y-38265533D01*
X21160138Y-38101250D01*
X21160155Y-38100000D01*
X21137853Y-38035628D01*
X21055838Y-38112883D01*
X21036973Y-38137349D01*
X20941178Y-38352415D01*
X20919543Y-38518349D01*
X20838413Y-38518349D01*
X20862772Y-38300244D01*
X20995340Y-38002643D01*
X21024536Y-37965622D01*
X21198587Y-37794755D01*
X21296606Y-37773733D01*
X21318109Y-37900858D01*
G36*
X31623877Y-37368274D02*
X31863153Y-37390895D01*
X31992912Y-37407856D01*
X32331730Y-37463984D01*
X32557185Y-37531087D01*
X32724744Y-37633198D01*
X32889872Y-37794353D01*
X32893176Y-37797956D01*
X33073884Y-38030186D01*
X33203080Y-38259178D01*
X33229202Y-38332664D01*
X33292880Y-38679388D01*
X33346610Y-39171791D01*
X33388871Y-39786429D01*
X33418138Y-40499856D01*
X33432889Y-41288629D01*
X33434101Y-41486667D01*
X33431923Y-42105507D01*
X33415129Y-42585657D01*
X33376123Y-42957613D01*
X33307309Y-43251872D01*
X33201090Y-43498930D01*
X33049872Y-43729286D01*
X32846057Y-43973435D01*
X32802671Y-44021785D01*
X32336072Y-44440994D01*
X31798268Y-44730988D01*
X31153765Y-44910787D01*
X31138561Y-44913567D01*
X30770224Y-44989954D01*
X30411681Y-45080163D01*
X30156749Y-45159199D01*
X29887158Y-45226934D01*
X29461449Y-45292121D01*
X28892834Y-45353524D01*
X28194524Y-45409909D01*
X27379729Y-45460039D01*
X26500666Y-45501114D01*
X26041406Y-45516443D01*
X25711607Y-45516705D01*
X25471791Y-45498388D01*
X25282480Y-45457983D01*
X25104198Y-45391980D01*
X25061333Y-45373137D01*
X24670431Y-45145828D01*
X24313245Y-44845841D01*
X24047729Y-44523927D01*
X24002350Y-44445752D01*
X23935524Y-44235563D01*
X23872804Y-43884935D01*
X23815813Y-43422745D01*
X23766175Y-42877869D01*
X23725514Y-42279183D01*
X23695455Y-41655565D01*
X23677619Y-41035889D01*
X23675555Y-40732029D01*
X23732003Y-40732029D01*
X23746432Y-41141476D01*
X23810587Y-42007489D01*
X23866636Y-42716466D01*
X23915786Y-43280449D01*
X23959242Y-43711480D01*
X23998213Y-44021600D01*
X24033905Y-44222850D01*
X24065282Y-44323000D01*
X24322404Y-44685310D01*
X24692603Y-45017794D01*
X25120234Y-45276256D01*
X25399451Y-45382723D01*
X25597172Y-45409412D01*
X25940363Y-45417309D01*
X26433977Y-45406263D01*
X27082968Y-45376119D01*
X27892286Y-45326725D01*
X28448000Y-45288419D01*
X29089328Y-45232568D01*
X29600613Y-45163444D01*
X30021000Y-45074812D01*
X30291282Y-44994776D01*
X30630769Y-44892862D01*
X30944926Y-44818591D01*
X31169342Y-44787030D01*
X31180282Y-44786807D01*
X31579691Y-44711266D01*
X32008581Y-44508841D01*
X32429605Y-44208239D01*
X32805415Y-43838166D01*
X33098663Y-43427327D01*
X33192176Y-43240432D01*
X33251871Y-43096293D01*
X33296794Y-42960637D01*
X33328245Y-42809010D01*
X33347522Y-42616959D01*
X33355924Y-42360030D01*
X33354748Y-42013769D01*
X33345293Y-41553722D01*
X33328859Y-40955435D01*
X33323433Y-40768410D01*
X33298629Y-40034025D01*
X33270140Y-39453951D01*
X33235517Y-39013168D01*
X33192313Y-38696659D01*
X33138079Y-38489404D01*
X33070365Y-38376386D01*
X32986723Y-38342585D01*
X32929681Y-38353451D01*
X32796998Y-38367239D01*
X32538206Y-38370496D01*
X32196202Y-38363224D01*
X31961666Y-38353451D01*
X31472684Y-38335059D01*
X30927256Y-38323381D01*
X30424818Y-38320356D01*
X30310666Y-38321260D01*
X29797721Y-38326696D01*
X29219351Y-38331708D01*
X28615375Y-38336059D01*
X28025616Y-38339515D01*
X27489892Y-38341837D01*
X27048025Y-38342791D01*
X26764692Y-38342290D01*
X26473181Y-38360260D01*
X26196912Y-38430208D01*
X25872173Y-38570959D01*
X25708854Y-38654221D01*
X25169369Y-38918359D01*
X24718439Y-39101105D01*
X24371182Y-39197454D01*
X24142713Y-39202402D01*
X24101460Y-39186378D01*
X24017745Y-39149468D01*
X23957692Y-39168456D01*
X23908871Y-39270548D01*
X23858854Y-39482952D01*
X23795211Y-39832875D01*
X23788489Y-39871476D01*
X23745793Y-40263028D01*
X23732003Y-40732029D01*
X23675555Y-40732029D01*
X23673632Y-40449034D01*
X23685117Y-39923874D01*
X23713698Y-39489287D01*
X23720199Y-39428035D01*
X23802437Y-39055319D01*
X24130000Y-39055319D01*
X24200244Y-39108928D01*
X24400727Y-39080944D01*
X24716069Y-38976202D01*
X25130891Y-38799535D01*
X25484666Y-38629445D01*
X26232586Y-38255226D01*
X28490333Y-38255226D01*
X28871333Y-38258592D01*
X29208226Y-38243931D01*
X29550098Y-38203472D01*
X29605789Y-38193514D01*
X29775423Y-38182216D01*
X30075687Y-38182535D01*
X30468415Y-38192582D01*
X30915444Y-38210466D01*
X31378608Y-38234297D01*
X31819744Y-38262184D01*
X32200687Y-38292237D01*
X32483273Y-38322566D01*
X32596666Y-38341656D01*
X32695759Y-38311267D01*
X32753576Y-38278804D01*
X32753556Y-38240002D01*
X32622525Y-38202890D01*
X32352955Y-38166689D01*
X31937318Y-38130621D01*
X31368089Y-38093906D01*
X30637738Y-38055765D01*
X30564666Y-38052275D01*
X30015858Y-38034623D01*
X29591534Y-38042430D01*
X29248462Y-38077804D01*
X28998333Y-38128640D01*
X28490333Y-38255226D01*
X26232586Y-38255226D01*
X26289000Y-38227000D01*
X28067000Y-38242338D01*
X27516666Y-38134034D01*
X27100249Y-38072388D01*
X26729822Y-38072475D01*
X26354137Y-38142318D01*
X25921946Y-38289945D01*
X25569333Y-38438986D01*
X25201044Y-38596502D01*
X24844919Y-38739068D01*
X24561173Y-38842881D01*
X24489833Y-38865736D01*
X24272677Y-38947449D01*
X24144597Y-39027913D01*
X24130000Y-39055319D01*
X23802437Y-39055319D01*
X23821584Y-38968544D01*
X23906500Y-38788436D01*
X24021867Y-38788436D01*
X24042495Y-38853249D01*
X24173905Y-38847843D01*
X24433639Y-38773796D01*
X24645912Y-38701454D01*
X24962814Y-38580054D01*
X25345984Y-38418844D01*
X25696333Y-38260206D01*
X26060861Y-38109016D01*
X26415256Y-38016405D01*
X26802506Y-37978310D01*
X27265597Y-37990663D01*
X27847518Y-38049401D01*
X27881241Y-38053574D01*
X28565486Y-38076411D01*
X29042922Y-38014908D01*
X29311851Y-37974217D01*
X29615305Y-37950847D01*
X29984865Y-37944436D01*
X30452110Y-37954622D01*
X31048622Y-37981042D01*
X31218347Y-37989964D01*
X31718169Y-38015616D01*
X32156557Y-38035769D01*
X32506801Y-38049386D01*
X32742191Y-38055433D01*
X32836017Y-38052876D01*
X32836359Y-38052661D01*
X32835801Y-37961096D01*
X32741482Y-37817798D01*
X32594932Y-37672866D01*
X32443352Y-37578577D01*
X32181424Y-37521137D01*
X31765426Y-37491204D01*
X31208282Y-37488247D01*
X30522918Y-37511739D01*
X29722259Y-37561148D01*
X28819231Y-37635946D01*
X27826758Y-37735604D01*
X27373498Y-37786223D01*
X26587304Y-37878175D01*
X25951054Y-37957919D01*
X25446223Y-38030346D01*
X25054287Y-38100344D01*
X24756722Y-38172805D01*
X24535003Y-38252619D01*
X24370606Y-38344675D01*
X24245006Y-38453863D01*
X24139680Y-38585074D01*
X24094475Y-38651825D01*
X24021867Y-38788436D01*
X23906500Y-38788436D01*
X23988153Y-38615249D01*
X24106484Y-38452784D01*
X24238397Y-38317847D01*
X24402507Y-38205353D01*
X24617425Y-38110220D01*
X24901766Y-38027364D01*
X25274143Y-37951701D01*
X25753170Y-37878146D01*
X26357458Y-37801617D01*
X27105623Y-37717030D01*
X27389666Y-37686223D01*
X28315279Y-37587646D01*
X29091057Y-37508092D01*
X29735298Y-37446453D01*
X30266301Y-37401624D01*
X30702362Y-37372498D01*
X31061780Y-37357969D01*
X31362852Y-37356930D01*
X31623877Y-37368274D01*
X31623877Y-37368274D01*
G37*
X31623877Y-37368274D02*
X31863153Y-37390895D01*
X31992912Y-37407856D01*
X32331730Y-37463984D01*
X32557185Y-37531087D01*
X32724744Y-37633198D01*
X32889872Y-37794353D01*
X32893176Y-37797956D01*
X33073884Y-38030186D01*
X33203080Y-38259178D01*
X33229202Y-38332664D01*
X33292880Y-38679388D01*
X33346610Y-39171791D01*
X33388871Y-39786429D01*
X33418138Y-40499856D01*
X33432889Y-41288629D01*
X33434101Y-41486667D01*
X33431923Y-42105507D01*
X33415129Y-42585657D01*
X33376123Y-42957613D01*
X33307309Y-43251872D01*
X33201090Y-43498930D01*
X33049872Y-43729286D01*
X32846057Y-43973435D01*
X32802671Y-44021785D01*
X32336072Y-44440994D01*
X31798268Y-44730988D01*
X31153765Y-44910787D01*
X31138561Y-44913567D01*
X30770224Y-44989954D01*
X30411681Y-45080163D01*
X30156749Y-45159199D01*
X29887158Y-45226934D01*
X29461449Y-45292121D01*
X28892834Y-45353524D01*
X28194524Y-45409909D01*
X27379729Y-45460039D01*
X26500666Y-45501114D01*
X26041406Y-45516443D01*
X25711607Y-45516705D01*
X25471791Y-45498388D01*
X25282480Y-45457983D01*
X25104198Y-45391980D01*
X25061333Y-45373137D01*
X24670431Y-45145828D01*
X24313245Y-44845841D01*
X24047729Y-44523927D01*
X24002350Y-44445752D01*
X23935524Y-44235563D01*
X23872804Y-43884935D01*
X23815813Y-43422745D01*
X23766175Y-42877869D01*
X23725514Y-42279183D01*
X23695455Y-41655565D01*
X23677619Y-41035889D01*
X23675555Y-40732029D01*
X23732003Y-40732029D01*
X23746432Y-41141476D01*
X23810587Y-42007489D01*
X23866636Y-42716466D01*
X23915786Y-43280449D01*
X23959242Y-43711480D01*
X23998213Y-44021600D01*
X24033905Y-44222850D01*
X24065282Y-44323000D01*
X24322404Y-44685310D01*
X24692603Y-45017794D01*
X25120234Y-45276256D01*
X25399451Y-45382723D01*
X25597172Y-45409412D01*
X25940363Y-45417309D01*
X26433977Y-45406263D01*
X27082968Y-45376119D01*
X27892286Y-45326725D01*
X28448000Y-45288419D01*
X29089328Y-45232568D01*
X29600613Y-45163444D01*
X30021000Y-45074812D01*
X30291282Y-44994776D01*
X30630769Y-44892862D01*
X30944926Y-44818591D01*
X31169342Y-44787030D01*
X31180282Y-44786807D01*
X31579691Y-44711266D01*
X32008581Y-44508841D01*
X32429605Y-44208239D01*
X32805415Y-43838166D01*
X33098663Y-43427327D01*
X33192176Y-43240432D01*
X33251871Y-43096293D01*
X33296794Y-42960637D01*
X33328245Y-42809010D01*
X33347522Y-42616959D01*
X33355924Y-42360030D01*
X33354748Y-42013769D01*
X33345293Y-41553722D01*
X33328859Y-40955435D01*
X33323433Y-40768410D01*
X33298629Y-40034025D01*
X33270140Y-39453951D01*
X33235517Y-39013168D01*
X33192313Y-38696659D01*
X33138079Y-38489404D01*
X33070365Y-38376386D01*
X32986723Y-38342585D01*
X32929681Y-38353451D01*
X32796998Y-38367239D01*
X32538206Y-38370496D01*
X32196202Y-38363224D01*
X31961666Y-38353451D01*
X31472684Y-38335059D01*
X30927256Y-38323381D01*
X30424818Y-38320356D01*
X30310666Y-38321260D01*
X29797721Y-38326696D01*
X29219351Y-38331708D01*
X28615375Y-38336059D01*
X28025616Y-38339515D01*
X27489892Y-38341837D01*
X27048025Y-38342791D01*
X26764692Y-38342290D01*
X26473181Y-38360260D01*
X26196912Y-38430208D01*
X25872173Y-38570959D01*
X25708854Y-38654221D01*
X25169369Y-38918359D01*
X24718439Y-39101105D01*
X24371182Y-39197454D01*
X24142713Y-39202402D01*
X24101460Y-39186378D01*
X24017745Y-39149468D01*
X23957692Y-39168456D01*
X23908871Y-39270548D01*
X23858854Y-39482952D01*
X23795211Y-39832875D01*
X23788489Y-39871476D01*
X23745793Y-40263028D01*
X23732003Y-40732029D01*
X23675555Y-40732029D01*
X23673632Y-40449034D01*
X23685117Y-39923874D01*
X23713698Y-39489287D01*
X23720199Y-39428035D01*
X23802437Y-39055319D01*
X24130000Y-39055319D01*
X24200244Y-39108928D01*
X24400727Y-39080944D01*
X24716069Y-38976202D01*
X25130891Y-38799535D01*
X25484666Y-38629445D01*
X26232586Y-38255226D01*
X28490333Y-38255226D01*
X28871333Y-38258592D01*
X29208226Y-38243931D01*
X29550098Y-38203472D01*
X29605789Y-38193514D01*
X29775423Y-38182216D01*
X30075687Y-38182535D01*
X30468415Y-38192582D01*
X30915444Y-38210466D01*
X31378608Y-38234297D01*
X31819744Y-38262184D01*
X32200687Y-38292237D01*
X32483273Y-38322566D01*
X32596666Y-38341656D01*
X32695759Y-38311267D01*
X32753576Y-38278804D01*
X32753556Y-38240002D01*
X32622525Y-38202890D01*
X32352955Y-38166689D01*
X31937318Y-38130621D01*
X31368089Y-38093906D01*
X30637738Y-38055765D01*
X30564666Y-38052275D01*
X30015858Y-38034623D01*
X29591534Y-38042430D01*
X29248462Y-38077804D01*
X28998333Y-38128640D01*
X28490333Y-38255226D01*
X26232586Y-38255226D01*
X26289000Y-38227000D01*
X28067000Y-38242338D01*
X27516666Y-38134034D01*
X27100249Y-38072388D01*
X26729822Y-38072475D01*
X26354137Y-38142318D01*
X25921946Y-38289945D01*
X25569333Y-38438986D01*
X25201044Y-38596502D01*
X24844919Y-38739068D01*
X24561173Y-38842881D01*
X24489833Y-38865736D01*
X24272677Y-38947449D01*
X24144597Y-39027913D01*
X24130000Y-39055319D01*
X23802437Y-39055319D01*
X23821584Y-38968544D01*
X23906500Y-38788436D01*
X24021867Y-38788436D01*
X24042495Y-38853249D01*
X24173905Y-38847843D01*
X24433639Y-38773796D01*
X24645912Y-38701454D01*
X24962814Y-38580054D01*
X25345984Y-38418844D01*
X25696333Y-38260206D01*
X26060861Y-38109016D01*
X26415256Y-38016405D01*
X26802506Y-37978310D01*
X27265597Y-37990663D01*
X27847518Y-38049401D01*
X27881241Y-38053574D01*
X28565486Y-38076411D01*
X29042922Y-38014908D01*
X29311851Y-37974217D01*
X29615305Y-37950847D01*
X29984865Y-37944436D01*
X30452110Y-37954622D01*
X31048622Y-37981042D01*
X31218347Y-37989964D01*
X31718169Y-38015616D01*
X32156557Y-38035769D01*
X32506801Y-38049386D01*
X32742191Y-38055433D01*
X32836017Y-38052876D01*
X32836359Y-38052661D01*
X32835801Y-37961096D01*
X32741482Y-37817798D01*
X32594932Y-37672866D01*
X32443352Y-37578577D01*
X32181424Y-37521137D01*
X31765426Y-37491204D01*
X31208282Y-37488247D01*
X30522918Y-37511739D01*
X29722259Y-37561148D01*
X28819231Y-37635946D01*
X27826758Y-37735604D01*
X27373498Y-37786223D01*
X26587304Y-37878175D01*
X25951054Y-37957919D01*
X25446223Y-38030346D01*
X25054287Y-38100344D01*
X24756722Y-38172805D01*
X24535003Y-38252619D01*
X24370606Y-38344675D01*
X24245006Y-38453863D01*
X24139680Y-38585074D01*
X24094475Y-38651825D01*
X24021867Y-38788436D01*
X23906500Y-38788436D01*
X23988153Y-38615249D01*
X24106484Y-38452784D01*
X24238397Y-38317847D01*
X24402507Y-38205353D01*
X24617425Y-38110220D01*
X24901766Y-38027364D01*
X25274143Y-37951701D01*
X25753170Y-37878146D01*
X26357458Y-37801617D01*
X27105623Y-37717030D01*
X27389666Y-37686223D01*
X28315279Y-37587646D01*
X29091057Y-37508092D01*
X29735298Y-37446453D01*
X30266301Y-37401624D01*
X30702362Y-37372498D01*
X31061780Y-37357969D01*
X31362852Y-37356930D01*
X31623877Y-37368274D01*
G36*
X40323383Y-6605686D02*
X40547353Y-6616776D01*
X40667160Y-6646323D01*
X40715390Y-6703379D01*
X40724629Y-6796994D01*
X40724666Y-6815667D01*
X40718599Y-6915866D01*
X40678673Y-6978080D01*
X40572303Y-7011360D01*
X40366904Y-7024757D01*
X40029890Y-7027323D01*
X39962666Y-7027334D01*
X39601949Y-7025648D01*
X39377980Y-7014558D01*
X39258172Y-6985010D01*
X39209942Y-6927955D01*
X39200703Y-6834340D01*
X39200666Y-6815667D01*
X39206734Y-6715468D01*
X39246660Y-6653254D01*
X39353030Y-6619974D01*
X39558429Y-6606577D01*
X39895443Y-6604010D01*
X39962666Y-6604000D01*
X40323383Y-6605686D01*
X40323383Y-6605686D01*
G37*
X40323383Y-6605686D02*
X40547353Y-6616776D01*
X40667160Y-6646323D01*
X40715390Y-6703379D01*
X40724629Y-6796994D01*
X40724666Y-6815667D01*
X40718599Y-6915866D01*
X40678673Y-6978080D01*
X40572303Y-7011360D01*
X40366904Y-7024757D01*
X40029890Y-7027323D01*
X39962666Y-7027334D01*
X39601949Y-7025648D01*
X39377980Y-7014558D01*
X39258172Y-6985010D01*
X39209942Y-6927955D01*
X39200703Y-6834340D01*
X39200666Y-6815667D01*
X39206734Y-6715468D01*
X39246660Y-6653254D01*
X39353030Y-6619974D01*
X39558429Y-6606577D01*
X39895443Y-6604010D01*
X39962666Y-6604000D01*
X40323383Y-6605686D01*
G36*
X49888955Y-4263676D02*
X50157558Y-4321594D01*
X50362491Y-4422123D01*
X50487556Y-4522152D01*
X50692303Y-4808907D01*
X50818734Y-5181390D01*
X50844795Y-5565611D01*
X50829985Y-5670904D01*
X50733744Y-5907278D01*
X50562623Y-6154077D01*
X50509158Y-6211864D01*
X50243364Y-6477658D01*
X50425619Y-6748106D01*
X50541170Y-6973102D01*
X50661375Y-7291004D01*
X50749954Y-7594444D01*
X50828304Y-7907415D01*
X50896161Y-8170400D01*
X50938152Y-8324056D01*
X50945259Y-8422612D01*
X50859409Y-8458376D01*
X50664214Y-8451056D01*
X50344157Y-8424334D01*
X50195971Y-7835243D01*
X50107118Y-7511548D01*
X50017120Y-7231154D01*
X49946087Y-7056127D01*
X49761151Y-6869612D01*
X49463480Y-6739487D01*
X49106339Y-6688724D01*
X49094032Y-6688667D01*
X48852666Y-6688667D01*
X48852666Y-8466667D01*
X48257041Y-8466667D01*
X48297155Y-4754788D01*
X48852666Y-4754788D01*
X48852666Y-6265334D01*
X49170166Y-6265202D01*
X49469441Y-6224475D01*
X49765937Y-6125740D01*
X49783902Y-6117035D01*
X50071394Y-5904236D01*
X50220177Y-5646021D01*
X50243898Y-5370876D01*
X50156204Y-5107289D01*
X49970742Y-4883746D01*
X49701158Y-4728731D01*
X49361100Y-4670733D01*
X49104764Y-4699418D01*
X48852666Y-4754788D01*
X48297155Y-4754788D01*
X48302333Y-4275667D01*
X49022000Y-4249906D01*
X49521997Y-4241928D01*
X49888955Y-4263676D01*
X49888955Y-4263676D01*
G37*
X49888955Y-4263676D02*
X50157558Y-4321594D01*
X50362491Y-4422123D01*
X50487556Y-4522152D01*
X50692303Y-4808907D01*
X50818734Y-5181390D01*
X50844795Y-5565611D01*
X50829985Y-5670904D01*
X50733744Y-5907278D01*
X50562623Y-6154077D01*
X50509158Y-6211864D01*
X50243364Y-6477658D01*
X50425619Y-6748106D01*
X50541170Y-6973102D01*
X50661375Y-7291004D01*
X50749954Y-7594444D01*
X50828304Y-7907415D01*
X50896161Y-8170400D01*
X50938152Y-8324056D01*
X50945259Y-8422612D01*
X50859409Y-8458376D01*
X50664214Y-8451056D01*
X50344157Y-8424334D01*
X50195971Y-7835243D01*
X50107118Y-7511548D01*
X50017120Y-7231154D01*
X49946087Y-7056127D01*
X49761151Y-6869612D01*
X49463480Y-6739487D01*
X49106339Y-6688724D01*
X49094032Y-6688667D01*
X48852666Y-6688667D01*
X48852666Y-8466667D01*
X48257041Y-8466667D01*
X48297155Y-4754788D01*
X48852666Y-4754788D01*
X48852666Y-6265334D01*
X49170166Y-6265202D01*
X49469441Y-6224475D01*
X49765937Y-6125740D01*
X49783902Y-6117035D01*
X50071394Y-5904236D01*
X50220177Y-5646021D01*
X50243898Y-5370876D01*
X50156204Y-5107289D01*
X49970742Y-4883746D01*
X49701158Y-4728731D01*
X49361100Y-4670733D01*
X49104764Y-4699418D01*
X48852666Y-4754788D01*
X48297155Y-4754788D01*
X48302333Y-4275667D01*
X49022000Y-4249906D01*
X49521997Y-4241928D01*
X49888955Y-4263676D01*
G36*
X47582666Y-4741334D02*
X45889333Y-4741334D01*
X45889333Y-6011334D01*
X47498000Y-6011334D01*
X47498000Y-6519334D01*
X45889333Y-6519334D01*
X45889333Y-7958667D01*
X47667333Y-7958667D01*
X47667333Y-8466667D01*
X45296666Y-8466667D01*
X45296666Y-4233334D01*
X47582666Y-4233334D01*
X47582666Y-4741334D01*
X47582666Y-4741334D01*
G37*
X47582666Y-4741334D02*
X45889333Y-4741334D01*
X45889333Y-6011334D01*
X47498000Y-6011334D01*
X47498000Y-6519334D01*
X45889333Y-6519334D01*
X45889333Y-7958667D01*
X47667333Y-7958667D01*
X47667333Y-8466667D01*
X45296666Y-8466667D01*
X45296666Y-4233334D01*
X47582666Y-4233334D01*
X47582666Y-4741334D01*
G36*
X41814653Y-4241830D02*
X41893815Y-4275303D01*
X41981459Y-4348571D01*
X42089260Y-4476868D01*
X42228895Y-4675429D01*
X42412038Y-4959489D01*
X42650365Y-5344281D01*
X42955552Y-5845040D01*
X43280693Y-6380561D01*
X43942000Y-7469454D01*
X43942000Y-4233334D01*
X44450000Y-4233334D01*
X44450000Y-8476889D01*
X44138989Y-8450611D01*
X44047323Y-8443977D01*
X43970253Y-8431269D01*
X43896446Y-8397240D01*
X43814568Y-8326641D01*
X43713287Y-8204223D01*
X43581271Y-8014737D01*
X43407185Y-7742934D01*
X43179698Y-7373566D01*
X42887476Y-6891385D01*
X42519186Y-6281141D01*
X42486984Y-6227800D01*
X41825333Y-5131933D01*
X41825333Y-8466667D01*
X41317333Y-8466667D01*
X41317333Y-4233334D01*
X41635073Y-4233334D01*
X41732298Y-4232919D01*
X41814653Y-4241830D01*
X41814653Y-4241830D01*
G37*
X41814653Y-4241830D02*
X41893815Y-4275303D01*
X41981459Y-4348571D01*
X42089260Y-4476868D01*
X42228895Y-4675429D01*
X42412038Y-4959489D01*
X42650365Y-5344281D01*
X42955552Y-5845040D01*
X43280693Y-6380561D01*
X43942000Y-7469454D01*
X43942000Y-4233334D01*
X44450000Y-4233334D01*
X44450000Y-8476889D01*
X44138989Y-8450611D01*
X44047323Y-8443977D01*
X43970253Y-8431269D01*
X43896446Y-8397240D01*
X43814568Y-8326641D01*
X43713287Y-8204223D01*
X43581271Y-8014737D01*
X43407185Y-7742934D01*
X43179698Y-7373566D01*
X42887476Y-6891385D01*
X42519186Y-6281141D01*
X42486984Y-6227800D01*
X41825333Y-5131933D01*
X41825333Y-8466667D01*
X41317333Y-8466667D01*
X41317333Y-4233334D01*
X41635073Y-4233334D01*
X41732298Y-4232919D01*
X41814653Y-4241830D01*
G36*
X30056666Y-8466667D02*
X29210000Y-8466667D01*
X29210000Y-2286000D01*
X30056666Y-2286000D01*
X30056666Y-8466667D01*
X30056666Y-8466667D01*
G37*
X30056666Y-8466667D02*
X29210000Y-8466667D01*
X29210000Y-2286000D01*
X30056666Y-2286000D01*
X30056666Y-8466667D01*
G36*
X27800550Y-4801348D02*
X27839620Y-5477504D01*
X27878169Y-6123976D01*
X27914539Y-6714490D01*
X27947073Y-7222769D01*
X27974113Y-7622538D01*
X27994001Y-7887520D01*
X27998390Y-7937500D01*
X28048050Y-8466667D01*
X27613025Y-8466667D01*
X27367463Y-8455525D01*
X27209266Y-8426966D01*
X27177014Y-8403167D01*
X27172144Y-8304749D01*
X27158936Y-8060308D01*
X27138667Y-7692882D01*
X27112616Y-7225507D01*
X27082059Y-6681222D01*
X27051405Y-6138334D01*
X27017435Y-5534179D01*
X26986543Y-4976910D01*
X26960084Y-4491637D01*
X26939416Y-4103467D01*
X26925896Y-3837509D01*
X26921011Y-3725334D01*
X26893446Y-3748961D01*
X26817740Y-3916383D01*
X26699973Y-4210977D01*
X26546228Y-4616119D01*
X26362583Y-5115186D01*
X26155122Y-5691555D01*
X25929924Y-6328604D01*
X25693072Y-7009709D01*
X25450645Y-7718248D01*
X25333651Y-8064500D01*
X25245686Y-8302927D01*
X25158388Y-8421597D01*
X25021522Y-8462256D01*
X24849681Y-8466667D01*
X24501018Y-8466667D01*
X23766955Y-6201834D01*
X23571859Y-5598035D01*
X23390560Y-5033406D01*
X23230679Y-4531965D01*
X23099839Y-4117729D01*
X23005664Y-3814715D01*
X22955775Y-3646939D01*
X22954081Y-3640667D01*
X22915400Y-3516156D01*
X22890835Y-3506760D01*
X22876682Y-3628779D01*
X22869233Y-3898514D01*
X22867635Y-4020899D01*
X22859984Y-4348873D01*
X22844161Y-4783040D01*
X22821915Y-5291282D01*
X22794998Y-5841483D01*
X22765160Y-6401525D01*
X22734151Y-6939292D01*
X22703722Y-7422666D01*
X22675623Y-7819531D01*
X22651605Y-8097769D01*
X22640331Y-8191500D01*
X22602468Y-8361684D01*
X22523613Y-8441656D01*
X22352093Y-8465335D01*
X22221163Y-8466667D01*
X21986133Y-8456508D01*
X21874777Y-8410947D01*
X21841917Y-8307362D01*
X21840761Y-8276167D01*
X21845362Y-8149011D01*
X21859900Y-7873733D01*
X21883123Y-7471174D01*
X21913780Y-6962175D01*
X21950621Y-6367577D01*
X21992393Y-5708222D01*
X22029044Y-5140064D01*
X22220564Y-2194461D01*
X22768245Y-2219064D01*
X23315925Y-2243667D01*
X24073441Y-4572000D01*
X24268972Y-5173333D01*
X24448405Y-5725813D01*
X24604767Y-6207913D01*
X24731084Y-6598110D01*
X24820381Y-6874879D01*
X24865684Y-7016694D01*
X24868961Y-7027334D01*
X24907226Y-7011808D01*
X24976964Y-6861817D01*
X25065709Y-6606429D01*
X25104988Y-6477000D01*
X25193931Y-6190514D01*
X25328335Y-5780331D01*
X25496181Y-5282037D01*
X25685449Y-4731214D01*
X25884121Y-4163445D01*
X25934332Y-4021667D01*
X26565654Y-2243667D01*
X27652368Y-2194363D01*
X27800550Y-4801348D01*
X27800550Y-4801348D01*
G37*
X27800550Y-4801348D02*
X27839620Y-5477504D01*
X27878169Y-6123976D01*
X27914539Y-6714490D01*
X27947073Y-7222769D01*
X27974113Y-7622538D01*
X27994001Y-7887520D01*
X27998390Y-7937500D01*
X28048050Y-8466667D01*
X27613025Y-8466667D01*
X27367463Y-8455525D01*
X27209266Y-8426966D01*
X27177014Y-8403167D01*
X27172144Y-8304749D01*
X27158936Y-8060308D01*
X27138667Y-7692882D01*
X27112616Y-7225507D01*
X27082059Y-6681222D01*
X27051405Y-6138334D01*
X27017435Y-5534179D01*
X26986543Y-4976910D01*
X26960084Y-4491637D01*
X26939416Y-4103467D01*
X26925896Y-3837509D01*
X26921011Y-3725334D01*
X26893446Y-3748961D01*
X26817740Y-3916383D01*
X26699973Y-4210977D01*
X26546228Y-4616119D01*
X26362583Y-5115186D01*
X26155122Y-5691555D01*
X25929924Y-6328604D01*
X25693072Y-7009709D01*
X25450645Y-7718248D01*
X25333651Y-8064500D01*
X25245686Y-8302927D01*
X25158388Y-8421597D01*
X25021522Y-8462256D01*
X24849681Y-8466667D01*
X24501018Y-8466667D01*
X23766955Y-6201834D01*
X23571859Y-5598035D01*
X23390560Y-5033406D01*
X23230679Y-4531965D01*
X23099839Y-4117729D01*
X23005664Y-3814715D01*
X22955775Y-3646939D01*
X22954081Y-3640667D01*
X22915400Y-3516156D01*
X22890835Y-3506760D01*
X22876682Y-3628779D01*
X22869233Y-3898514D01*
X22867635Y-4020899D01*
X22859984Y-4348873D01*
X22844161Y-4783040D01*
X22821915Y-5291282D01*
X22794998Y-5841483D01*
X22765160Y-6401525D01*
X22734151Y-6939292D01*
X22703722Y-7422666D01*
X22675623Y-7819531D01*
X22651605Y-8097769D01*
X22640331Y-8191500D01*
X22602468Y-8361684D01*
X22523613Y-8441656D01*
X22352093Y-8465335D01*
X22221163Y-8466667D01*
X21986133Y-8456508D01*
X21874777Y-8410947D01*
X21841917Y-8307362D01*
X21840761Y-8276167D01*
X21845362Y-8149011D01*
X21859900Y-7873733D01*
X21883123Y-7471174D01*
X21913780Y-6962175D01*
X21950621Y-6367577D01*
X21992393Y-5708222D01*
X22029044Y-5140064D01*
X22220564Y-2194461D01*
X22768245Y-2219064D01*
X23315925Y-2243667D01*
X24073441Y-4572000D01*
X24268972Y-5173333D01*
X24448405Y-5725813D01*
X24604767Y-6207913D01*
X24731084Y-6598110D01*
X24820381Y-6874879D01*
X24865684Y-7016694D01*
X24868961Y-7027334D01*
X24907226Y-7011808D01*
X24976964Y-6861817D01*
X25065709Y-6606429D01*
X25104988Y-6477000D01*
X25193931Y-6190514D01*
X25328335Y-5780331D01*
X25496181Y-5282037D01*
X25685449Y-4731214D01*
X25884121Y-4163445D01*
X25934332Y-4021667D01*
X26565654Y-2243667D01*
X27652368Y-2194363D01*
X27800550Y-4801348D01*
G36*
X17007320Y-4241830D02*
X17086482Y-4275303D01*
X17174126Y-4348571D01*
X17281927Y-4476868D01*
X17421562Y-4675429D01*
X17604705Y-4959489D01*
X17843032Y-5344281D01*
X18148218Y-5845040D01*
X18473360Y-6380561D01*
X19134666Y-7469454D01*
X19134666Y-4233334D01*
X19642666Y-4233334D01*
X19642666Y-8476889D01*
X19331656Y-8450611D01*
X19239990Y-8443977D01*
X19162920Y-8431269D01*
X19089112Y-8397240D01*
X19007235Y-8326641D01*
X18905954Y-8204223D01*
X18773937Y-8014737D01*
X18599852Y-7742934D01*
X18372365Y-7373566D01*
X18080143Y-6891385D01*
X17711853Y-6281141D01*
X17679650Y-6227800D01*
X17018000Y-5131933D01*
X17018000Y-8466667D01*
X16510000Y-8466667D01*
X16510000Y-4233334D01*
X16827740Y-4233334D01*
X16924964Y-4232919D01*
X17007320Y-4241830D01*
X17007320Y-4241830D01*
G37*
X17007320Y-4241830D02*
X17086482Y-4275303D01*
X17174126Y-4348571D01*
X17281927Y-4476868D01*
X17421562Y-4675429D01*
X17604705Y-4959489D01*
X17843032Y-5344281D01*
X18148218Y-5845040D01*
X18473360Y-6380561D01*
X19134666Y-7469454D01*
X19134666Y-4233334D01*
X19642666Y-4233334D01*
X19642666Y-8476889D01*
X19331656Y-8450611D01*
X19239990Y-8443977D01*
X19162920Y-8431269D01*
X19089112Y-8397240D01*
X19007235Y-8326641D01*
X18905954Y-8204223D01*
X18773937Y-8014737D01*
X18599852Y-7742934D01*
X18372365Y-7373566D01*
X18080143Y-6891385D01*
X17711853Y-6281141D01*
X17679650Y-6227800D01*
X17018000Y-5131933D01*
X17018000Y-8466667D01*
X16510000Y-8466667D01*
X16510000Y-4233334D01*
X16827740Y-4233334D01*
X16924964Y-4232919D01*
X17007320Y-4241830D01*
G36*
X11345333Y-4533462D02*
X11350453Y-4721901D01*
X11364490Y-5044165D01*
X11385460Y-5465099D01*
X11411381Y-5949545D01*
X11440269Y-6462346D01*
X11470140Y-6968347D01*
X11499011Y-7432389D01*
X11524899Y-7819318D01*
X11545819Y-8093976D01*
X11546936Y-8106834D01*
X11560033Y-8332049D01*
X11524998Y-8435792D01*
X11409801Y-8465157D01*
X11302213Y-8466667D01*
X11127096Y-8453589D01*
X11037733Y-8383099D01*
X10991767Y-8208308D01*
X10977145Y-8106834D01*
X10956566Y-7897118D01*
X10932133Y-7557438D01*
X10906296Y-7127046D01*
X10881509Y-6645194D01*
X10870063Y-6392334D01*
X10811728Y-5037667D01*
X10613887Y-5630334D01*
X10509052Y-5940519D01*
X10366211Y-6357874D01*
X10203448Y-6829791D01*
X10038848Y-7303665D01*
X10024485Y-7344834D01*
X9867568Y-7789218D01*
X9751134Y-8097772D01*
X9661622Y-8295140D01*
X9585471Y-8405970D01*
X9509118Y-8454907D01*
X9419003Y-8466597D01*
X9407192Y-8466667D01*
X9314754Y-8458024D01*
X9238492Y-8415540D01*
X9165143Y-8314379D01*
X9081444Y-8129709D01*
X8974133Y-7836695D01*
X8829946Y-7410502D01*
X8808072Y-7344834D01*
X8651369Y-6868375D01*
X8495705Y-6385275D01*
X8358432Y-5949974D01*
X8256902Y-5616915D01*
X8251710Y-5599274D01*
X8068738Y-4975548D01*
X8007625Y-6603020D01*
X7986285Y-7116727D01*
X7963322Y-7576296D01*
X7940467Y-7953334D01*
X7919452Y-8219447D01*
X7902006Y-8346244D01*
X7901197Y-8348579D01*
X7792425Y-8433901D01*
X7610941Y-8466667D01*
X7450248Y-8451040D01*
X7381728Y-8370987D01*
X7367187Y-8176752D01*
X7367231Y-8149167D01*
X7373606Y-7968436D01*
X7390659Y-7650228D01*
X7416470Y-7225929D01*
X7449114Y-6726924D01*
X7486670Y-6184600D01*
X7493000Y-6096000D01*
X7530567Y-5570264D01*
X7563710Y-5102307D01*
X7590601Y-4718298D01*
X7609410Y-4444405D01*
X7618308Y-4306797D01*
X7618768Y-4296834D01*
X7695209Y-4258728D01*
X7886887Y-4236069D01*
X7995861Y-4233334D01*
X8371723Y-4233334D01*
X8884861Y-5790903D01*
X9044980Y-6284087D01*
X9185169Y-6729557D01*
X9297045Y-7099542D01*
X9372222Y-7366271D01*
X9402315Y-7501973D01*
X9402506Y-7505403D01*
X9425982Y-7503807D01*
X9484920Y-7366251D01*
X9568573Y-7119682D01*
X9610022Y-6985000D01*
X9723506Y-6625147D01*
X9875295Y-6169608D01*
X10044116Y-5681202D01*
X10183463Y-5291667D01*
X10553895Y-4275667D01*
X10949614Y-4249861D01*
X11345333Y-4224056D01*
X11345333Y-4533462D01*
X11345333Y-4533462D01*
G37*
X11345333Y-4533462D02*
X11350453Y-4721901D01*
X11364490Y-5044165D01*
X11385460Y-5465099D01*
X11411381Y-5949545D01*
X11440269Y-6462346D01*
X11470140Y-6968347D01*
X11499011Y-7432389D01*
X11524899Y-7819318D01*
X11545819Y-8093976D01*
X11546936Y-8106834D01*
X11560033Y-8332049D01*
X11524998Y-8435792D01*
X11409801Y-8465157D01*
X11302213Y-8466667D01*
X11127096Y-8453589D01*
X11037733Y-8383099D01*
X10991767Y-8208308D01*
X10977145Y-8106834D01*
X10956566Y-7897118D01*
X10932133Y-7557438D01*
X10906296Y-7127046D01*
X10881509Y-6645194D01*
X10870063Y-6392334D01*
X10811728Y-5037667D01*
X10613887Y-5630334D01*
X10509052Y-5940519D01*
X10366211Y-6357874D01*
X10203448Y-6829791D01*
X10038848Y-7303665D01*
X10024485Y-7344834D01*
X9867568Y-7789218D01*
X9751134Y-8097772D01*
X9661622Y-8295140D01*
X9585471Y-8405970D01*
X9509118Y-8454907D01*
X9419003Y-8466597D01*
X9407192Y-8466667D01*
X9314754Y-8458024D01*
X9238492Y-8415540D01*
X9165143Y-8314379D01*
X9081444Y-8129709D01*
X8974133Y-7836695D01*
X8829946Y-7410502D01*
X8808072Y-7344834D01*
X8651369Y-6868375D01*
X8495705Y-6385275D01*
X8358432Y-5949974D01*
X8256902Y-5616915D01*
X8251710Y-5599274D01*
X8068738Y-4975548D01*
X8007625Y-6603020D01*
X7986285Y-7116727D01*
X7963322Y-7576296D01*
X7940467Y-7953334D01*
X7919452Y-8219447D01*
X7902006Y-8346244D01*
X7901197Y-8348579D01*
X7792425Y-8433901D01*
X7610941Y-8466667D01*
X7450248Y-8451040D01*
X7381728Y-8370987D01*
X7367187Y-8176752D01*
X7367231Y-8149167D01*
X7373606Y-7968436D01*
X7390659Y-7650228D01*
X7416470Y-7225929D01*
X7449114Y-6726924D01*
X7486670Y-6184600D01*
X7493000Y-6096000D01*
X7530567Y-5570264D01*
X7563710Y-5102307D01*
X7590601Y-4718298D01*
X7609410Y-4444405D01*
X7618308Y-4306797D01*
X7618768Y-4296834D01*
X7695209Y-4258728D01*
X7886887Y-4236069D01*
X7995861Y-4233334D01*
X8371723Y-4233334D01*
X8884861Y-5790903D01*
X9044980Y-6284087D01*
X9185169Y-6729557D01*
X9297045Y-7099542D01*
X9372222Y-7366271D01*
X9402315Y-7501973D01*
X9402506Y-7505403D01*
X9425982Y-7503807D01*
X9484920Y-7366251D01*
X9568573Y-7119682D01*
X9610022Y-6985000D01*
X9723506Y-6625147D01*
X9875295Y-6169608D01*
X10044116Y-5681202D01*
X10183463Y-5291667D01*
X10553895Y-4275667D01*
X10949614Y-4249861D01*
X11345333Y-4224056D01*
X11345333Y-4533462D01*
G36*
X5156936Y-4251802D02*
X5530206Y-4275667D01*
X6192091Y-6307667D01*
X6372855Y-6864996D01*
X6534963Y-7369366D01*
X6671334Y-7798371D01*
X6774885Y-8129603D01*
X6838536Y-8340657D01*
X6855988Y-8408278D01*
X6783099Y-8446181D01*
X6599818Y-8454237D01*
X6542691Y-8450611D01*
X6385707Y-8432042D01*
X6280291Y-8385527D01*
X6200704Y-8277010D01*
X6121205Y-8072437D01*
X6024413Y-7764909D01*
X5821445Y-7105484D01*
X4454907Y-7154334D01*
X4242246Y-7810500D01*
X4029584Y-8466667D01*
X3409173Y-8466667D01*
X3992589Y-6667500D01*
X4572920Y-6667500D01*
X4649678Y-6678280D01*
X4851404Y-6685903D01*
X5122333Y-6688667D01*
X5402612Y-6680365D01*
X5600831Y-6658644D01*
X5672666Y-6629513D01*
X5647790Y-6528864D01*
X5580690Y-6304485D01*
X5482654Y-5993296D01*
X5403271Y-5748475D01*
X5133877Y-4926591D01*
X4853859Y-5786462D01*
X4739456Y-6139374D01*
X4647448Y-6426261D01*
X4588690Y-6613078D01*
X4572920Y-6667500D01*
X3992589Y-6667500D01*
X4096420Y-6347302D01*
X4783666Y-4227938D01*
X5156936Y-4251802D01*
X5156936Y-4251802D01*
G37*
X5156936Y-4251802D02*
X5530206Y-4275667D01*
X6192091Y-6307667D01*
X6372855Y-6864996D01*
X6534963Y-7369366D01*
X6671334Y-7798371D01*
X6774885Y-8129603D01*
X6838536Y-8340657D01*
X6855988Y-8408278D01*
X6783099Y-8446181D01*
X6599818Y-8454237D01*
X6542691Y-8450611D01*
X6385707Y-8432042D01*
X6280291Y-8385527D01*
X6200704Y-8277010D01*
X6121205Y-8072437D01*
X6024413Y-7764909D01*
X5821445Y-7105484D01*
X4454907Y-7154334D01*
X4242246Y-7810500D01*
X4029584Y-8466667D01*
X3409173Y-8466667D01*
X3992589Y-6667500D01*
X4572920Y-6667500D01*
X4649678Y-6678280D01*
X4851404Y-6685903D01*
X5122333Y-6688667D01*
X5402612Y-6680365D01*
X5600831Y-6658644D01*
X5672666Y-6629513D01*
X5647790Y-6528864D01*
X5580690Y-6304485D01*
X5482654Y-5993296D01*
X5403271Y-5748475D01*
X5133877Y-4926591D01*
X4853859Y-5786462D01*
X4739456Y-6139374D01*
X4647448Y-6426261D01*
X4588690Y-6613078D01*
X4572920Y-6667500D01*
X3992589Y-6667500D01*
X4096420Y-6347302D01*
X4783666Y-4227938D01*
X5156936Y-4251802D01*
G36*
X36322000Y-7789334D02*
X38862000Y-7789334D01*
X38862000Y-8551334D01*
X35475333Y-8551334D01*
X35475333Y-2286000D01*
X36322000Y-2286000D01*
X36322000Y-7789334D01*
X36322000Y-7789334D01*
G37*
X36322000Y-7789334D02*
X38862000Y-7789334D01*
X38862000Y-8551334D01*
X35475333Y-8551334D01*
X35475333Y-2286000D01*
X36322000Y-2286000D01*
X36322000Y-7789334D01*
G36*
X32173333Y-7789334D02*
X34713333Y-7789334D01*
X34713333Y-8551334D01*
X31326666Y-8551334D01*
X31326666Y-2286000D01*
X32173333Y-2286000D01*
X32173333Y-7789334D01*
X32173333Y-7789334D01*
G37*
X32173333Y-7789334D02*
X34713333Y-7789334D01*
X34713333Y-8551334D01*
X31326666Y-8551334D01*
X31326666Y-2286000D01*
X32173333Y-2286000D01*
X32173333Y-7789334D01*
G36*
X14498934Y-4217863D02*
X14968339Y-4417941D01*
X15343390Y-4757246D01*
X15631599Y-5240871D01*
X15670968Y-5334000D01*
X15740563Y-5619400D01*
X15778313Y-6011030D01*
X15784160Y-6448795D01*
X15758046Y-6872601D01*
X15699912Y-7222354D01*
X15672896Y-7313567D01*
X15501927Y-7648348D01*
X15241917Y-7985412D01*
X14942228Y-8269385D01*
X14671219Y-8437277D01*
X14394403Y-8506789D01*
X14029444Y-8540074D01*
X13649466Y-8535950D01*
X13327595Y-8493234D01*
X13220290Y-8460745D01*
X12777354Y-8195042D01*
X12426216Y-7799295D01*
X12180193Y-7293508D01*
X12053702Y-6708397D01*
X12051627Y-6339361D01*
X12670260Y-6339361D01*
X12722496Y-6897610D01*
X12882216Y-7363175D01*
X13137482Y-7719883D01*
X13476355Y-7951561D01*
X13886896Y-8042036D01*
X13927666Y-8042701D01*
X14225436Y-8000390D01*
X14503763Y-7897015D01*
X14529942Y-7881957D01*
X14814090Y-7616335D01*
X15023641Y-7234914D01*
X15151257Y-6777295D01*
X15189601Y-6283082D01*
X15131337Y-5791875D01*
X14991886Y-5388494D01*
X14726236Y-4993701D01*
X14385497Y-4749712D01*
X13971862Y-4658033D01*
X13927666Y-4657300D01*
X13510472Y-4733842D01*
X13165224Y-4953728D01*
X12902846Y-5302343D01*
X12734261Y-5765077D01*
X12670393Y-6327315D01*
X12670260Y-6339361D01*
X12051627Y-6339361D01*
X12050058Y-6060545D01*
X12172275Y-5480197D01*
X12408104Y-4984063D01*
X12745294Y-4588858D01*
X13171593Y-4311292D01*
X13674752Y-4168080D01*
X13927666Y-4151919D01*
X14498934Y-4217863D01*
X14498934Y-4217863D01*
G37*
X14498934Y-4217863D02*
X14968339Y-4417941D01*
X15343390Y-4757246D01*
X15631599Y-5240871D01*
X15670968Y-5334000D01*
X15740563Y-5619400D01*
X15778313Y-6011030D01*
X15784160Y-6448795D01*
X15758046Y-6872601D01*
X15699912Y-7222354D01*
X15672896Y-7313567D01*
X15501927Y-7648348D01*
X15241917Y-7985412D01*
X14942228Y-8269385D01*
X14671219Y-8437277D01*
X14394403Y-8506789D01*
X14029444Y-8540074D01*
X13649466Y-8535950D01*
X13327595Y-8493234D01*
X13220290Y-8460745D01*
X12777354Y-8195042D01*
X12426216Y-7799295D01*
X12180193Y-7293508D01*
X12053702Y-6708397D01*
X12051627Y-6339361D01*
X12670260Y-6339361D01*
X12722496Y-6897610D01*
X12882216Y-7363175D01*
X13137482Y-7719883D01*
X13476355Y-7951561D01*
X13886896Y-8042036D01*
X13927666Y-8042701D01*
X14225436Y-8000390D01*
X14503763Y-7897015D01*
X14529942Y-7881957D01*
X14814090Y-7616335D01*
X15023641Y-7234914D01*
X15151257Y-6777295D01*
X15189601Y-6283082D01*
X15131337Y-5791875D01*
X14991886Y-5388494D01*
X14726236Y-4993701D01*
X14385497Y-4749712D01*
X13971862Y-4658033D01*
X13927666Y-4657300D01*
X13510472Y-4733842D01*
X13165224Y-4953728D01*
X12902846Y-5302343D01*
X12734261Y-5765077D01*
X12670393Y-6327315D01*
X12670260Y-6339361D01*
X12051627Y-6339361D01*
X12050058Y-6060545D01*
X12172275Y-5480197D01*
X12408104Y-4984063D01*
X12745294Y-4588858D01*
X13171593Y-4311292D01*
X13674752Y-4168080D01*
X13927666Y-4151919D01*
X14498934Y-4217863D01*
G36*
X27955648Y-10678108D02*
X28260516Y-10709284D01*
X28602077Y-10770666D01*
X29018930Y-10869471D01*
X29549672Y-11012917D01*
X29680873Y-11049858D01*
X30351016Y-11243370D01*
X30884869Y-11408198D01*
X31310718Y-11555524D01*
X31656847Y-11696533D01*
X31951540Y-11842406D01*
X32223082Y-12004326D01*
X32406170Y-12127376D01*
X32649292Y-12318056D01*
X32983186Y-12610300D01*
X33386382Y-12982585D01*
X33837411Y-13413390D01*
X34314806Y-13881192D01*
X34797097Y-14364471D01*
X35262816Y-14841703D01*
X35690494Y-15291368D01*
X36058662Y-15691944D01*
X36345852Y-16021908D01*
X36530595Y-16259738D01*
X36535446Y-16266876D01*
X36734115Y-16593304D01*
X36958964Y-17012385D01*
X37175828Y-17458555D01*
X37285462Y-17706209D01*
X37466691Y-18127487D01*
X37691702Y-18639936D01*
X37932879Y-19181182D01*
X38162611Y-19688850D01*
X38180212Y-19727334D01*
X38585008Y-20677462D01*
X38887640Y-21554132D01*
X39097487Y-22404594D01*
X39223926Y-23276100D01*
X39276335Y-24215901D01*
X39266565Y-25201231D01*
X39225686Y-26405343D01*
X39544303Y-26459173D01*
X39704340Y-26488649D01*
X39831281Y-26529196D01*
X39929342Y-26599205D01*
X40002736Y-26717068D01*
X40055678Y-26901176D01*
X40092383Y-27169922D01*
X40117065Y-27541696D01*
X40133938Y-28034890D01*
X40147218Y-28667896D01*
X40155264Y-29125334D01*
X40169943Y-29867226D01*
X40187026Y-30472028D01*
X40208861Y-30971982D01*
X40237799Y-31399330D01*
X40276190Y-31786315D01*
X40326384Y-32165179D01*
X40390730Y-32568165D01*
X40417517Y-32723667D01*
X40496785Y-33204239D01*
X40563578Y-33660122D01*
X40612328Y-34049327D01*
X40637466Y-34329866D01*
X40639668Y-34398553D01*
X40565032Y-34950862D01*
X40345739Y-35423599D01*
X39990156Y-35802633D01*
X39698959Y-35987448D01*
X39392918Y-36144416D01*
X39347464Y-37439708D01*
X39293360Y-38276113D01*
X39185681Y-38987813D01*
X39010352Y-39614763D01*
X38753302Y-40196921D01*
X38400456Y-40774242D01*
X37972394Y-41343830D01*
X37752853Y-41634419D01*
X37574788Y-41903354D01*
X37467817Y-42104746D01*
X37453261Y-42148163D01*
X37379837Y-42370001D01*
X37264554Y-42641170D01*
X37229167Y-42714334D01*
X37119337Y-42872341D01*
X36904967Y-43128305D01*
X36604366Y-43463640D01*
X36235841Y-43859757D01*
X35817700Y-44298070D01*
X35368250Y-44759993D01*
X34905800Y-45226938D01*
X34448657Y-45680318D01*
X34015127Y-46101547D01*
X33623520Y-46472037D01*
X33292143Y-46773202D01*
X33039304Y-46986455D01*
X32968646Y-47039842D01*
X32269453Y-47476236D01*
X31551938Y-47803149D01*
X30861457Y-48000159D01*
X30818666Y-48007969D01*
X30460272Y-48075096D01*
X30024142Y-48162685D01*
X29597542Y-48253150D01*
X29548666Y-48263910D01*
X29181334Y-48331699D01*
X28705011Y-48400309D01*
X28179823Y-48461965D01*
X27665893Y-48508889D01*
X27638877Y-48510908D01*
X27125664Y-48547867D01*
X26742371Y-48571630D01*
X26450106Y-48582299D01*
X26209980Y-48579974D01*
X25983099Y-48564756D01*
X25730575Y-48536746D01*
X25569333Y-48516269D01*
X25230841Y-48454579D01*
X24902352Y-48350781D01*
X24552416Y-48189506D01*
X24149583Y-47955389D01*
X23662404Y-47633061D01*
X23428980Y-47470435D01*
X22601211Y-46867711D01*
X21780387Y-46232527D01*
X20986817Y-45582867D01*
X20240806Y-44936717D01*
X19562663Y-44312059D01*
X18972693Y-43726878D01*
X18491204Y-43199158D01*
X18212676Y-42850786D01*
X17741959Y-42145804D01*
X17387933Y-41450676D01*
X17130864Y-40715243D01*
X16951016Y-39889345D01*
X16892801Y-39496131D01*
X16822232Y-39023923D01*
X16745979Y-38695778D01*
X16649622Y-38486648D01*
X16518744Y-38371490D01*
X16338925Y-38325257D01*
X16215788Y-38320134D01*
X16045753Y-38300549D01*
X15877604Y-38226237D01*
X15673363Y-38073857D01*
X15491674Y-37908176D01*
X15786178Y-37908176D01*
X15824477Y-37963133D01*
X15964682Y-38046662D01*
X16196171Y-38112946D01*
X16269679Y-38124964D01*
X16516186Y-38174749D01*
X16696695Y-38265538D01*
X16827293Y-38424107D01*
X16924067Y-38677231D01*
X17003105Y-39051687D01*
X17062761Y-39444998D01*
X17154753Y-40036108D01*
X17255821Y-40513487D01*
X17382323Y-40932579D01*
X17550623Y-41348830D01*
X17743043Y-41750347D01*
X18125603Y-42394575D01*
X18647477Y-43079783D01*
X19312807Y-43810345D01*
X20125736Y-44590638D01*
X21090405Y-45425037D01*
X21657477Y-45885022D01*
X22430123Y-46492434D01*
X23091730Y-46995548D01*
X23656956Y-47403529D01*
X24140460Y-47725542D01*
X24556899Y-47970754D01*
X24920932Y-48148329D01*
X25247216Y-48267434D01*
X25550411Y-48337233D01*
X25588628Y-48343124D01*
X25854093Y-48379940D01*
X26079340Y-48403409D01*
X26301952Y-48413458D01*
X26559512Y-48410016D01*
X26889604Y-48393011D01*
X27329812Y-48362371D01*
X27638877Y-48339196D01*
X28097766Y-48300178D01*
X28520441Y-48256488D01*
X28865901Y-48212897D01*
X29093142Y-48174178D01*
X29125333Y-48166197D01*
X29332595Y-48117170D01*
X29656849Y-48050597D01*
X30048007Y-47976451D01*
X30335710Y-47925226D01*
X31233632Y-47711281D01*
X32035492Y-47388434D01*
X32789840Y-46935884D01*
X32996086Y-46785418D01*
X33218246Y-46600022D01*
X33525685Y-46318972D01*
X33899216Y-45961998D01*
X34319647Y-45548830D01*
X34767790Y-45099201D01*
X35224456Y-44632840D01*
X35670454Y-44169479D01*
X36086596Y-43728849D01*
X36453691Y-43330680D01*
X36752550Y-42994704D01*
X36963985Y-42740652D01*
X37057336Y-42609577D01*
X37174018Y-42380638D01*
X37233526Y-42202110D01*
X37234076Y-42148563D01*
X37179128Y-42161298D01*
X37068585Y-42294173D01*
X36933069Y-42507320D01*
X36792404Y-42709440D01*
X36555168Y-43005268D01*
X36244122Y-43368368D01*
X35882024Y-43772304D01*
X35491632Y-44190640D01*
X35414574Y-44271197D01*
X34163000Y-45574061D01*
X34156312Y-44017197D01*
X34148053Y-43449081D01*
X34129486Y-42872782D01*
X34102860Y-42336432D01*
X34070426Y-41888165D01*
X34045916Y-41656000D01*
X34003723Y-41278075D01*
X33958165Y-40785407D01*
X33913795Y-40232403D01*
X33875165Y-39673468D01*
X33862686Y-39466431D01*
X33820312Y-38821323D01*
X33772064Y-38319045D01*
X33711326Y-37933093D01*
X33631481Y-37636965D01*
X33525914Y-37404160D01*
X33388010Y-37208173D01*
X33265975Y-37075976D01*
X33118571Y-36941260D01*
X32959867Y-36830068D01*
X32774870Y-36741584D01*
X32548591Y-36674995D01*
X32266040Y-36629485D01*
X31912226Y-36604238D01*
X31472159Y-36598441D01*
X30930850Y-36611278D01*
X30273306Y-36641934D01*
X29484539Y-36689594D01*
X28549559Y-36753444D01*
X28024666Y-36791032D01*
X27151794Y-36860485D01*
X26428788Y-36933971D01*
X25836182Y-37016284D01*
X25354510Y-37112218D01*
X24964306Y-37226567D01*
X24646106Y-37364123D01*
X24380442Y-37529680D01*
X24147849Y-37728032D01*
X24123903Y-37751605D01*
X23866413Y-37989746D01*
X23605462Y-38202027D01*
X23444082Y-38313176D01*
X23211334Y-38511709D01*
X23071666Y-38743901D01*
X23047794Y-38913373D01*
X23033950Y-39225646D01*
X23029473Y-39654528D01*
X23033704Y-40173824D01*
X23045983Y-40757341D01*
X23065649Y-41378884D01*
X23092042Y-42012260D01*
X23124503Y-42631276D01*
X23162371Y-43209736D01*
X23194113Y-43603334D01*
X23243588Y-44050651D01*
X23319160Y-44601790D01*
X23411592Y-45194964D01*
X23511652Y-45768389D01*
X23540405Y-45920245D01*
X23625885Y-46374568D01*
X23695340Y-46767386D01*
X23744078Y-47070142D01*
X23767407Y-47254275D01*
X23766598Y-47296957D01*
X23694702Y-47255145D01*
X23511115Y-47119681D01*
X23234414Y-46905100D01*
X22883177Y-46625933D01*
X22475981Y-46296714D01*
X22211930Y-46080712D01*
X21725694Y-45682223D01*
X21234358Y-45281282D01*
X20769452Y-44903494D01*
X20362505Y-44574461D01*
X20045047Y-44319788D01*
X19970958Y-44260909D01*
X19227457Y-43591765D01*
X18572603Y-42841177D01*
X18031984Y-42042702D01*
X17631188Y-41229900D01*
X17601293Y-41153101D01*
X17470357Y-40732903D01*
X17341771Y-40182947D01*
X17221913Y-39542758D01*
X17117165Y-38851863D01*
X17033903Y-38149788D01*
X16978508Y-37476060D01*
X16965084Y-37211000D01*
X16941526Y-36709439D01*
X16912235Y-36334236D01*
X16870324Y-36042418D01*
X16808910Y-35791013D01*
X16721107Y-35537049D01*
X16680221Y-35433000D01*
X16489432Y-34893372D01*
X16332400Y-34298910D01*
X16201960Y-33615766D01*
X16090946Y-32810092D01*
X16052883Y-32469667D01*
X15936164Y-31369000D01*
X15928425Y-32258000D01*
X15945032Y-33060297D01*
X16014227Y-33738431D01*
X16142163Y-34331081D01*
X16334994Y-34876926D01*
X16351002Y-34914200D01*
X16464600Y-35193513D01*
X16544535Y-35448226D01*
X16599712Y-35724951D01*
X16639034Y-36070298D01*
X16671405Y-36530880D01*
X16676531Y-36618334D01*
X16702855Y-37041878D01*
X16729324Y-37410496D01*
X16753074Y-37687803D01*
X16771243Y-37837415D01*
X16773152Y-37846000D01*
X16727770Y-37941140D01*
X16563328Y-37995748D01*
X16326418Y-38004400D01*
X16063634Y-37961674D01*
X15985660Y-37937658D01*
X15820384Y-37887956D01*
X15786178Y-37908176D01*
X15491674Y-37908176D01*
X15395053Y-37820069D01*
X15382285Y-37807900D01*
X14845413Y-37295667D01*
X14817621Y-37211000D01*
X15070666Y-37211000D01*
X15113000Y-37253334D01*
X15155333Y-37211000D01*
X15113000Y-37168667D01*
X15070666Y-37211000D01*
X14817621Y-37211000D01*
X14403285Y-35948746D01*
X14216874Y-35362427D01*
X14016453Y-34701381D01*
X13823473Y-34038171D01*
X13659389Y-33445359D01*
X13627333Y-33324079D01*
X13496204Y-32810727D01*
X13404574Y-32410221D01*
X13345446Y-32072584D01*
X13311821Y-31747840D01*
X13296701Y-31386009D01*
X13293088Y-30937134D01*
X13294159Y-30861774D01*
X13462000Y-30861774D01*
X13467308Y-31378004D01*
X13488235Y-31787416D01*
X13532278Y-32152331D01*
X13606938Y-32535073D01*
X13718469Y-32993112D01*
X13854818Y-33505440D01*
X14009602Y-34054402D01*
X14175534Y-34617445D01*
X14345328Y-35172019D01*
X14511697Y-35695573D01*
X14667354Y-36165555D01*
X14805011Y-36559414D01*
X14917383Y-36854598D01*
X14997182Y-37028557D01*
X15033963Y-37064259D01*
X15019722Y-36977653D01*
X14961828Y-36754028D01*
X14867238Y-36417961D01*
X14742910Y-35994026D01*
X14595804Y-35506799D01*
X14558828Y-35386251D01*
X14380568Y-34796245D01*
X14199093Y-34177030D01*
X14028492Y-33577979D01*
X13882856Y-33048468D01*
X13788255Y-32686095D01*
X13675477Y-32219816D01*
X13602723Y-31859839D01*
X13563692Y-31549592D01*
X13552085Y-31232504D01*
X13558383Y-30980673D01*
X13681084Y-30980673D01*
X13683655Y-31378303D01*
X13698890Y-31704567D01*
X13734085Y-32006098D01*
X13796534Y-32329524D01*
X13893533Y-32721477D01*
X14032377Y-33228587D01*
X14033238Y-33231667D01*
X14336440Y-34297506D01*
X14605209Y-35202208D01*
X14841025Y-35950116D01*
X15045367Y-36545575D01*
X15219714Y-36992929D01*
X15365546Y-37296521D01*
X15467744Y-37444316D01*
X15807786Y-37718191D01*
X16193274Y-37888787D01*
X16474369Y-37930667D01*
X16617094Y-37918632D01*
X16666116Y-37850385D01*
X16645413Y-37677714D01*
X16632275Y-37613167D01*
X16602087Y-37388939D01*
X16575913Y-37051537D01*
X16557601Y-36657119D01*
X16552478Y-36449000D01*
X16539304Y-36027215D01*
X16508314Y-35713995D01*
X16447880Y-35448684D01*
X16346372Y-35170626D01*
X16275855Y-35006214D01*
X16129616Y-34637889D01*
X16016854Y-34258852D01*
X15932138Y-33836325D01*
X15870037Y-33337527D01*
X15825119Y-32729680D01*
X15796863Y-32115333D01*
X15779028Y-31675860D01*
X15761088Y-31293768D01*
X15751090Y-31115000D01*
X15849172Y-31115000D01*
X15858323Y-31259596D01*
X15884828Y-31272327D01*
X15888202Y-31264778D01*
X15904951Y-31096699D01*
X15891339Y-31010778D01*
X15864389Y-30976251D01*
X15849730Y-31088708D01*
X15849172Y-31115000D01*
X15751090Y-31115000D01*
X15744802Y-31002584D01*
X15731924Y-30835835D01*
X15728666Y-30813583D01*
X15771272Y-30696338D01*
X15806762Y-30675607D01*
X15881759Y-30702487D01*
X15950200Y-30848914D01*
X16014458Y-31126224D01*
X16076911Y-31545753D01*
X16139934Y-32118836D01*
X16165053Y-32385000D01*
X16254182Y-33215596D01*
X16360909Y-33912745D01*
X16492608Y-34512025D01*
X16656652Y-35049011D01*
X16787916Y-35390667D01*
X16898234Y-35668350D01*
X16973467Y-35904160D01*
X17020974Y-36143748D01*
X17048116Y-36432761D01*
X17062254Y-36816852D01*
X17067769Y-37126334D01*
X17096651Y-37746802D01*
X17161807Y-38432210D01*
X17256287Y-39138671D01*
X17373140Y-39822293D01*
X17505418Y-40439187D01*
X17646171Y-40945464D01*
X17694405Y-41083753D01*
X17936643Y-41618713D01*
X18275951Y-42209622D01*
X18680247Y-42802918D01*
X18879572Y-43062339D01*
X19053275Y-43250106D01*
X19336250Y-43521374D01*
X19704715Y-43854906D01*
X20134886Y-44229465D01*
X20602981Y-44623813D01*
X20911572Y-44876849D01*
X21398397Y-45271847D01*
X21871706Y-45656360D01*
X22305942Y-46009589D01*
X22675546Y-46310734D01*
X22954961Y-46538995D01*
X23071666Y-46634767D01*
X23312861Y-46823114D01*
X23499202Y-46949297D01*
X23598097Y-46991818D01*
X23605364Y-46986793D01*
X23599487Y-46883327D01*
X23565280Y-46646830D01*
X23508076Y-46310228D01*
X23433209Y-45906444D01*
X23415589Y-45815406D01*
X23312123Y-45261446D01*
X23227123Y-44745231D01*
X23157547Y-44235698D01*
X23100354Y-43701784D01*
X23052504Y-43112426D01*
X23010953Y-42436561D01*
X22972662Y-41643126D01*
X22947466Y-41034083D01*
X22920840Y-40305796D01*
X22906876Y-39726734D01*
X22908648Y-39277059D01*
X22929224Y-38936935D01*
X22971678Y-38686524D01*
X23039080Y-38505988D01*
X23134501Y-38375492D01*
X23261013Y-38275198D01*
X23385647Y-38203915D01*
X23602280Y-38058328D01*
X23858542Y-37841959D01*
X24013698Y-37689914D01*
X24234842Y-37493923D01*
X24510024Y-37321723D01*
X24851324Y-37171235D01*
X25270822Y-37040376D01*
X25780600Y-36927065D01*
X26392737Y-36829222D01*
X27119314Y-36744765D01*
X27972412Y-36671613D01*
X28964111Y-36607685D01*
X30106492Y-36550900D01*
X30790506Y-36522464D01*
X31456964Y-36502696D01*
X31981068Y-36505189D01*
X32388896Y-36534754D01*
X32706525Y-36596200D01*
X32960033Y-36694338D01*
X33175498Y-36833979D01*
X33354814Y-36995481D01*
X33523883Y-37188717D01*
X33655118Y-37405705D01*
X33755351Y-37673158D01*
X33831413Y-38017786D01*
X33890135Y-38466302D01*
X33938347Y-39045417D01*
X33958438Y-39355799D01*
X33998192Y-39941870D01*
X34048803Y-40590835D01*
X34104127Y-41228576D01*
X34158018Y-41780974D01*
X34164619Y-41842843D01*
X34215687Y-42408780D01*
X34257557Y-43049000D01*
X34285373Y-43677901D01*
X34294303Y-44128843D01*
X34298607Y-45254334D01*
X35441546Y-44069000D01*
X36011481Y-43459026D01*
X36464121Y-42933574D01*
X36793169Y-42500183D01*
X36926623Y-42291000D01*
X37117685Y-41973451D01*
X37130981Y-41952334D01*
X37253333Y-41952334D01*
X37295666Y-41994667D01*
X37338000Y-41952334D01*
X37295666Y-41910000D01*
X37253333Y-41952334D01*
X37130981Y-41952334D01*
X37369719Y-41573187D01*
X37564052Y-41273944D01*
X37734576Y-41273944D01*
X37761056Y-41278654D01*
X37765276Y-41275000D01*
X37904159Y-41121993D01*
X38093854Y-40874882D01*
X38296249Y-40583672D01*
X38321348Y-40545425D01*
X38536741Y-40170932D01*
X38749792Y-39728969D01*
X38913440Y-39317758D01*
X39004609Y-39030294D01*
X39070326Y-38761933D01*
X39116128Y-38471568D01*
X39147553Y-38118094D01*
X39170139Y-37660405D01*
X39181450Y-37328443D01*
X39222325Y-36006553D01*
X39584317Y-35830684D01*
X39984199Y-35557603D01*
X40273029Y-35195760D01*
X40424455Y-34780292D01*
X40435793Y-34695336D01*
X40450137Y-34494461D01*
X40437623Y-34450675D01*
X40398664Y-34544548D01*
X40169705Y-35047548D01*
X39853780Y-35430675D01*
X39684462Y-35568174D01*
X39327666Y-35827009D01*
X39274805Y-34614005D01*
X39254193Y-34085198D01*
X39233360Y-33453665D01*
X39214293Y-32785997D01*
X39198979Y-32148788D01*
X39194387Y-31919334D01*
X39188173Y-31711757D01*
X39180529Y-31664239D01*
X39171731Y-31767513D01*
X39162056Y-32012314D01*
X39151782Y-32389374D01*
X39141184Y-32889428D01*
X39130540Y-33503210D01*
X39120127Y-34221454D01*
X39115988Y-34544000D01*
X39103451Y-35549381D01*
X39090910Y-36402383D01*
X39075588Y-37119937D01*
X39054706Y-37718975D01*
X39025486Y-38216428D01*
X38985151Y-38629227D01*
X38930922Y-38974305D01*
X38860022Y-39268592D01*
X38769673Y-39529019D01*
X38657097Y-39772520D01*
X38519516Y-40016023D01*
X38354152Y-40276462D01*
X38158227Y-40570768D01*
X38117103Y-40632232D01*
X37923670Y-40930507D01*
X37792471Y-41151153D01*
X37734576Y-41273944D01*
X37564052Y-41273944D01*
X37646874Y-41146413D01*
X37862158Y-40824317D01*
X38217109Y-40284380D01*
X38480801Y-39829620D01*
X38669151Y-39414116D01*
X38798074Y-38991944D01*
X38883488Y-38517183D01*
X38941310Y-37943911D01*
X38961939Y-37651284D01*
X38979482Y-37278392D01*
X38993921Y-36763984D01*
X39004974Y-36135857D01*
X39012359Y-35421803D01*
X39015793Y-34649619D01*
X39014995Y-33847099D01*
X39009681Y-33042038D01*
X39009216Y-32994618D01*
X38999019Y-32090505D01*
X38987574Y-31336717D01*
X38974048Y-30714243D01*
X38957609Y-30204076D01*
X38937424Y-29787207D01*
X38912661Y-29444626D01*
X38882488Y-29157326D01*
X38846072Y-28906296D01*
X38824931Y-28786667D01*
X38715581Y-28289683D01*
X38601295Y-27959821D01*
X38476927Y-27794869D01*
X38337333Y-27792617D01*
X38177367Y-27950852D01*
X37991884Y-28267363D01*
X37926805Y-28400647D01*
X37711912Y-28790811D01*
X37461065Y-29096776D01*
X37136748Y-29351479D01*
X36701442Y-29587854D01*
X36441197Y-29704845D01*
X35704484Y-29984170D01*
X34937978Y-30195951D01*
X34110881Y-30345304D01*
X33192395Y-30437346D01*
X32151724Y-30477194D01*
X31776678Y-30479762D01*
X31307595Y-30474005D01*
X30881736Y-30458006D01*
X30535822Y-30433934D01*
X30306572Y-30403960D01*
X30252678Y-30389673D01*
X30101761Y-30296754D01*
X29864474Y-30109425D01*
X29572735Y-29854439D01*
X29258464Y-29558552D01*
X29242571Y-29543007D01*
X28937579Y-29254956D01*
X28662909Y-29015384D01*
X28446965Y-28847734D01*
X28318151Y-28775446D01*
X28311238Y-28774371D01*
X28167033Y-28767931D01*
X27893101Y-28759535D01*
X27529017Y-28750280D01*
X27122729Y-28741430D01*
X26093792Y-28720785D01*
X25778498Y-29621559D01*
X25618051Y-30069865D01*
X25495552Y-30380756D01*
X25397940Y-30578284D01*
X25312155Y-30686503D01*
X25225134Y-30729464D01*
X25174435Y-30734000D01*
X25041397Y-30768163D01*
X24806455Y-30857871D01*
X24519667Y-30983956D01*
X24510320Y-30988318D01*
X24192208Y-31130867D01*
X23895862Y-31245614D01*
X23597049Y-31335997D01*
X23271532Y-31405452D01*
X22895076Y-31457416D01*
X22443447Y-31495325D01*
X21892407Y-31522617D01*
X21217723Y-31542727D01*
X20497935Y-31557294D01*
X19620464Y-31568993D01*
X18911355Y-31569961D01*
X18369976Y-31560186D01*
X17995695Y-31539656D01*
X17787882Y-31508361D01*
X17786437Y-31507932D01*
X17543341Y-31381571D01*
X17216293Y-31121476D01*
X16800733Y-30723995D01*
X16771183Y-30693961D01*
X16419776Y-30348486D01*
X16157437Y-30121993D01*
X15967382Y-30001290D01*
X15852671Y-29972000D01*
X15680684Y-29937916D01*
X15406510Y-29847168D01*
X15080311Y-29717010D01*
X14969179Y-29668072D01*
X14559831Y-29501496D01*
X14245890Y-29426412D01*
X14015200Y-29455209D01*
X13855604Y-29600273D01*
X13754947Y-29873992D01*
X13701072Y-30288753D01*
X13681823Y-30856944D01*
X13681084Y-30980673D01*
X13558383Y-30980673D01*
X13561602Y-30852003D01*
X13568038Y-30708511D01*
X13613662Y-30141094D01*
X13698450Y-29730454D01*
X13836613Y-29465886D01*
X14042363Y-29336681D01*
X14329909Y-29332133D01*
X14713465Y-29441536D01*
X15058553Y-29585531D01*
X15387647Y-29724179D01*
X15678959Y-29829244D01*
X15883186Y-29883509D01*
X15922727Y-29887334D01*
X16083473Y-29949187D01*
X16338676Y-30136824D01*
X16692320Y-30453359D01*
X16887964Y-30641944D01*
X17242741Y-30980696D01*
X17511810Y-31212865D01*
X17721962Y-31358423D01*
X17899994Y-31437345D01*
X17981917Y-31457424D01*
X18153705Y-31472180D01*
X18468060Y-31481982D01*
X18898283Y-31486687D01*
X19417674Y-31486155D01*
X19999536Y-31480241D01*
X20519690Y-31470954D01*
X21329721Y-31450167D01*
X21995302Y-31423512D01*
X22541304Y-31387406D01*
X22992594Y-31338263D01*
X23374042Y-31272501D01*
X23710516Y-31186534D01*
X24026885Y-31076780D01*
X24348019Y-30939654D01*
X24412074Y-30910000D01*
X24702926Y-30781380D01*
X24943560Y-30688251D01*
X25084824Y-30649519D01*
X25089769Y-30649334D01*
X25182284Y-30631230D01*
X25266762Y-30560942D01*
X25356177Y-30414501D01*
X25463507Y-30167941D01*
X25601727Y-29797293D01*
X25697143Y-29527500D01*
X26015750Y-28617334D01*
X27099363Y-28617334D01*
X27533232Y-28624180D01*
X27925037Y-28642849D01*
X28233118Y-28670534D01*
X28415815Y-28704428D01*
X28421321Y-28706388D01*
X28575012Y-28800201D01*
X28812689Y-28987844D01*
X29100774Y-29241279D01*
X29379333Y-29506334D01*
X29684116Y-29795348D01*
X29969148Y-30044171D01*
X30200850Y-30224762D01*
X30337345Y-30306279D01*
X30543739Y-30347343D01*
X30885279Y-30375182D01*
X31328296Y-30389797D01*
X31839119Y-30391184D01*
X32384078Y-30379343D01*
X32929503Y-30354272D01*
X33441725Y-30315970D01*
X33540195Y-30306421D01*
X34590166Y-30155218D01*
X35540261Y-29919444D01*
X36436619Y-29589057D01*
X36947677Y-29338623D01*
X37327520Y-29070760D01*
X37613447Y-28751398D01*
X37842758Y-28346470D01*
X37875004Y-28275278D01*
X38046583Y-27922788D01*
X38193949Y-27717162D01*
X38337581Y-27641932D01*
X38497957Y-27680633D01*
X38565242Y-27720270D01*
X38718250Y-27851577D01*
X38780360Y-27963119D01*
X38795876Y-28085540D01*
X38835434Y-28334873D01*
X38892549Y-28671471D01*
X38942766Y-28956000D01*
X39102145Y-29845000D01*
X39106307Y-29423680D01*
X39212422Y-29423680D01*
X39231172Y-29685916D01*
X39245258Y-29894439D01*
X39261399Y-30246884D01*
X39278759Y-30717863D01*
X39296505Y-31281989D01*
X39313802Y-31913875D01*
X39329817Y-32588134D01*
X39335837Y-32871834D01*
X39353240Y-33651621D01*
X39370735Y-34276058D01*
X39389170Y-34759126D01*
X39409390Y-35114806D01*
X39432242Y-35357080D01*
X39458575Y-35499929D01*
X39489233Y-35557334D01*
X39498648Y-35560000D01*
X39614281Y-35500737D01*
X39785001Y-35350395D01*
X39874900Y-35254261D01*
X40055248Y-35024213D01*
X40191835Y-34806662D01*
X40222338Y-34740749D01*
X40288351Y-34417732D01*
X40292823Y-34011450D01*
X40238439Y-33595322D01*
X40171519Y-33350692D01*
X40094588Y-33088725D01*
X40008668Y-32728940D01*
X39930115Y-32340945D01*
X39916881Y-32266965D01*
X39854750Y-31936988D01*
X39796820Y-31674964D01*
X39752669Y-31522683D01*
X39741639Y-31502418D01*
X39722381Y-31557834D01*
X39713465Y-31747296D01*
X39715938Y-32035773D01*
X39721110Y-32190181D01*
X39731407Y-32551863D01*
X39723401Y-32777921D01*
X39692385Y-32901521D01*
X39633651Y-32955825D01*
X39611384Y-32963186D01*
X39536181Y-32962116D01*
X39477996Y-32903034D01*
X39434768Y-32768305D01*
X39404435Y-32540292D01*
X39384937Y-32201362D01*
X39374213Y-31733878D01*
X39370202Y-31120205D01*
X39370000Y-30897747D01*
X39365249Y-30246170D01*
X39350858Y-29760021D01*
X39326619Y-29435657D01*
X39292324Y-29269433D01*
X39275753Y-29246413D01*
X39225149Y-29266534D01*
X39212422Y-29423680D01*
X39106307Y-29423680D01*
X39109072Y-29143781D01*
X39091927Y-28652054D01*
X39071454Y-28521244D01*
X39305118Y-28521244D01*
X39320411Y-28715555D01*
X39321930Y-28723167D01*
X39344165Y-28896142D01*
X39371134Y-29204805D01*
X39400415Y-29615661D01*
X39429585Y-30095214D01*
X39452022Y-30522334D01*
X39486685Y-31227740D01*
X39514455Y-31769744D01*
X39536366Y-32154087D01*
X39553456Y-32386515D01*
X39566757Y-32472770D01*
X39577307Y-32418598D01*
X39586140Y-32229742D01*
X39594292Y-31911945D01*
X39602797Y-31470953D01*
X39604622Y-31369000D01*
X39608197Y-30798465D01*
X39599944Y-30236496D01*
X39581284Y-29728108D01*
X39578022Y-29679747D01*
X39895419Y-29679747D01*
X39901153Y-30298154D01*
X39912171Y-30864875D01*
X39927728Y-31348895D01*
X39947080Y-31719202D01*
X39964627Y-31911449D01*
X40015398Y-32237434D01*
X40083430Y-32587847D01*
X40159739Y-32926186D01*
X40235342Y-33215944D01*
X40301255Y-33420618D01*
X40348497Y-33503703D01*
X40355936Y-33501620D01*
X40353733Y-33411288D01*
X40324983Y-33187875D01*
X40274527Y-32864699D01*
X40207206Y-32475078D01*
X40204875Y-32462146D01*
X40142891Y-32081947D01*
X40092815Y-31682470D01*
X40052586Y-31234988D01*
X40020142Y-30710775D01*
X39993423Y-30081103D01*
X39970368Y-29317247D01*
X39965509Y-29125334D01*
X39908199Y-26797000D01*
X39895713Y-29040667D01*
X39895419Y-29679747D01*
X39578022Y-29679747D01*
X39553638Y-29318315D01*
X39534459Y-29146500D01*
X39480518Y-28827442D01*
X39421411Y-28584876D01*
X39367372Y-28457899D01*
X39351645Y-28448000D01*
X39305118Y-28521244D01*
X39071454Y-28521244D01*
X39032675Y-28273485D01*
X38989000Y-28138608D01*
X38903569Y-27875525D01*
X38862615Y-27634172D01*
X38862000Y-27610648D01*
X38946666Y-27610648D01*
X38987275Y-27844843D01*
X39088631Y-28085359D01*
X39220034Y-28276517D01*
X39350779Y-28362637D01*
X39361713Y-28363334D01*
X39435906Y-28370741D01*
X39490114Y-28412495D01*
X39534202Y-28517890D01*
X39578035Y-28716223D01*
X39631475Y-29036789D01*
X39668181Y-29273500D01*
X39709156Y-29492599D01*
X39747055Y-29620121D01*
X39758442Y-29633334D01*
X39770053Y-29553319D01*
X39780029Y-29331878D01*
X39787670Y-28996917D01*
X39792281Y-28576339D01*
X39793333Y-28236334D01*
X39793333Y-26839334D01*
X39584718Y-26839334D01*
X39409136Y-26909493D01*
X39216465Y-27084634D01*
X39050554Y-27311749D01*
X38955252Y-27537830D01*
X38946666Y-27610648D01*
X38862000Y-27610648D01*
X38922290Y-27344776D01*
X39075694Y-27073711D01*
X39281010Y-26852628D01*
X39497033Y-26736702D01*
X39517343Y-26733058D01*
X39646390Y-26709280D01*
X39637097Y-26684807D01*
X39476667Y-26647725D01*
X39412333Y-26635257D01*
X39073666Y-26570471D01*
X39072372Y-24778735D01*
X39064208Y-23965059D01*
X39035512Y-23281159D01*
X38978052Y-22687926D01*
X38883593Y-22146252D01*
X38743900Y-21617025D01*
X38550741Y-21061138D01*
X38295880Y-20439481D01*
X38035587Y-19854334D01*
X37808656Y-19351075D01*
X37556852Y-18786183D01*
X37314899Y-18237845D01*
X37159773Y-17882153D01*
X36966272Y-17454665D01*
X36760635Y-17032447D01*
X36569748Y-16669110D01*
X36442166Y-16451274D01*
X36276021Y-16230134D01*
X36005650Y-15915429D01*
X35651787Y-15527865D01*
X35235171Y-15088147D01*
X34776537Y-14616983D01*
X34296622Y-14135077D01*
X33816162Y-13663136D01*
X33355893Y-13221867D01*
X32936552Y-12831974D01*
X32578875Y-12514166D01*
X32303599Y-12289146D01*
X32201252Y-12216549D01*
X31941069Y-12057326D01*
X31674381Y-11916526D01*
X31372538Y-11782952D01*
X31006892Y-11645408D01*
X30548793Y-11492699D01*
X29969591Y-11313627D01*
X29633333Y-11212996D01*
X29040082Y-11050029D01*
X28506749Y-10937950D01*
X27986669Y-10872639D01*
X27433172Y-10849978D01*
X26799591Y-10865850D01*
X26162000Y-10906653D01*
X25618548Y-10956403D01*
X25140629Y-11023623D01*
X24690544Y-11118884D01*
X24230594Y-11252753D01*
X23723080Y-11435800D01*
X23130305Y-11678594D01*
X22625485Y-11898129D01*
X22185291Y-12098046D01*
X21819566Y-12280876D01*
X21487664Y-12471805D01*
X21148939Y-12696023D01*
X20762747Y-12978717D01*
X20288442Y-13345077D01*
X20280245Y-13351499D01*
X19538243Y-13959686D01*
X18930864Y-14515331D01*
X18469848Y-15007147D01*
X18133963Y-15385417D01*
X17743139Y-15795005D01*
X17363885Y-16167065D01*
X17232447Y-16288052D01*
X16654256Y-16850445D01*
X16206852Y-17379658D01*
X15900227Y-17863069D01*
X15795779Y-18103232D01*
X15658205Y-18401169D01*
X15470580Y-18704023D01*
X15416766Y-18775353D01*
X15185803Y-19089114D01*
X15015830Y-19392844D01*
X14896879Y-19722642D01*
X14818980Y-20114608D01*
X14772164Y-20604841D01*
X14747254Y-21199781D01*
X14740670Y-21645316D01*
X14741505Y-22190094D01*
X14748940Y-22811640D01*
X14762161Y-23487481D01*
X14780350Y-24195142D01*
X14802690Y-24912151D01*
X14828364Y-25616032D01*
X14856557Y-26284312D01*
X14886451Y-26894516D01*
X14917229Y-27424172D01*
X14948076Y-27850805D01*
X14978173Y-28151941D01*
X15005324Y-28301295D01*
X15116666Y-28560769D01*
X15265828Y-28837138D01*
X15286988Y-28871334D01*
X15394270Y-29078092D01*
X15484930Y-29315106D01*
X15544557Y-29532769D01*
X15558742Y-29681476D01*
X15532934Y-29718000D01*
X15442978Y-29679579D01*
X15250976Y-29579706D01*
X15041371Y-29464000D01*
X14581318Y-29258784D01*
X14193718Y-29204758D01*
X13874729Y-29301940D01*
X13681192Y-29470496D01*
X13592490Y-29583476D01*
X13531642Y-29696499D01*
X13493411Y-29842828D01*
X13472554Y-30055723D01*
X13463832Y-30368448D01*
X13462005Y-30814263D01*
X13462000Y-30861774D01*
X13294159Y-30861774D01*
X13301285Y-30360452D01*
X13330034Y-29927227D01*
X13384820Y-29612254D01*
X13471130Y-29390328D01*
X13594450Y-29236246D01*
X13677022Y-29173253D01*
X13964333Y-29068511D01*
X14333482Y-29047967D01*
X14720482Y-29109745D01*
X14989372Y-29211721D01*
X15189416Y-29304762D01*
X15309344Y-29343143D01*
X15324666Y-29337438D01*
X15286139Y-29245689D01*
X15185652Y-29051252D01*
X15060006Y-28823149D01*
X14946891Y-28609310D01*
X14866921Y-28410463D01*
X14810845Y-28184841D01*
X14769411Y-27890679D01*
X14733369Y-27486210D01*
X14718036Y-27279265D01*
X14699477Y-26940023D01*
X14681503Y-26459310D01*
X14664737Y-25864986D01*
X14649803Y-25184914D01*
X14637326Y-24446955D01*
X14627929Y-23678972D01*
X14622863Y-23029334D01*
X14618505Y-22211968D01*
X14616122Y-21545855D01*
X14616581Y-21012919D01*
X14620745Y-20595084D01*
X14629481Y-20274272D01*
X14643654Y-20032407D01*
X14664127Y-19851413D01*
X14691767Y-19713213D01*
X14727439Y-19599730D01*
X14772007Y-19492889D01*
X14794454Y-19443768D01*
X14962408Y-19124147D01*
X15172095Y-18782176D01*
X15270572Y-18639435D01*
X15442588Y-18381901D01*
X15575428Y-18144897D01*
X15622057Y-18034000D01*
X15798607Y-17652210D01*
X16110118Y-17202950D01*
X16544235Y-16702251D01*
X16993293Y-16254872D01*
X17363167Y-15894836D01*
X17754560Y-15494151D01*
X18112930Y-15109557D01*
X18316757Y-14878152D01*
X18736531Y-14429874D01*
X19285374Y-13922430D01*
X19969932Y-13350064D01*
X20796849Y-12707021D01*
X20997333Y-12556393D01*
X21277101Y-12376502D01*
X21679353Y-12156342D01*
X22167219Y-11912911D01*
X22703824Y-11663205D01*
X23252299Y-11424221D01*
X23775770Y-11212955D01*
X24237365Y-11046403D01*
X24354643Y-11008815D01*
X24752384Y-10913849D01*
X25280442Y-10829056D01*
X25899913Y-10758438D01*
X26571891Y-10705999D01*
X27257473Y-10675740D01*
X27648873Y-10669921D01*
X27955648Y-10678108D01*
X27955648Y-10678108D01*
G37*
X27955648Y-10678108D02*
X28260516Y-10709284D01*
X28602077Y-10770666D01*
X29018930Y-10869471D01*
X29549672Y-11012917D01*
X29680873Y-11049858D01*
X30351016Y-11243370D01*
X30884869Y-11408198D01*
X31310718Y-11555524D01*
X31656847Y-11696533D01*
X31951540Y-11842406D01*
X32223082Y-12004326D01*
X32406170Y-12127376D01*
X32649292Y-12318056D01*
X32983186Y-12610300D01*
X33386382Y-12982585D01*
X33837411Y-13413390D01*
X34314806Y-13881192D01*
X34797097Y-14364471D01*
X35262816Y-14841703D01*
X35690494Y-15291368D01*
X36058662Y-15691944D01*
X36345852Y-16021908D01*
X36530595Y-16259738D01*
X36535446Y-16266876D01*
X36734115Y-16593304D01*
X36958964Y-17012385D01*
X37175828Y-17458555D01*
X37285462Y-17706209D01*
X37466691Y-18127487D01*
X37691702Y-18639936D01*
X37932879Y-19181182D01*
X38162611Y-19688850D01*
X38180212Y-19727334D01*
X38585008Y-20677462D01*
X38887640Y-21554132D01*
X39097487Y-22404594D01*
X39223926Y-23276100D01*
X39276335Y-24215901D01*
X39266565Y-25201231D01*
X39225686Y-26405343D01*
X39544303Y-26459173D01*
X39704340Y-26488649D01*
X39831281Y-26529196D01*
X39929342Y-26599205D01*
X40002736Y-26717068D01*
X40055678Y-26901176D01*
X40092383Y-27169922D01*
X40117065Y-27541696D01*
X40133938Y-28034890D01*
X40147218Y-28667896D01*
X40155264Y-29125334D01*
X40169943Y-29867226D01*
X40187026Y-30472028D01*
X40208861Y-30971982D01*
X40237799Y-31399330D01*
X40276190Y-31786315D01*
X40326384Y-32165179D01*
X40390730Y-32568165D01*
X40417517Y-32723667D01*
X40496785Y-33204239D01*
X40563578Y-33660122D01*
X40612328Y-34049327D01*
X40637466Y-34329866D01*
X40639668Y-34398553D01*
X40565032Y-34950862D01*
X40345739Y-35423599D01*
X39990156Y-35802633D01*
X39698959Y-35987448D01*
X39392918Y-36144416D01*
X39347464Y-37439708D01*
X39293360Y-38276113D01*
X39185681Y-38987813D01*
X39010352Y-39614763D01*
X38753302Y-40196921D01*
X38400456Y-40774242D01*
X37972394Y-41343830D01*
X37752853Y-41634419D01*
X37574788Y-41903354D01*
X37467817Y-42104746D01*
X37453261Y-42148163D01*
X37379837Y-42370001D01*
X37264554Y-42641170D01*
X37229167Y-42714334D01*
X37119337Y-42872341D01*
X36904967Y-43128305D01*
X36604366Y-43463640D01*
X36235841Y-43859757D01*
X35817700Y-44298070D01*
X35368250Y-44759993D01*
X34905800Y-45226938D01*
X34448657Y-45680318D01*
X34015127Y-46101547D01*
X33623520Y-46472037D01*
X33292143Y-46773202D01*
X33039304Y-46986455D01*
X32968646Y-47039842D01*
X32269453Y-47476236D01*
X31551938Y-47803149D01*
X30861457Y-48000159D01*
X30818666Y-48007969D01*
X30460272Y-48075096D01*
X30024142Y-48162685D01*
X29597542Y-48253150D01*
X29548666Y-48263910D01*
X29181334Y-48331699D01*
X28705011Y-48400309D01*
X28179823Y-48461965D01*
X27665893Y-48508889D01*
X27638877Y-48510908D01*
X27125664Y-48547867D01*
X26742371Y-48571630D01*
X26450106Y-48582299D01*
X26209980Y-48579974D01*
X25983099Y-48564756D01*
X25730575Y-48536746D01*
X25569333Y-48516269D01*
X25230841Y-48454579D01*
X24902352Y-48350781D01*
X24552416Y-48189506D01*
X24149583Y-47955389D01*
X23662404Y-47633061D01*
X23428980Y-47470435D01*
X22601211Y-46867711D01*
X21780387Y-46232527D01*
X20986817Y-45582867D01*
X20240806Y-44936717D01*
X19562663Y-44312059D01*
X18972693Y-43726878D01*
X18491204Y-43199158D01*
X18212676Y-42850786D01*
X17741959Y-42145804D01*
X17387933Y-41450676D01*
X17130864Y-40715243D01*
X16951016Y-39889345D01*
X16892801Y-39496131D01*
X16822232Y-39023923D01*
X16745979Y-38695778D01*
X16649622Y-38486648D01*
X16518744Y-38371490D01*
X16338925Y-38325257D01*
X16215788Y-38320134D01*
X16045753Y-38300549D01*
X15877604Y-38226237D01*
X15673363Y-38073857D01*
X15491674Y-37908176D01*
X15786178Y-37908176D01*
X15824477Y-37963133D01*
X15964682Y-38046662D01*
X16196171Y-38112946D01*
X16269679Y-38124964D01*
X16516186Y-38174749D01*
X16696695Y-38265538D01*
X16827293Y-38424107D01*
X16924067Y-38677231D01*
X17003105Y-39051687D01*
X17062761Y-39444998D01*
X17154753Y-40036108D01*
X17255821Y-40513487D01*
X17382323Y-40932579D01*
X17550623Y-41348830D01*
X17743043Y-41750347D01*
X18125603Y-42394575D01*
X18647477Y-43079783D01*
X19312807Y-43810345D01*
X20125736Y-44590638D01*
X21090405Y-45425037D01*
X21657477Y-45885022D01*
X22430123Y-46492434D01*
X23091730Y-46995548D01*
X23656956Y-47403529D01*
X24140460Y-47725542D01*
X24556899Y-47970754D01*
X24920932Y-48148329D01*
X25247216Y-48267434D01*
X25550411Y-48337233D01*
X25588628Y-48343124D01*
X25854093Y-48379940D01*
X26079340Y-48403409D01*
X26301952Y-48413458D01*
X26559512Y-48410016D01*
X26889604Y-48393011D01*
X27329812Y-48362371D01*
X27638877Y-48339196D01*
X28097766Y-48300178D01*
X28520441Y-48256488D01*
X28865901Y-48212897D01*
X29093142Y-48174178D01*
X29125333Y-48166197D01*
X29332595Y-48117170D01*
X29656849Y-48050597D01*
X30048007Y-47976451D01*
X30335710Y-47925226D01*
X31233632Y-47711281D01*
X32035492Y-47388434D01*
X32789840Y-46935884D01*
X32996086Y-46785418D01*
X33218246Y-46600022D01*
X33525685Y-46318972D01*
X33899216Y-45961998D01*
X34319647Y-45548830D01*
X34767790Y-45099201D01*
X35224456Y-44632840D01*
X35670454Y-44169479D01*
X36086596Y-43728849D01*
X36453691Y-43330680D01*
X36752550Y-42994704D01*
X36963985Y-42740652D01*
X37057336Y-42609577D01*
X37174018Y-42380638D01*
X37233526Y-42202110D01*
X37234076Y-42148563D01*
X37179128Y-42161298D01*
X37068585Y-42294173D01*
X36933069Y-42507320D01*
X36792404Y-42709440D01*
X36555168Y-43005268D01*
X36244122Y-43368368D01*
X35882024Y-43772304D01*
X35491632Y-44190640D01*
X35414574Y-44271197D01*
X34163000Y-45574061D01*
X34156312Y-44017197D01*
X34148053Y-43449081D01*
X34129486Y-42872782D01*
X34102860Y-42336432D01*
X34070426Y-41888165D01*
X34045916Y-41656000D01*
X34003723Y-41278075D01*
X33958165Y-40785407D01*
X33913795Y-40232403D01*
X33875165Y-39673468D01*
X33862686Y-39466431D01*
X33820312Y-38821323D01*
X33772064Y-38319045D01*
X33711326Y-37933093D01*
X33631481Y-37636965D01*
X33525914Y-37404160D01*
X33388010Y-37208173D01*
X33265975Y-37075976D01*
X33118571Y-36941260D01*
X32959867Y-36830068D01*
X32774870Y-36741584D01*
X32548591Y-36674995D01*
X32266040Y-36629485D01*
X31912226Y-36604238D01*
X31472159Y-36598441D01*
X30930850Y-36611278D01*
X30273306Y-36641934D01*
X29484539Y-36689594D01*
X28549559Y-36753444D01*
X28024666Y-36791032D01*
X27151794Y-36860485D01*
X26428788Y-36933971D01*
X25836182Y-37016284D01*
X25354510Y-37112218D01*
X24964306Y-37226567D01*
X24646106Y-37364123D01*
X24380442Y-37529680D01*
X24147849Y-37728032D01*
X24123903Y-37751605D01*
X23866413Y-37989746D01*
X23605462Y-38202027D01*
X23444082Y-38313176D01*
X23211334Y-38511709D01*
X23071666Y-38743901D01*
X23047794Y-38913373D01*
X23033950Y-39225646D01*
X23029473Y-39654528D01*
X23033704Y-40173824D01*
X23045983Y-40757341D01*
X23065649Y-41378884D01*
X23092042Y-42012260D01*
X23124503Y-42631276D01*
X23162371Y-43209736D01*
X23194113Y-43603334D01*
X23243588Y-44050651D01*
X23319160Y-44601790D01*
X23411592Y-45194964D01*
X23511652Y-45768389D01*
X23540405Y-45920245D01*
X23625885Y-46374568D01*
X23695340Y-46767386D01*
X23744078Y-47070142D01*
X23767407Y-47254275D01*
X23766598Y-47296957D01*
X23694702Y-47255145D01*
X23511115Y-47119681D01*
X23234414Y-46905100D01*
X22883177Y-46625933D01*
X22475981Y-46296714D01*
X22211930Y-46080712D01*
X21725694Y-45682223D01*
X21234358Y-45281282D01*
X20769452Y-44903494D01*
X20362505Y-44574461D01*
X20045047Y-44319788D01*
X19970958Y-44260909D01*
X19227457Y-43591765D01*
X18572603Y-42841177D01*
X18031984Y-42042702D01*
X17631188Y-41229900D01*
X17601293Y-41153101D01*
X17470357Y-40732903D01*
X17341771Y-40182947D01*
X17221913Y-39542758D01*
X17117165Y-38851863D01*
X17033903Y-38149788D01*
X16978508Y-37476060D01*
X16965084Y-37211000D01*
X16941526Y-36709439D01*
X16912235Y-36334236D01*
X16870324Y-36042418D01*
X16808910Y-35791013D01*
X16721107Y-35537049D01*
X16680221Y-35433000D01*
X16489432Y-34893372D01*
X16332400Y-34298910D01*
X16201960Y-33615766D01*
X16090946Y-32810092D01*
X16052883Y-32469667D01*
X15936164Y-31369000D01*
X15928425Y-32258000D01*
X15945032Y-33060297D01*
X16014227Y-33738431D01*
X16142163Y-34331081D01*
X16334994Y-34876926D01*
X16351002Y-34914200D01*
X16464600Y-35193513D01*
X16544535Y-35448226D01*
X16599712Y-35724951D01*
X16639034Y-36070298D01*
X16671405Y-36530880D01*
X16676531Y-36618334D01*
X16702855Y-37041878D01*
X16729324Y-37410496D01*
X16753074Y-37687803D01*
X16771243Y-37837415D01*
X16773152Y-37846000D01*
X16727770Y-37941140D01*
X16563328Y-37995748D01*
X16326418Y-38004400D01*
X16063634Y-37961674D01*
X15985660Y-37937658D01*
X15820384Y-37887956D01*
X15786178Y-37908176D01*
X15491674Y-37908176D01*
X15395053Y-37820069D01*
X15382285Y-37807900D01*
X14845413Y-37295667D01*
X14817621Y-37211000D01*
X15070666Y-37211000D01*
X15113000Y-37253334D01*
X15155333Y-37211000D01*
X15113000Y-37168667D01*
X15070666Y-37211000D01*
X14817621Y-37211000D01*
X14403285Y-35948746D01*
X14216874Y-35362427D01*
X14016453Y-34701381D01*
X13823473Y-34038171D01*
X13659389Y-33445359D01*
X13627333Y-33324079D01*
X13496204Y-32810727D01*
X13404574Y-32410221D01*
X13345446Y-32072584D01*
X13311821Y-31747840D01*
X13296701Y-31386009D01*
X13293088Y-30937134D01*
X13294159Y-30861774D01*
X13462000Y-30861774D01*
X13467308Y-31378004D01*
X13488235Y-31787416D01*
X13532278Y-32152331D01*
X13606938Y-32535073D01*
X13718469Y-32993112D01*
X13854818Y-33505440D01*
X14009602Y-34054402D01*
X14175534Y-34617445D01*
X14345328Y-35172019D01*
X14511697Y-35695573D01*
X14667354Y-36165555D01*
X14805011Y-36559414D01*
X14917383Y-36854598D01*
X14997182Y-37028557D01*
X15033963Y-37064259D01*
X15019722Y-36977653D01*
X14961828Y-36754028D01*
X14867238Y-36417961D01*
X14742910Y-35994026D01*
X14595804Y-35506799D01*
X14558828Y-35386251D01*
X14380568Y-34796245D01*
X14199093Y-34177030D01*
X14028492Y-33577979D01*
X13882856Y-33048468D01*
X13788255Y-32686095D01*
X13675477Y-32219816D01*
X13602723Y-31859839D01*
X13563692Y-31549592D01*
X13552085Y-31232504D01*
X13558383Y-30980673D01*
X13681084Y-30980673D01*
X13683655Y-31378303D01*
X13698890Y-31704567D01*
X13734085Y-32006098D01*
X13796534Y-32329524D01*
X13893533Y-32721477D01*
X14032377Y-33228587D01*
X14033238Y-33231667D01*
X14336440Y-34297506D01*
X14605209Y-35202208D01*
X14841025Y-35950116D01*
X15045367Y-36545575D01*
X15219714Y-36992929D01*
X15365546Y-37296521D01*
X15467744Y-37444316D01*
X15807786Y-37718191D01*
X16193274Y-37888787D01*
X16474369Y-37930667D01*
X16617094Y-37918632D01*
X16666116Y-37850385D01*
X16645413Y-37677714D01*
X16632275Y-37613167D01*
X16602087Y-37388939D01*
X16575913Y-37051537D01*
X16557601Y-36657119D01*
X16552478Y-36449000D01*
X16539304Y-36027215D01*
X16508314Y-35713995D01*
X16447880Y-35448684D01*
X16346372Y-35170626D01*
X16275855Y-35006214D01*
X16129616Y-34637889D01*
X16016854Y-34258852D01*
X15932138Y-33836325D01*
X15870037Y-33337527D01*
X15825119Y-32729680D01*
X15796863Y-32115333D01*
X15779028Y-31675860D01*
X15761088Y-31293768D01*
X15751090Y-31115000D01*
X15849172Y-31115000D01*
X15858323Y-31259596D01*
X15884828Y-31272327D01*
X15888202Y-31264778D01*
X15904951Y-31096699D01*
X15891339Y-31010778D01*
X15864389Y-30976251D01*
X15849730Y-31088708D01*
X15849172Y-31115000D01*
X15751090Y-31115000D01*
X15744802Y-31002584D01*
X15731924Y-30835835D01*
X15728666Y-30813583D01*
X15771272Y-30696338D01*
X15806762Y-30675607D01*
X15881759Y-30702487D01*
X15950200Y-30848914D01*
X16014458Y-31126224D01*
X16076911Y-31545753D01*
X16139934Y-32118836D01*
X16165053Y-32385000D01*
X16254182Y-33215596D01*
X16360909Y-33912745D01*
X16492608Y-34512025D01*
X16656652Y-35049011D01*
X16787916Y-35390667D01*
X16898234Y-35668350D01*
X16973467Y-35904160D01*
X17020974Y-36143748D01*
X17048116Y-36432761D01*
X17062254Y-36816852D01*
X17067769Y-37126334D01*
X17096651Y-37746802D01*
X17161807Y-38432210D01*
X17256287Y-39138671D01*
X17373140Y-39822293D01*
X17505418Y-40439187D01*
X17646171Y-40945464D01*
X17694405Y-41083753D01*
X17936643Y-41618713D01*
X18275951Y-42209622D01*
X18680247Y-42802918D01*
X18879572Y-43062339D01*
X19053275Y-43250106D01*
X19336250Y-43521374D01*
X19704715Y-43854906D01*
X20134886Y-44229465D01*
X20602981Y-44623813D01*
X20911572Y-44876849D01*
X21398397Y-45271847D01*
X21871706Y-45656360D01*
X22305942Y-46009589D01*
X22675546Y-46310734D01*
X22954961Y-46538995D01*
X23071666Y-46634767D01*
X23312861Y-46823114D01*
X23499202Y-46949297D01*
X23598097Y-46991818D01*
X23605364Y-46986793D01*
X23599487Y-46883327D01*
X23565280Y-46646830D01*
X23508076Y-46310228D01*
X23433209Y-45906444D01*
X23415589Y-45815406D01*
X23312123Y-45261446D01*
X23227123Y-44745231D01*
X23157547Y-44235698D01*
X23100354Y-43701784D01*
X23052504Y-43112426D01*
X23010953Y-42436561D01*
X22972662Y-41643126D01*
X22947466Y-41034083D01*
X22920840Y-40305796D01*
X22906876Y-39726734D01*
X22908648Y-39277059D01*
X22929224Y-38936935D01*
X22971678Y-38686524D01*
X23039080Y-38505988D01*
X23134501Y-38375492D01*
X23261013Y-38275198D01*
X23385647Y-38203915D01*
X23602280Y-38058328D01*
X23858542Y-37841959D01*
X24013698Y-37689914D01*
X24234842Y-37493923D01*
X24510024Y-37321723D01*
X24851324Y-37171235D01*
X25270822Y-37040376D01*
X25780600Y-36927065D01*
X26392737Y-36829222D01*
X27119314Y-36744765D01*
X27972412Y-36671613D01*
X28964111Y-36607685D01*
X30106492Y-36550900D01*
X30790506Y-36522464D01*
X31456964Y-36502696D01*
X31981068Y-36505189D01*
X32388896Y-36534754D01*
X32706525Y-36596200D01*
X32960033Y-36694338D01*
X33175498Y-36833979D01*
X33354814Y-36995481D01*
X33523883Y-37188717D01*
X33655118Y-37405705D01*
X33755351Y-37673158D01*
X33831413Y-38017786D01*
X33890135Y-38466302D01*
X33938347Y-39045417D01*
X33958438Y-39355799D01*
X33998192Y-39941870D01*
X34048803Y-40590835D01*
X34104127Y-41228576D01*
X34158018Y-41780974D01*
X34164619Y-41842843D01*
X34215687Y-42408780D01*
X34257557Y-43049000D01*
X34285373Y-43677901D01*
X34294303Y-44128843D01*
X34298607Y-45254334D01*
X35441546Y-44069000D01*
X36011481Y-43459026D01*
X36464121Y-42933574D01*
X36793169Y-42500183D01*
X36926623Y-42291000D01*
X37117685Y-41973451D01*
X37130981Y-41952334D01*
X37253333Y-41952334D01*
X37295666Y-41994667D01*
X37338000Y-41952334D01*
X37295666Y-41910000D01*
X37253333Y-41952334D01*
X37130981Y-41952334D01*
X37369719Y-41573187D01*
X37564052Y-41273944D01*
X37734576Y-41273944D01*
X37761056Y-41278654D01*
X37765276Y-41275000D01*
X37904159Y-41121993D01*
X38093854Y-40874882D01*
X38296249Y-40583672D01*
X38321348Y-40545425D01*
X38536741Y-40170932D01*
X38749792Y-39728969D01*
X38913440Y-39317758D01*
X39004609Y-39030294D01*
X39070326Y-38761933D01*
X39116128Y-38471568D01*
X39147553Y-38118094D01*
X39170139Y-37660405D01*
X39181450Y-37328443D01*
X39222325Y-36006553D01*
X39584317Y-35830684D01*
X39984199Y-35557603D01*
X40273029Y-35195760D01*
X40424455Y-34780292D01*
X40435793Y-34695336D01*
X40450137Y-34494461D01*
X40437623Y-34450675D01*
X40398664Y-34544548D01*
X40169705Y-35047548D01*
X39853780Y-35430675D01*
X39684462Y-35568174D01*
X39327666Y-35827009D01*
X39274805Y-34614005D01*
X39254193Y-34085198D01*
X39233360Y-33453665D01*
X39214293Y-32785997D01*
X39198979Y-32148788D01*
X39194387Y-31919334D01*
X39188173Y-31711757D01*
X39180529Y-31664239D01*
X39171731Y-31767513D01*
X39162056Y-32012314D01*
X39151782Y-32389374D01*
X39141184Y-32889428D01*
X39130540Y-33503210D01*
X39120127Y-34221454D01*
X39115988Y-34544000D01*
X39103451Y-35549381D01*
X39090910Y-36402383D01*
X39075588Y-37119937D01*
X39054706Y-37718975D01*
X39025486Y-38216428D01*
X38985151Y-38629227D01*
X38930922Y-38974305D01*
X38860022Y-39268592D01*
X38769673Y-39529019D01*
X38657097Y-39772520D01*
X38519516Y-40016023D01*
X38354152Y-40276462D01*
X38158227Y-40570768D01*
X38117103Y-40632232D01*
X37923670Y-40930507D01*
X37792471Y-41151153D01*
X37734576Y-41273944D01*
X37564052Y-41273944D01*
X37646874Y-41146413D01*
X37862158Y-40824317D01*
X38217109Y-40284380D01*
X38480801Y-39829620D01*
X38669151Y-39414116D01*
X38798074Y-38991944D01*
X38883488Y-38517183D01*
X38941310Y-37943911D01*
X38961939Y-37651284D01*
X38979482Y-37278392D01*
X38993921Y-36763984D01*
X39004974Y-36135857D01*
X39012359Y-35421803D01*
X39015793Y-34649619D01*
X39014995Y-33847099D01*
X39009681Y-33042038D01*
X39009216Y-32994618D01*
X38999019Y-32090505D01*
X38987574Y-31336717D01*
X38974048Y-30714243D01*
X38957609Y-30204076D01*
X38937424Y-29787207D01*
X38912661Y-29444626D01*
X38882488Y-29157326D01*
X38846072Y-28906296D01*
X38824931Y-28786667D01*
X38715581Y-28289683D01*
X38601295Y-27959821D01*
X38476927Y-27794869D01*
X38337333Y-27792617D01*
X38177367Y-27950852D01*
X37991884Y-28267363D01*
X37926805Y-28400647D01*
X37711912Y-28790811D01*
X37461065Y-29096776D01*
X37136748Y-29351479D01*
X36701442Y-29587854D01*
X36441197Y-29704845D01*
X35704484Y-29984170D01*
X34937978Y-30195951D01*
X34110881Y-30345304D01*
X33192395Y-30437346D01*
X32151724Y-30477194D01*
X31776678Y-30479762D01*
X31307595Y-30474005D01*
X30881736Y-30458006D01*
X30535822Y-30433934D01*
X30306572Y-30403960D01*
X30252678Y-30389673D01*
X30101761Y-30296754D01*
X29864474Y-30109425D01*
X29572735Y-29854439D01*
X29258464Y-29558552D01*
X29242571Y-29543007D01*
X28937579Y-29254956D01*
X28662909Y-29015384D01*
X28446965Y-28847734D01*
X28318151Y-28775446D01*
X28311238Y-28774371D01*
X28167033Y-28767931D01*
X27893101Y-28759535D01*
X27529017Y-28750280D01*
X27122729Y-28741430D01*
X26093792Y-28720785D01*
X25778498Y-29621559D01*
X25618051Y-30069865D01*
X25495552Y-30380756D01*
X25397940Y-30578284D01*
X25312155Y-30686503D01*
X25225134Y-30729464D01*
X25174435Y-30734000D01*
X25041397Y-30768163D01*
X24806455Y-30857871D01*
X24519667Y-30983956D01*
X24510320Y-30988318D01*
X24192208Y-31130867D01*
X23895862Y-31245614D01*
X23597049Y-31335997D01*
X23271532Y-31405452D01*
X22895076Y-31457416D01*
X22443447Y-31495325D01*
X21892407Y-31522617D01*
X21217723Y-31542727D01*
X20497935Y-31557294D01*
X19620464Y-31568993D01*
X18911355Y-31569961D01*
X18369976Y-31560186D01*
X17995695Y-31539656D01*
X17787882Y-31508361D01*
X17786437Y-31507932D01*
X17543341Y-31381571D01*
X17216293Y-31121476D01*
X16800733Y-30723995D01*
X16771183Y-30693961D01*
X16419776Y-30348486D01*
X16157437Y-30121993D01*
X15967382Y-30001290D01*
X15852671Y-29972000D01*
X15680684Y-29937916D01*
X15406510Y-29847168D01*
X15080311Y-29717010D01*
X14969179Y-29668072D01*
X14559831Y-29501496D01*
X14245890Y-29426412D01*
X14015200Y-29455209D01*
X13855604Y-29600273D01*
X13754947Y-29873992D01*
X13701072Y-30288753D01*
X13681823Y-30856944D01*
X13681084Y-30980673D01*
X13558383Y-30980673D01*
X13561602Y-30852003D01*
X13568038Y-30708511D01*
X13613662Y-30141094D01*
X13698450Y-29730454D01*
X13836613Y-29465886D01*
X14042363Y-29336681D01*
X14329909Y-29332133D01*
X14713465Y-29441536D01*
X15058553Y-29585531D01*
X15387647Y-29724179D01*
X15678959Y-29829244D01*
X15883186Y-29883509D01*
X15922727Y-29887334D01*
X16083473Y-29949187D01*
X16338676Y-30136824D01*
X16692320Y-30453359D01*
X16887964Y-30641944D01*
X17242741Y-30980696D01*
X17511810Y-31212865D01*
X17721962Y-31358423D01*
X17899994Y-31437345D01*
X17981917Y-31457424D01*
X18153705Y-31472180D01*
X18468060Y-31481982D01*
X18898283Y-31486687D01*
X19417674Y-31486155D01*
X19999536Y-31480241D01*
X20519690Y-31470954D01*
X21329721Y-31450167D01*
X21995302Y-31423512D01*
X22541304Y-31387406D01*
X22992594Y-31338263D01*
X23374042Y-31272501D01*
X23710516Y-31186534D01*
X24026885Y-31076780D01*
X24348019Y-30939654D01*
X24412074Y-30910000D01*
X24702926Y-30781380D01*
X24943560Y-30688251D01*
X25084824Y-30649519D01*
X25089769Y-30649334D01*
X25182284Y-30631230D01*
X25266762Y-30560942D01*
X25356177Y-30414501D01*
X25463507Y-30167941D01*
X25601727Y-29797293D01*
X25697143Y-29527500D01*
X26015750Y-28617334D01*
X27099363Y-28617334D01*
X27533232Y-28624180D01*
X27925037Y-28642849D01*
X28233118Y-28670534D01*
X28415815Y-28704428D01*
X28421321Y-28706388D01*
X28575012Y-28800201D01*
X28812689Y-28987844D01*
X29100774Y-29241279D01*
X29379333Y-29506334D01*
X29684116Y-29795348D01*
X29969148Y-30044171D01*
X30200850Y-30224762D01*
X30337345Y-30306279D01*
X30543739Y-30347343D01*
X30885279Y-30375182D01*
X31328296Y-30389797D01*
X31839119Y-30391184D01*
X32384078Y-30379343D01*
X32929503Y-30354272D01*
X33441725Y-30315970D01*
X33540195Y-30306421D01*
X34590166Y-30155218D01*
X35540261Y-29919444D01*
X36436619Y-29589057D01*
X36947677Y-29338623D01*
X37327520Y-29070760D01*
X37613447Y-28751398D01*
X37842758Y-28346470D01*
X37875004Y-28275278D01*
X38046583Y-27922788D01*
X38193949Y-27717162D01*
X38337581Y-27641932D01*
X38497957Y-27680633D01*
X38565242Y-27720270D01*
X38718250Y-27851577D01*
X38780360Y-27963119D01*
X38795876Y-28085540D01*
X38835434Y-28334873D01*
X38892549Y-28671471D01*
X38942766Y-28956000D01*
X39102145Y-29845000D01*
X39106307Y-29423680D01*
X39212422Y-29423680D01*
X39231172Y-29685916D01*
X39245258Y-29894439D01*
X39261399Y-30246884D01*
X39278759Y-30717863D01*
X39296505Y-31281989D01*
X39313802Y-31913875D01*
X39329817Y-32588134D01*
X39335837Y-32871834D01*
X39353240Y-33651621D01*
X39370735Y-34276058D01*
X39389170Y-34759126D01*
X39409390Y-35114806D01*
X39432242Y-35357080D01*
X39458575Y-35499929D01*
X39489233Y-35557334D01*
X39498648Y-35560000D01*
X39614281Y-35500737D01*
X39785001Y-35350395D01*
X39874900Y-35254261D01*
X40055248Y-35024213D01*
X40191835Y-34806662D01*
X40222338Y-34740749D01*
X40288351Y-34417732D01*
X40292823Y-34011450D01*
X40238439Y-33595322D01*
X40171519Y-33350692D01*
X40094588Y-33088725D01*
X40008668Y-32728940D01*
X39930115Y-32340945D01*
X39916881Y-32266965D01*
X39854750Y-31936988D01*
X39796820Y-31674964D01*
X39752669Y-31522683D01*
X39741639Y-31502418D01*
X39722381Y-31557834D01*
X39713465Y-31747296D01*
X39715938Y-32035773D01*
X39721110Y-32190181D01*
X39731407Y-32551863D01*
X39723401Y-32777921D01*
X39692385Y-32901521D01*
X39633651Y-32955825D01*
X39611384Y-32963186D01*
X39536181Y-32962116D01*
X39477996Y-32903034D01*
X39434768Y-32768305D01*
X39404435Y-32540292D01*
X39384937Y-32201362D01*
X39374213Y-31733878D01*
X39370202Y-31120205D01*
X39370000Y-30897747D01*
X39365249Y-30246170D01*
X39350858Y-29760021D01*
X39326619Y-29435657D01*
X39292324Y-29269433D01*
X39275753Y-29246413D01*
X39225149Y-29266534D01*
X39212422Y-29423680D01*
X39106307Y-29423680D01*
X39109072Y-29143781D01*
X39091927Y-28652054D01*
X39071454Y-28521244D01*
X39305118Y-28521244D01*
X39320411Y-28715555D01*
X39321930Y-28723167D01*
X39344165Y-28896142D01*
X39371134Y-29204805D01*
X39400415Y-29615661D01*
X39429585Y-30095214D01*
X39452022Y-30522334D01*
X39486685Y-31227740D01*
X39514455Y-31769744D01*
X39536366Y-32154087D01*
X39553456Y-32386515D01*
X39566757Y-32472770D01*
X39577307Y-32418598D01*
X39586140Y-32229742D01*
X39594292Y-31911945D01*
X39602797Y-31470953D01*
X39604622Y-31369000D01*
X39608197Y-30798465D01*
X39599944Y-30236496D01*
X39581284Y-29728108D01*
X39578022Y-29679747D01*
X39895419Y-29679747D01*
X39901153Y-30298154D01*
X39912171Y-30864875D01*
X39927728Y-31348895D01*
X39947080Y-31719202D01*
X39964627Y-31911449D01*
X40015398Y-32237434D01*
X40083430Y-32587847D01*
X40159739Y-32926186D01*
X40235342Y-33215944D01*
X40301255Y-33420618D01*
X40348497Y-33503703D01*
X40355936Y-33501620D01*
X40353733Y-33411288D01*
X40324983Y-33187875D01*
X40274527Y-32864699D01*
X40207206Y-32475078D01*
X40204875Y-32462146D01*
X40142891Y-32081947D01*
X40092815Y-31682470D01*
X40052586Y-31234988D01*
X40020142Y-30710775D01*
X39993423Y-30081103D01*
X39970368Y-29317247D01*
X39965509Y-29125334D01*
X39908199Y-26797000D01*
X39895713Y-29040667D01*
X39895419Y-29679747D01*
X39578022Y-29679747D01*
X39553638Y-29318315D01*
X39534459Y-29146500D01*
X39480518Y-28827442D01*
X39421411Y-28584876D01*
X39367372Y-28457899D01*
X39351645Y-28448000D01*
X39305118Y-28521244D01*
X39071454Y-28521244D01*
X39032675Y-28273485D01*
X38989000Y-28138608D01*
X38903569Y-27875525D01*
X38862615Y-27634172D01*
X38862000Y-27610648D01*
X38946666Y-27610648D01*
X38987275Y-27844843D01*
X39088631Y-28085359D01*
X39220034Y-28276517D01*
X39350779Y-28362637D01*
X39361713Y-28363334D01*
X39435906Y-28370741D01*
X39490114Y-28412495D01*
X39534202Y-28517890D01*
X39578035Y-28716223D01*
X39631475Y-29036789D01*
X39668181Y-29273500D01*
X39709156Y-29492599D01*
X39747055Y-29620121D01*
X39758442Y-29633334D01*
X39770053Y-29553319D01*
X39780029Y-29331878D01*
X39787670Y-28996917D01*
X39792281Y-28576339D01*
X39793333Y-28236334D01*
X39793333Y-26839334D01*
X39584718Y-26839334D01*
X39409136Y-26909493D01*
X39216465Y-27084634D01*
X39050554Y-27311749D01*
X38955252Y-27537830D01*
X38946666Y-27610648D01*
X38862000Y-27610648D01*
X38922290Y-27344776D01*
X39075694Y-27073711D01*
X39281010Y-26852628D01*
X39497033Y-26736702D01*
X39517343Y-26733058D01*
X39646390Y-26709280D01*
X39637097Y-26684807D01*
X39476667Y-26647725D01*
X39412333Y-26635257D01*
X39073666Y-26570471D01*
X39072372Y-24778735D01*
X39064208Y-23965059D01*
X39035512Y-23281159D01*
X38978052Y-22687926D01*
X38883593Y-22146252D01*
X38743900Y-21617025D01*
X38550741Y-21061138D01*
X38295880Y-20439481D01*
X38035587Y-19854334D01*
X37808656Y-19351075D01*
X37556852Y-18786183D01*
X37314899Y-18237845D01*
X37159773Y-17882153D01*
X36966272Y-17454665D01*
X36760635Y-17032447D01*
X36569748Y-16669110D01*
X36442166Y-16451274D01*
X36276021Y-16230134D01*
X36005650Y-15915429D01*
X35651787Y-15527865D01*
X35235171Y-15088147D01*
X34776537Y-14616983D01*
X34296622Y-14135077D01*
X33816162Y-13663136D01*
X33355893Y-13221867D01*
X32936552Y-12831974D01*
X32578875Y-12514166D01*
X32303599Y-12289146D01*
X32201252Y-12216549D01*
X31941069Y-12057326D01*
X31674381Y-11916526D01*
X31372538Y-11782952D01*
X31006892Y-11645408D01*
X30548793Y-11492699D01*
X29969591Y-11313627D01*
X29633333Y-11212996D01*
X29040082Y-11050029D01*
X28506749Y-10937950D01*
X27986669Y-10872639D01*
X27433172Y-10849978D01*
X26799591Y-10865850D01*
X26162000Y-10906653D01*
X25618548Y-10956403D01*
X25140629Y-11023623D01*
X24690544Y-11118884D01*
X24230594Y-11252753D01*
X23723080Y-11435800D01*
X23130305Y-11678594D01*
X22625485Y-11898129D01*
X22185291Y-12098046D01*
X21819566Y-12280876D01*
X21487664Y-12471805D01*
X21148939Y-12696023D01*
X20762747Y-12978717D01*
X20288442Y-13345077D01*
X20280245Y-13351499D01*
X19538243Y-13959686D01*
X18930864Y-14515331D01*
X18469848Y-15007147D01*
X18133963Y-15385417D01*
X17743139Y-15795005D01*
X17363885Y-16167065D01*
X17232447Y-16288052D01*
X16654256Y-16850445D01*
X16206852Y-17379658D01*
X15900227Y-17863069D01*
X15795779Y-18103232D01*
X15658205Y-18401169D01*
X15470580Y-18704023D01*
X15416766Y-18775353D01*
X15185803Y-19089114D01*
X15015830Y-19392844D01*
X14896879Y-19722642D01*
X14818980Y-20114608D01*
X14772164Y-20604841D01*
X14747254Y-21199781D01*
X14740670Y-21645316D01*
X14741505Y-22190094D01*
X14748940Y-22811640D01*
X14762161Y-23487481D01*
X14780350Y-24195142D01*
X14802690Y-24912151D01*
X14828364Y-25616032D01*
X14856557Y-26284312D01*
X14886451Y-26894516D01*
X14917229Y-27424172D01*
X14948076Y-27850805D01*
X14978173Y-28151941D01*
X15005324Y-28301295D01*
X15116666Y-28560769D01*
X15265828Y-28837138D01*
X15286988Y-28871334D01*
X15394270Y-29078092D01*
X15484930Y-29315106D01*
X15544557Y-29532769D01*
X15558742Y-29681476D01*
X15532934Y-29718000D01*
X15442978Y-29679579D01*
X15250976Y-29579706D01*
X15041371Y-29464000D01*
X14581318Y-29258784D01*
X14193718Y-29204758D01*
X13874729Y-29301940D01*
X13681192Y-29470496D01*
X13592490Y-29583476D01*
X13531642Y-29696499D01*
X13493411Y-29842828D01*
X13472554Y-30055723D01*
X13463832Y-30368448D01*
X13462005Y-30814263D01*
X13462000Y-30861774D01*
X13294159Y-30861774D01*
X13301285Y-30360452D01*
X13330034Y-29927227D01*
X13384820Y-29612254D01*
X13471130Y-29390328D01*
X13594450Y-29236246D01*
X13677022Y-29173253D01*
X13964333Y-29068511D01*
X14333482Y-29047967D01*
X14720482Y-29109745D01*
X14989372Y-29211721D01*
X15189416Y-29304762D01*
X15309344Y-29343143D01*
X15324666Y-29337438D01*
X15286139Y-29245689D01*
X15185652Y-29051252D01*
X15060006Y-28823149D01*
X14946891Y-28609310D01*
X14866921Y-28410463D01*
X14810845Y-28184841D01*
X14769411Y-27890679D01*
X14733369Y-27486210D01*
X14718036Y-27279265D01*
X14699477Y-26940023D01*
X14681503Y-26459310D01*
X14664737Y-25864986D01*
X14649803Y-25184914D01*
X14637326Y-24446955D01*
X14627929Y-23678972D01*
X14622863Y-23029334D01*
X14618505Y-22211968D01*
X14616122Y-21545855D01*
X14616581Y-21012919D01*
X14620745Y-20595084D01*
X14629481Y-20274272D01*
X14643654Y-20032407D01*
X14664127Y-19851413D01*
X14691767Y-19713213D01*
X14727439Y-19599730D01*
X14772007Y-19492889D01*
X14794454Y-19443768D01*
X14962408Y-19124147D01*
X15172095Y-18782176D01*
X15270572Y-18639435D01*
X15442588Y-18381901D01*
X15575428Y-18144897D01*
X15622057Y-18034000D01*
X15798607Y-17652210D01*
X16110118Y-17202950D01*
X16544235Y-16702251D01*
X16993293Y-16254872D01*
X17363167Y-15894836D01*
X17754560Y-15494151D01*
X18112930Y-15109557D01*
X18316757Y-14878152D01*
X18736531Y-14429874D01*
X19285374Y-13922430D01*
X19969932Y-13350064D01*
X20796849Y-12707021D01*
X20997333Y-12556393D01*
X21277101Y-12376502D01*
X21679353Y-12156342D01*
X22167219Y-11912911D01*
X22703824Y-11663205D01*
X23252299Y-11424221D01*
X23775770Y-11212955D01*
X24237365Y-11046403D01*
X24354643Y-11008815D01*
X24752384Y-10913849D01*
X25280442Y-10829056D01*
X25899913Y-10758438D01*
X26571891Y-10705999D01*
X27257473Y-10675740D01*
X27648873Y-10669921D01*
X27955648Y-10678108D01*
G04 #@! TD*
M02*
