M48
;DRILL file {KiCad 5.0.0-fee4fd1~66~ubuntu16.04.1} date Tue Nov  6 10:20:44 2018
;FORMAT={-:-/ absolute / inch / decimal}
FMAT,2
INCH,TZ
T1C0.0157
T2C0.0394
T3C0.0400
%
G90
G05
M72
T1
X5.33Y-2.99
X5.3602Y-3.6949
X5.44Y-2.93
X5.44Y-3.7
X5.46Y-3.32
X5.4823Y-3.8445
X5.5Y-3.31
X5.52Y-2.44
X5.5453Y-3.1004
X5.5523Y-2.6886
X5.56Y-2.59
X5.5906Y-3.4843
X5.62Y-2.62
X5.62Y-2.86
X5.6228Y-3.1209
X5.64Y-2.57
X5.64Y-3.02
X5.6594Y-3.2677
X5.6634Y-2.8091
X5.68Y-3.69
X5.69Y-2.5906
X5.69Y-2.89
X5.69Y-3.85
X5.6988Y-3.4843
X5.7Y-2.43
X5.7Y-2.6348
X5.7Y-3.08
X5.71Y-2.83
X5.71Y-3.39
X5.71Y-3.43
X5.7194Y-3.6888
X5.73Y-3.05
X5.73Y-3.818
X5.76Y-3.7
X5.79Y-3.09
X5.7994Y-3.7
X5.81Y-3.45
X5.81Y-3.5
X5.819Y-3.83
X5.8323Y-3.6785
X5.86Y-3.65
X5.9Y-3.85
X5.9025Y-2.9409
X5.9311Y-2.8701
X5.9328Y-3.8282
X5.9488Y-2.7224
X5.95Y-2.37
X5.9508Y-2.4587
X5.9508Y-2.5177
X5.9626Y-3.4606
X5.9646Y-2.939
X5.97Y-3.81
X5.9783Y-2.8878
X5.98Y-3.03
X5.98Y-3.35
X6.Y-2.51
X6.Y-3.78
X6.065Y-2.6594
X6.128Y-3.8425
X6.16Y-3.19
X6.19Y-3.36
X6.2Y-2.39
X6.22Y-3.04
X6.25Y-2.46
X6.28Y-3.19
X6.2854Y-3.3642
X6.2896Y-3.3196
X6.3Y-2.51
X6.3189Y-2.9055
X6.3465Y-2.8366
X6.3661Y-2.8878
X6.37Y-3.24
X6.378Y-3.3268
X6.38Y-2.96
X6.39Y-3.4
X6.4075Y-2.8622
X6.4088Y-2.6949
X6.4154Y-2.7677
X6.42Y-3.19
X6.4488Y-2.8091
X6.4705Y-2.437
X6.5039Y-2.8622
X6.5157Y-2.6811
X6.5217Y-3.2106
X6.565Y-3.3031
X6.5886Y-2.7736
X6.61Y-3.4
X6.6201Y-3.0669
X6.6437Y-2.9823
X6.6772Y-3.8622
X6.73Y-3.4
X6.7756Y-3.7402
X6.8406Y-2.9606
X6.86Y-2.4
X6.95Y-3.34
X6.9517Y-3.5512
X6.96Y-4.07
X6.9803Y-3.6004
X7.Y-2.88
X7.0472Y-3.2421
X7.05Y-3.12
X7.0512Y-3.5906
X7.063Y-3.8504
X7.1181Y-3.8819
X7.13Y-3.14
X7.13Y-3.31
X7.1339Y-3.5079
X7.1516Y-3.748
X7.1634Y-3.5965
X7.22Y-3.22
X7.23Y-3.28
X7.2323Y-3.5295
X7.2343Y-2.811
X7.2343Y-3.4094
X7.247Y-2.77
X7.27Y-3.13
X7.29Y-3.04
X7.41Y-3.24
X7.51Y-3.26
X7.5157Y-2.813
T2
X5.927Y-3.674
X5.927Y-3.974
X6.027Y-3.674
X6.027Y-3.974
X6.127Y-3.674
X6.127Y-3.974
X6.227Y-3.674
X6.227Y-3.974
X6.327Y-3.674
X6.327Y-3.974
X6.427Y-3.674
X6.427Y-3.974
X6.527Y-3.674
X6.527Y-3.974
X6.627Y-3.674
X6.627Y-3.974
X6.727Y-3.674
X6.727Y-3.974
X6.827Y-3.674
X6.827Y-3.974
X6.927Y-3.674
X6.927Y-3.974
X7.027Y-3.674
X7.027Y-3.974
X7.127Y-3.674
X7.127Y-3.974
X7.227Y-3.674
X7.227Y-3.974
T3
X5.285Y-2.54
X5.285Y-2.64
X5.285Y-2.74
X5.285Y-2.84
X5.285Y-2.94
X5.285Y-3.04
X5.285Y-3.14
X5.285Y-3.24
X5.285Y-3.34
X5.285Y-3.44
X5.385Y-2.54
X5.385Y-2.64
X5.385Y-2.74
X5.385Y-2.84
X5.385Y-2.94
X5.385Y-3.04
X5.385Y-3.14
X5.385Y-3.24
X5.385Y-3.34
X5.385Y-3.44
X7.326Y-3.321
X7.326Y-3.421
X7.326Y-3.521
X7.426Y-3.321
X7.426Y-3.421
X7.426Y-3.521
X7.186Y-2.431
X7.186Y-2.531
X7.286Y-2.431
X7.286Y-2.531
X7.386Y-2.431
X7.386Y-2.531
T0
M30
